<svg width="1057" height="188" viewBox="0 0 1057 188" fill="none" xmlns="http://www.w3.org/2000/svg">
<path d="M251.2 35.7969V172.297H224.5V35.7969H251.2Z" stroke="url(#paint0_linear_15342_187013)"/>
<path d="M313 68.8984C319.329 68.8984 325.207 69.7709 330.642 71.6719L331.723 72.0664L331.729 72.0684C337.103 74.0138 341.956 77.0014 346.126 80.8701L346.95 81.6562L347.047 81.752L347.051 81.7559C351.392 85.9983 354.854 91.4339 357.332 97.875V97.876C359.805 104.406 361 111.943 361 120.799V128.099H290.381L290.4 128.617C290.602 133.969 291.613 138.44 293.45 142.217L293.453 142.222C295.491 146.298 298.357 149.479 302.058 151.535C305.743 153.583 310.03 154.599 314.9 154.599C318.25 154.599 321.306 154.091 323.964 153.171L323.963 153.17C326.735 152.245 328.997 150.806 330.944 148.961C332.814 147.19 334.204 144.96 335.213 142.465L359.355 146.986C357.658 152.296 354.854 157.047 350.938 161.153C346.898 165.391 341.764 168.653 335.626 170.93C329.494 173.204 322.456 174.299 314.4 174.299C303.975 174.299 294.959 172.015 287.441 167.86C280.167 163.84 274.467 157.966 270.43 150.496L270.044 149.769C266.087 141.951 264 132.632 264 121.799C264 110.962 265.988 101.943 270.045 94.0264L270.046 94.0244C274.005 86.2058 279.741 79.9759 287.06 75.5254C294.368 71.0813 303.074 68.8984 313 68.8984ZM313.1 88.6982C308.32 88.6983 304.122 89.8183 300.628 92.0791C297.142 94.3348 294.581 97.4118 292.844 101.294L292.838 101.308C291.644 104.193 290.74 107.285 290.419 110.771L289.593 111.599H335.145L335.099 111.056C334.794 107.504 333.981 104.357 332.865 101.516L332.864 101.513L332.547 100.757C330.904 97.0378 328.458 94.2 325.383 92.0859L325.377 92.082C321.981 89.818 317.879 88.6982 313.1 88.6982Z" stroke="url(#paint1_linear_15342_187013)"/>
<mask id="path-3-inside-1_15342_187013" fill="white">
<path d="M372.702 172.895V172.695H372.602L372.702 172.895Z"/>
</mask>
<path d="M372.702 172.895L371.807 173.343L373.702 172.895H372.702ZM372.702 172.695H373.702V171.695H372.702V172.695ZM372.602 172.695V171.695H370.983L371.707 173.143L372.602 172.695ZM372.702 172.895H373.702V172.695H372.702H371.702V172.895H372.702ZM372.702 172.695V171.695H372.602V172.695V173.695H372.702V172.695ZM372.602 172.695L371.707 173.143L371.807 173.343L372.702 172.895L373.596 172.448L373.496 172.248L372.602 172.695Z" fill="url(#paint2_linear_15342_187013)" mask="url(#path-3-inside-1_15342_187013)"/>
<path d="M488.604 68.5938C494.807 68.5938 500.301 69.8684 505.2 72.5977L505.297 72.6943L505.355 72.7275C510.171 75.4791 514.006 79.4102 516.864 84.5332V84.5342C519.715 89.7437 521.103 95.9561 521.104 103.394V172.494H494.403V108.693C494.403 102.808 492.778 98.2448 489.433 95.3174C486.128 92.4255 480.905 90.8936 477.403 90.8936C473.933 90.8936 470.843 91.6092 468.153 93.1611C465.462 94.7138 463.499 96.8885 462.06 99.6641C460.616 102.448 459.903 105.73 459.903 109.394V172.394H434.104V107.794C434.104 102.687 432.567 98.5508 429.457 95.4404C426.352 92.3351 422.318 90.7939 417.503 90.7939C414.233 90.794 411.146 91.5087 408.46 93.0566C405.663 94.6104 403.6 96.8872 402.062 99.7578L402.059 99.7637C400.512 102.754 399.803 106.339 399.803 110.494V172.394H373.203V70.2939H397.93L399.004 89.9209L399.973 90.0664C401.357 86.309 403.133 83.0516 405.202 80.293C408.255 76.2554 411.791 73.4117 415.909 71.5488C418.031 70.589 419.432 69.889 421.23 69.415C423.021 68.9432 425.223 68.6934 428.903 68.6934C436.19 68.6934 442.054 70.9543 446.546 75.5439V75.543C450.069 79.1646 452.838 84.4815 454.925 91.3389L455.354 92.749L455.871 91.3691C457.355 87.411 459.231 83.9607 461.591 81.0098C465.045 76.7657 469.081 73.6197 473.796 71.6553C478.549 69.6749 482.383 68.5938 488.604 68.5938Z" stroke="url(#paint3_linear_15342_187013)"/>
<path d="M583.797 68.7969C594.022 68.7969 603.033 71.0796 610.444 75.4277C617.859 79.7779 623.594 85.9068 627.652 93.8252C631.709 101.741 633.697 110.96 633.697 121.597C633.697 132.232 631.71 141.252 627.652 149.169C623.596 157.085 617.861 163.116 610.439 167.568C603.033 172.012 594.126 174.197 583.797 174.197C573.469 174.197 564.661 172.013 557.151 167.566L557.147 167.564L556.448 167.151C549.277 162.83 543.773 156.84 539.842 149.169L539.841 149.167L539.467 148.43C535.663 140.774 533.797 131.805 533.797 121.597C533.797 111.06 535.785 101.742 539.841 93.8271C543.9 86.0053 549.636 79.7785 557.147 75.4297L557.151 75.4268C564.66 70.9806 573.569 68.7969 583.797 68.7969ZM583.697 89.4971C578.696 89.4971 574.48 90.9285 571.08 93.71C567.694 96.48 565.249 100.264 563.526 105.127C561.802 109.895 560.997 115.355 560.997 121.497C560.997 127.642 561.803 132.9 563.525 137.764C565.152 142.639 567.7 146.416 571.073 149.278C574.48 152.169 578.602 153.497 583.697 153.497C588.797 153.497 593.013 152.066 596.413 149.284L596.42 149.278C599.795 146.414 602.343 142.636 604.068 137.764C605.791 132.9 606.597 127.542 606.597 121.497C606.597 115.455 605.792 109.895 604.067 105.127C602.344 100.362 599.798 96.4797 596.414 93.7109H596.415C592.911 90.8251 588.692 89.4971 583.697 89.4971Z" stroke="url(#paint4_linear_15342_187013)"/>
<path d="M704.599 68.7969C710.866 68.7969 716.404 69.9779 721.297 72.3965H721.223L722.85 73.3301C728.157 76.377 732.191 80.801 735.051 86.5205C737.91 92.2382 739.398 99.0586 739.398 107.097V172.197H712.698V111.896C712.698 105.516 711.077 100.279 707.667 96.5586C704.254 92.8352 699.508 90.9971 693.599 90.9971C689.626 90.9971 686.141 91.813 682.958 93.5586C679.767 95.3085 677.4 97.7821 675.657 101.062H675.656L675.651 101.073C674.012 104.353 673.099 108.332 673.099 112.997V172.197H646.398V69.9971H671.507L671.898 90.9062L672.86 91.0889C675.535 84.6507 679.091 79.5208 683.52 75.6807C688.906 71.1757 697.581 68.7969 704.599 68.7969Z" stroke="url(#paint5_linear_15342_187013)"/>
<path d="M798.401 68.7969C803.859 68.7969 809.218 69.4918 814.38 70.7822H814.383C819.633 72.0701 824.276 74.0483 828.319 76.8096L828.447 76.8965H828.553C832.618 79.5401 835.822 83.1455 838.162 87.4355V87.4365L838.167 87.4443C840.613 91.7503 841.802 97.0597 841.802 103.197V172.197H816.602V157.896H814.901L814.76 158.162C813.088 161.309 810.926 164.059 808.176 166.417C805.426 168.774 802.18 170.645 798.333 172.026C794.492 173.405 790.049 174.197 785.002 174.197C778.465 174.197 772.734 173.008 767.604 170.739C762.487 168.476 758.464 165.138 755.521 160.624L755.518 160.619C752.59 156.227 751.102 149.435 751.102 143.797C751.102 138.165 752.188 133.453 754.237 129.643C756.399 125.811 759.143 122.872 762.773 120.517L762.779 120.513C766.326 118.148 770.473 116.369 775.027 115.181C779.603 113.987 784.478 113.092 789.551 112.595H789.552C795.558 111.994 800.364 111.393 804.068 110.893H804.07C807.706 110.388 810.487 109.472 812.273 108.316C814.141 107.108 815.002 105.234 815.002 102.896V102.396C815.002 99.3173 814.282 96.7264 813.03 94.6396C811.765 92.5304 809.774 90.9722 807.31 89.8428L807.294 89.835L806.824 89.6475C804.44 88.7328 801.543 88.1973 798.302 88.1973C794.861 88.1973 791.488 88.7014 788.807 89.8359C786.053 90.9585 783.892 92.3961 782.138 94.2539C780.49 95.9987 779.298 97.9281 778.478 100.038L754.048 96.0938C755.841 90.407 758.74 85.5612 762.654 81.5498L762.655 81.5508C766.8 77.4064 771.835 74.2442 777.871 72.0674C783.901 69.8927 792.94 68.7969 798.401 68.7969ZM814.372 124.221C813.66 124.843 812.553 125.32 810.86 125.817C809.185 126.31 807.306 126.706 805.308 127.105C803.217 127.504 801.325 127.803 799.327 128.103C797.331 128.402 795.551 128.599 794.035 128.801L794.026 128.803C790.694 129.308 787.653 130.117 785.007 131.236C782.341 132.364 780.267 133.912 778.807 135.79C777.32 137.702 776.602 140.421 776.602 143.097C776.602 145.771 777.219 148.19 778.707 150.104C780.162 151.974 782.037 153.432 784.526 154.365V154.364C786.889 155.288 789.649 155.797 792.701 155.797C797.172 155.797 801.052 154.882 804.431 153.142C807.809 151.401 810.376 149.041 812.324 145.965C814.278 142.88 815.201 139.485 815.201 135.797V123.495L814.372 124.221Z" stroke="url(#paint6_linear_15342_187013)"/>
<path d="M953.5 35.7969V172.197H927.3V155.697H925.075L924.943 155.994C923.771 158.631 921.907 161.385 919.533 164.157C917.074 166.813 914.024 169.176 910.181 171.048C906.364 172.907 901.642 173.896 896.1 173.896C888.29 173.896 881.285 171.921 874.97 167.876C868.662 163.835 863.719 157.914 860.053 150.085C856.391 142.267 854.5 132.743 854.5 121.297C854.5 109.847 856.392 99.8264 860.15 92.0137C863.916 84.1854 868.957 78.3645 875.163 74.5225C881.375 70.6772 889.981 68.6973 895.8 68.6973C901.642 68.6973 906.358 69.6864 910.167 71.6387V71.6396C913.925 73.6176 917.068 75.979 919.415 78.8154C921.793 81.6893 923.566 84.4509 924.743 87.0996L924.875 87.3965H925.98L926.076 87.4443L926.8 87.8057V35.7969H953.5ZM904.5 89.9971C899.699 89.9971 895.387 91.4284 891.99 94.1045C888.599 96.7765 886.153 100.563 884.431 105.224C882.705 109.892 881.9 115.154 881.9 121.297C881.9 127.44 882.706 132.801 884.43 137.567C886.155 142.336 888.703 146.121 892.091 148.79C895.49 151.468 899.603 152.797 904.5 152.797C909.31 152.797 913.313 151.361 916.796 148.8C920.294 146.228 922.845 142.437 924.569 137.771L924.817 137.097H924.708C926.276 132.572 927.1 127.246 927.1 121.297C927.1 115.057 926.296 109.494 924.569 104.823C922.841 100.147 920.29 96.5676 916.909 93.9043L916.902 93.8984L916.581 93.6611C913.241 91.2432 909.145 89.9971 904.5 89.9971Z" stroke="url(#paint7_linear_15342_187013)"/>
<path d="M1011.4 68.7969C1019.44 68.7969 1026.38 69.9879 1032.32 72.1631V72.1641C1038.07 74.3687 1042.69 77.4014 1046.28 81.2559L1046.63 81.6318C1050.15 85.6359 1052.48 90.1943 1053.78 95.4961L1030.23 99.6289C1029.08 96.2188 1027.06 93.3709 1024.09 91.1934C1021.07 88.8044 1016.45 87.6973 1011.8 87.6973C1007.12 87.6973 1003.23 88.7139 1000.04 90.6709L1000.03 90.6768C996.793 92.7625 995.197 96.0157 995.197 98.7969C995.197 101.55 996.266 103.782 998.362 105.669L998.368 105.673L998.373 105.678C1000.47 107.461 1004.07 108.882 1008.89 109.887H1008.9L1027.4 113.586V113.587C1037.25 115.577 1044.55 118.849 1049.35 123.361L1049.36 123.359C1054.07 127.845 1056.4 134.258 1056.4 140.896C1056.4 147.59 1054.43 153.383 1050.6 158.394C1046.76 163.411 1041.34 167.362 1034.51 170.134C1027.68 172.905 1019.75 174.297 1010.8 174.297C1002.54 174.297 995.302 173.203 988.973 170.829L988.966 170.826C982.837 168.624 977.831 165.312 973.849 161.073L973.467 160.66C969.634 156.347 967.014 151.101 965.878 145.005L990.745 140.763C992.187 145.438 994.596 148.997 997.902 151.401L997.908 151.405C1001.42 153.885 1006.43 155.097 1011.8 155.097C1017.16 155.097 1021.36 154.086 1024.57 152.017C1027.79 149.938 1029.4 146.99 1029.4 143.997C1029.4 141.04 1028.22 138.695 1025.9 136.901H1025.9C1023.61 135.031 1020.22 133.712 1015.7 132.807H1015.69L997.899 129.107H997.9C988.355 127.083 981.119 123.856 976.309 119.289L975.851 118.844C971.057 113.95 968.597 106.784 968.597 100.297C968.597 93.7956 970.367 88.2048 973.894 83.501C977.432 78.8817 982.354 75.2323 988.782 72.6611C995.209 70.0905 1003.34 68.7969 1011.4 68.7969Z" stroke="url(#paint8_linear_15342_187013)"/>
<path d="M90.5945 103.998C90.5945 105.798 90.5945 108.398 90.4945 111.598C90.3945 117.898 90.1945 126.498 89.8945 135.298C89.5945 144.198 89.0945 153.298 88.4945 160.798C88.1945 164.598 87.7945 167.898 87.3945 170.598C86.9945 173.298 86.5945 175.298 86.0945 176.398C84.1945 180.898 80.6945 184.298 75.7945 185.698C70.8945 187.198 64.5945 186.698 56.8945 183.498C49.2945 180.298 44.4945 176.098 42.0945 171.598C39.6945 167.098 39.6945 162.298 41.5945 157.698C41.9945 156.598 43.0945 154.898 44.7945 152.698C46.3945 150.498 48.5945 147.898 51.0945 145.098C55.9945 139.398 62.2945 132.698 68.3945 126.198C74.4945 119.798 80.4945 113.598 84.8945 109.098C87.0945 106.798 88.9945 104.998 90.2945 103.698C90.2945 103.698 90.4945 103.498 90.5945 103.398C90.5945 103.498 90.5945 103.698 90.5945 103.798V103.998Z" stroke="#DFFD62" stroke-width="2"/>
<path d="M57.8005 4.79735C65.4005 1.69736 71.8005 1.29735 76.7005 2.79735C81.4005 4.19735 84.8005 7.49735 86.7005 11.7974L86.9005 12.1974C87.3005 13.2974 87.8005 15.2974 88.1005 17.9974C88.5005 20.6974 88.8005 24.0974 89.1005 27.7974C89.6005 35.2974 90.0005 44.4974 90.2005 53.2974C90.4005 62.1974 90.5005 70.6974 90.6005 77.0974C90.6005 80.2974 90.6005 82.8973 90.6005 84.6973C90.6005 84.7973 90.6005 84.9974 90.6005 85.0974C90.6005 85.0974 90.4005 84.8974 90.3005 84.7974C89.0005 83.4974 87.2005 81.5974 85.0005 79.2974C80.6005 74.6974 74.7005 68.5974 68.6005 62.0974C62.6005 55.5974 56.4005 48.7974 51.5005 43.0974C49.1005 40.1974 46.9005 37.5974 45.3005 35.3974C43.7005 33.1974 42.6005 31.4974 42.1005 30.3974C40.2005 25.7974 40.4005 20.9974 42.8005 16.4974C45.2005 11.9974 50.0005 7.79735 57.7005 4.69736L57.8005 4.79735Z" stroke="#DFFD62" stroke-width="2"/>
<path d="M98.4984 103.895C99.7984 105.195 101.598 107.095 103.798 109.395C108.198 113.995 114.098 120.095 120.198 126.595C126.198 133.095 132.398 139.895 137.298 145.595C139.698 148.495 141.898 151.095 143.498 153.295C145.098 155.495 146.198 157.195 146.698 158.295C148.598 162.895 148.498 167.695 146.098 172.195C143.698 176.695 138.898 180.895 131.198 183.995C123.598 187.095 117.198 187.495 112.298 185.995C107.398 184.495 103.998 181.095 102.098 176.595V176.395C101.698 175.295 101.298 173.395 100.898 170.795C100.498 168.095 100.198 164.695 99.8984 160.995C99.3984 153.495 98.9984 144.295 98.7984 135.495C98.5984 126.595 98.4984 118.095 98.3984 111.695C98.3984 108.495 98.3984 105.895 98.3984 104.095C98.3984 103.995 98.3984 103.795 98.3984 103.695C98.3984 103.695 98.5984 103.895 98.6984 103.995L98.4984 103.895Z" stroke="#DFFD62" stroke-width="2"/>
<path d="M17.0976 42.0987C21.4976 39.7987 26.2976 39.6987 30.7976 41.4987L30.9976 41.5987C32.0976 42.0987 33.7976 43.1987 35.9976 44.7987C38.1976 46.3987 40.7976 48.5987 43.5976 51.0987C49.2976 55.9987 55.9976 62.2987 62.4976 68.3987C68.8976 74.4987 74.9976 80.4987 79.5976 84.8987C81.8976 87.0987 83.6976 88.9987 84.9976 90.2987C84.9976 90.2987 85.1976 90.4987 85.2976 90.5987C85.1976 90.5987 84.9976 90.5987 84.8976 90.5987C83.0976 90.5987 80.4976 90.5987 77.2976 90.4987C70.9976 90.3987 62.3976 90.1987 53.4976 89.8987C44.5976 89.5987 35.4976 89.0987 27.9976 88.4987C24.1976 88.1987 20.8976 87.7987 18.1976 87.3987C15.4976 86.9987 13.4976 86.5987 12.3976 86.0987C7.79756 84.1987 4.49756 80.6987 2.99756 75.7987C1.49756 70.8987 1.99756 64.5987 5.19756 56.8987C8.39756 49.2987 12.6976 44.4987 17.1976 42.0987H17.0976Z" stroke="#DFFD62" stroke-width="2"/>
<path d="M104 98.1953C105.8 98.1953 108.4 98.1953 111.6 98.2953C117.9 98.3953 126.5 98.5953 135.4 98.8953C144.3 99.1953 153.4 99.6953 160.9 100.295C164.7 100.595 168 100.995 170.7 101.395C173.4 101.795 175.4 102.195 176.5 102.695C181 104.595 184.3 108.095 185.8 112.995C187.3 117.895 186.8 124.195 183.6 131.895C180.4 139.495 176.2 144.295 171.7 146.695C167.2 149.095 162.4 149.095 157.8 147.195H157.6C156.5 146.695 154.9 145.595 152.8 144.095C150.6 142.495 148 140.295 145.2 137.795C139.5 132.895 132.8 126.595 126.3 120.495C119.9 114.395 113.7 108.395 109.2 103.995C106.9 101.795 105.1 99.8953 103.8 98.5953C103.8 98.5953 103.6 98.3953 103.5 98.2953C103.6 98.2953 103.8 98.2953 103.9 98.2953L104 98.1953Z" stroke="#DFFD62" stroke-width="2"/>
<path d="M84.8974 98.4969C83.5974 99.7969 81.6974 101.597 79.3974 103.797C74.7974 108.197 68.6974 114.097 62.1974 120.197C55.6974 126.197 48.8974 132.397 43.1974 137.297C40.2974 139.697 37.6974 141.897 35.4974 143.497C33.2974 145.097 31.5974 146.197 30.4974 146.697C25.8974 148.597 21.0974 148.397 16.5974 145.997C12.0974 143.597 7.89735 138.797 4.79735 131.097C1.69736 123.397 1.29735 117.097 2.79735 112.197C4.29735 107.397 7.69735 103.897 12.1974 101.997C13.2974 101.597 15.2974 101.097 17.9974 100.797C20.6974 100.397 24.0974 100.097 27.7974 99.7969C35.2974 99.2969 44.4974 98.8969 53.2974 98.6969C62.1974 98.4969 70.6974 98.3969 77.0974 98.2969C80.2974 98.2969 82.8973 98.2969 84.6973 98.2969C84.7973 98.2969 84.9974 98.2969 85.0974 98.2969C85.0974 98.2969 84.8974 98.4969 84.7974 98.5969L84.8974 98.4969Z" stroke="#DFFD62" stroke-width="2"/>
<defs>
<linearGradient id="paint0_linear_15342_187013" x1="237.85" y1="35.2969" x2="237.85" y2="172.797" gradientUnits="userSpaceOnUse">
<stop stop-color="#5E5BF0"/>
<stop offset="1" stop-color="#241943"/>
</linearGradient>
<linearGradient id="paint1_linear_15342_187013" x1="312.5" y1="68.3984" x2="312.5" y2="174.798" gradientUnits="userSpaceOnUse">
<stop stop-color="#5E5BF0"/>
<stop offset="1" stop-color="#241943"/>
</linearGradient>
<linearGradient id="paint2_linear_15342_187013" x1="372.652" y1="172.695" x2="372.652" y2="172.895" gradientUnits="userSpaceOnUse">
<stop stop-color="#5E5BF0"/>
<stop offset="1" stop-color="#241943"/>
</linearGradient>
<linearGradient id="paint3_linear_15342_187013" x1="447.153" y1="68.0938" x2="447.153" y2="172.994" gradientUnits="userSpaceOnUse">
<stop stop-color="#5E5BF0"/>
<stop offset="1" stop-color="#241943"/>
</linearGradient>
<linearGradient id="paint4_linear_15342_187013" x1="583.747" y1="68.2969" x2="583.747" y2="174.697" gradientUnits="userSpaceOnUse">
<stop stop-color="#5E5BF0"/>
<stop offset="1" stop-color="#241943"/>
</linearGradient>
<linearGradient id="paint5_linear_15342_187013" x1="692.898" y1="68.2969" x2="692.898" y2="172.697" gradientUnits="userSpaceOnUse">
<stop stop-color="#5E5BF0"/>
<stop offset="1" stop-color="#241943"/>
</linearGradient>
<linearGradient id="paint6_linear_15342_187013" x1="796.452" y1="68.2969" x2="796.452" y2="174.697" gradientUnits="userSpaceOnUse">
<stop stop-color="#5E5BF0"/>
<stop offset="1" stop-color="#241943"/>
</linearGradient>
<linearGradient id="paint7_linear_15342_187013" x1="904" y1="35.2969" x2="904" y2="174.397" gradientUnits="userSpaceOnUse">
<stop stop-color="#5E5BF0"/>
<stop offset="1" stop-color="#241943"/>
</linearGradient>
<linearGradient id="paint8_linear_15342_187013" x1="1011.1" y1="68.2969" x2="1011.1" y2="174.797" gradientUnits="userSpaceOnUse">
<stop stop-color="#5E5BF0"/>
<stop offset="1" stop-color="#241943"/>
</linearGradient>
</defs>
</svg>
