<svg width="181" height="30" viewBox="0 0 181 30" fill="none" xmlns="http://www.w3.org/2000/svg">
<g clip-path="url(#clip0_15342_186971)">
<path d="M45.8891 5.5V27.5733H41.4453V5.5H45.8891Z" fill="white"/>
<path d="M55.9466 27.897C54.2589 27.897 52.7987 27.5493 51.5787 26.8603C50.3588 26.1713 49.4106 25.1852 48.7595 23.9147C48.1085 22.6441 47.7734 21.1271 47.7734 19.3824C47.7734 17.6378 48.1021 16.1776 48.7532 14.8944C49.4043 13.6113 50.3272 12.6062 51.5219 11.8856C52.7165 11.165 54.1198 10.8047 55.7317 10.8047C56.819 10.8047 57.8303 10.9754 58.7658 11.323C59.7014 11.6707 60.5294 12.189 61.2374 12.8843C61.9454 13.5797 62.5016 14.452 62.9062 15.5013C63.3107 16.5506 63.5067 17.7832 63.5067 19.2055V20.4507H49.5939V17.6631H61.3259L59.2526 18.4027C59.2526 17.543 59.1198 16.7971 58.8607 16.1587C58.6015 15.5202 58.2096 15.0272 57.6913 14.6795C57.1729 14.3319 56.5345 14.1549 55.7696 14.1549C55.0048 14.1549 54.3474 14.3319 53.8038 14.6859C53.2602 15.0398 52.8556 15.5202 52.5838 16.1334C52.312 16.7465 52.1666 17.4355 52.1666 18.213V20.1852C52.1666 21.146 52.3246 21.9488 52.647 22.5999C52.9694 23.251 53.4182 23.7377 53.9934 24.0664C54.5686 24.3951 55.245 24.5531 56.0162 24.5531C56.5408 24.5531 57.0149 24.4773 57.4384 24.3319C57.8619 24.1865 58.2286 23.9653 58.5256 23.6745C58.8227 23.3837 59.0566 23.0234 59.2147 22.5999L63.2475 23.3584C62.982 24.2687 62.5143 25.0651 61.8569 25.7541C61.1995 26.4431 60.3651 26.9741 59.3727 27.347C58.3803 27.72 57.2361 27.9096 55.9403 27.9096L55.9466 27.897Z" fill="white"/>
<path d="M65.311 27.5861V11.0248H69.4324L69.6536 15.1462H69.3249C69.5841 14.1285 69.957 13.3004 70.4564 12.6556C70.9558 12.0109 71.5373 11.5368 72.2137 11.2334C72.89 10.93 73.5917 10.7719 74.3312 10.7719C75.5259 10.7719 76.4867 11.1512 77.22 11.9034C77.9532 12.6556 78.4905 13.825 78.8319 15.4053H78.3135C78.5601 14.3497 78.9646 13.4774 79.5209 12.7884C80.0771 12.0994 80.7408 11.5937 81.5057 11.265C82.2706 10.9363 83.0733 10.7656 83.914 10.7656C84.9317 10.7656 85.8357 10.9869 86.6321 11.4293C87.4286 11.8718 88.0544 12.5103 88.5158 13.351C88.9773 14.1917 89.2048 15.203 89.2048 16.4104V27.5798H84.7611V17.2511C84.7611 16.3156 84.5082 15.6139 83.9962 15.1651C83.4842 14.7163 82.8647 14.4824 82.1252 14.4824C81.5689 14.4824 81.0885 14.6025 80.6776 14.8427C80.2668 15.0829 79.9507 15.4243 79.7295 15.8604C79.5082 16.2966 79.3944 16.8023 79.3944 17.3838V27.5735H75.0961V17.131C75.0961 16.3219 74.8559 15.6771 74.3755 15.1967C73.8951 14.7163 73.2756 14.4761 72.5171 14.4761C71.9924 14.4761 71.5247 14.5962 71.1012 14.8301C70.6776 15.064 70.3489 15.418 70.1087 15.8731C69.8685 16.3282 69.7484 16.8908 69.7484 17.5545V27.5672H65.3047L65.311 27.5861Z" fill="white"/>
<path d="M99.1974 27.8892C97.5413 27.8892 96.1001 27.5289 94.8864 26.8146C93.6728 26.1003 92.7372 25.1016 92.0799 23.8247C91.4225 22.5478 91.0938 21.056 91.0938 19.3557C91.0938 17.6553 91.4225 16.1382 92.0799 14.8614C92.7372 13.5845 93.6728 12.5858 94.8864 11.8715C96.1001 11.1572 97.5413 10.7969 99.1974 10.7969C100.854 10.7969 102.307 11.1572 103.515 11.8715C104.722 12.5858 105.658 13.5845 106.315 14.8614C106.972 16.1382 107.301 17.6363 107.301 19.3557C107.301 21.075 106.972 22.5415 106.315 23.8247C105.658 25.1079 104.722 26.1003 103.515 26.8146C102.307 27.5289 100.866 27.8892 99.1974 27.8892ZM99.1974 24.3936C99.9876 24.3936 100.651 24.1724 101.182 23.7362C101.713 23.3 102.118 22.6932 102.383 21.9284C102.649 21.1635 102.781 20.3038 102.781 19.343C102.781 18.3822 102.649 17.4973 102.383 16.7387C102.118 15.9802 101.72 15.3797 101.182 14.9435C100.645 14.5074 99.9876 14.2925 99.1974 14.2925C98.4073 14.2925 97.7499 14.5074 97.2189 14.9435C96.6879 15.3797 96.296 15.9739 96.0242 16.7387C95.7524 17.5036 95.626 18.3696 95.626 19.343C95.626 20.3165 95.7587 21.1635 96.0242 21.9284C96.2897 22.6932 96.6879 23.2937 97.2189 23.7362C97.7499 24.1787 98.4073 24.3936 99.1974 24.3936Z" fill="white"/>
<path d="M113.631 17.9777V27.5605H109.188V10.9992H113.378L113.454 15.1332H113.189C113.625 13.7488 114.282 12.6806 115.167 11.9284C116.052 11.1761 117.196 10.7969 118.6 10.7969C119.744 10.7969 120.742 11.0434 121.602 11.5428C122.462 12.0421 123.119 12.7564 123.587 13.6919C124.055 14.6275 124.289 15.74 124.289 17.0358V27.5668H119.845V17.8007C119.845 16.7766 119.579 15.9675 119.055 15.386C118.53 14.8045 117.791 14.5137 116.855 14.5137C116.236 14.5137 115.679 14.6464 115.186 14.9182C114.693 15.1901 114.314 15.582 114.048 16.094C113.783 16.606 113.644 17.2318 113.644 17.9777H113.631Z" fill="white"/>
<path d="M131.481 27.8955C130.431 27.8955 129.496 27.7122 128.662 27.3392C127.827 26.9663 127.17 26.4163 126.689 25.6831C126.209 24.9499 125.969 24.0333 125.969 22.9334C125.969 22.0169 126.139 21.2457 126.481 20.6199C126.822 19.9941 127.284 19.501 127.871 19.1218C128.459 18.7425 129.123 18.4581 129.869 18.2621C130.615 18.0662 131.399 17.9271 132.214 17.8449C133.175 17.7438 133.946 17.6553 134.534 17.5731C135.122 17.4909 135.552 17.3582 135.823 17.1749C136.095 16.9916 136.228 16.7261 136.228 16.3658V16.2899C136.228 15.8158 136.127 15.4176 135.931 15.0889C135.735 14.7602 135.438 14.5137 135.052 14.343C134.667 14.1724 134.193 14.0839 133.636 14.0839C133.08 14.0839 132.562 14.1724 132.138 14.343C131.715 14.5137 131.367 14.7476 131.101 15.032C130.836 15.3165 130.64 15.6388 130.507 15.9928L126.43 15.3291C126.715 14.362 127.189 13.5402 127.852 12.8702C128.516 12.2002 129.338 11.6818 130.318 11.3278C131.297 10.9739 132.41 10.7969 133.643 10.7969C134.534 10.7969 135.394 10.9043 136.234 11.1129C137.075 11.3215 137.827 11.6565 138.491 12.099C139.155 12.5415 139.686 13.123 140.077 13.8373C140.469 14.5516 140.665 15.4113 140.665 16.41V27.5668H136.455V25.2722H136.31C136.045 25.7842 135.691 26.2394 135.242 26.6249C134.793 27.0105 134.262 27.3266 133.636 27.5478C133.01 27.7691 132.284 27.8892 131.468 27.8892L131.481 27.8955ZM132.739 24.7729C133.44 24.7729 134.053 24.6338 134.584 24.3557C135.115 24.0775 135.526 23.7046 135.823 23.2305C136.12 22.7564 136.266 22.2255 136.266 21.6439V19.8487C136.139 19.9498 135.937 20.0383 135.672 20.1142C135.406 20.1901 135.109 20.2596 134.78 20.3228C134.452 20.386 134.136 20.4366 133.82 20.4871C133.504 20.5377 133.219 20.5756 132.973 20.6072C132.429 20.6831 131.949 20.8158 131.538 20.9928C131.127 21.1698 130.804 21.4037 130.577 21.6945C130.349 21.9852 130.236 22.3582 130.236 22.8133C130.236 23.2368 130.343 23.5971 130.564 23.8879C130.785 24.1787 131.076 24.3999 131.455 24.5453C131.835 24.6907 132.258 24.7665 132.745 24.7665L132.739 24.7729Z" fill="white"/>
<path d="M149.307 27.8578C148.043 27.8578 146.899 27.5291 145.875 26.8717C144.851 26.2143 144.048 25.2535 143.454 23.9829C142.86 22.7124 142.562 21.1637 142.562 19.3243C142.562 17.4848 142.866 15.8603 143.479 14.5961C144.092 13.3319 144.908 12.3837 145.925 11.7516C146.943 11.1195 148.062 10.8034 149.288 10.8034C150.224 10.8034 151.008 10.9614 151.627 11.2775C152.246 11.5936 152.752 11.9855 153.138 12.4469C153.523 12.9083 153.808 13.3635 153.997 13.7933H154.143V5.5H158.587V27.5733H154.219V24.9185H153.997C153.801 25.3609 153.504 25.8097 153.119 26.2585C152.733 26.7073 152.221 27.0866 151.602 27.39C150.982 27.6934 150.211 27.8515 149.307 27.8515V27.8578ZM150.685 24.2864C151.437 24.2864 152.076 24.0778 152.613 23.6669C153.15 23.256 153.549 22.6745 153.827 21.9286C154.105 21.1827 154.244 20.3104 154.244 19.3116C154.244 18.3129 154.111 17.4343 153.839 16.6947C153.568 15.9551 153.163 15.3862 152.632 14.9753C152.101 14.5645 151.45 14.3622 150.691 14.3622C149.933 14.3622 149.257 14.5771 148.726 15.0006C148.195 15.4241 147.803 16.0057 147.531 16.7516C147.259 17.4975 147.133 18.3445 147.133 19.3116C147.133 20.2788 147.265 21.1384 147.537 21.8906C147.809 22.6429 148.207 23.2307 148.738 23.6542C149.269 24.0778 149.914 24.2927 150.685 24.2927V24.2864Z" fill="white"/>
<path d="M167.751 27.8892C166.417 27.8892 165.235 27.6995 164.211 27.3203C163.187 26.941 162.346 26.3847 161.695 25.6641C161.044 24.9435 160.621 24.0586 160.438 23.0346L164.572 22.3266C164.786 23.0978 165.172 23.673 165.709 24.0586C166.247 24.4442 166.98 24.6338 167.89 24.6338C168.737 24.6338 169.407 24.4758 169.9 24.1534C170.393 23.831 170.633 23.4265 170.633 22.9334C170.633 22.4973 170.456 22.1433 170.109 21.8651C169.761 21.587 169.224 21.3784 168.503 21.2267L165.646 20.6325C164.047 20.3038 162.852 19.7539 162.062 18.9638C161.272 18.1736 160.874 17.1686 160.874 15.9359C160.874 14.8677 161.164 13.9511 161.746 13.1863C162.328 12.4214 163.137 11.8335 164.173 11.4163C165.21 10.9992 166.43 10.7969 167.833 10.7969C169.135 10.7969 170.267 10.9802 171.228 11.3405C172.188 11.7008 172.96 12.2128 173.554 12.8765C174.148 13.5402 174.54 14.3177 174.742 15.2153L170.804 15.9107C170.633 15.3481 170.311 14.8866 169.831 14.5263C169.35 14.166 168.706 13.9827 167.896 13.9827C167.163 13.9827 166.556 14.1344 166.057 14.4442C165.558 14.7539 165.317 15.1584 165.317 15.6768C165.317 16.094 165.475 16.4416 165.798 16.7261C166.12 17.0105 166.67 17.2318 167.448 17.3898L170.425 17.984C172.024 18.3127 173.212 18.8437 173.996 19.5769C174.78 20.3102 175.166 21.271 175.166 22.4593C175.166 23.5466 174.85 24.4947 174.218 25.3102C173.585 26.1256 172.713 26.7577 171.601 27.2128C170.488 27.6679 169.205 27.8955 167.757 27.8955L167.751 27.8892Z" fill="white"/>
<path d="M19.4699 28.2336C20.1209 26.685 20.2031 16.0781 20.2031 16.0781C20.2031 16.0781 12.6873 23.5686 12.0426 25.111C11.3915 26.6597 12.0868 28.4233 14.5836 29.4662C17.0805 30.5155 18.8251 29.7697 19.4762 28.2273L19.4699 28.2336Z" fill="#B2D61A"/>
<path d="M19.5831 1.74347C20.2153 3.29214 20.2026 13.9053 20.2026 13.9053C20.2026 13.9053 12.7627 6.34524 12.1242 4.79657C11.4921 3.24158 12.2001 1.48431 14.7032 0.460284C17.2064 -0.563737 18.9447 0.194797 19.5831 1.74347Z" fill="#B2D61A"/>
<path d="M29.1644 25.1869C28.5323 23.6319 21.086 16.0781 21.086 16.0781C21.086 16.0781 21.067 26.685 21.7055 28.24C22.3376 29.7886 24.0822 30.5472 26.5854 29.5231C29.0885 28.4991 29.8028 26.7418 29.1644 25.1869Z" fill="#B2D61A"/>
<path d="M10.5312 6.37701C12.0798 7.02808 19.564 14.5376 19.564 14.5376C19.564 14.5376 8.95721 14.4554 7.40853 13.8043C5.85986 13.1532 5.12029 11.4086 6.16959 8.91177C7.2189 6.41493 8.98249 5.71961 10.5248 6.37069L10.5312 6.37701Z" fill="#B2D61A"/>
<path d="M33.8821 16.1786C32.3334 15.5275 21.7266 15.4453 21.7266 15.4453C21.7266 15.4453 29.2171 22.9611 30.7594 23.6059C32.3081 24.2569 34.0717 23.5616 35.1147 21.0648C36.164 18.5679 35.4181 16.8233 33.8757 16.1722L33.8821 16.1786Z" fill="#B2D61A"/>
<path d="M7.39972 16.057C8.95471 15.4249 19.5615 15.4375 19.5615 15.4375C19.5615 15.4375 12.0015 22.8775 10.4528 23.5159C8.90414 24.148 7.14055 23.4401 6.11653 20.9369C5.09251 18.4337 5.85105 16.6954 7.39972 16.057Z" fill="#B2D61A"/>
</g>
<defs>
<clipPath id="clip0_15342_186971">
<rect width="169.513" height="30" fill="white" transform="translate(5.64844)"/>
</clipPath>
</defs>
</svg>
