<svg width="360" height="322" viewBox="0 0 360 322" fill="none" xmlns="http://www.w3.org/2000/svg">
<g clip-path="url(#clip0_15342_186370)">
<path opacity="0.7" d="M347.884 170.219C349.687 146.268 344.114 121.243 336.648 98.9511C325.556 65.8286 304.03 31.8586 267.779 24.0221C246.875 19.5042 225.602 24.3467 207.684 35.6731C190.451 46.5666 177.005 60.6434 155.813 63.3668C134.378 66.1262 112.384 65.017 90.8401 65.017C35.4437 65.008 -9.51008 123.2 1.72611 183.818C12.9623 244.435 65.951 286.467 110.905 286.467C151.305 286.467 184.535 262.228 222.906 255.726C241.934 252.497 261.042 256.321 279.871 251.478C301.758 245.86 322.336 232.442 334.465 213.026C342.726 199.788 346.748 185.206 347.884 170.21V170.219Z" fill="white" fill-opacity="0.08"/>
<path d="M341.406 161.805C341.406 161.805 341.406 157.323 335.129 151.037C328.853 144.761 324.813 141.172 324.813 141.172C324.813 141.172 321.675 151.488 327.5 157.765C333.335 164.041 341.406 169.876 341.406 169.876V161.805Z" fill="#DFFD62"/>
<path d="M332.288 189.812C332.288 189.812 332.288 185.331 326.012 179.045C319.736 172.76 315.696 169.18 315.696 169.18C315.696 169.18 312.557 179.496 318.383 185.772C324.217 192.049 332.288 197.883 332.288 197.883V189.812Z" fill="#DFFD62"/>
<path d="M341.012 169.445C341.012 169.445 341.49 164.981 348.397 159.408C355.305 153.826 359.697 150.688 359.697 150.688C359.697 150.688 361.726 161.274 355.269 166.902C348.803 172.529 340.164 177.47 340.164 177.47L341.021 169.445H341.012Z" fill="#DFFD62"/>
<path d="M329.999 202.52C329.999 202.52 330.937 198.137 338.394 193.313C345.852 188.488 350.55 185.828 350.55 185.828C350.55 185.828 351.461 196.568 344.445 201.492C337.43 206.407 328.312 210.42 328.312 210.42L330.008 202.529L329.999 202.52Z" fill="#DFFD62"/>
<path d="M332.07 238.594C332.07 238.594 332.07 234.112 338.347 227.826C344.623 221.55 348.663 217.961 348.663 217.961C348.663 217.961 351.801 228.277 345.976 234.554C340.141 240.83 332.07 246.665 332.07 246.665V238.594Z" fill="#DFFD62"/>
<path d="M331.967 247.396C331.967 247.396 332.607 242.959 327.278 235.853C321.957 228.747 318.468 224.617 318.468 224.617C318.468 224.617 313.896 234.383 318.774 241.426C323.653 248.469 330.813 255.386 330.813 255.386L331.958 247.396H331.967Z" fill="#DFFD62"/>
<path d="M325.766 273.484C325.766 273.484 325.766 269.002 332.042 262.717C338.318 256.441 342.358 252.852 342.358 252.852C342.358 252.852 345.497 263.168 339.671 269.444C333.837 275.721 325.766 281.555 325.766 281.555V273.484Z" fill="#DFFD62"/>
<path d="M329.965 297.135C329.965 297.135 328.828 292.798 333.31 285.133C337.792 277.467 340.786 272.977 340.786 272.977C340.786 272.977 346.44 282.157 342.382 289.714C338.333 297.262 332.003 304.954 332.003 304.954L329.956 297.144L329.965 297.135Z" fill="#DFFD62"/>
<path d="M341.977 160.656C341.607 165.454 341.066 170.414 340.254 174.58C337.775 187.403 331.57 195.681 329.081 207.26C326.601 218.839 333.726 233.764 331.814 248.643C329.902 263.522 324.113 271.792 325.772 281.72C327.422 291.649 336.115 318.54 336.115 318.54" stroke="#32235C" stroke-width="0.901781" stroke-linecap="round" stroke-linejoin="round"/>
<path d="M340.945 172.429L347.709 167.234" stroke="#32235C" stroke-width="0.901781" stroke-linecap="round" stroke-linejoin="round"/>
<path d="M341.261 166.447L338.43 161.406" stroke="#32235C" stroke-width="0.901781" stroke-linecap="round" stroke-linejoin="round"/>
<path d="M329.461 206.729C329.461 206.729 335.124 202.482 340.95 198.234" stroke="#32235C" stroke-width="0.901781" stroke-linecap="round" stroke-linejoin="round"/>
<path d="M332.292 197.886C332.292 197.886 327.575 188.633 322.219 182.492" stroke="#32235C" stroke-width="0.901781" stroke-linecap="round" stroke-linejoin="round"/>
<path d="M332.289 244.978C332.289 244.978 336.699 236.321 344.409 228.773" stroke="#32235C" stroke-width="0.901781" stroke-linecap="round" stroke-linejoin="round"/>
<path d="M331.193 251.269C331.193 251.269 328.361 244.506 325.052 239.627C321.742 234.748 321.273 234.117 321.273 234.117" stroke="#32235C" stroke-width="0.901781" stroke-linecap="round" stroke-linejoin="round"/>
<path d="M325.766 281.723C325.766 281.723 328.038 275.97 330.87 271.407C333.701 266.844 337.48 262.75 337.48 262.75" stroke="#32235C" stroke-width="0.901781" stroke-linecap="round" stroke-linejoin="round"/>
<path d="M332.009 304.944C332.009 304.944 331.342 299.569 333.704 295.006C336.067 290.443 338.736 284.464 339.845 282.102" stroke="#32235C" stroke-width="0.901781" stroke-linecap="round" stroke-linejoin="round"/>
<path d="M290.159 221.727C290.159 221.727 289.672 218.914 292.927 214.297C296.183 209.68 298.329 206.992 298.329 206.992C298.329 206.992 301.413 213.124 298.446 217.687C295.47 222.259 291.042 226.786 291.042 226.786L290.168 221.727H290.159Z" fill="#DFFD62"/>
<path d="M298.909 238.305C298.909 238.305 298.422 235.492 301.677 230.875C304.933 226.258 307.079 223.57 307.079 223.57C307.079 223.57 310.163 229.702 307.196 234.265C304.22 238.837 299.792 243.364 299.792 243.364L298.918 238.305H298.909Z" fill="#DFFD62"/>
<path d="M291.237 226.472C291.237 226.472 290.452 223.731 285.52 220.981C280.587 218.23 277.485 216.742 277.485 216.742C277.485 216.742 277.358 223.605 282.021 226.427C286.683 229.259 292.644 231.414 292.644 231.414L291.237 226.472Z" fill="#DFFD62"/>
<path d="M301.73 246.022C301.73 246.022 300.666 243.371 295.463 241.162C290.269 238.943 287.031 237.789 287.031 237.789C287.031 237.789 287.626 244.625 292.559 246.951C297.492 249.278 303.642 250.802 303.642 250.802L301.721 246.031L301.73 246.022Z" fill="#DFFD62"/>
<path d="M304.351 268.864C304.351 268.864 303.864 266.05 299.246 262.795C294.629 259.539 291.708 257.727 291.708 257.727C291.708 257.727 290.86 264.535 295.197 267.845C299.535 271.145 305.234 273.932 305.234 273.932L304.36 268.873L304.351 268.864Z" fill="#DFFD62"/>
<path d="M305.365 274.37C305.365 274.37 304.482 271.656 307.052 266.624C309.622 261.592 311.353 258.625 311.353 258.625C311.353 258.625 315.285 264.252 312.986 269.203C310.695 274.154 306.953 279.267 306.953 279.267L305.365 274.379V274.37Z" fill="#DFFD62"/>
<path d="M313.249 297.051C313.249 297.051 313.574 294.22 318.001 290.703C322.429 287.186 325.243 285.211 325.243 285.211C325.243 285.211 326.478 291.965 322.339 295.509C318.2 299.053 312.672 302.155 312.672 302.155L313.258 297.051H313.249Z" fill="#DFFD62"/>
<path d="M312.085 290.059C312.085 290.059 311.598 287.245 306.981 283.99C302.364 280.734 299.442 278.922 299.442 278.922C299.442 278.922 298.594 285.73 302.932 289.04C307.269 292.34 312.969 295.127 312.969 295.127L312.094 290.068L312.085 290.059Z" fill="#DFFD62"/>
<path d="M312.025 305.351C312.025 305.351 312.269 302.511 308.626 298.191C304.983 293.872 302.611 291.383 302.611 291.383C302.611 291.383 300.068 297.758 303.422 302.051C306.786 306.343 311.584 310.474 311.584 310.474L312.016 305.351H312.025Z" fill="#DFFD62"/>
<path d="M289.68 221.062C290.428 224.029 291.312 227.077 292.268 229.611C295.217 237.385 300.005 241.903 302.819 248.891C305.632 255.889 302.783 266.016 305.596 275.142C308.41 284.268 312.937 288.822 312.982 295.234C313.018 301.637 310.493 319.447 310.493 319.447" stroke="#32235C" stroke-width="0.901781" stroke-linecap="round" stroke-linejoin="round"/>
<path d="M291.596 228.328L286.789 225.812" stroke="#32235C" stroke-width="0.901781" stroke-linecap="round" stroke-linejoin="round"/>
<path d="M290.75 224.611L291.985 221.148" stroke="#32235C" stroke-width="0.901781" stroke-linecap="round" stroke-linejoin="round"/>
<path d="M302.531 248.601C302.531 248.601 298.518 246.554 294.406 244.516" stroke="#32235C" stroke-width="0.901781" stroke-linecap="round" stroke-linejoin="round"/>
<path d="M299.797 243.359C299.797 243.359 301.754 237.046 304.441 232.609" stroke="#32235C" stroke-width="0.901781" stroke-linecap="round" stroke-linejoin="round"/>
<path d="M304.9 272.886C304.9 272.886 301.193 267.935 295.539 264.039" stroke="#32235C" stroke-width="0.901781" stroke-linecap="round" stroke-linejoin="round"/>
<path d="M306.281 276.706C306.281 276.706 307.327 272.152 308.869 268.735C310.411 265.317 310.637 264.875 310.637 264.875" stroke="#32235C" stroke-width="0.901781" stroke-linecap="round" stroke-linejoin="round"/>
<path d="M312.766 300.084C312.766 300.084 315.949 296.18 317.933 294.719C319.917 293.258 321.287 291.797 321.287 291.797" stroke="#32235C" stroke-width="0.901781" stroke-linecap="round" stroke-linejoin="round"/>
<path d="M312.984 295.225C312.984 295.225 310.937 291.861 308.664 289.309C306.392 286.757 303.578 284.602 303.578 284.602" stroke="#32235C" stroke-width="0.901781" stroke-linecap="round" stroke-linejoin="round"/>
<path d="M311.59 310.464C311.59 310.464 311.419 307.028 309.444 304.422C307.469 301.815 305.142 298.353 304.195 297" stroke="#32235C" stroke-width="0.901781" stroke-linecap="round" stroke-linejoin="round"/>
<path d="M34.0436 182.45L30.0938 171.169L34.0436 175.957L30.9414 159.031L35.7299 171.169L37.4252 147.461L40.2478 170.033L43.3499 165.524V171.169L47.0202 163.549L45.0453 176.805L48.427 174.55L43.0704 181.882L34.0436 182.45Z" fill="#DFFD62"/>
<path d="M46.4532 179.625H31.7812L34.4235 209.248H43.82L46.4532 179.625Z" fill="#32235C" stroke="#32235C" stroke-width="0.901781" stroke-linecap="round" stroke-linejoin="round"/>
<path d="M73.9779 208.914H23.9922V314.783H73.9779V208.914Z" fill="white" stroke="#32235C" stroke-width="0.901781" stroke-linecap="round" stroke-linejoin="round"/>
<path d="M76.7141 208.914H48.9844V314.783H76.7141V208.914Z" fill="white" stroke="#32235C" stroke-width="0.901781" stroke-linecap="round" stroke-linejoin="round"/>
<path d="M73.594 208.914H48.9844V314.783H73.594V208.914Z" fill="#32235C" stroke="#32235C" stroke-width="0.901781" stroke-linecap="round" stroke-linejoin="round"/>
<path d="M70.8255 290.164H48.9844V311.843H70.8255V290.164Z" fill="#DFFD62" stroke="#32235C" stroke-width="0.901781" stroke-linecap="round" stroke-linejoin="round"/>
<path d="M70.8255 291.336H48.9844V294.113H70.8255V291.336Z" fill="white" stroke="#32235C" stroke-width="0.901781" stroke-linecap="round" stroke-linejoin="round"/>
<path d="M70.8255 307.297H48.9844V310.074H70.8255V307.297Z" fill="white" stroke="#32235C" stroke-width="0.901781" stroke-linecap="round" stroke-linejoin="round"/>
<path d="M53.1328 290.617V318.031" stroke="#32235C" stroke-width="0.901781" stroke-linecap="round" stroke-linejoin="round"/>
<path d="M60.7422 290.617V318.031" stroke="#32235C" stroke-width="0.901781" stroke-linecap="round" stroke-linejoin="round"/>
<path d="M67.4375 290.617V318.031" stroke="#32235C" stroke-width="0.901781" stroke-linecap="round" stroke-linejoin="round"/>
<path d="M70.8255 212.852H48.9844V244.73H70.8255V212.852Z" fill="#DFFD62" stroke="#32235C" stroke-width="0.901781" stroke-linecap="round" stroke-linejoin="round"/>
<path d="M70.8255 214.188H48.9844V217.344H70.8255V214.188Z" fill="white" stroke="#32235C" stroke-width="0.901781" stroke-linecap="round" stroke-linejoin="round"/>
<path d="M70.8255 234.617H48.9844V237.773H70.8255V234.617Z" fill="white" stroke="#32235C" stroke-width="0.901781" stroke-linecap="round" stroke-linejoin="round"/>
<path d="M53.1328 213.359V244.516" stroke="#32235C" stroke-width="0.901781" stroke-linecap="round" stroke-linejoin="round"/>
<path d="M60.7422 213.359V244.516" stroke="#32235C" stroke-width="0.901781" stroke-linecap="round" stroke-linejoin="round"/>
<path d="M67.4375 213.359V244.516" stroke="#32235C" stroke-width="0.901781" stroke-linecap="round" stroke-linejoin="round"/>
<path d="M70.8255 251.266H48.9844V283.144H70.8255V251.266Z" fill="#DFFD62" stroke="#32235C" stroke-width="0.901781" stroke-linecap="round" stroke-linejoin="round"/>
<path d="M70.8255 252.602H48.9844V255.758H70.8255V252.602Z" fill="white" stroke="#32235C" stroke-width="0.901781" stroke-linecap="round" stroke-linejoin="round"/>
<path d="M70.8255 273.031H48.9844V276.187H70.8255V273.031Z" fill="white" stroke="#32235C" stroke-width="0.901781" stroke-linecap="round" stroke-linejoin="round"/>
<path d="M53.1328 251.781V282.929" stroke="#32235C" stroke-width="0.901781" stroke-linecap="round" stroke-linejoin="round"/>
<path d="M60.7422 251.781V282.929" stroke="#32235C" stroke-width="0.901781" stroke-linecap="round" stroke-linejoin="round"/>
<path d="M67.4375 251.781V282.929" stroke="#32235C" stroke-width="0.901781" stroke-linecap="round" stroke-linejoin="round"/>
<path d="M73.9727 244.289H48.9844V247.914H73.9727V244.289Z" fill="white" stroke="#32235C" stroke-width="0.901781" stroke-linecap="round" stroke-linejoin="round"/>
<path d="M73.9727 282.945H48.9844V286.57H73.9727V282.945Z" fill="white" stroke="#32235C" stroke-width="0.901781" stroke-linecap="round" stroke-linejoin="round"/>
<path d="M73.9766 208.914V314.774" stroke="#32235C" stroke-width="0.901781" stroke-linecap="round" stroke-linejoin="round"/>
<path d="M45.4609 208.92V314.78H48.9779V212.852H73.5424V208.875L45.4609 208.92Z" fill="white" stroke="#32235C" stroke-width="0.901781" stroke-linecap="round" stroke-linejoin="round"/>
<path d="M48.9844 212.846V208.914" stroke="#32235C" stroke-width="0.901781" stroke-linecap="round" stroke-linejoin="round"/>
<path d="M73.7802 160.276C71.1561 155.226 70.0469 151.591 70.0469 150.753C70.0469 149.102 73.6901 148.101 73.6901 148.101C79.3172 145.126 105.784 149.427 117.697 151.411C129.61 153.395 137.879 153.395 137.879 153.395C137.879 153.395 139.529 152.069 141.522 150.419C143.515 148.769 152.767 137.848 156.41 136.856C160.054 135.864 163.354 138.182 163.354 138.182C163.354 138.182 169.306 141.825 168.314 142.483C167.322 143.142 152.767 155.722 149.124 158.03C145.481 160.339 137.879 159.356 131.26 160.681C125.561 161.818 102.475 163.224 97.1815 163.657C97.1815 163.657 91.888 165.307 85.2689 162.665" fill="white"/>
<mask id="mask0_15342_186370" style="mask-type:luminance" maskUnits="userSpaceOnUse" x="70" y="136" width="99" height="29">
<path d="M73.7802 160.276C71.1561 155.226 70.0469 151.591 70.0469 150.753C70.0469 149.102 73.6901 148.101 73.6901 148.101C79.3172 145.126 105.784 149.427 117.697 151.411C129.61 153.395 137.879 153.395 137.879 153.395C137.879 153.395 139.529 152.069 141.522 150.419C143.515 148.769 152.767 137.848 156.41 136.856C160.054 135.864 163.354 138.182 163.354 138.182C163.354 138.182 169.306 141.825 168.314 142.483C167.322 143.142 152.767 155.722 149.124 158.03C145.481 160.339 137.879 159.356 131.26 160.681C125.561 161.818 102.475 163.224 97.1815 163.657C97.1815 163.657 91.888 165.307 85.2689 162.665" fill="white"/>
</mask>
<g mask="url(#mask0_15342_186370)">
<path d="M163.346 138.182C163.346 138.182 160.037 135.864 156.403 136.856C152.759 137.848 143.498 148.769 141.514 150.419C139.53 152.069 137.871 153.395 137.871 153.395C137.871 153.395 129.602 153.395 117.689 151.411C105.777 149.427 79.3094 145.126 73.6823 148.101C73.6823 148.101 70.0391 149.093 70.0391 150.753C70.0391 151.131 70.2645 152.087 70.7605 153.485C71.0761 153.602 71.2565 153.665 71.2565 153.665C71.2565 153.665 77.8665 152.971 92.1327 153.314C106.399 153.665 139.395 155.613 141.514 156.38C142.47 156.722 148.81 155.28 155.898 152.791C161.281 148.381 167.666 142.916 168.315 142.483C169.307 141.825 163.355 138.182 163.355 138.182H163.346Z" fill="#DFFD62"/>
<path opacity="0.5" d="M163.346 138.182C163.346 138.182 160.037 135.864 156.403 136.856C152.759 137.848 143.498 148.769 141.514 150.419C139.53 152.069 137.871 153.395 137.871 153.395C137.871 153.395 129.602 153.395 117.689 151.411C105.777 149.427 79.3094 145.126 73.6823 148.101C73.6823 148.101 70.0391 149.093 70.0391 150.753C70.0391 151.131 70.2645 152.087 70.7605 153.485C71.0761 153.602 71.2565 153.665 71.2565 153.665C71.2565 153.665 77.8665 152.971 92.1327 153.314C106.399 153.665 139.395 155.613 141.514 156.38C142.47 156.722 148.81 155.28 155.898 152.791C161.281 148.381 167.666 142.916 168.315 142.483C169.307 141.825 163.355 138.182 163.355 138.182H163.346Z" fill="white"/>
</g>
<path d="M73.7802 160.276C71.1561 155.226 70.0469 151.591 70.0469 150.753C70.0469 149.102 73.6901 148.101 73.6901 148.101C79.3172 145.126 105.784 149.427 117.697 151.411C129.61 153.395 137.879 153.395 137.879 153.395C137.879 153.395 139.529 152.069 141.522 150.419C143.515 148.769 152.767 137.848 156.41 136.856C160.054 135.864 163.354 138.182 163.354 138.182C163.354 138.182 169.306 141.825 168.314 142.483C167.322 143.142 152.767 155.722 149.124 158.03C145.481 160.339 137.879 159.356 131.26 160.681C125.561 161.818 102.475 163.224 97.1815 163.657C97.1815 163.657 91.888 165.307 85.2689 162.665" stroke="#32235C" stroke-width="0.901781" stroke-linecap="round" stroke-linejoin="round"/>
<path d="M204.453 189.698C205.67 187.38 208.078 185.938 210.693 185.938H270.842C270.842 185.938 275.189 185.938 273.89 194.198C272.582 202.458 254.763 252.895 250.408 268.117C246.061 283.339 245.186 315.514 245.186 315.514H173.008C173.008 315.514 178.788 238.683 204.444 189.698H204.453Z" fill="white"/>
<mask id="mask1_15342_186370" style="mask-type:luminance" maskUnits="userSpaceOnUse" x="173" y="185" width="102" height="131">
<path d="M204.453 189.698C205.67 187.38 208.078 185.938 210.693 185.938H270.842C270.842 185.938 275.189 185.938 273.89 194.198C272.582 202.458 254.763 252.895 250.408 268.117C246.061 283.339 245.186 315.514 245.186 315.514H173.008C173.008 315.514 178.788 238.683 204.444 189.698H204.453Z" fill="white"/>
</mask>
<g mask="url(#mask1_15342_186370)">
<path opacity="0.16" d="M231.549 185.938H210.7C208.085 185.938 205.677 187.38 204.46 189.698C178.804 238.683 173.023 315.514 173.023 315.514H205.388L213.36 285.206L246.636 292.068C246.87 289.525 247.141 286.937 247.456 284.385L246.735 276.233C246.735 276.233 239.918 269.055 237.762 267.26C235.607 265.466 237.041 262.237 236.689 248.242C236.328 234.246 223.767 224.2 219.104 215.588C214.442 206.976 221.62 201.592 228.077 192.98C230.377 189.914 231.306 187.624 231.558 185.938H231.549Z" fill="#32235C"/>
</g>
<path d="M204.453 189.698C205.67 187.38 208.078 185.938 210.693 185.938H270.842C270.842 185.938 275.189 185.938 273.89 194.198C272.582 202.458 254.763 252.895 250.408 268.117C246.061 283.339 245.186 315.514 245.186 315.514H173.008C173.008 315.514 178.788 238.683 204.444 189.698H204.453Z" stroke="#32235C" stroke-width="0.901781" stroke-linecap="round" stroke-linejoin="round"/>
<path d="M260.405 200.278C254.327 214.463 241.44 270.617 239.375 315.499H245.191C245.191 315.499 246.057 283.323 250.413 268.101C254.759 252.879 272.588 202.443 273.895 194.182C275.203 185.922 270.847 185.922 270.847 185.922C270.847 185.922 265.283 188.898 260.414 200.269L260.405 200.278Z" fill="#32235C" stroke="#32235C" stroke-width="0.901781" stroke-linecap="round" stroke-linejoin="round"/>
<path d="M154.759 171.93C154.759 171.93 145.164 166.303 141.521 156.383C137.877 146.455 169.972 130.574 183.868 129.582C197.765 128.59 201.732 132.234 210.002 146.455C218.271 160.685 223.898 180.199 219.597 189.794C215.295 199.389 208.018 201.707 213.311 209.642C218.605 217.587 233.493 240.078 232.501 250.673C231.509 261.269 221.256 270.522 206.368 271.514C191.479 272.506 171.631 263.569 155.083 249.014C138.545 234.459 142.837 212.952 148.798 205.999C154.75 199.055 163.686 196.404 164.345 189.461C165.003 182.517 154.75 171.921 154.75 171.921L154.759 171.93Z" fill="#32235C" stroke="#32235C" stroke-width="0.901781" stroke-linecap="round" stroke-linejoin="round"/>
<path d="M195.648 156.234C200.753 165.721 207.119 178.427 209.112 186.101C212.593 199.538 194.684 207.997 199.661 214.462" stroke="white" stroke-width="0.901781" stroke-linecap="round" stroke-linejoin="round"/>
<path d="M188.711 143.805C188.711 143.805 190.695 147.186 193.436 152.173" stroke="white" stroke-width="0.901781" stroke-linecap="round" stroke-linejoin="round"/>
<path d="M215.438 167.68C216.024 169.492 216.42 171.323 216.574 173.172" stroke="white" stroke-width="0.901781" stroke-linecap="round" stroke-linejoin="round"/>
<path d="M192.195 138.828C192.195 138.828 207.859 150.407 214.118 164.267" stroke="white" stroke-width="0.901781" stroke-linecap="round" stroke-linejoin="round"/>
<path d="M170.398 147.555C159.207 150.702 143.119 155.788 144.427 158.737" stroke="white" stroke-width="0.901781" stroke-linecap="round" stroke-linejoin="round"/>
<path d="M180.749 144.797C180.749 144.797 178.35 145.392 174.797 146.348" stroke="white" stroke-width="0.901781" stroke-linecap="round" stroke-linejoin="round"/>
<path d="M166.891 138.955C171.003 137.602 177.766 136.051 186.712 136.34" stroke="white" stroke-width="0.901781" stroke-linecap="round" stroke-linejoin="round"/>
<path d="M162.336 140.823C162.336 140.823 163.418 140.218 165.474 139.461" stroke="white" stroke-width="0.901781" stroke-linecap="round" stroke-linejoin="round"/>
<path d="M70.0469 150.758C70.0469 150.812 70.0469 150.875 70.0559 150.947C70.0559 150.875 70.0469 150.812 70.0469 150.758ZM73.7802 160.281C71.643 156.178 70.5158 153.012 70.1731 151.524C70.5248 153.012 71.652 156.178 73.7802 160.281ZM70.0649 151.001C70.0649 151.064 70.0829 151.128 70.092 151.2C70.0739 151.128 70.0649 151.064 70.0649 151.001ZM73.7802 160.281C76.3503 165.222 80.3723 171.517 86.2609 177.892C98.1734 190.797 132.585 224.542 135.886 226.859C139.195 229.177 138.203 235.796 135.886 242.406C133.568 249.025 124.965 258.62 125.299 269.207C125.633 279.794 128.942 296.008 128.609 299.317C128.275 302.627 120.006 313.872 120.006 313.872H205.368C205.368 313.872 194.736 300.354 194.736 295.728C194.736 291.102 209.336 231.819 210.003 227.517C210.662 223.216 208.019 220.24 202.726 219.906C197.432 219.573 177.251 215.271 176.259 211.962C175.267 208.652 181.552 196.081 181.552 196.081L161.704 197.073C161.704 197.073 160.712 205.676 159.386 207.327C158.061 208.977 156.077 205.676 151.442 203.359C146.806 201.041 137.879 199.057 134.569 196.415C131.26 193.764 99.499 163.987 99.499 163.987" fill="white"/>
<mask id="mask2_15342_186370" style="mask-type:luminance" maskUnits="userSpaceOnUse" x="70" y="150" width="141" height="164">
<path d="M70.0469 150.758C70.0469 150.812 70.0469 150.875 70.0559 150.947C70.0559 150.875 70.0469 150.812 70.0469 150.758ZM73.7802 160.281C71.643 156.178 70.5158 153.012 70.1731 151.524C70.5248 153.012 71.652 156.178 73.7802 160.281ZM70.0649 151.001C70.0649 151.064 70.0829 151.128 70.092 151.2C70.0739 151.128 70.0649 151.064 70.0649 151.001ZM73.7802 160.281C76.3503 165.222 80.3723 171.517 86.2609 177.892C98.1734 190.797 132.585 224.542 135.886 226.859C139.195 229.177 138.203 235.796 135.886 242.406C133.568 249.025 124.965 258.62 125.299 269.207C125.633 279.794 128.942 296.008 128.609 299.317C128.275 302.627 120.006 313.872 120.006 313.872H205.368C205.368 313.872 194.736 300.354 194.736 295.728C194.736 291.102 209.336 231.819 210.003 227.517C210.662 223.216 208.019 220.24 202.726 219.906C197.432 219.573 177.251 215.271 176.259 211.962C175.267 208.652 181.552 196.081 181.552 196.081L161.704 197.073C161.704 197.073 160.712 205.676 159.386 207.327C158.061 208.977 156.077 205.676 151.442 203.359C146.806 201.041 137.879 199.057 134.569 196.415C131.26 193.764 99.499 163.987 99.499 163.987" fill="white"/>
</mask>
<g mask="url(#mask2_15342_186370)">
<path d="M139.625 198.969C141.284 201.854 142.926 204.461 142.926 204.461C142.926 204.461 148.49 207.59 149.887 207.59C151.285 207.59 159.627 212.117 159.627 212.117C159.627 212.117 166.588 210.376 164.153 204.461C163.721 203.424 162.684 201.972 161.25 200.294C160.835 202.919 160.168 206.354 159.383 207.337C158.057 208.988 156.073 205.687 151.438 203.369C148.408 201.854 143.557 200.484 139.625 198.978V198.969Z" fill="#DFFD62"/>
<path d="M122.647 185.577C112.43 176.117 99.4983 163.988 99.4983 163.988L91.9775 162.906L91.0938 163.411C91.0938 163.411 112.313 182.195 116.84 184.287C119.644 185.577 121.105 185.406 122.647 185.577Z" fill="#DFFD62"/>
<path d="M133.351 195.37C133.107 195.153 132.837 194.91 132.539 194.648C132.954 195.334 133.188 195.767 133.188 195.767C133.188 195.767 133.242 195.613 133.351 195.37Z" fill="#DFFD62"/>
<g opacity="0.5">
<path d="M139.625 198.969C141.284 201.854 142.926 204.461 142.926 204.461C142.926 204.461 148.49 207.59 149.887 207.59C151.285 207.59 159.627 212.117 159.627 212.117C159.627 212.117 166.588 210.376 164.153 204.461C163.721 203.424 162.684 201.972 161.25 200.294C160.835 202.919 160.168 206.354 159.383 207.337C158.057 208.988 156.073 205.687 151.438 203.369C148.408 201.854 143.557 200.484 139.625 198.978V198.969Z" fill="white"/>
<path d="M122.647 185.577C112.43 176.117 99.4983 163.988 99.4983 163.988L91.9775 162.906L91.0938 163.411C91.0938 163.411 112.313 182.195 116.84 184.287C119.644 185.577 121.105 185.406 122.647 185.577Z" fill="white"/>
<path d="M133.351 195.37C133.107 195.153 132.837 194.91 132.539 194.648C132.954 195.334 133.188 195.767 133.188 195.767C133.188 195.767 133.242 195.613 133.351 195.37Z" fill="white"/>
</g>
</g>
<path d="M73.7802 160.281C71.643 156.178 70.5158 153.012 70.1731 151.524C70.5248 153.012 71.652 156.178 73.7802 160.281ZM73.7802 160.281C76.3503 165.222 80.3723 171.517 86.2609 177.892C98.1734 190.797 132.585 224.542 135.886 226.859C139.195 229.177 138.203 235.796 135.886 242.406C133.568 249.025 124.965 258.62 125.299 269.207C125.633 279.794 128.942 296.008 128.609 299.317C128.275 302.627 120.006 313.872 120.006 313.872H205.368C205.368 313.872 194.736 300.354 194.736 295.728C194.736 291.102 209.336 231.819 210.003 227.517C210.662 223.216 208.019 220.24 202.726 219.906C197.432 219.573 177.251 215.271 176.259 211.962C175.267 208.652 181.552 196.081 181.552 196.081L161.704 197.073C161.704 197.073 160.712 205.676 159.386 207.327C158.061 208.977 156.077 205.676 151.442 203.359C146.806 201.041 137.879 199.057 134.569 196.415C131.26 193.764 99.499 163.987 99.499 163.987M70.11 151.254C70.128 151.335 70.1461 151.416 70.1641 151.515M70.0469 150.758C70.0469 150.812 70.0469 150.875 70.0559 150.947C70.0559 150.875 70.0469 150.812 70.0469 150.758ZM70.0649 151.001C70.0649 151.064 70.0829 151.128 70.092 151.2C70.0739 151.128 70.0649 151.064 70.0649 151.001Z" stroke="#32235C" stroke-width="0.901781" stroke-linecap="round" stroke-linejoin="round"/>
<path d="M99.4978 163.983C99.4978 163.983 88.9289 164.181 83.0312 159.32" stroke="#32235C" stroke-width="0.901781" stroke-linecap="round" stroke-linejoin="round"/>
<path d="M176.248 211.958C175.256 208.649 181.541 196.078 181.541 196.078L161.693 197.07C161.693 197.07 160.701 205.673 159.375 207.323C158.05 208.974 156.066 205.673 151.431 203.355C151.079 203.175 150.691 203.004 150.294 202.832L149.086 221.698C149.086 221.698 150.826 239.959 171.694 236.478C180.143 235.071 189.161 227.532 196.907 219.065C188.945 217.595 176.996 214.483 176.239 211.958H176.248Z" fill="white"/>
<mask id="mask3_15342_186370" style="mask-type:luminance" maskUnits="userSpaceOnUse" x="149" y="196" width="48" height="41">
<path d="M176.248 211.958C175.256 208.649 181.541 196.078 181.541 196.078L161.693 197.07C161.693 197.07 160.701 205.673 159.375 207.323C158.05 208.974 156.066 205.673 151.431 203.355C151.079 203.175 150.691 203.004 150.294 202.832L149.086 221.698C149.086 221.698 150.826 239.959 171.694 236.478C180.143 235.071 189.161 227.532 196.907 219.065C188.945 217.595 176.996 214.483 176.239 211.958H176.248Z" fill="white"/>
</mask>
<g mask="url(#mask3_15342_186370)">
<path d="M175.685 198.576C175.685 198.576 174.486 205.303 173.521 212.743C172.556 220.182 171.844 225.71 171.844 225.71L176.244 211.958L181.204 197.367C181.204 197.367 176.398 197.367 175.676 198.567L175.685 198.576Z" fill="#DFFD62"/>
<path opacity="0.5" d="M175.685 198.576C175.685 198.576 174.486 205.303 173.521 212.743C172.556 220.182 171.844 225.71 171.844 225.71L176.244 211.958L181.204 197.367C181.204 197.367 176.398 197.367 175.676 198.567L175.685 198.576Z" fill="white"/>
</g>
<path d="M176.248 211.958C175.256 208.649 181.541 196.078 181.541 196.078L161.693 197.07C161.693 197.07 160.701 205.673 159.375 207.323C158.05 208.974 156.066 205.673 151.431 203.355C151.079 203.175 150.691 203.004 150.294 202.832L149.086 221.698C149.086 221.698 150.826 239.959 171.694 236.478C180.143 235.071 189.161 227.532 196.907 219.065C188.945 217.595 176.996 214.483 176.239 211.958H176.248Z" stroke="#32235C" stroke-width="0.901781" stroke-linecap="round" stroke-linejoin="round"/>
<path d="M159.379 207.336C158.054 208.986 156.07 205.686 151.435 203.368C148.504 201.907 143.86 200.573 140 199.121C138.909 196.533 137.466 193.16 136.546 191.122C134.896 187.479 132.245 189.796 132.245 189.796C132.245 189.796 130.595 188.146 128.935 184.503C127.276 180.86 124.634 181.193 120.991 180.535C117.347 179.877 109.745 172.924 109.745 172.924C109.745 172.924 106.183 170.255 104.704 168.875C103 172.248 98.8879 178.181 90.0234 181.888C104.163 196.668 132.876 224.749 135.888 226.86C139.198 229.177 138.206 235.796 135.888 242.406C133.57 249.025 124.967 258.62 125.301 269.207C125.635 279.794 128.944 296.008 128.611 299.318C128.313 302.266 121.721 311.519 120.287 313.494L123.651 313.872H141.154C141.055 304.999 141.064 268.783 147.142 254.319C154.086 237.78 159.388 207.336 159.388 207.336H159.379Z" fill="#DFFD62"/>
<mask id="mask4_15342_186370" style="mask-type:luminance" maskUnits="userSpaceOnUse" x="90" y="168" width="70" height="146">
<path d="M159.379 207.336C158.054 208.986 156.07 205.686 151.435 203.368C148.504 201.907 143.86 200.573 140 199.121C138.909 196.533 137.466 193.16 136.546 191.122C134.896 187.479 132.245 189.796 132.245 189.796C132.245 189.796 130.595 188.146 128.935 184.503C127.276 180.86 124.634 181.193 120.991 180.535C117.347 179.877 109.745 172.924 109.745 172.924C109.745 172.924 106.183 170.255 104.704 168.875C103 172.248 98.8879 178.181 90.0234 181.888C104.163 196.668 132.876 224.749 135.888 226.86C139.198 229.177 138.206 235.796 135.888 242.406C133.57 249.025 124.967 258.62 125.301 269.207C125.635 279.794 128.944 296.008 128.611 299.318C128.313 302.266 121.721 311.519 120.287 313.494L123.651 313.872H141.154C141.055 304.999 141.064 268.783 147.142 254.319C154.086 237.78 159.388 207.336 159.388 207.336H159.379Z" fill="white"/>
</mask>
<g mask="url(#mask4_15342_186370)">
<path opacity="0.16" d="M151.446 203.368C148.515 201.907 143.871 200.573 140.011 199.121C138.92 196.533 137.477 193.16 136.557 191.122C134.907 187.479 132.256 189.796 132.256 189.796C132.256 189.796 130.606 188.146 128.946 184.503C127.287 180.86 124.645 181.193 121.002 180.535C117.358 179.877 109.756 172.924 109.756 172.924C109.756 172.924 106.194 170.255 104.716 168.875C104.147 170.002 103.3 171.409 102.109 172.924C108.025 177.92 114.554 183.222 116.835 184.277C121.362 186.361 122.399 184.629 125.88 186.712C129.361 188.795 133.185 195.757 133.185 195.757C133.185 195.757 135.268 190.193 137.008 194.017C138.749 197.84 142.924 204.45 142.924 204.45C142.924 204.45 148.488 207.579 149.886 207.579C150.977 207.579 156.324 210.348 158.597 211.547C159.102 208.914 159.381 207.318 159.381 207.318C158.056 208.968 156.072 205.668 151.437 203.35L151.446 203.368Z" fill="#32235C"/>
</g>
<path d="M159.379 207.336C158.054 208.986 156.07 205.686 151.435 203.368C148.504 201.907 143.86 200.573 140 199.121C138.909 196.533 137.466 193.16 136.546 191.122C134.896 187.479 132.245 189.796 132.245 189.796C132.245 189.796 130.595 188.146 128.935 184.503C127.276 180.86 124.634 181.193 120.991 180.535C117.347 179.877 109.745 172.924 109.745 172.924C109.745 172.924 106.183 170.255 104.704 168.875C103 172.248 98.8879 178.181 90.0234 181.888C104.163 196.668 132.876 224.749 135.888 226.86C139.198 229.177 138.206 235.796 135.888 242.406C133.57 249.025 124.967 258.62 125.301 269.207C125.635 279.794 128.944 296.008 128.611 299.318C128.313 302.266 121.721 311.519 120.287 313.494L123.651 313.872H141.154C141.055 304.999 141.064 268.783 147.142 254.319C154.086 237.78 159.388 207.336 159.388 207.336H159.379Z" stroke="#32235C" stroke-width="0.901781" stroke-linecap="round" stroke-linejoin="round"/>
<path d="M159.612 206.179C159.612 206.179 155.5 204.917 152.966 207.126C150.432 209.345 146.635 220.734 144.426 233.071C142.207 245.407 147.131 254.307 147.131 254.307C147.131 254.307 152.334 240.664 153.913 234.017C155.491 227.371 159.612 206.179 159.612 206.179Z" fill="#DFFD62"/>
<mask id="mask5_15342_186370" style="mask-type:luminance" maskUnits="userSpaceOnUse" x="143" y="205" width="17" height="50">
<path d="M159.612 206.179C159.612 206.179 155.5 204.917 152.966 207.126C150.432 209.345 146.635 220.734 144.426 233.071C142.207 245.407 147.131 254.307 147.131 254.307C147.131 254.307 152.334 240.664 153.913 234.017C155.491 227.371 159.612 206.179 159.612 206.179Z" fill="white"/>
</mask>
<g mask="url(#mask5_15342_186370)">
<path opacity="0.16" d="M151.727 208.191C151.727 208.191 154.693 207.47 155.929 207.885C157.155 208.29 158.797 209.625 158.797 209.625L159.617 206.18C159.617 206.18 157.669 205.116 155.622 205.522C153.575 205.928 151.727 208.182 151.727 208.182V208.191Z" fill="#32235C"/>
</g>
<path d="M159.612 206.179C159.612 206.179 155.5 204.917 152.966 207.126C150.432 209.345 146.635 220.734 144.426 233.071C142.207 245.407 147.131 254.307 147.131 254.307C147.131 254.307 152.334 240.664 153.913 234.017C155.491 227.371 159.612 206.179 159.612 206.179Z" stroke="#32235C" stroke-width="0.901781" stroke-linecap="round" stroke-linejoin="round"/>
<path d="M131.924 207.268L137.217 228.775L125.305 201.641" stroke="#32235C" stroke-width="0.901781" stroke-linecap="round" stroke-linejoin="round"/>
<path d="M166.807 313.871H205.376C205.376 313.871 194.744 300.354 194.744 295.727C194.744 291.101 209.344 231.818 210.011 227.517C210.669 223.215 208.027 220.239 202.734 219.906C197.44 219.572 177.258 215.27 176.266 211.961C176.266 211.961 168.655 238.762 166.013 256.96C163.741 272.561 166.094 304.953 166.816 313.871H166.807Z" fill="#DFFD62"/>
<mask id="mask6_15342_186370" style="mask-type:luminance" maskUnits="userSpaceOnUse" x="165" y="211" width="46" height="103">
<path d="M166.807 313.871H205.376C205.376 313.871 194.744 300.354 194.744 295.727C194.744 291.101 209.344 231.818 210.011 227.517C210.669 223.215 208.027 220.239 202.734 219.906C197.44 219.572 177.258 215.27 176.266 211.961C176.266 211.961 168.655 238.762 166.013 256.96C163.741 272.561 166.094 304.953 166.816 313.871H166.807Z" fill="white"/>
</mask>
<g mask="url(#mask6_15342_186370)">
<path opacity="0.16" d="M202.733 219.906C198.396 219.636 184.066 216.696 178.484 213.828L180.513 218.517C180.513 218.517 185.554 221.403 192.282 222.602C199.009 223.802 205.249 223.567 209.334 229.564C209.397 229.663 209.47 229.763 209.533 229.871C209.785 228.717 209.957 227.905 210.011 227.526C210.669 223.225 208.027 220.249 202.733 219.915V219.906Z" fill="#32235C"/>
</g>
<path d="M166.807 313.871H205.376C205.376 313.871 194.744 300.354 194.744 295.727C194.744 291.101 209.344 231.818 210.011 227.517C210.669 223.215 208.027 220.239 202.734 219.906C197.44 219.572 177.258 215.27 176.266 211.961C176.266 211.961 168.655 238.762 166.013 256.96C163.741 272.561 166.094 304.953 166.816 313.871H166.807Z" stroke="#32235C" stroke-width="0.901781" stroke-linecap="round" stroke-linejoin="round"/>
<path d="M176.261 211.961C176.261 211.961 166.062 244.461 166.008 256.96C166.008 256.96 180.508 239.402 182.411 227.066C184.314 214.729 176.27 211.961 176.27 211.961H176.261Z" fill="#DFFD62"/>
<mask id="mask7_15342_186370" style="mask-type:luminance" maskUnits="userSpaceOnUse" x="166" y="211" width="17" height="46">
<path d="M176.261 211.961C176.261 211.961 166.062 244.461 166.008 256.96C166.008 256.96 180.508 239.402 182.411 227.066C184.314 214.729 176.27 211.961 176.27 211.961H176.261Z" fill="white"/>
</mask>
<g mask="url(#mask7_15342_186370)">
<path opacity="0.16" d="M174.508 216.109C174.508 216.109 179.071 215.631 182.434 219.951C182.434 219.951 180.433 214.062 176.266 211.961L174.508 216.109Z" fill="#32235C"/>
</g>
<path d="M176.261 211.961C176.261 211.961 166.062 244.461 166.008 256.96C166.008 256.96 180.508 239.402 182.411 227.066C184.314 214.729 176.27 211.961 176.27 211.961H176.261Z" stroke="#32235C" stroke-width="0.901781" stroke-linecap="round" stroke-linejoin="round"/>
<path d="M285.237 307.761C285.237 307.761 292.712 308.068 297.6 308.771C302.497 309.475 307.447 309.556 307.447 309.556C307.447 309.556 304.769 304.1 301.865 302.558C298.953 301.016 293.74 298.247 289.367 298.861C284.984 299.474 278.735 303.856 279.24 305.299C279.745 306.742 282.098 307.346 285.246 307.761H285.237Z" fill="white"/>
<mask id="mask8_15342_186370" style="mask-type:luminance" maskUnits="userSpaceOnUse" x="279" y="298" width="29" height="12">
<path d="M285.237 307.761C285.237 307.761 292.712 308.068 297.6 308.771C302.497 309.475 307.447 309.556 307.447 309.556C307.447 309.556 304.769 304.1 301.865 302.558C298.953 301.016 293.74 298.247 289.367 298.861C284.984 299.474 278.735 303.856 279.24 305.299C279.745 306.742 282.098 307.346 285.246 307.761H285.237Z" fill="white"/>
</mask>
<g mask="url(#mask8_15342_186370)">
<path d="M285.237 307.761C285.237 307.761 292.712 308.068 297.6 308.771C302.497 309.475 307.447 309.556 307.447 309.556C307.447 309.556 304.769 304.1 301.865 302.558C298.953 301.016 293.74 298.247 289.367 298.861C284.984 299.474 278.735 303.856 279.24 305.299C279.745 306.742 282.098 307.346 285.246 307.761H285.237Z" fill="#DFFD62"/>
<path opacity="0.5" d="M285.237 307.761C285.237 307.761 292.712 308.068 297.6 308.771C302.497 309.475 307.447 309.556 307.447 309.556C307.447 309.556 304.769 304.1 301.865 302.558C298.953 301.016 293.74 298.247 289.367 298.861C284.984 299.474 278.735 303.856 279.24 305.299C279.745 306.742 282.098 307.346 285.246 307.761H285.237Z" fill="white"/>
</g>
<path d="M285.237 307.761C285.237 307.761 292.712 308.068 297.6 308.771C302.497 309.475 307.447 309.556 307.447 309.556C307.447 309.556 304.769 304.1 301.865 302.558C298.953 301.016 293.74 298.247 289.367 298.861C284.984 299.474 278.735 303.856 279.24 305.299C279.745 306.742 282.098 307.346 285.246 307.761H285.237Z" stroke="#32235C" stroke-width="0.901781" stroke-linecap="round" stroke-linejoin="round"/>
<path d="M297.609 305.532C297.609 305.532 303.534 302.456 305.013 302.493C306.501 302.529 316.321 309.193 315.834 310.257C315.347 311.321 313.481 311.754 312.732 311.411C311.641 310.897 305.031 308.084 305.031 308.084L300.702 309.103L297.618 305.541L297.609 305.532Z" fill="white"/>
<mask id="mask9_15342_186370" style="mask-type:luminance" maskUnits="userSpaceOnUse" x="297" y="302" width="19" height="10">
<path d="M297.609 305.532C297.609 305.532 303.534 302.456 305.013 302.493C306.501 302.529 316.321 309.193 315.834 310.257C315.347 311.321 313.481 311.754 312.732 311.411C311.641 310.897 305.031 308.084 305.031 308.084L300.702 309.103L297.618 305.541L297.609 305.532Z" fill="white"/>
</mask>
<g mask="url(#mask9_15342_186370)">
<path d="M297.609 305.532C297.609 305.532 303.534 302.456 305.013 302.493C306.501 302.529 316.321 309.193 315.834 310.257C315.347 311.321 313.021 312.187 312.732 311.411C312.444 310.636 305.031 308.084 305.031 308.084L300.702 309.103L297.618 305.541L297.609 305.532Z" fill="#DFFD62"/>
<path opacity="0.5" d="M297.609 305.532C297.609 305.532 303.534 302.456 305.013 302.493C306.501 302.529 316.321 309.193 315.834 310.257C315.347 311.321 313.021 312.187 312.732 311.411C312.444 310.636 305.031 308.084 305.031 308.084L300.702 309.103L297.618 305.541L297.609 305.532Z" fill="white"/>
</g>
<path d="M297.609 305.532C297.609 305.532 303.534 302.456 305.013 302.493C306.501 302.529 316.321 309.193 315.834 310.257C315.347 311.321 313.481 311.754 312.732 311.411C311.641 310.897 305.031 308.084 305.031 308.084L300.702 309.103L297.618 305.541L297.609 305.532Z" stroke="#32235C" stroke-width="0.901781" stroke-linecap="round" stroke-linejoin="round"/>
<path d="M293.422 300.468C293.422 300.468 301.321 300.215 302.891 301.009C304.46 301.812 311.548 313.959 310.484 314.842C309.419 315.726 306.489 315.455 306.579 314.482C306.669 313.508 300.05 306.988 300.05 306.988L294.901 305.861L293.431 300.468H293.422Z" fill="white"/>
<mask id="mask10_15342_186370" style="mask-type:luminance" maskUnits="userSpaceOnUse" x="293" y="300" width="18" height="16">
<path d="M293.422 300.468C293.422 300.468 301.321 300.215 302.891 301.009C304.46 301.812 311.548 313.959 310.484 314.842C309.419 315.726 306.489 315.455 306.579 314.482C306.669 313.508 300.05 306.988 300.05 306.988L294.901 305.861L293.431 300.468H293.422Z" fill="white"/>
</mask>
<g mask="url(#mask10_15342_186370)">
<path d="M293.422 300.468C293.422 300.468 301.321 300.215 302.891 301.009C304.46 301.812 311.548 313.959 310.484 314.842C309.419 315.726 306.489 315.455 306.579 314.482C306.669 313.508 300.05 306.988 300.05 306.988L294.901 305.861L293.431 300.468H293.422Z" fill="#DFFD62"/>
<path opacity="0.5" d="M293.422 300.468C293.422 300.468 301.321 300.215 302.891 301.009C304.46 301.812 311.548 313.959 310.484 314.842C309.419 315.726 306.489 315.455 306.579 314.482C306.669 313.508 300.05 306.988 300.05 306.988L294.901 305.861L293.431 300.468H293.422Z" fill="white"/>
</g>
<path d="M293.422 300.468C293.422 300.468 301.321 300.215 302.891 301.009C304.46 301.812 311.548 313.959 310.484 314.842C309.419 315.726 306.489 315.455 306.579 314.482C306.669 313.508 300.05 306.988 300.05 306.988L294.901 305.861L293.431 300.468H293.422Z" stroke="#32235C" stroke-width="0.901781" stroke-linecap="round" stroke-linejoin="round"/>
<path d="M288.75 298.837C288.75 298.837 296.749 298.576 298.336 299.387C299.923 300.199 307.092 312.49 306.019 313.383C304.937 314.276 301.97 314.005 302.069 313.022C302.159 312.03 295.459 305.438 295.459 305.438L290.247 304.293L288.759 298.837H288.75Z" fill="white"/>
<mask id="mask11_15342_186370" style="mask-type:luminance" maskUnits="userSpaceOnUse" x="288" y="298" width="19" height="16">
<path d="M288.75 298.837C288.75 298.837 296.749 298.576 298.336 299.387C299.923 300.199 307.092 312.49 306.019 313.383C304.937 314.276 301.97 314.005 302.069 313.022C302.159 312.03 295.459 305.438 295.459 305.438L290.247 304.293L288.759 298.837H288.75Z" fill="white"/>
</mask>
<g mask="url(#mask11_15342_186370)">
<path d="M288.75 298.837C288.75 298.837 296.749 298.576 298.336 299.387C299.923 300.199 307.092 312.49 306.019 313.383C304.937 314.276 301.97 314.005 302.069 313.022C302.159 312.03 295.459 305.438 295.459 305.438L290.247 304.293L288.759 298.837H288.75Z" fill="#DFFD62"/>
<path opacity="0.5" d="M288.75 298.837C288.75 298.837 296.749 298.576 298.336 299.387C299.923 300.199 307.092 312.49 306.019 313.383C304.937 314.276 301.97 314.005 302.069 313.022C302.159 312.03 295.459 305.438 295.459 305.438L290.247 304.293L288.759 298.837H288.75Z" fill="white"/>
</g>
<path d="M288.75 298.837C288.75 298.837 296.749 298.576 298.336 299.387C299.923 300.199 307.092 312.49 306.019 313.383C304.937 314.276 301.97 314.005 302.069 313.022C302.159 312.03 295.459 305.438 295.459 305.438L290.247 304.293L288.759 298.837H288.75Z" stroke="#32235C" stroke-width="0.901781" stroke-linecap="round" stroke-linejoin="round"/>
<path d="M197.798 253.008C203.588 261.927 215.212 284.525 218.602 287.068C223.896 291.036 259.282 300.667 262.691 303.309C266.099 305.952 265.856 308.585 269.093 309.55C272.331 310.515 284.432 313.292 289.041 313.716C293.649 314.14 291.593 311.29 291.593 311.29L283.72 305.916L290.583 304.22C290.583 304.22 297.463 312.499 298.753 312.95C300.042 313.4 302.324 312.931 302.171 311.94C301.927 310.307 294.578 296.952 291.98 296.384C289.374 295.816 273.557 298.007 273.557 298.007C273.557 298.007 240.38 275.634 239.785 274.84C239.785 274.84 237.801 269.213 236.142 266.896C234.483 264.578 233.491 265.245 233.491 265.245C233.491 265.245 234.149 262.269 233.157 261.277C232.165 260.285 227.864 255.984 227.864 255.984L227.674 256.236C226.8 254.415 225.88 252.368 224.879 250.023C222.11 243.503 212.308 225.206 210.649 222.564C209.422 220.598 199.061 219.182 193.812 218.578" fill="#DFFD62"/>
<mask id="mask12_15342_186370" style="mask-type:luminance" maskUnits="userSpaceOnUse" x="193" y="218" width="110" height="96">
<path d="M197.798 253.008C203.588 261.927 215.212 284.525 218.602 287.068C223.896 291.036 259.282 300.667 262.691 303.309C266.099 305.952 265.856 308.585 269.093 309.55C272.331 310.515 284.432 313.292 289.041 313.716C293.649 314.14 291.593 311.29 291.593 311.29L283.72 305.916L290.583 304.22C290.583 304.22 297.463 312.499 298.753 312.95C300.042 313.4 302.324 312.931 302.171 311.94C301.927 310.307 294.578 296.952 291.98 296.384C289.374 295.816 273.557 298.007 273.557 298.007C273.557 298.007 240.38 275.634 239.785 274.84C239.785 274.84 237.801 269.213 236.142 266.896C234.483 264.578 233.491 265.245 233.491 265.245C233.491 265.245 234.149 262.269 233.157 261.277C232.165 260.285 227.864 255.984 227.864 255.984L227.674 256.236C226.8 254.415 225.88 252.368 224.879 250.023C222.11 243.503 212.308 225.206 210.649 222.564C209.422 220.598 199.061 219.182 193.812 218.578" fill="white"/>
</mask>
<g mask="url(#mask12_15342_186370)">
<path opacity="0.16" d="M220.856 253.58C225.175 257.421 223.741 257.421 222.777 260.785C221.812 264.149 223.498 259.586 227.583 259.82C231.668 260.064 230.469 265.348 229.982 266.304C229.495 267.26 235.023 268.468 234.067 270.624C233.102 272.788 227.583 275.908 224.463 279.028C221.343 282.148 232.633 273.987 236.475 273.744C237.638 273.672 238.612 273.816 239.414 273.798C238.765 272.066 237.367 268.576 236.15 266.872C234.5 264.555 233.499 265.222 233.499 265.222C233.499 265.222 234.157 262.246 233.165 261.254C232.173 260.262 227.872 255.961 227.872 255.961L227.682 256.213C226.807 254.391 225.888 252.344 224.887 250C222.118 243.48 212.316 225.183 210.657 222.541C209.43 220.575 199.069 219.159 193.82 218.555L194.298 222.73L194.415 222.82C194.415 222.82 200.899 224.019 203.064 224.263C205.228 224.506 207.87 226.427 207.627 227.87C207.383 229.313 201.143 235.797 203.064 236.275C204.984 236.753 207.149 231.468 209.313 232.19C211.477 232.911 216.518 249.72 220.838 253.571L220.856 253.58Z" fill="#32235C"/>
</g>
<path d="M197.798 253.008C203.588 261.927 215.212 284.525 218.602 287.068C223.896 291.036 259.282 300.667 262.691 303.309C266.099 305.952 265.856 308.585 269.093 309.55C272.331 310.515 284.432 313.292 289.041 313.716C293.649 314.14 291.593 311.29 291.593 311.29L283.72 305.916L290.583 304.22C290.583 304.22 297.463 312.499 298.753 312.95C300.042 313.4 302.324 312.931 302.171 311.94C301.927 310.307 294.578 296.952 291.98 296.384C289.374 295.816 273.557 298.007 273.557 298.007C273.557 298.007 240.38 275.634 239.785 274.84C239.785 274.84 237.801 269.213 236.142 266.896C234.483 264.578 233.491 265.245 233.491 265.245C233.491 265.245 234.149 262.269 233.157 261.277C232.165 260.285 227.864 255.984 227.864 255.984L227.674 256.236C226.8 254.415 225.88 252.368 224.879 250.023C222.11 243.503 212.308 225.206 210.649 222.564C209.422 220.598 199.061 219.182 193.812 218.578" stroke="#32235C" stroke-width="0.901781" stroke-linecap="round" stroke-linejoin="round"/>
<path d="M197.887 240.75C197.643 241.562 197.427 242.382 197.273 243.203" stroke="#32235C" stroke-width="0.901781" stroke-linecap="round" stroke-linejoin="round"/>
<path d="M206.653 225.844C206.653 225.844 202.424 230.452 199.547 236.53" stroke="#32235C" stroke-width="0.901781" stroke-linecap="round" stroke-linejoin="round"/>
<path d="M219.898 277.049C222.333 273.487 226.193 268.87 230.485 267.562" stroke="#32235C" stroke-width="0.901781" stroke-linecap="round" stroke-linejoin="round"/>
<path d="M217.203 281.48C217.203 281.48 217.636 280.632 218.412 279.352" stroke="#32235C" stroke-width="0.901781" stroke-linecap="round" stroke-linejoin="round"/>
<path d="M217.203 275.784C217.203 275.784 221.631 264.71 226.059 261.86C230.486 259.011 227.961 264.71 227.961 264.71" stroke="#32235C" stroke-width="0.901781" stroke-linecap="round" stroke-linejoin="round"/>
<path d="M262.7 303.312C266.109 305.955 265.866 308.588 269.103 309.553C272.341 310.518 284.442 313.295 289.051 313.719C293.659 314.143 291.603 311.293 291.603 311.293L283.73 305.918L290.593 304.223C290.593 304.223 297.473 312.501 298.763 312.952C300.052 313.403 302.505 313.566 302.18 311.942C301.549 308.777 294.587 296.955 291.99 296.387C289.384 295.819 273.567 298.01 273.567 298.01C273.567 298.01 243.348 277.242 240.039 275.023C227.206 276.259 221.083 282.986 218.531 287.008C218.558 287.035 218.594 287.062 218.621 287.08C223.915 291.048 259.301 300.679 262.71 303.321L262.7 303.312Z" fill="white"/>
<mask id="mask13_15342_186370" style="mask-type:luminance" maskUnits="userSpaceOnUse" x="218" y="275" width="85" height="39">
<path d="M262.7 303.312C266.109 305.955 265.866 308.588 269.103 309.553C272.341 310.518 284.442 313.295 289.051 313.719C293.659 314.143 291.603 311.293 291.603 311.293L283.73 305.918L290.593 304.223C290.593 304.223 297.473 312.501 298.763 312.952C300.052 313.403 302.505 313.566 302.18 311.942C301.549 308.777 294.587 296.955 291.99 296.387C289.384 295.819 273.567 298.01 273.567 298.01C273.567 298.01 243.348 277.242 240.039 275.023C227.206 276.259 221.083 282.986 218.531 287.008C218.558 287.035 218.594 287.062 218.621 287.08C223.915 291.048 259.301 300.679 262.71 303.321L262.7 303.312Z" fill="white"/>
</mask>
<g mask="url(#mask13_15342_186370)">
<path d="M302.172 311.935C300.54 307.922 294.579 296.947 291.982 296.379C289.376 295.811 273.558 298.002 273.558 298.002C273.558 298.002 243.34 277.234 240.03 275.016C236.18 275.385 232.951 276.251 230.219 277.387C234.989 280.075 266.786 298.11 270.79 298.931C275.055 299.806 289.249 297.497 291.756 299.174C293.343 300.238 298.042 307.732 301.261 313.053C302.19 312.899 302.515 312.746 302.181 311.935H302.172Z" fill="#DFFD62"/>
<path opacity="0.5" d="M302.172 311.935C299.611 306.19 294.579 296.947 291.982 296.379C289.376 295.811 273.558 298.002 273.558 298.002C273.558 298.002 243.34 277.234 240.03 275.016C236.18 275.385 232.951 276.251 230.219 277.387C234.989 280.075 266.786 298.11 270.79 298.931C275.055 299.806 289.249 297.497 291.756 299.174C293.343 300.238 298.042 307.732 301.261 313.053C302.19 312.899 302.533 312.737 302.181 311.935H302.172Z" fill="white"/>
</g>
<path d="M262.7 303.312C266.109 305.955 265.866 308.588 269.103 309.553C272.341 310.518 284.442 313.295 289.051 313.719C293.659 314.143 291.603 311.293 291.603 311.293L283.73 305.918L290.593 304.223C290.593 304.223 297.473 312.501 298.763 312.952C300.052 313.403 302.505 313.566 302.18 311.942C301.549 308.777 294.587 296.955 291.99 296.387C289.384 295.819 273.567 298.01 273.567 298.01C273.567 298.01 243.348 277.242 240.039 275.023C227.206 276.259 221.083 282.986 218.531 287.008C218.558 287.035 218.594 287.062 218.621 287.08C223.915 291.048 259.301 300.679 262.71 303.321L262.7 303.312Z" stroke="#32235C" stroke-width="0.901781" stroke-linecap="round" stroke-linejoin="round"/>
<path d="M182.987 145.844L155.825 157.179C155.825 157.179 155.546 164.186 152.335 170.985C149.125 177.785 151.001 190.626 154.085 197.561C157.169 204.496 170.759 201.781 175.764 200.916C180.768 200.05 185.629 198.039 185.629 198.039C185.629 198.039 190.066 200.032 194.421 196.812C194.421 196.812 179.858 155.998 182.987 145.844Z" fill="white"/>
<mask id="mask14_15342_186370" style="mask-type:luminance" maskUnits="userSpaceOnUse" x="150" y="145" width="45" height="58">
<path d="M182.987 145.844L155.825 157.179C155.825 157.179 155.546 164.186 152.335 170.985C149.125 177.785 151.001 190.626 154.085 197.561C157.169 204.496 170.759 201.781 175.764 200.916C180.768 200.05 185.629 198.039 185.629 198.039C185.629 198.039 190.066 200.032 194.421 196.812C194.421 196.812 179.858 155.998 182.987 145.844Z" fill="white"/>
</mask>
<g mask="url(#mask14_15342_186370)">
<path d="M182.987 145.844L155.825 157.179C155.825 157.179 155.546 164.186 152.335 170.985C149.125 177.785 151.001 190.626 154.085 197.561C154.608 198.742 155.437 199.635 156.474 200.311V199.788C156.474 199.788 151.433 187.299 152.389 180.093C153.354 172.888 157.43 169.281 157.917 164.718C158.395 160.155 158.161 157.991 167.287 154.627C176.413 151.263 180.254 148.143 181.219 151.507C182.184 154.871 186.026 176.964 188.668 182.249C191.31 187.533 191.067 193.061 186.991 195.46C183.699 197.399 178.694 199.951 173.852 201.249C174.573 201.123 175.222 201.006 175.773 200.916C180.777 200.05 185.638 198.039 185.638 198.039C185.638 198.039 190.075 200.032 194.43 196.812C194.43 196.812 179.867 155.998 182.996 145.844H182.987Z" fill="#DFFD62"/>
<path opacity="0.5" d="M182.987 145.844L155.825 157.179C155.825 157.179 155.546 164.186 152.335 170.985C149.125 177.785 151.001 190.626 154.085 197.561C154.608 198.742 155.437 199.635 156.474 200.311V199.788C156.474 199.788 151.433 187.299 152.389 180.093C153.354 172.888 157.43 169.281 157.917 164.718C158.395 160.155 158.161 157.991 167.287 154.627C176.413 151.263 180.254 148.143 181.219 151.507C182.184 154.871 186.026 176.964 188.668 182.249C191.31 187.533 191.067 193.061 186.991 195.46C183.699 197.399 178.694 199.951 173.852 201.249C174.573 201.123 175.222 201.006 175.773 200.916C180.777 200.05 185.638 198.039 185.638 198.039C185.638 198.039 190.075 200.032 194.43 196.812C194.43 196.812 179.867 155.998 182.996 145.844H182.987Z" fill="white"/>
</g>
<path d="M182.987 145.844L155.825 157.179C155.825 157.179 155.546 164.186 152.335 170.985C149.125 177.785 151.001 190.626 154.085 197.561C157.169 204.496 170.759 201.781 175.764 200.916C180.768 200.05 185.629 198.039 185.629 198.039C185.629 198.039 190.066 200.032 194.421 196.812C194.421 196.812 179.858 155.998 182.987 145.844Z" stroke="#32235C" stroke-width="0.901781" stroke-linecap="round" stroke-linejoin="round"/>
<path d="M169.264 163.617C169.264 163.617 169.408 166.512 168.686 168.343C167.965 170.173 161.157 177.234 161.364 177.992C161.571 178.749 162.185 181.22 163.393 181.463" stroke="#32235C" stroke-width="0.901781" stroke-linecap="round" stroke-linejoin="round"/>
<path d="M176.789 169.961C177.736 168.067 180.847 169.915 180.802 174.181" stroke="#32235C" stroke-width="0.901781" stroke-linecap="round" stroke-linejoin="round"/>
<path d="M161.398 164.388C161.398 164.388 164.05 163.216 166.412 167.517" stroke="#32235C" stroke-width="0.901781" stroke-linecap="round" stroke-linejoin="round"/>
<path d="M173.039 176.203C173.039 176.203 177.503 176.176 181.272 179.657" stroke="#32235C" stroke-width="0.450891" stroke-linecap="round" stroke-linejoin="round"/>
<path d="M158.195 170.57C158.195 170.57 161.162 170.985 162.785 171.842" stroke="#32235C" stroke-width="0.450891" stroke-linecap="round" stroke-linejoin="round"/>
<path d="M168.975 159.631C168.975 159.631 166.838 158.36 164.412 159.523C161.986 160.686 160.498 161.976 160.66 160.479C160.823 158.982 163.681 157.35 164.529 157.133C165.386 156.917 169.218 156.304 168.975 159.631Z" fill="#32235C"/>
<path d="M175.773 156.251C175.773 156.251 179.84 159.389 181.626 163.88C183.412 168.371 184.854 163.456 183.412 160.508C181.969 157.559 177.893 154.43 175.773 156.251Z" fill="#32235C"/>
<path d="M194.787 204.519C194.787 206.62 193.606 208.325 192.136 208.325C190.666 208.325 189.484 206.62 189.484 204.519C189.484 202.418 190.666 197.07 192.136 197.07C193.606 197.07 194.787 202.409 194.787 204.519Z" fill="#DFFD62" stroke="#32235C" stroke-width="0.901781" stroke-linecap="round" stroke-linejoin="round"/>
<path d="M177.045 169.141C176.946 169.402 176.865 169.682 176.801 169.988C176.54 171.323 176.278 174.109 176.847 174.227C177.415 174.344 178.605 171.738 178.867 170.403C178.921 170.124 178.948 169.862 178.966 169.61C178.298 169.402 177.631 169.249 177.045 169.141Z" fill="#32235C"/>
<path d="M161.671 164.139C161.59 164.365 161.527 164.599 161.473 164.861C161.211 166.195 161.211 169.126 161.788 169.243C162.357 169.36 163.276 166.61 163.547 165.275C163.619 164.933 163.646 164.599 163.655 164.292C162.925 164.094 162.257 164.076 161.68 164.148L161.671 164.139Z" fill="#32235C"/>
<path d="M176.836 170.005L177.72 168.328C177.72 168.328 180.046 168.716 181.408 170.456" stroke="#32235C" stroke-width="0.676336" stroke-linecap="round" stroke-linejoin="round"/>
<path d="M161.672 164.142L162.592 163.087C162.592 163.087 162.979 162.889 165.108 163.862" stroke="#32235C" stroke-width="0.676336" stroke-linecap="round" stroke-linejoin="round"/>
<path d="M158.242 188.576C158.242 188.576 159.757 185.789 161.786 185.789C163.815 185.789 165.33 190.343 165.33 190.343" stroke="#32235C" stroke-width="0.901781" stroke-linecap="round" stroke-linejoin="round"/>
<path d="M92.9756 308.748C90.6941 308.748 88.2412 307.801 87.2944 307.395C86.2934 306.971 85.8335 305.817 86.2663 304.816C86.6902 303.815 87.8535 303.355 88.8454 303.788C90.658 304.564 92.9846 305.033 93.6158 304.771C94.7521 303.491 96.5196 295.717 94.2381 292.02C93.7331 291.19 93.2551 291.046 92.9395 291.001C91.65 290.821 89.7382 292.155 89.0619 292.786C88.2683 293.526 87.0238 293.481 86.2844 292.687C85.5449 291.894 85.59 290.649 86.3836 289.91C86.7443 289.576 89.9997 286.636 93.4716 287.105C94.6529 287.268 96.3212 287.89 97.5927 289.964C100.947 295.411 98.6478 305.799 96.0777 307.855C95.2391 308.532 94.1389 308.766 92.9846 308.766L92.9756 308.748Z" fill="white"/>
<mask id="mask15_15342_186370" style="mask-type:luminance" maskUnits="userSpaceOnUse" x="85" y="287" width="15" height="22">
<path d="M92.9756 308.748C90.6941 308.748 88.2412 307.801 87.2944 307.395C86.2934 306.971 85.8335 305.817 86.2663 304.816C86.6902 303.815 87.8535 303.355 88.8454 303.788C90.658 304.564 92.9846 305.033 93.6158 304.771C94.7521 303.491 96.5196 295.717 94.2381 292.02C93.7331 291.19 93.2551 291.046 92.9395 291.001C91.65 290.821 89.7382 292.155 89.0619 292.786C88.2683 293.526 87.0238 293.481 86.2844 292.687C85.5449 291.894 85.59 290.649 86.3836 289.91C86.7443 289.576 89.9997 286.636 93.4716 287.105C94.6529 287.268 96.3212 287.89 97.5927 289.964C100.947 295.411 98.6478 305.799 96.0777 307.855C95.2391 308.532 94.1389 308.766 92.9846 308.766L92.9756 308.748Z" fill="white"/>
</mask>
<g mask="url(#mask15_15342_186370)">
<path d="M95.5916 291.419C94.762 289.823 93.6798 289.345 92.9133 289.219C90.6589 288.858 88.5397 291.121 88.3052 291.374C87.8543 291.87 87.8002 292.654 88.1068 293.249C88.4495 293.177 88.7832 293.024 89.0537 292.772C89.73 292.14 91.6418 290.815 92.9314 290.986C93.247 291.031 93.7249 291.184 94.2299 292.005C96.5114 295.702 94.7439 303.476 93.6077 304.756C92.9765 305.027 90.6499 304.549 88.8373 303.773C88.6118 303.674 88.3684 303.629 88.1339 303.62C88.188 304.134 88.4585 304.603 88.8914 304.828C89.5046 305.144 91.1008 305.865 92.5887 305.865C93.3372 305.865 94.0496 305.685 94.5997 305.162C96.268 303.584 97.7649 295.594 95.5826 291.401L95.5916 291.419Z" fill="#DFFD62"/>
<path opacity="0.5" d="M95.5916 291.419C94.762 289.823 93.6798 289.345 92.9133 289.219C90.6589 288.858 88.5397 291.121 88.3052 291.374C87.8543 291.87 87.8002 292.654 88.1068 293.249C88.4495 293.177 88.7832 293.024 89.0537 292.772C89.73 292.14 91.6418 290.815 92.9314 290.986C93.247 291.031 93.7249 291.184 94.2299 292.005C96.5114 295.702 94.7439 303.476 93.6077 304.756C92.9765 305.027 90.6499 304.549 88.8373 303.773C88.6118 303.674 88.3684 303.629 88.1339 303.62C88.188 304.134 88.4585 304.603 88.8914 304.828C89.5046 305.144 91.1008 305.865 92.5887 305.865C93.3372 305.865 94.0496 305.685 94.5997 305.162C96.268 303.584 97.7649 295.594 95.5826 291.401L95.5916 291.419Z" fill="white"/>
</g>
<path d="M92.9756 308.748C90.6941 308.748 88.2412 307.801 87.2944 307.395C86.2934 306.971 85.8335 305.817 86.2663 304.816C86.6902 303.815 87.8535 303.355 88.8454 303.788C90.658 304.564 92.9846 305.033 93.6158 304.771C94.7521 303.491 96.5196 295.717 94.2381 292.02C93.7331 291.19 93.2551 291.046 92.9395 291.001C91.65 290.821 89.7382 292.155 89.0619 292.786C88.2683 293.526 87.0238 293.481 86.2844 292.687C85.5449 291.894 85.59 290.649 86.3836 289.91C86.7443 289.576 89.9997 286.636 93.4716 287.105C94.6529 287.268 96.3212 287.89 97.5927 289.964C100.947 295.411 98.6478 305.799 96.0777 307.855C95.2391 308.532 94.1389 308.766 92.9846 308.766L92.9756 308.748Z" stroke="#32235C" stroke-width="0.901781" stroke-linecap="round" stroke-linejoin="round"/>
<path d="M89.5003 285.484H67.8125V314.269H89.5003V285.484Z" fill="white"/>
<mask id="mask16_15342_186370" style="mask-type:luminance" maskUnits="userSpaceOnUse" x="67" y="285" width="23" height="30">
<path d="M89.5003 285.484H67.8125V314.269H89.5003V285.484Z" fill="white"/>
</mask>
<g mask="url(#mask16_15342_186370)">
<path d="M76.695 285.484H67.8125V314.269H76.695V285.484Z" fill="#DFFD62"/>
<path opacity="0.5" d="M76.695 285.484H67.8125V314.269H76.695V285.484Z" fill="white"/>
</g>
<path d="M89.5003 285.484H67.8125V314.269H89.5003V285.484Z" stroke="#32235C" stroke-width="0.901781" stroke-linecap="round" stroke-linejoin="round"/>
<path d="M208.679 313.871H116.039L113.009 262.938C112.657 260.828 114.281 258.898 116.427 258.898H208.291C210.437 258.898 212.061 260.819 211.709 262.938L208.679 313.871Z" fill="#32235C" stroke="#32235C" stroke-width="0.901781" stroke-linecap="round" stroke-linejoin="round"/>
<path d="M120.594 260.117H207.616C209.726 260.117 211.331 261.984 210.979 264.031" stroke="white" stroke-width="0.901781" stroke-linecap="round" stroke-linejoin="round"/>
<path d="M113.695 263.227C113.822 261.523 115.273 260.125 117.104 260.125" stroke="white" stroke-width="0.901781" stroke-linecap="round" stroke-linejoin="round"/>
<path d="M209.065 308.914H115.641V313.874H209.065V308.914Z" fill="white" stroke="#32235C" stroke-width="0.901781" stroke-linecap="round" stroke-linejoin="round"/>
<path d="M162.033 290.553C165.689 290.553 168.652 288.776 168.652 286.585C168.652 284.394 165.689 282.617 162.033 282.617C158.378 282.617 155.414 284.394 155.414 286.585C155.414 288.776 158.378 290.553 162.033 290.553Z" fill="white" stroke="#32235C" stroke-width="0.901781" stroke-linecap="round" stroke-linejoin="round"/>
<path d="M349.977 313.289H2.01562V321.739H349.977V313.289Z" fill="#32235C"/>
<path d="M259.755 0H92.3578C86.715 0 82.1406 4.57439 82.1406 10.2172V106.266C82.1406 111.909 86.715 116.483 92.3578 116.483H259.755C265.398 116.483 269.973 111.909 269.973 106.266V10.2172C269.973 4.57439 265.398 0 259.755 0Z" fill="#DFFD62"/>
<path d="M180.48 81.2729C195.665 78.8326 205.996 64.5447 203.555 49.3601C201.115 34.1755 186.827 23.8442 171.643 26.2845C156.458 28.7248 146.127 43.0127 148.567 58.1973C151.007 73.382 165.295 83.7132 180.48 81.2729Z" fill="#32235C"/>
<path d="M175.849 58.9254L166.579 70.8379C165.776 71.929 164.793 72.4791 163.63 72.4791C162.791 72.4791 162.07 72.1906 161.465 71.6224C160.861 71.0543 160.555 70.3419 160.555 69.4852C160.555 68.6826 160.861 67.862 161.475 67.0234L172.052 53.9295L162.115 40.8356C161.637 40.1683 161.393 39.4649 161.393 38.7074C161.393 37.7696 161.745 36.949 162.439 36.2636C163.143 35.5692 163.954 35.2266 164.874 35.2266C166.001 35.2266 166.966 35.7857 167.769 36.8949L176.733 48.7082L185.778 37.1023C186.679 35.8578 187.716 35.2356 188.88 35.2356C189.682 35.2356 190.377 35.5332 190.954 36.1193C191.531 36.7055 191.828 37.4089 191.828 38.2115C191.828 38.8788 191.594 39.519 191.134 40.1323L180.529 53.7131L190.773 67.2398C191.287 67.9251 191.54 68.6285 191.54 69.368C191.54 70.2878 191.179 71.0814 190.467 71.7397C189.754 72.398 188.934 72.7226 188.005 72.7226C186.842 72.7226 185.868 72.1725 185.083 71.0814L175.831 58.9434L175.849 58.9254Z" fill="white"/>
<path d="M240.352 110.758H251.38" stroke="white" stroke-width="2.70534" stroke-linecap="round" stroke-linejoin="round"/>
<path d="M87.375 29.5547V102.761C87.375 107.18 90.9551 110.76 95.3738 110.76H229.874" stroke="white" stroke-width="2.70534" stroke-linecap="round" stroke-linejoin="round"/>
<path d="M87.375 10.125V21.1087" stroke="white" stroke-width="2.70534" stroke-linecap="round" stroke-linejoin="round"/>
</g>
<defs>
<clipPath id="clip0_15342_186370">
<rect width="360" height="321.737" fill="white"/>
</clipPath>
</defs>
</svg>
