<svg width="94" height="38" viewBox="0 0 94 38" fill="none" xmlns="http://www.w3.org/2000/svg">
<g clip-path="url(#clip0_9464_84049)">
<mask id="mask0_9464_84049" style="mask-type:luminance" maskUnits="userSpaceOnUse" x="0" y="0" width="94" height="38">
<path d="M93.1751 0H0.492188V37.9475H93.1751V0Z" fill="white"/>
</mask>
<g mask="url(#mask0_9464_84049)">
<path d="M2.29822 15.1823C3.39179 11.1841 7.94647 10.2326 12.1399 10.115C15.5872 10.0184 19.4308 10.4742 19.4308 10.4742L17.6249 17.0772C17.6249 17.0772 13.7812 16.6214 10.3339 16.7181C6.14047 16.8356 1.58577 17.7871 0.492188 21.7854L2.29822 15.1823Z" fill="#A5A5D4"/>
<path d="M60.3237 8.15625C54.8032 8.15629 53.3888 13.4992 52.5975 16.3929L46.7003 37.9495H50.1408L55.3693 18.8355H58.9426L56.5638 27.5331H60.0043L62.8571 17.1025H55.8434C56.2029 15.7879 56.586 14.3873 56.8985 13.2453C57.4754 11.1363 58.4176 9.6047 59.788 9.65619C61.3025 9.71312 60.5317 10.7076 60.3243 11.4659C60.0373 12.5149 60.812 13.5697 62.1692 13.5697C65.1173 13.5697 65.8443 8.15625 60.3237 8.15625ZM40.8071 11.9282L36.5391 27.5331H40.1257L41.7063 21.7545H44.8218C48.2596 21.7545 50.541 19.8571 51.1579 17.2196C51.7339 14.7571 50.2956 11.9282 46.4433 11.9282C44.5645 11.9282 42.686 11.9282 40.8071 11.9282ZM43.8918 13.7645H45.2707C46.7145 13.7645 47.8601 14.9203 47.5835 16.9316C47.327 18.7962 45.3024 19.9138 43.5372 19.9138H42.2096L43.8918 13.7645ZM77.9042 16.7866C74.8885 16.7866 72.7128 19.381 72.1908 21.9739C71.6891 24.4656 73.118 27.7766 77.0517 27.7766C79.8478 27.7766 81.2537 26.5454 81.2537 26.5454L80.6103 24.957C80.6103 24.957 79.4349 25.9137 77.7971 25.9137C76.1592 25.9137 75.1317 24.621 75.3591 22.5606H82.0473C82.5254 21.3474 82.7871 16.7866 77.9042 16.7866ZM91.2357 16.9269C88.9926 16.9269 87.6702 19.2433 87.6702 19.2433L88.2556 17.1027H84.815L81.9622 27.5331H85.4026C85.4026 27.5331 86.2312 24.4857 86.6527 22.9642C87.3037 20.5859 88.6311 19.0967 89.2695 19.0359C90.0071 18.9655 89.9365 20.7427 91.3749 20.7427C93.557 20.7427 94.0277 16.9269 91.2361 16.9269H91.2357ZM64.1534 17.1027L63.6794 18.8359H68.0403L61.1846 27.5331H70.8659L71.3398 25.7999H66.4204L73.276 17.1027H64.1534ZM77.8914 18.5089C79.7619 18.5089 79.3363 20.9789 79.3363 20.9789L75.589 20.9702C75.589 20.9702 76.2105 18.5089 77.8914 18.5089Z" fill="#A5A5D4"/>
<path d="M28.4645 27.5508C16.1266 26.7814 1.78885 20.4174 2.29495 15.1797L0.592689 21.4035C0.0763345 26.7472 13.3766 33.0919 26.6585 34.1537L28.4645 27.5508Z" fill="#A5A5D4"/>
<path d="M32.953 18.978C31.8594 22.9762 27.3047 23.9277 23.1112 24.0454C19.6639 24.142 15.8203 23.6862 15.8203 23.6862L17.6263 17.0831C17.6263 17.0831 21.47 17.5389 24.9174 17.4423C29.1107 17.3247 33.6654 16.3732 34.759 12.375L32.953 18.978Z" fill="#A5A5D4"/>
<path d="M6.78125 6.60305C19.1193 7.37241 33.4569 13.7364 32.9509 18.9741L34.6531 12.7504C35.1695 7.40652 21.8692 1.06195 8.58727 0L6.78125 6.60305Z" fill="#A5A5D4"/>
</g>
</g>
<defs>
<clipPath id="clip0_9464_84049">
<rect width="92.6829" height="38" fill="white" transform="translate(0.492188)"/>
</clipPath>
</defs>
</svg>
