<svg width="112" height="24" viewBox="0 0 112 24" fill="none" xmlns="http://www.w3.org/2000/svg">
<g clip-path="url(#clip0_9464_84038)">
<path d="M0.570948 15.8702L4.65879 10.8691C5.09367 10.3328 6.13012 9.89062 6.96363 9.89062H11.1602C11.9865 9.89062 12.3054 10.3328 11.8633 10.8691L7.78265 15.8702C7.34778 16.4065 6.30407 16.8487 5.47781 16.8487H1.28125C0.447732 16.8487 0.13607 16.4065 0.570948 15.8702Z" fill="#A5A5D4"/>
<path d="M10.8399 0.726562H15.0365C15.87 0.726562 16.9064 1.16869 17.3413 1.70504L21.4219 6.69888C21.864 7.24248 21.5524 7.67735 20.7189 7.67735H16.5223C15.696 7.67735 14.6523 7.24248 14.2175 6.69888L10.1369 1.70504C9.69473 1.16869 10.0136 0.726562 10.8399 0.726562Z" fill="#A5A5D4"/>
<path d="M1.28125 0.726562H5.47781C6.30407 0.726562 7.34778 1.16869 7.78265 1.70504L11.8633 6.69888C12.3054 7.24248 11.9865 7.67735 11.1602 7.67735H6.96363C6.13012 7.67735 5.09367 7.24248 4.65879 6.69888L0.570948 1.70504C0.13607 1.16869 0.447732 0.726562 1.28125 0.726562Z" fill="#A5A5D4"/>
<path fill-rule="evenodd" clip-rule="evenodd" d="M79.7296 4.42785C76.6203 4.29014 74.5256 5.61652 74.5256 8.99408V16.1551H71.5612V2.00704H74.2647L74.5256 4.37712C75.0185 3.16672 76.4247 1.77511 79.7296 1.85484V4.42785ZM33.5603 1.89832C37.5176 1.89832 39.9674 4.71779 39.9674 9.01581C39.9674 9.30574 39.9674 9.63914 39.9167 9.97254H29.6536C29.8058 12.5673 31.6614 13.9589 33.5241 13.9879C35.2781 13.9879 36.6407 13.1906 37.1843 11.799H39.6049C39.2934 13.8285 37.5032 16.3 33.553 16.2783C29.4361 16.2783 26.8341 13.1399 26.8341 9.06654C26.8341 4.99321 29.2767 1.90557 33.553 1.90557L33.5603 1.89832ZM62.255 1.89832C66.2123 1.89832 68.6621 4.71052 68.6621 9.01581C68.6621 9.29848 68.6621 9.6319 68.6114 9.9653H58.3483C58.5005 12.5673 60.3558 13.9589 62.2114 13.9879C63.9654 13.9879 65.3352 13.1906 65.879 11.7918H68.2996C67.9881 13.8212 66.1905 16.3 62.2476 16.271C58.1307 16.271 55.5287 13.1327 55.5287 9.06654C55.5287 4.99321 57.9714 1.89832 62.2476 1.89832H62.255ZM87.717 2.07227C90.5727 2.07227 91.841 3.65957 91.841 3.65957L92.479 2.23173H94.5372V16.7856C94.5372 19.8515 92.5803 22.1853 89.3841 22.6927C88.9345 22.7724 88.4563 22.8159 87.9634 22.8159C83.6218 22.8159 81.6576 20.0979 81.2881 17.8511H83.9698C84.5714 19.3876 86.079 20.2646 88.0141 20.2646C88.2243 20.2646 88.4272 20.2429 88.6374 20.2067C90.5365 19.9892 91.7252 18.6411 91.7252 16.7639V14.3938C91.7252 14.3938 90.4567 15.9811 87.7605 15.9811C84.2743 15.9811 81.2589 12.9587 81.2589 8.99408C81.2589 5.02219 84.2743 2.01429 87.7605 2.01429L87.717 2.07227ZM43.8667 2.12301L47.7372 12.821L51.6076 2.12301H54.7823L49.1361 16.2203H46.295L40.6923 2.12301H43.8667ZM100.125 2.12301L104.481 12.5093L108.526 2.12301H111.389L102.967 23.0696H100.256L103.039 16.1768L97.1683 2.12301H100.125ZM33.5167 4.21768C33.5216 4.21768 33.5265 4.21768 33.5312 4.21768C33.5312 4.21768 33.5336 4.21768 33.5385 4.21768H33.5167ZM33.5241 4.21768C31.2843 4.22492 30.0523 5.71799 29.7116 7.87788H37.1987C36.945 5.66725 35.713 4.22492 33.5241 4.21768ZM62.2041 4.21768C62.209 4.21768 62.2114 4.21768 62.2114 4.21768C62.2163 4.21768 62.2187 4.21768 62.2187 4.21768H62.2041ZM62.2187 4.21768C59.979 4.22492 58.747 5.71799 58.4134 7.87788H65.8934C65.6396 5.66725 64.4003 4.22492 62.2187 4.21768ZM92.0367 8.97232C92.0367 6.6095 90.2683 4.69603 88.0721 4.69603C85.8761 4.69603 84.1074 6.6095 84.1074 8.97232C84.1074 11.3352 85.8761 13.2486 88.0721 13.2486C90.2683 13.2486 92.0367 11.3352 92.0367 8.97232ZM20.9923 9.44343C21.8186 9.44343 22.1375 9.88556 21.6954 10.4219L17.6148 15.4375C17.1726 15.9811 16.1289 16.416 15.3027 16.416H11.1134C10.2871 16.416 9.96818 15.9739 10.4103 15.4375L14.4909 10.4219C14.933 9.88556 15.9695 9.44343 16.803 9.44343H20.9923Z" fill="#A5A5D4"/>
</g>
<defs>
<clipPath id="clip0_9464_84038">
<rect width="111.111" height="22.6667" fill="white" transform="translate(0.320312 0.664062)"/>
</clipPath>
</defs>
</svg>
