<svg width="112" height="20" viewBox="0 0 112 20" fill="none" xmlns="http://www.w3.org/2000/svg">
<path fill-rule="evenodd" clip-rule="evenodd" d="M28.6413 14.1089L30.8851 15.1914L29.7309 16.2738H28.6413V15.1914L26.9782 14.6179L24.1609 11.8007L21.9173 10.7183L19.6735 7.3921L18.5194 6.30968L19.0929 4.65377L17.4298 2.99068L16.2757 4.07312V6.45303L15.1861 7.53548L17.4298 9.70752L16.2757 10.79L18.5194 12.9548V14.1089L19.6735 16.2738H20.8276L21.9889 15.2631L21.4083 14.6896L20.8276 13.0265H21.9889L23.1431 15.2631L24.2327 16.3527L20.9065 17.4351L19.7452 18.5176L18.5911 17.4351L18.0104 15.772L16.3474 15.1914V14.1089H15.2577L14.6843 16.8545L15.2577 18.3742L12.6556 19.4566L11.8599 18.3742L12.4405 17.2846V16.2021H10.7775L8.53375 18.3742L6.87066 17.7935V15.6287L4.04628 15.1914L1.88141 16.2738L0.648438 15.7003V13.4638L1.73088 12.8831L6.21833 10.7183L6.79897 11.2917L8.46206 9.63583V8.47455L10.7058 6.30968L11.9316 4.07312L13.5947 1.32759L16.2757 0.825801H17.4298V1.83655L19.6735 4.07312V6.30968L23.0713 9.63583L26.4764 11.8007L28.1395 12.3742L28.6413 14.1089ZM35.946 1.97992L38.9853 0.539062V16.281H35.946V1.97992ZM51.6449 9.99426V16.4172H48.6053V10.281C48.6053 8.2595 47.8813 7.60717 46.6484 7.60717C45.4227 7.60717 44.6987 8.18781 44.6987 10.1376V16.3455H41.5875V5.01219H44.6269V5.73619C45.2004 5.15555 46.1467 4.71828 47.3724 4.71828C50.3402 4.71828 51.6449 6.6681 51.6449 9.99426ZM60.8275 4.9405H64.0822L59.9602 16.2738H56.8491L52.6555 4.9405H55.9818L57.6449 10.2093C57.9316 11.1484 58.2256 12.1591 58.3689 12.7398C58.5122 12.1591 58.8062 11.0767 59.0929 10.2093L60.8275 4.9405ZM75.4369 10.7183C75.4369 11.1484 75.4369 11.2989 75.3653 11.6573H67.774C67.9889 13.0982 69.2147 13.7505 70.4478 13.7505C71.1 13.7505 71.9673 13.4638 72.548 12.7398L74.8635 14.4029C73.6304 16.1376 71.6018 16.5677 70.376 16.5677C66.9782 16.5677 64.5911 14.2595 64.5911 10.6466C64.5911 7.17706 67.0498 4.72543 70.0893 4.72543C73.272 4.72543 75.2935 7.32759 75.4369 10.7183ZM72.2542 9.3491C72.1109 8.26666 71.3869 7.32759 69.9387 7.32759C68.7847 7.32759 67.9173 8.26666 67.7022 9.3491H72.2542ZM86.6484 12.8115C86.6484 15.1986 84.1895 16.4961 81.7238 16.4961C79.9173 16.4961 78.1109 15.7003 76.8778 14.9047L78.3976 12.8831C79.4871 13.4638 80.5695 13.9656 81.8742 13.9656C82.9567 13.9656 83.6807 13.5355 83.6807 12.9548C83.6807 12.1663 82.4478 12.0158 81.8742 11.9441C79.6304 11.4423 76.9496 11.0767 76.9496 8.18781C76.9496 6.09461 79.1215 4.72543 81.7238 4.72543C83.1718 4.72543 84.8349 5.29892 85.996 6.02292L84.4764 8.04443C83.5373 7.61432 82.4478 7.24875 81.7238 7.24875C80.4262 7.24875 79.9173 7.61432 79.9173 8.04443C79.9173 8.84015 81.5804 8.9835 82.4478 9.19857C84.548 9.70752 86.6484 10.2882 86.6484 12.8115ZM90.9138 10.6466C90.9138 12.3097 92.1467 13.6789 93.8813 13.6789C94.9638 13.6789 95.8313 13.1771 96.3402 12.3814L98.7273 14.1161C97.6378 15.6287 95.9029 16.5677 93.8813 16.5677C90.6269 16.5677 87.8742 13.8939 87.8742 10.6466C87.8742 7.39928 90.5553 4.72543 93.8813 4.72543C95.9029 4.72543 97.7164 5.6645 98.7989 7.17706L96.4118 8.9835C95.9029 8.18781 95.0356 7.61432 93.9531 7.61432C92.2182 7.61432 90.9853 8.91181 90.9138 10.6466ZM105.745 16.4961C102.419 16.4961 99.738 13.8652 99.738 10.6107C99.738 7.35626 102.419 4.72543 105.745 4.72543C109.064 4.72543 111.745 7.35626 111.745 10.6107C111.745 13.8652 109.064 16.4961 105.745 16.4961ZM108.706 10.6466C108.706 8.96917 107.38 7.61432 105.745 7.61432C104.104 7.61432 102.778 8.96917 102.778 10.6466C102.778 12.324 104.104 13.6789 105.745 13.6789C107.38 13.6789 108.706 12.324 108.706 10.6466Z" fill="#A5A5D4"/>
</svg>
