<svg width="115" height="30" viewBox="0 0 115 30" fill="none" xmlns="http://www.w3.org/2000/svg">
<g clip-path="url(#clip0_9464_84043)">
<path d="M0.1875 21.4746L4.29432 18.2969C6.47624 21.1732 8.79443 22.4991 11.3747 22.4991C13.9413 22.4991 16.194 21.1889 18.2775 18.3351L22.443 21.4363C19.4366 25.5514 15.7006 27.7257 11.3747 27.7257C7.06268 27.7257 3.29047 25.5654 0.1875 21.4746Z" fill="#A5A5D4"/>
<path d="M11.3607 7.66309L4.05082 14.0257L0.671875 10.0674L11.3762 0.75L21.996 10.0743L18.6015 14.0187L11.3607 7.66309Z" fill="#A5A5D4"/>
<path fill-rule="evenodd" clip-rule="evenodd" d="M52.0786 7.13144C52.0786 8.5078 53.0721 9.51128 54.4348 9.51128V9.51306C55.7526 9.51306 56.7701 8.5078 56.7701 7.13144C56.7701 5.80039 55.7526 4.79688 54.4348 4.79688C53.1187 4.79688 52.0786 5.80039 52.0786 7.13144ZM50.5802 5.73053V23.5429H46.513V5.73053H50.5802ZM38.1943 23.8001C35.6989 23.7999 33.619 22.9828 31.9323 21.3488C30.2455 19.692 29.4141 17.5682 29.4141 14.9758C29.4141 12.3625 30.2679 10.2144 31.9548 8.53309C33.6658 6.82924 35.746 5.98949 38.2194 5.98949C41.2706 5.98949 43.9734 7.3188 45.5464 9.39728L42.7936 12.3155C41.4758 10.8903 40.0425 10.1673 38.4953 10.1673C37.1775 10.1673 36.0909 10.6098 35.1888 11.521C34.3109 12.4322 33.8727 13.5768 33.8727 14.9531C33.8727 16.2842 34.3109 17.4044 35.1888 18.3156C36.0909 19.2024 37.1775 19.645 38.4711 19.645C40.1581 19.645 41.638 18.8975 42.8626 17.4271L45.7293 20.2059C44.9428 21.2565 43.8802 22.1206 42.5625 22.7966C41.245 23.4742 39.7895 23.8 38.1943 23.8001ZM56.4922 10.6556V23.5427H52.4009V10.6556H56.4922ZM59.4251 21.9313C60.6945 23.1926 62.3125 23.8233 64.3236 23.8233C67.0281 23.8233 69.3153 22.4922 70.4261 20.3441L67.1661 18.3841C66.7039 19.3877 65.6173 20.041 64.4391 20.041C62.7971 20.041 61.5725 18.7796 61.5725 17.0758C61.5581 16.3024 61.8492 15.5551 62.3814 14.999C62.9368 14.438 63.6302 14.1576 64.4857 14.1576C65.6638 14.1576 66.5659 14.7185 67.2127 15.8161L70.4709 14.0878C69.386 11.6365 67.0506 10.3299 64.3926 10.3299C62.359 10.3299 60.7187 10.9589 59.4475 12.2202C58.1763 13.4815 57.5519 15.0914 57.5519 17.0758C57.5519 19.0601 58.1763 20.6717 59.4251 21.9313ZM84.6117 23.5429H79.7567L75.9876 18.4295L75.3877 18.9905V23.5429H71.3222V5.73053H75.3891V14.3911L79.2252 10.6558H84.1949L78.7186 15.8389L84.6117 23.5429ZM84.8846 6.29008V16.8426C84.8846 21.9317 88.3979 23.8464 91.9341 23.8464C95.4923 23.8464 98.9836 21.9317 98.9836 16.8426V6.29008H94.6145V16.7729C94.6145 18.6633 93.5051 19.6441 91.9341 19.6441C90.3388 19.6441 89.2294 18.7103 89.2294 16.7729V6.29008H84.8846ZM108.639 10.3299C110.466 10.3299 111.946 10.9832 113.124 12.2899C114.302 13.5739 114.879 15.1854 114.879 17.0758C114.879 18.9678 114.28 20.5776 113.102 21.9086C111.922 23.2153 110.443 23.8704 108.664 23.8704C107.253 23.8704 106.028 23.4035 105.034 22.4696V28.8426H100.943V10.6557H104.966V11.8474C105.959 10.8421 107.184 10.3299 108.639 10.3299ZM107.854 14.1581C109.519 14.1581 110.719 15.4421 110.719 17.1233H110.721C110.731 17.9034 110.441 18.6569 109.91 19.2244C109.379 19.808 108.686 20.0885 107.854 20.0885C107.021 20.0885 106.328 19.808 105.774 19.2244C105.241 18.6408 104.966 17.9404 104.966 17.1233C104.966 15.4421 106.19 14.1581 107.854 14.1581Z" fill="#A5A5D4"/>
</g>
<defs>
<clipPath id="clip0_9464_84043">
<rect width="114.713" height="28.5" fill="white" transform="translate(0.1875 0.75)"/>
</clipPath>
</defs>
</svg>
