<svg width="93" height="20" viewBox="0 0 93 20" fill="none" xmlns="http://www.w3.org/2000/svg">
<g clip-path="url(#clip0_9464_84059)">
<path fill-rule="evenodd" clip-rule="evenodd" d="M91.0211 17.0131H90.8015V17.5262H91.0085C91.198 17.5262 91.3156 17.4453 91.3156 17.2697C91.3156 17.1006 91.2112 17.0131 91.0211 17.0131ZM91.4672 18.5051L90.9644 17.7628H90.8015V18.4787H90.5123V16.7433H91.0211C91.3742 16.7433 91.609 16.9244 91.609 17.2491C91.609 17.499 91.4793 17.6608 91.2698 17.729L91.7532 18.4376L91.4672 18.5051ZM91.0283 16.278C90.3228 16.278 89.7626 16.7765 89.7626 17.6686C89.7626 18.5517 90.3228 19.0521 91.0283 19.0521C91.7406 19.0521 92.3019 18.5517 92.3019 17.6686C92.3019 16.7765 91.7345 16.278 91.0283 16.278ZM91.0283 19.2348C90.1556 19.2348 89.5472 18.606 89.5472 17.6686C89.5472 16.7361 90.1665 16.0933 91.0283 16.0933C91.9035 16.0933 92.5101 16.7289 92.5101 17.6686C92.5101 18.6011 91.8898 19.2348 91.0283 19.2348ZM14.485 10.9732H9.97817C10.2588 10.5108 14.485 3.40498 14.485 3.40498V10.9732ZM12.5609 0.227166L1.13281 19.2337H5.01802C5.01802 19.2337 7.83609 14.5023 7.93327 14.3405H14.4911L14.4935 19.2361L18.1813 19.2356V0.226562H12.5609V0.227166ZM20.7973 0.226562V19.2361H24.3813V0.227166L20.7973 0.226562ZM26.9899 0.226562H30.5685V19.2361H26.9899V0.226562ZM38.456 10.2586C36.5065 9.73225 36.0989 9.43648 36.1503 8.59692C36.1925 7.8352 36.792 7.39702 37.7932 7.39702C39.0318 7.39702 40.5461 7.84848 41.8474 8.60415L42.0527 8.72547L42.5457 5.55369L42.4292 5.49636C41.0929 4.86562 39.4934 4.52944 37.7932 4.52944C36.1569 4.52944 34.7657 5.05214 33.867 5.99854C33.156 6.7536 32.7909 7.7308 32.8096 8.81661C32.8718 11.7476 34.2219 12.5769 37.4202 13.4273C39.5351 13.9669 39.9643 14.2874 39.9492 15.3304C39.9371 16.2683 39.3964 16.622 37.958 16.622C36.454 16.622 34.7578 16.0486 33.2863 15.0533L33.0727 14.9067L32.576 18.0905L32.6828 18.1509C33.8283 18.8027 35.7857 19.4871 37.8494 19.4871C39.8496 19.4871 41.3266 18.997 42.2404 18.0416C42.9525 17.292 43.3026 16.2786 43.2863 15.0207C43.2399 11.8731 41.705 11.1253 38.456 10.2586ZM51.9899 16.0323L51.8046 16.0836C51.5584 16.1537 51.2468 16.1893 50.8213 16.1893C49.7591 16.1893 49.2654 15.6937 49.2654 14.6218V7.89193H51.8932L51.9417 4.79681H49.2654V0.226562H45.7404V4.79681H43.8997V7.89135H45.7404V15.1825C45.7404 18.0682 47.1975 19.48 50.2015 19.48C51.1709 19.48 51.7648 19.3658 52.2934 19.2469L52.454 19.215L51.9899 16.0323ZM58.3793 16.622C57.4975 16.622 56.9518 16.0625 56.9518 15.165C56.9518 13.5661 58.4421 12.5213 61.2655 12.129V15.2604C60.3892 16.1458 59.394 16.622 58.3793 16.622ZM59.6173 4.49925C57.3888 4.49925 55.7061 5.06058 54.3679 5.60381L54.2411 5.65511L54.7006 8.70375L54.901 8.61261C56.507 7.87806 57.8663 7.53524 59.1905 7.53524C60.6017 7.53524 61.2655 8.1394 61.2655 9.4407V9.81371C55.9734 10.3769 53.3967 12.2449 53.3967 15.5259C53.3967 17.9499 54.9147 19.5143 57.2694 19.5143C58.8989 19.5143 60.2521 18.8987 61.4991 17.6445C61.5668 18.0646 61.7485 19.2343 61.7485 19.2343H64.8448V9.34173C64.8448 6.04199 63.1844 4.49925 59.6173 4.49925ZM74.0365 16.0323L73.8543 16.0836C73.6092 16.1537 73.2931 16.1893 72.8747 16.1893C71.8088 16.1893 71.309 15.6937 71.309 14.6218V7.89193H73.9424L73.9907 4.79681H71.309V0.226562H67.7782V4.79681H65.9463V7.89135H67.7782V15.1825C67.7782 18.0682 69.2448 19.48 72.2507 19.48C73.2169 19.48 73.8386 19.3605 74.342 19.2469L74.4989 19.215L74.0365 16.0323ZM78.6551 10.4312C78.8164 8.36092 79.6872 7.17127 81.0633 7.17127C82.9164 7.17127 83.4077 8.89931 83.4808 10.4312H78.6551ZM86.3241 14.92C84.7211 16.0704 83.4101 16.5659 81.9283 16.5659C80.0041 16.5659 78.8096 15.2187 78.6044 12.875H86.9554L86.9923 11.8876C86.9923 6.99503 85.0265 4.5065 81.1442 4.49986C79.4386 4.49443 78.04 5.0479 76.9868 6.13977C75.7043 7.45858 75.0259 9.51133 75.0259 12.056C75.0259 16.6613 77.5428 19.5143 81.5758 19.5143C83.5459 19.5143 85.3331 18.9464 86.8914 17.8364L86.9797 17.7761L86.545 14.7582L86.3241 14.92Z" fill="#A5A5D4"/>
</g>
<defs>
<clipPath id="clip0_9464_84059">
<rect width="91.7431" height="20" fill="white" transform="translate(0.929688)"/>
</clipPath>
</defs>
</svg>
