<svg width="91" height="26" viewBox="0 0 91 26" fill="none" xmlns="http://www.w3.org/2000/svg">
<g clip-path="url(#clip0_9464_84061)">
<path d="M77.783 1.14079C77.8728 1.09593 77.8728 1.2604 77.783 1.14079C91.8529 1.2604 91.1054 13.6108 90.0288 16.9302C88.5486 21.072 84.6461 24.8848 76.8112 24.8398H13.489C6.92504 24.6604 2.4095 21.0122 1.37781 16.7956C-0.311778 12.0708 1.45257 1.6043 12.9358 1.14079H17.0028H77.783Z" fill="#A5A5D4"/>
<path d="M77.783 1.14079C77.8728 1.09593 77.8728 1.2604 77.783 1.14079ZM77.783 1.14079C91.8529 1.2604 91.1054 13.6108 90.0288 16.9302C88.5486 21.072 84.6461 24.8848 76.8112 24.8398H13.489C6.92504 24.6604 2.4095 21.0122 1.37781 16.7956C-0.311778 12.0708 1.45257 1.6043 12.9358 1.14079H17.0028H77.783Z" stroke="#A5A5D4" stroke-width="0.251343"/>
<path d="M40.236 8.76767C41.6415 11.3095 40.6995 14.5691 38.9352 16.6474C36.9316 19.1893 33.2833 19.6827 30.5022 19.0247C28.6631 18.4566 27.7809 17.1857 27.4519 15.7652C27.0483 12.9094 28.1099 10.1731 30.1433 8.16957C31.9526 6.43512 34.6589 6.09123 37.141 6.55476C38.3072 6.88369 39.5333 7.58644 40.236 8.76767Z" fill="white"/>
<path d="M19.4079 18.4571C18.4511 18.8907 17.7035 19.0104 15.984 19.0252H9.03125L11.5582 6.91406H18.9893C21.8601 6.91406 22.6377 9.14193 21.7256 10.9362C21.2621 11.8483 20.4846 12.2968 19.8416 12.5659C19.8267 12.5809 19.8566 12.551 19.8416 12.551C19.8267 12.6108 19.8715 12.5809 19.8416 12.551C19.8267 12.5659 19.8267 12.5809 19.8416 12.551C22.6675 13.7173 21.8451 17.3506 19.4079 18.4571Z" fill="white"/>
<path d="M25.2692 19.0358H21.875L24.5215 6.98438H27.8559L25.2692 19.0358Z" fill="white"/>
<path d="M54.9697 6.90728C61.0104 6.81756 59.3208 12.604 55.9566 13.5311C55.9566 13.546 55.9566 13.561 55.9566 13.5311C57.9452 14.1441 57.7957 16.9401 57.6461 19.0483H53.7287C53.7585 18.4054 55.5828 14.0843 52.8018 14.2039H50.0805C50.0953 14.2189 49.4076 17.4335 49.0487 19.0483H45.7444C45.7592 19.0634 46.7312 14.2189 46.7461 14.2039H43.1875L43.7108 11.7817H47.2545L48.3759 6.92222L54.9697 6.90728Z" fill="white"/>
<path d="M17.2757 9.17121C19.6083 9.17121 18.6064 11.5336 17.3654 11.5785C16.4234 11.5785 13.8367 11.5785 13.8516 11.5934L14.3301 9.15625C14.345 9.18614 17.2757 9.17121 17.2757 9.17121Z" fill="#A5A5D4"/>
<path d="M36.7108 9.77914C37.9368 10.9603 37.1294 13.4574 36.307 14.818C35.4098 16.2085 34.438 16.5076 34.0044 16.6122C32.6438 16.8664 31.7765 16.4179 31.4027 15.76C30.7449 14.7133 31.1784 11.5883 32.569 10.1829C33.526 9.01658 35.5893 8.71754 36.7108 9.77914Z" fill="#A5A5D4"/>
<path d="M53.8311 9.21094C56.1039 9.34551 55.6404 11.7079 53.9957 11.7827C54.0256 11.8275 50.6016 11.7677 50.6016 11.7976L51.1846 9.21094H53.8311Z" fill="#A5A5D4"/>
<path d="M16.3164 13.7988C19.3815 13.7091 19.0377 16.7892 16.5706 16.6098H12.7578C12.7728 16.5948 13.3858 13.7988 13.3858 13.7988H16.3164Z" fill="#A5A5D4"/>
<path d="M69.8906 19.0051L72.4625 6.96875H78.7871C81.8374 7.17808 82.9738 9.00224 83.3476 10.647C83.856 13.3981 83.3774 18.8856 76.4397 19.0051C76.4099 19.0051 76.4397 18.9903 76.4397 19.0051H69.8906Z" fill="white"/>
<path d="M70.5008 19.0117H67.1516C67.1516 19.0117 66.688 16.9782 66.6582 16.9483H61.2157C61.2306 16.9782 59.9597 19.0117 59.9597 19.0416H56.8047L64.0716 6.94531C64.0716 6.94531 67.8992 6.94531 67.9142 6.94531L70.5008 19.0117Z" fill="white"/>
<path d="M77.486 9.19531C81.1344 9.19531 81.0446 16.7162 75.6768 16.791H73.7031L75.3179 9.21027C75.3179 9.19531 77.486 9.19531 77.486 9.19531Z" fill="#A5A5D4"/>
<path d="M62.6719 14.5678L65.2436 10.1719L66.1406 14.5678H62.6719Z" fill="#A5A5D4"/>
</g>
<defs>
<clipPath id="clip0_9464_84061">
<rect width="90.535" height="24.4444" fill="white" transform="translate(0.421875 0.78125)"/>
</clipPath>
</defs>
</svg>
