<svg width="112" height="20" viewBox="0 0 112 20" fill="none" xmlns="http://www.w3.org/2000/svg">
<mask id="mask0_9464_84076" style="mask-type:luminance" maskUnits="userSpaceOnUse" x="0" y="0" width="112" height="20">
<path d="M111.814 0.15625H0.703125V19.8378H111.814V0.15625Z" fill="white"/>
</mask>
<g mask="url(#mask0_9464_84076)">
<path fill-rule="evenodd" clip-rule="evenodd" d="M101.391 15.1785H105.612V0.15625H101.391V15.1785Z" fill="#A5A5D4"/>
<path fill-rule="evenodd" clip-rule="evenodd" d="M111.814 0.15625V15.1785H107.594V0.15625H111.814Z" fill="#A5A5D4"/>
<path fill-rule="evenodd" clip-rule="evenodd" d="M9.70337 5.99089H6.2895V0.15625H0.703125V15.1785H6.2895V7.72972H9.70337V15.1785H15.2903V0.15625H9.70337V5.99089Z" fill="#A5A5D4"/>
<path fill-rule="evenodd" clip-rule="evenodd" d="M35.9273 5.73865L35.5855 4.74574H30.9922V15.1745H35.5855V8.90478C35.5855 7.53894 36.4551 6.79429 37.1997 6.79429C37.8202 6.79429 38.6271 6.91834 38.6271 8.28421V15.1745H43.2204V8.40843C43.2204 4.62169 38.9693 3.13225 35.9273 5.73865Z" fill="#A5A5D4"/>
<path fill-rule="evenodd" clip-rule="evenodd" d="M83.1085 10.8022L80.9669 4.75H77.8323L75.6905 11.0504L73.4556 4.75H69.0798H69.0483H67.3107L65.1069 10.0569L62.0031 4.75H56.7578L62.9343 15.3028L62.1274 17.2886C61.8478 17.9099 61.1791 17.9406 61.048 17.3507C61.048 16.2842 60.1834 15.42 59.1167 15.42C58.05 15.42 57.1854 16.2842 57.1854 17.3507C57.1929 18.4683 58.31 19.927 60.5134 19.8337C62.7174 19.7409 63.648 17.9099 63.9585 17.1338L69.0629 4.79067L72.7423 15.1788H76.094L78.1425 9.18804L80.2532 15.1788H83.4187L86.9878 4.75H85.1569L83.1085 10.8022Z" fill="#A5A5D4"/>
<path fill-rule="evenodd" clip-rule="evenodd" d="M23.1995 4.21875C19.6848 4.21875 16.8359 6.83217 16.8359 10.0558C16.8359 13.2805 19.6848 15.894 23.1995 15.894C26.7148 15.894 29.5644 13.2805 29.5644 10.0558C29.5644 6.83217 26.7148 4.21875 23.1995 4.21875ZM24.7828 12.7869C24.7828 13.6615 24.0741 14.3703 23.1995 14.3703C22.326 14.3703 21.6173 13.6615 21.6173 12.7869V7.32519C21.6173 6.45122 22.326 5.74306 23.1995 5.74306C24.0741 5.74306 24.7828 6.45122 24.7828 7.32519V12.7869Z" fill="#A5A5D4"/>
<path fill-rule="evenodd" clip-rule="evenodd" d="M57.2637 10.8939C57.2975 10.6496 57.3146 10.3087 57.3146 10.0558C57.3146 6.83217 54.4653 4.21875 50.9506 4.21875C47.4353 4.21875 44.5859 6.83217 44.5859 10.0558C44.5859 13.2805 47.4353 15.894 50.9506 15.894C53.3657 15.894 55.4664 14.6597 56.545 12.8415L55.1393 12.3212C54.2895 13.6197 52.7317 14.4892 50.9506 14.4892C50.0759 14.4892 49.3673 13.6615 49.3673 12.7869V10.8944L57.2637 10.8939ZM49.3673 7.32519C49.3673 6.45122 50.0759 5.74306 50.9506 5.74306C51.8246 5.74306 52.5335 6.45122 52.5335 7.32519V9.40448H49.3673V7.32519Z" fill="#A5A5D4"/>
<path fill-rule="evenodd" clip-rule="evenodd" d="M99.7789 10.8939C99.8131 10.6496 99.8305 10.3087 99.8305 10.0558C99.8305 6.83217 96.9811 4.21875 93.4658 4.21875C89.9511 4.21875 87.1016 6.83217 87.1016 10.0558C87.1016 13.2805 89.9511 15.894 93.4658 15.894C95.8813 15.894 97.982 14.6597 99.0609 12.8415L97.6549 12.3212C96.8053 13.6197 95.2476 14.4892 93.4658 14.4892C92.5916 14.4892 91.8831 13.6615 91.8831 12.7869V10.8944L99.7789 10.8939ZM91.8831 7.32519C91.8831 6.45122 92.5916 5.74306 93.4658 5.74306C94.3405 5.74306 95.0491 6.45122 95.0491 7.32519V9.40448H91.8831V7.32519Z" fill="#A5A5D4"/>
</g>
</svg>
