<svg width="112" height="24" viewBox="0 0 112 24" fill="none" xmlns="http://www.w3.org/2000/svg">
<g clip-path="url(#clip0_9464_84088)">
<mask id="mask0_9464_84088" style="mask-type:luminance" maskUnits="userSpaceOnUse" x="0" y="0" width="112" height="24">
<path d="M111.681 0.445312H0.570312V23.3853H111.681V0.445312Z" fill="white"/>
</mask>
<g mask="url(#mask0_9464_84088)">
<mask id="mask1_9464_84088" style="mask-type:luminance" maskUnits="userSpaceOnUse" x="-23" y="-22" width="460" height="356">
<path d="M-22.8672 -21.9141H436.917V333.51H-22.8672V-21.9141Z" fill="white"/>
</mask>
<g mask="url(#mask1_9464_84088)">
<path d="M0.617188 23.3291L13.7971 0.445312L15.9715 4.25222L7.21067 19.4939H11.5876L18.1811 8.08025L20.3836 11.859L15.9715 19.4939H20.3836L22.565 15.687L26.9419 23.3291H0.617188Z" fill="#A5A5D4"/>
<path fill-rule="evenodd" clip-rule="evenodd" d="M65.8123 11.3672C66.0726 12.2327 66.2203 13.1334 66.1923 14.0341V14.7941H57.537C57.5932 15.5752 57.9452 16.3 58.5221 16.7926C59.1061 17.257 59.831 17.5174 60.5839 17.5174C61.1961 17.5174 61.8366 17.3766 62.3855 17.0529C62.8497 16.7644 63.2861 16.3844 63.6308 15.9833L65.6646 17.5174C65.0875 18.2773 64.3275 18.8825 63.4619 19.2625C62.6457 19.6143 61.745 19.7832 60.8795 19.7832C60.035 19.7832 59.2259 19.6425 58.4659 19.3469C57.713 19.0866 57.0443 18.6784 56.4955 18.1577C55.9397 17.6088 55.4752 16.9685 55.1868 16.2718C54.5181 14.7026 54.5181 12.9294 55.1868 11.3672C55.4752 10.6354 55.9397 10.002 56.4955 9.47429C57.0443 8.95357 57.713 8.51728 58.4659 8.25693C59.2259 7.96842 60.035 7.82064 60.8795 7.8488C61.6043 7.82064 62.3572 7.96842 63.0539 8.25693C63.6941 8.51728 64.243 8.92542 64.7357 9.44615C65.2001 10.002 65.5801 10.6706 65.8123 11.3672ZM63.3706 12.669C63.3423 11.8316 63.0819 11.1913 62.5612 10.6987C62.0688 10.2061 61.3721 9.97391 60.4715 9.97391C59.627 9.97391 58.9303 10.2061 58.4377 10.6987C57.917 11.2476 57.6003 11.9442 57.537 12.669H63.3706ZM74.4886 7.87693C74.6623 7.91915 74.8359 7.95904 75.0095 7.99655V10.755C74.7608 10.6987 74.5286 10.6494 74.3128 10.6072C74.0828 10.5697 73.8506 10.5509 73.6161 10.5509C73.0955 10.5228 72.5183 10.6354 72.0539 10.9028C71.6646 11.1139 71.3455 11.393 71.097 11.7402C70.921 12.0357 70.7732 12.3524 70.6888 12.6972C70.6326 12.9294 70.5692 13.1616 70.5692 13.429V19.4947H67.7263V8.10915H70.5692V9.93873H70.6326C70.921 9.30542 71.3855 8.74951 71.9623 8.37655C72.5746 8.02471 73.2712 7.82064 73.9961 7.8488C74.1508 7.8488 74.315 7.85817 74.4886 7.87693ZM86.3597 11.3672C86.6201 12.2327 86.7679 13.1334 86.7397 14.0341V14.7941H78.0915C78.1479 15.5752 78.4926 16.3 79.0766 16.7926C79.6537 17.257 80.3786 17.5174 81.1383 17.5174C81.7717 17.5174 82.3839 17.3766 82.9328 17.0529C83.3972 16.7644 83.8335 16.3844 84.1855 15.9833L86.219 17.5174C85.635 18.2773 84.8821 18.8825 84.0095 19.2625C83.2001 19.6143 82.3277 19.7832 81.427 19.7832C80.6106 19.7832 79.8015 19.6425 79.0203 19.3469C78.2886 19.0866 77.627 18.6784 77.043 18.1577C76.4941 17.6088 76.0297 16.9685 75.7341 16.2718C75.1008 14.6745 75.1008 12.9294 75.7341 11.3672C76.0297 10.6354 76.4941 10.002 77.043 9.47429C77.627 8.95357 78.2886 8.51728 79.0203 8.25693C79.8015 7.96842 80.6106 7.82064 81.427 7.8488C82.1517 7.82064 82.9046 7.96842 83.6012 8.25693C84.2417 8.51728 84.8257 8.92542 85.255 9.44615C85.7546 10.002 86.1275 10.6706 86.3597 11.3672ZM83.925 12.669C83.8968 11.8316 83.6295 11.1913 83.1368 10.6987C82.6161 10.2061 81.9195 9.97391 81.0188 9.97391C80.1815 9.97391 79.4848 10.2061 78.9852 10.6987C78.4643 11.2476 78.1479 11.9161 78.0915 12.669H83.925ZM96.549 14.386C96.8399 14.8129 96.9852 15.3922 96.9852 16.1241C97.0135 16.7363 96.8657 17.3485 96.549 17.8692C96.2606 18.3055 95.8806 18.7136 95.4161 18.974C94.9235 19.2625 94.4028 19.4666 93.847 19.6143C93.2699 19.7269 92.6906 19.7832 92.1088 19.7832C91.2643 19.7832 90.4552 19.6706 89.667 19.4103C88.8859 19.1147 88.1892 18.6503 87.6686 18.0451L89.5543 16.2437C89.8992 16.6518 90.3075 16.9966 90.7437 17.257C91.1799 17.5525 91.7288 17.6651 92.2566 17.6651C92.4677 17.6651 92.6788 17.637 92.8899 17.5807C93.1221 17.5525 93.3261 17.4611 93.5303 17.3485C93.7061 17.2288 93.847 17.0881 93.9946 16.9403C94.3112 16.4478 94.1706 15.8074 93.7061 15.4908C93.3543 15.2586 92.9815 15.1108 92.5732 14.9912C92.1088 14.8786 91.6163 14.773 91.0955 14.6745C90.5677 14.59 90.0752 14.4141 89.6108 14.1819C89.1746 13.9497 88.7734 13.626 88.4779 13.2249C88.1612 12.8168 88.0135 12.2327 88.0135 11.5079C88.0135 10.9309 88.1612 10.375 88.4215 9.85428C88.6537 9.418 89.0057 9.00986 89.4348 8.72135C89.8992 8.40471 90.3988 8.17248 90.9197 8.05286C92.1932 7.7362 93.5866 7.76435 94.839 8.22877C95.5639 8.461 96.2041 8.95357 96.6335 9.56577L94.7477 11.2757C94.255 10.5228 93.4177 10.0865 92.517 10.1146C92.137 10.1146 91.757 10.2061 91.4121 10.4032C91.0603 10.5791 90.8632 10.9309 90.8632 11.332C90.8632 11.6557 91.0321 11.9442 91.3277 12.092C91.6726 12.2679 92.0526 12.3805 92.4537 12.5001C92.9181 12.5846 93.3826 12.6972 93.9383 12.8168C94.459 12.9528 94.9517 13.1358 95.4161 13.3656C95.8806 13.5979 96.2606 13.9497 96.549 14.386ZM102.467 15.5189C102.439 15.9833 102.587 16.4478 102.791 16.8559C103.023 17.2007 103.459 17.3766 104.064 17.3766C104.355 17.3766 104.637 17.3461 104.909 17.2852C105.141 17.2288 105.401 17.1444 105.605 17.0248V19.4103C105.253 19.551 104.881 19.6706 104.501 19.6988C104.125 19.7551 103.748 19.7832 103.368 19.7832C102.734 19.7832 102.094 19.7269 101.51 19.5228C101.074 19.4103 100.673 19.1147 100.377 18.7699C100.089 18.3899 99.8846 17.9536 99.8001 17.5174C99.6803 16.9403 99.6241 16.3281 99.6523 15.7511V10.5509H97.9986V8.10915H99.6523V6.34291L102.467 5.41406V8.10915H105.605V10.5509H102.467V15.5189ZM41.7463 11.3672C42.035 12.2398 42.1546 13.1405 42.1263 14.0412V14.7941H33.4712C33.5346 15.5752 33.8792 16.3 34.4632 16.7996C35.0686 17.264 35.7652 17.5244 36.5181 17.5244C37.1583 17.5244 37.7706 17.3766 38.3195 17.06C38.7839 16.7644 39.2201 16.3915 39.6001 15.9833L41.6268 17.5244C41.0497 18.2773 40.2688 18.8895 39.3961 19.2625C38.5799 19.6143 37.7143 19.7902 36.8137 19.7902C35.9975 19.7902 35.1881 19.6425 34.3999 19.354C33.6752 19.0936 33.0068 18.6855 32.4297 18.1648C31.8737 17.6088 31.4095 16.9685 31.1208 16.2718C30.4806 14.7097 30.4806 12.9364 31.1208 11.339C31.4095 10.6424 31.8737 10.002 32.4297 9.48133C33.0068 8.92542 33.6752 8.52433 34.3999 8.25693C35.1881 7.96842 35.9975 7.82768 36.8137 7.85582C37.5666 7.82768 38.2915 7.96842 38.9879 8.25693C39.6283 8.52433 40.2055 8.92542 40.6697 9.45317C41.1341 10.002 41.5141 10.6706 41.7463 11.3672ZM39.3046 12.676C39.2766 11.8316 39.0161 11.1631 38.5235 10.6987C38.0028 10.2061 37.3061 9.97391 36.4055 9.97391C35.561 9.97391 34.8926 10.2061 34.3999 10.6987C33.8792 11.2476 33.5626 11.9442 33.4712 12.676H39.3046ZM55.1586 8.1162L48.3892 19.8747L41.655 8.1162H44.9412L48.3048 14.386L48.3892 14.5338L51.8723 8.1162H55.1586ZM107.906 5.79404H107.175V5.49851H108.948V5.79404H108.195V7.76435H107.906V5.79404ZM109.236 5.53369H109.701L110.426 7.25066L111.157 5.53369H111.622V7.79953H111.298V5.94182L110.545 7.79953H110.313L109.56 5.94182V7.79953H109.236V5.53369Z" fill="#A5A5D4"/>
</g>
</g>
</g>
<defs>
<clipPath id="clip0_9464_84088">
<rect width="111.111" height="23.1111" fill="white" transform="translate(0.5625 0.445312)"/>
</clipPath>
</defs>
</svg>
