<svg width="24" height="24" viewBox="0 0 24 24" fill="none" xmlns="http://www.w3.org/2000/svg">
<path d="M16.7986 13.4923C16.7596 13.4736 15.3016 12.7556 15.0425 12.6623C14.9367 12.6243 14.8234 12.5873 14.7029 12.5873C14.506 12.5873 14.3406 12.6854 14.2117 12.8781C14.0661 13.0946 13.6252 13.61 13.489 13.764C13.4712 13.7843 13.4469 13.8086 13.4323 13.8086C13.4193 13.8086 13.1936 13.7156 13.1253 13.686C11.5612 13.0066 10.374 11.3727 10.2112 11.0972C10.188 11.0576 10.187 11.0396 10.1868 11.0396C10.1925 11.0186 10.2451 10.9659 10.2723 10.9387C10.3517 10.8601 10.4377 10.7565 10.521 10.6564C10.5604 10.6089 10.5999 10.5614 10.6386 10.5165C10.7594 10.376 10.8132 10.2669 10.8755 10.1406L10.9082 10.0749C11.0604 9.77252 10.9304 9.51733 10.8884 9.43492C10.8539 9.36596 10.2382 7.88012 10.1728 7.72401C10.0154 7.34733 9.80739 7.17194 9.51837 7.17194C9.49155 7.17194 9.51837 7.17194 9.4059 7.17668C9.26895 7.18246 8.52317 7.28064 8.19343 7.48849C7.84376 7.70895 7.2522 8.41168 7.2522 9.64752C7.2522 10.7598 7.95804 11.81 8.26109 12.2094C8.26863 12.2195 8.28246 12.2399 8.30252 12.2693C9.46311 13.9642 10.9099 15.2203 12.3766 15.8062C13.7886 16.3703 14.4573 16.4354 14.8374 16.4354H14.8375C14.9972 16.4354 15.1251 16.4229 15.2379 16.4118L15.3094 16.405C15.7972 16.3617 16.8692 15.8063 17.113 15.1287C17.3051 14.595 17.3557 14.0119 17.2279 13.8003C17.1404 13.6564 16.9895 13.584 16.7986 13.4923Z" fill="white"/>
<path d="M12.1772 2C6.76053 2 2.35377 6.37364 2.35377 11.7496C2.35377 13.4883 2.8191 15.1903 3.70059 16.6799L2.01338 21.6569C1.98196 21.7497 2.00533 21.8523 2.07397 21.9222C2.12351 21.9727 2.19072 22 2.25936 22C2.28566 22 2.31215 21.9961 2.338 21.9878L7.52761 20.3387C8.94774 21.0975 10.5528 21.498 12.1772 21.498C17.5933 21.4981 21.9996 17.1249 21.9996 11.7496C21.9996 6.37364 17.5933 2 12.1772 2ZM12.1772 19.4672C10.6487 19.4672 9.1682 19.0258 7.8956 18.1907C7.85281 18.1626 7.80313 18.1482 7.75313 18.1482C7.7267 18.1482 7.70021 18.1522 7.67443 18.1604L5.07475 18.9868L5.91397 16.5109C5.94112 16.4307 5.92754 16.3423 5.87754 16.274C4.90845 14.9499 4.39618 13.3854 4.39618 11.7496C4.39618 7.49351 7.8867 4.03091 12.1771 4.03091C16.467 4.03091 19.9571 7.49351 19.9571 11.7496C19.9572 16.0051 16.4671 19.4672 12.1772 19.4672Z" fill="white"/>
</svg>
