<svg width="52" height="44" viewBox="0 0 52 44" fill="none" xmlns="http://www.w3.org/2000/svg">
<mask id="mask0_537_903" style="mask-type:luminance" maskUnits="userSpaceOnUse" x="4" y="0" width="44" height="44">
<path d="M48 0H4V44H48V0Z" fill="white"/>
</mask>
<g mask="url(#mask0_537_903)">
<path d="M37.3923 26.1107C38.0733 24.9507 39.7646 24.9507 40.4382 26.1107L47.6749 38.4738C48.3559 39.6337 47.5028 41.0781 46.1482 41.0781H31.6748C30.3203 41.0781 29.4746 39.6337 30.1481 38.4738L37.3848 26.1107H37.3923Z" fill="#FF394A"/>
<path d="M33.0212 17.8786C33.6798 16.7261 33.6798 15.3042 33.0212 14.1442L27.0867 3.79429C26.4206 2.63432 24.7592 2.63432 24.0932 3.79429L4.23152 38.4662C3.56547 39.6262 4.39616 41.078 5.72826 41.078H17.5899C18.9145 41.078 20.1343 40.367 20.7929 39.2146L33.0138 17.8786H33.0212Z" fill="#FF394A"/>
</g>
</svg>
