<svg width="52" height="52" viewBox="0 0 52 52" fill="none" xmlns="http://www.w3.org/2000/svg">
<path d="M17.4587 22.4883L26.0043 13.9461L34.5534 22.4952L39.523 17.5222L26.0043 4L12.4856 17.5187L17.4587 22.4883Z" fill="#F3BA2F"/>
<path d="M4.00073 26.0007L8.97198 21.0295L13.9432 26.0007L8.97198 30.972L4.00073 26.0007Z" fill="#F3BA2F"/>
<path d="M17.4587 29.5118L26.0043 38.0574L34.5534 29.5083L39.5264 34.4744L39.5229 34.4779L26.0043 48L12.4856 34.4848L12.4786 34.4779L17.4587 29.5118Z" fill="#F3BA2F"/>
<path d="M38.0568 26.0022L43.028 21.0309L47.9993 26.0022L43.028 30.9734L38.0568 26.0022Z" fill="#F3BA2F"/>
<path d="M31.0467 25.9984L26.0041 20.9524L22.2752 24.6813L21.8443 25.1088L20.9615 25.9915L20.9546 25.9984L20.9615 26.0089L26.0041 31.048L31.0467 26.0019L31.0502 25.9984H31.0467Z" fill="#F3BA2F"/>
</svg>
