<svg width="52" height="52" viewBox="0 0 52 52" fill="none" xmlns="http://www.w3.org/2000/svg">
<path d="M47.339 31.3221C44.4007 43.1078 32.4637 50.2804 20.6767 47.3413C8.8944 44.403 1.72178 32.4654 4.6615 20.6804C7.59847 8.89329 19.5354 1.71999 31.3191 4.65834C43.1054 7.59669 50.2774 19.5357 47.339 31.3221Z" fill="#F7931A"/>
<path d="M35.6999 22.866C36.1379 19.9386 33.909 18.365 30.8613 17.3152L31.85 13.3497L29.4362 12.7481L28.4737 16.6091C27.8391 16.451 27.1874 16.3018 26.5398 16.154L27.5091 12.2676L25.0967 11.666L24.1074 15.6301C23.5822 15.5105 23.0665 15.3922 22.566 15.2678L22.5688 15.2554L19.24 14.4242L18.5979 17.0023C18.5979 17.0023 20.3888 17.4128 20.351 17.4382C21.3286 17.6823 21.5052 18.3292 21.4757 18.8421L20.3496 23.3596C20.4169 23.3768 20.5043 23.4015 20.6005 23.44C20.5201 23.4201 20.4341 23.3981 20.3455 23.3768L18.767 29.7052C18.6473 30.0022 18.3442 30.4476 17.6608 30.2785C17.6849 30.3136 15.9063 29.8406 15.9063 29.8406L14.708 32.6036L17.8492 33.3867C18.4335 33.5331 19.0062 33.6864 19.57 33.8308L18.571 37.8416L20.9821 38.4432L21.9714 34.475C22.63 34.6537 23.2694 34.8187 23.895 34.9741L22.9091 38.9238L25.3229 39.5253L26.3218 35.522C30.4379 36.301 33.533 35.9868 34.8358 32.264C35.8856 29.2665 34.7835 27.5375 32.6179 26.41C34.195 26.0463 35.383 25.0089 35.6999 22.866ZM30.1848 30.5996C29.4389 33.5971 24.392 31.9766 22.7558 31.5703L24.0813 26.2567C25.7175 26.665 30.9645 27.4736 30.1848 30.5996ZM30.9315 22.8227C30.2508 25.5493 26.0503 24.164 24.6877 23.8243L25.8894 19.005C27.252 19.3446 31.6403 19.9785 30.9315 22.8227Z" fill="white"/>
</svg>
