<svg width="52" height="52" viewBox="0 0 52 52" fill="none" xmlns="http://www.w3.org/2000/svg">
<path d="M26 49C38.7025 49 49 38.7025 49 26C49 13.2975 38.7025 3 26 3C13.2975 3 3 13.2975 3 26C3 38.7025 13.2975 49 26 49Z" fill="#0052FF"/>
<path d="M26.1932 19.2541C28.9011 19.2541 31.0492 20.9243 31.865 23.408H37.3203C36.332 18.0978 31.9508 14.5 26.2367 14.5C19.7478 14.5 14.6797 19.4257 14.6797 26.022C14.6797 32.6183 19.6211 37.5 26.2367 37.5C31.8228 37.5 36.2912 33.9022 37.2803 28.548H31.8646C31.091 31.0321 28.9446 32.7459 26.2349 32.7459C22.4961 32.7459 19.8758 29.8759 19.8758 26.022C19.8776 22.1241 22.4557 19.2541 26.1932 19.2541Z" fill="white"/>
</svg>
