<svg width="52" height="52" viewBox="0 0 52 52" fill="none" xmlns="http://www.w3.org/2000/svg">
<path d="M45.0419 35.8988L38.6896 42.6926C38.5514 42.8403 38.3843 42.9581 38.1987 43.0385C38.013 43.1189 37.8129 43.1603 37.6106 43.1601H7.49737C7.35395 43.16 7.21367 43.1181 7.09363 43.0396C6.9736 42.9611 6.87899 42.8494 6.82137 42.7181C6.76387 42.5866 6.74619 42.4412 6.77049 42.2998C6.7948 42.1584 6.86004 42.0272 6.95813 41.9225L13.3151 35.1292C13.453 34.9818 13.6197 34.8642 13.8048 34.7838C13.99 34.7034 14.1897 34.6619 14.3915 34.6617H44.5027C44.646 34.662 44.7863 34.7039 44.9063 34.7824C45.0263 34.8608 45.1209 34.9725 45.1787 35.1037C45.2361 35.2352 45.2537 35.3806 45.2294 35.522C45.2051 35.6634 45.1399 35.7941 45.0419 35.8988ZM38.6896 22.2181C38.5513 22.0705 38.3842 21.9528 38.1986 21.8725C38.013 21.7922 37.8128 21.7509 37.6106 21.7512H7.49737C7.35395 21.7513 7.21367 21.7932 7.09363 21.8716C6.9736 21.9501 6.87899 22.0618 6.82137 22.1932C6.76405 22.3246 6.74646 22.4699 6.77076 22.6112C6.79507 22.7525 6.8602 22.8835 6.95813 22.9882L13.3151 29.782C13.4531 29.9293 13.6198 30.0467 13.805 30.127C13.9901 30.2073 14.1897 30.2488 14.3915 30.249H44.5027C44.6461 30.2488 44.7863 30.2069 44.9063 30.1285C45.0264 30.05 45.121 29.9383 45.1787 29.807C45.236 29.6756 45.2536 29.5303 45.2293 29.389C45.2049 29.2477 45.1398 29.1166 45.0419 29.0119L38.6896 22.2181ZM7.49737 17.3384H37.6106C37.8128 17.3385 38.0129 17.297 38.1985 17.2166C38.3841 17.1362 38.5512 17.0185 38.6896 16.871L45.0419 10.0772C45.1398 9.97233 45.2049 9.84115 45.2291 9.69979C45.2534 9.55842 45.2358 9.41305 45.1785 9.28156C45.1212 9.15008 45.0267 9.03823 44.9066 8.95978C44.7865 8.88134 44.6461 8.83974 44.5027 8.84009H14.3915C14.1897 8.84047 13.9901 8.88214 13.805 8.96253C13.6199 9.04293 13.4532 9.16035 13.3151 9.30757L6.95969 16.1014C6.8614 16.2059 6.79592 16.337 6.77133 16.4784C6.74674 16.6198 6.76412 16.7653 6.82133 16.8969C6.87853 17.0285 6.97305 17.1405 7.0932 17.2189C7.21335 17.2974 7.35386 17.339 7.49737 17.3384Z" fill="url(#paint0_linear_537_901)"/>
<defs>
<linearGradient id="paint0_linear_537_901" x1="10.0084" y1="43.978" x2="41.4887" y2="8.39185" gradientUnits="userSpaceOnUse">
<stop offset="0.08" stop-color="#9945FF"/>
<stop offset="0.3" stop-color="#8752F3"/>
<stop offset="0.5" stop-color="#5497D5"/>
<stop offset="0.6" stop-color="#43B4CA"/>
<stop offset="0.72" stop-color="#28E0B9"/>
<stop offset="0.97" stop-color="#19FB9B"/>
</linearGradient>
</defs>
</svg>
