<svg width="52" height="52" viewBox="0 0 52 52" fill="none" xmlns="http://www.w3.org/2000/svg">
<path d="M17.7028 6.20483C17.1275 6.11645 17.1033 6.10608 17.374 6.06489C17.8928 5.98587 19.1179 6.09355 19.9621 6.29236C21.933 6.75629 23.7264 7.94476 25.6408 10.0555L26.1493 10.6163L26.8769 10.5004C29.9419 10.0126 33.06 10.4003 35.668 11.5934C36.3853 11.9216 37.5166 12.575 37.6579 12.7429C37.7029 12.7964 37.7856 13.1409 37.8417 13.5084C38.0353 14.78 37.9383 15.7547 37.5456 16.4827C37.332 16.8789 37.32 17.0044 37.4637 17.3435C37.5783 17.614 37.8982 17.8142 38.2148 17.8138C38.8629 17.813 39.5605 16.7754 39.8837 15.3318L40.012 14.7584L40.2663 15.0437C41.6616 16.609 42.7571 18.7436 42.9455 20.2631L42.9944 20.6592L42.7601 20.2991C42.3565 19.6794 41.951 19.2575 41.4316 18.9172C40.4957 18.3039 39.5059 18.0952 36.8849 17.9584C34.5176 17.8348 33.1778 17.6346 31.8493 17.2056C29.5889 16.4758 28.4494 15.5038 25.7645 12.0153C24.572 10.4659 23.8349 9.60856 23.1016 8.91816C21.4355 7.34944 19.7985 6.52673 17.7028 6.20483Z" fill="#FF37C7"/>
<path d="M38.1919 9.66471C38.2515 8.62641 38.3937 7.94157 38.6797 7.31614C38.7927 7.06858 38.8987 6.86597 38.9151 6.86597C38.9315 6.86597 38.8823 7.04869 38.8057 7.27198C38.598 7.87897 38.5638 8.70919 38.707 9.67508C38.8886 10.9007 38.992 11.0775 40.3001 12.4014C40.9137 13.0223 41.6273 13.8055 41.886 14.1417L42.3564 14.7531L41.886 14.3162C41.3108 13.7819 39.9878 12.7399 39.6955 12.5909C39.4995 12.491 39.4706 12.4927 39.3496 12.6118C39.2383 12.7216 39.2148 12.8866 39.1992 13.6664C39.1753 14.8817 39.0079 15.6618 38.6043 16.4418C38.3859 16.8636 38.3515 16.7736 38.5491 16.2974C38.6967 15.9419 38.7116 15.7856 38.7106 14.6091C38.7083 12.2451 38.4248 11.6768 36.7628 10.7033C36.342 10.4567 35.6481 10.101 35.2214 9.91286C34.7945 9.72472 34.4555 9.56086 34.4677 9.5486C34.515 9.50223 36.1358 9.9707 36.788 10.2192C37.7584 10.5889 37.9184 10.6368 38.0365 10.5922C38.1154 10.5623 38.1536 10.3344 38.1919 9.66471Z" fill="#FF37C7"/>
<path d="M18.8203 13.7085C17.6523 12.1162 16.9297 9.67476 17.0861 7.84969L17.1345 7.28491L17.4004 7.33296C17.8996 7.42314 18.7604 7.74044 19.1635 7.98288C20.2696 8.64814 20.7485 9.524 21.2357 11.7731C21.3784 12.4319 21.5656 13.1774 21.6517 13.4298C21.7904 13.836 22.3145 14.7849 22.7406 15.4012C23.0475 15.8451 22.8437 16.0554 22.1652 15.9947C21.1291 15.9021 19.7257 14.9429 18.8203 13.7085Z" fill="#FF37C7"/>
<path d="M36.7752 25.5597C31.3171 23.3833 29.3945 21.4943 29.3945 18.3069C29.3945 17.8379 29.4109 17.4541 29.4309 17.4541C29.4506 17.4541 29.6619 17.6089 29.9 17.7981C31.0069 18.6772 32.2463 19.0527 35.6773 19.5484C37.6965 19.8401 38.8328 20.0757 39.8809 20.42C43.2121 21.5141 45.2733 23.7345 45.7649 26.7588C45.9077 27.6374 45.8239 29.2855 45.5923 30.1541C45.4096 30.8399 44.8516 32.0764 44.7037 32.1239C44.6628 32.1371 44.6225 31.9813 44.612 31.7695C44.5557 30.6339 43.9763 29.5282 43.0032 28.7C41.8967 27.7585 40.4101 27.0089 36.7752 25.5597Z" fill="#FF37C7"/>
<path d="M32.9434 26.464C32.875 26.0609 32.7565 25.5463 32.6799 25.3203L32.5407 24.9092L32.7992 25.1969C33.1572 25.5948 33.4401 26.1039 33.6799 26.782C33.8628 27.2997 33.8834 27.4536 33.8821 28.2946C33.8807 29.1203 33.8578 29.2934 33.6889 29.7593C33.4224 30.494 33.0917 31.0148 32.5369 31.574C31.5398 32.5788 30.258 33.1352 28.4083 33.3661C28.0868 33.406 27.1495 33.4738 26.3257 33.516C24.2493 33.623 22.8827 33.8441 21.6548 34.271C21.4782 34.3325 21.3206 34.3697 21.3046 34.3538C21.2549 34.3049 22.0909 33.8114 22.7815 33.4819C23.7552 33.0175 24.7245 32.7639 26.8963 32.4059C27.969 32.2288 29.0769 32.0143 29.3581 31.9288C32.0148 31.1221 33.3804 29.0404 32.9434 26.464Z" fill="#FF37C7"/>
<path d="M35.4457 30.8639C34.7204 29.3202 34.5538 27.8296 34.9512 26.4396C34.9938 26.2909 35.062 26.1694 35.1032 26.1694C35.1444 26.1694 35.3155 26.261 35.4835 26.3729C35.8176 26.5958 36.4877 26.9709 38.2734 27.935C40.5015 29.1381 41.772 30.0696 42.6359 31.1339C43.3925 32.066 43.8606 33.1276 44.086 34.422C44.2136 35.1553 44.1389 36.9196 43.9488 37.6581C43.3497 39.9862 41.9574 41.8149 39.9716 42.8821C39.6806 43.0383 39.4193 43.1666 39.3912 43.1673C39.3628 43.1679 39.4689 42.9009 39.6268 42.5741C40.2948 41.1911 40.3708 39.8459 39.8658 38.3486C39.5565 37.4317 38.926 36.3131 37.6528 34.4225C36.1727 32.2241 35.8099 31.6392 35.4457 30.8639Z" fill="#FF37C7"/>
<path d="M14.9443 39.1936C16.9698 37.5 19.49 36.2967 21.7856 35.9274C22.775 35.7683 24.4231 35.8314 25.3392 36.0637C26.8078 36.4359 28.1213 37.2693 28.8047 38.2625C29.4722 39.2331 29.7587 40.0791 30.0569 41.9609C30.1745 42.7034 30.3026 43.449 30.3412 43.6178C30.5653 44.593 31.0011 45.3727 31.5412 45.7643C32.399 46.3859 33.8762 46.4246 35.3291 45.8634C35.5757 45.7681 35.7899 45.7022 35.805 45.717C35.8575 45.7689 35.1259 46.254 34.6097 46.5093C33.9152 46.8528 33.3629 46.9856 32.629 46.9856C31.2982 46.9856 30.1932 46.3152 29.2713 44.9482C29.0898 44.6791 28.682 43.8733 28.3651 43.1576C27.3916 40.9588 26.9109 40.289 25.7807 39.556C24.7972 38.9182 23.5287 38.8039 22.5744 39.2672C21.3209 39.8759 20.9711 41.4622 21.8689 42.4676C22.2258 42.8671 22.8912 43.2117 23.4353 43.2788C24.4532 43.4043 25.328 42.6373 25.328 41.6195C25.328 40.9588 25.0715 40.5815 24.4258 40.293C23.5439 39.8991 22.596 40.3597 22.6005 41.18C22.6025 41.5298 22.7563 41.7495 23.1105 41.9082C23.3376 42.0101 23.3429 42.018 23.1577 41.98C22.3485 41.8137 22.159 40.8477 22.8095 40.2064C23.5906 39.4366 25.2058 39.7763 25.7604 40.8272C25.9935 41.2686 26.0205 42.1476 25.8173 42.6785C25.3627 43.8666 24.037 44.4913 22.6921 44.1514C21.7765 43.9199 21.4037 43.6692 20.2997 42.5432C18.3815 40.5864 17.6368 40.2073 14.8713 39.7797L14.3413 39.6977L14.9443 39.1936Z" fill="#FF37C7"/>
<path fill-rule="evenodd" clip-rule="evenodd" d="M5.94345 4.17047C12.3496 11.8702 16.7618 15.047 17.2521 15.7182C17.657 16.2724 17.5046 16.7706 16.8111 17.1611C16.4254 17.3782 15.6324 17.5981 15.2354 17.5981C14.7864 17.5981 14.6322 17.4266 14.6322 17.4266C14.3719 17.182 14.2252 17.2248 12.8882 14.8745C11.032 12.0222 9.47852 9.65601 9.43615 9.61641C9.33816 9.52479 9.33984 9.52788 12.6989 15.4798C13.2416 16.7204 12.8069 17.1757 12.8069 17.3524C12.8069 17.7119 12.7079 17.9008 12.2601 18.3953C11.5137 19.2199 11.1801 20.1464 10.9392 22.0639C10.6692 24.2133 9.90999 25.7317 7.80587 28.3305C6.57421 29.8517 6.37268 30.1304 6.06189 30.7436C5.67043 31.5156 5.5628 31.948 5.51917 32.923C5.47306 33.9538 5.56287 34.6198 5.88088 35.6054C6.1593 36.4681 6.44991 37.0379 7.19286 38.1775C7.83401 39.161 8.20319 39.8918 8.20319 40.1776C8.20319 40.4051 8.24704 40.4053 9.24055 40.1833C11.6182 39.6515 13.5488 38.7163 14.6346 37.5705C15.3066 36.861 15.4644 36.4694 15.4695 35.4973C15.4728 34.8615 15.4503 34.7285 15.2767 34.3626C14.9942 33.7673 14.4799 33.2724 13.3464 32.505C11.8611 31.4995 11.2268 30.6901 11.0515 29.5769C10.9078 28.6634 11.0746 28.019 11.8962 26.3136C12.7466 24.5485 12.9574 23.7962 13.1 22.017C13.192 20.8674 13.3195 20.4141 13.6531 20.0502C14.0009 19.6708 14.314 19.5422 15.1749 19.4258C16.5782 19.2359 17.4719 18.8764 18.2064 18.2061C18.8436 17.6245 19.1103 17.0642 19.1512 16.2208L19.1822 15.5815L18.8261 15.1703C17.5366 13.6813 5.07985 3 5.00049 3C4.98354 3 5.40789 3.52675 5.94345 4.17047ZM8.92706 34.0895C9.21863 33.5781 9.06371 32.9207 8.57603 32.5995C8.1152 32.2961 7.39938 32.439 7.39938 32.8346C7.39938 32.9552 7.46674 33.043 7.6186 33.1204C7.87429 33.2506 7.89283 33.3972 7.69168 33.6966C7.48793 33.9998 7.50438 34.2664 7.73806 34.4477C8.1147 34.7398 8.64785 34.579 8.92706 34.0895Z" fill="#FF37C7"/>
<path fill-rule="evenodd" clip-rule="evenodd" d="M20.0679 19.7612C19.4091 19.9615 18.7687 20.653 18.5704 21.3781C18.4495 21.8204 18.5181 22.5963 18.6992 22.8359C18.9919 23.2229 19.2749 23.3249 20.0413 23.3196C21.5416 23.3092 22.8459 22.672 22.9975 21.8754C23.1218 21.2223 22.549 20.3174 21.76 19.9201C21.3528 19.7151 20.4869 19.6338 20.0679 19.7612ZM21.8218 21.1193C22.0532 20.7938 21.952 20.4419 21.5585 20.2039C20.8091 19.7508 19.6759 20.1258 19.6759 20.8268C19.6759 21.1758 20.2668 21.5566 20.8085 21.5566C21.1691 21.5566 21.6625 21.3436 21.8218 21.1193Z" fill="#FF37C7"/>
</svg>
