<svg width="50" height="48" viewBox="0 0 50 48" fill="none" xmlns="http://www.w3.org/2000/svg">
<path d="M43.0485 2.03125H6.9515C4.21686 2.03125 2 4.24811 2 6.98275V11.7744C2 14.509 4.21686 16.7259 6.9515 16.7259H43.0485C45.7831 16.7259 48 14.509 48 11.7744V6.98275C48 4.24811 45.7831 2.03125 43.0485 2.03125Z" stroke="#32235C" stroke-width="2.6" stroke-miterlimit="10"/>
<path d="M23.6328 9.375H42.4082" stroke="#32235C" stroke-width="2.6" stroke-miterlimit="10" stroke-linecap="round"/>
<path d="M9.65105 12.0834C11.1454 12.0834 12.3568 10.872 12.3568 9.37761C12.3568 7.88327 11.1454 6.67188 9.65105 6.67188C8.15671 6.67188 6.94531 7.88327 6.94531 9.37761C6.94531 10.872 8.15671 12.0834 9.65105 12.0834Z" fill="#5E5BF0"/>
<path d="M43.0485 16.7266H6.9515C4.21686 16.7266 2 18.9434 2 21.6781V26.4697C2 29.2043 4.21686 31.4212 6.9515 31.4212H43.0485C45.7831 31.4212 48 29.2043 48 26.4697V21.6781C48 18.9434 45.7831 16.7266 43.0485 16.7266Z" stroke="#32235C" stroke-width="2.6" stroke-miterlimit="10"/>
<path d="M23.6328 24.0703H42.4082" stroke="#32235C" stroke-width="2.6" stroke-miterlimit="10" stroke-linecap="round"/>
<path d="M9.65105 26.7787C11.1454 26.7787 12.3568 25.5673 12.3568 24.0729C12.3568 22.5786 11.1454 21.3672 9.65105 21.3672C8.15671 21.3672 6.94531 22.5786 6.94531 24.0729C6.94531 25.5673 8.15671 26.7787 9.65105 26.7787Z" fill="#5E5BF0"/>
<path d="M43.0485 31.4219H6.9515C4.21686 31.4219 2 33.6387 2 36.3734V41.165C2 43.8996 4.21686 46.1165 6.9515 46.1165H43.0485C45.7831 46.1165 48 43.8996 48 41.165V36.3734C48 33.6387 45.7831 31.4219 43.0485 31.4219Z" fill="#DFFD62" stroke="#32235C" stroke-width="2.6" stroke-miterlimit="10"/>
<path d="M23.6328 38.7656H42.4082" stroke="#32235C" stroke-width="2.6" stroke-miterlimit="10" stroke-linecap="round"/>
<path d="M9.65105 41.474C11.1454 41.474 12.3568 40.2626 12.3568 38.7682C12.3568 37.2739 11.1454 36.0625 9.65105 36.0625C8.15671 36.0625 6.94531 37.2739 6.94531 38.7682C6.94531 40.2626 8.15671 41.474 9.65105 41.474Z" fill="#5E5BF0"/>
</svg>
