<svg width="54" height="44" viewBox="0 0 54 44" fill="none" xmlns="http://www.w3.org/2000/svg">
<g clip-path="url(#clip0_10965_120767)">
<path d="M24.746 40.074L13.6547 28.9826C11.0318 26.3597 11.0318 22.1038 13.6547 19.4809L29.7389 3.39669C31.0949 2.04068 32.964 1.33016 34.8788 1.44095L45.3607 2.05031C48.764 2.24781 51.4809 4.96465 51.6784 8.36792L52.2877 18.8499C52.3985 20.7647 51.688 22.6337 50.332 23.9897L34.2477 40.074C31.6248 42.6969 27.3689 42.6969 24.746 40.074Z" fill="#DFFD62" stroke="#32235C" stroke-width="2.87083" stroke-miterlimit="10"/>
<path d="M41.2734 15.7734C43.1029 15.7734 44.5859 14.2904 44.5859 12.4609C44.5859 10.6315 43.1029 9.14844 41.2734 9.14844C39.444 9.14844 37.9609 10.6315 37.9609 12.4609C37.9609 14.2904 39.444 15.7734 41.2734 15.7734Z" fill="#5E5BF0"/>
<path d="M24.9005 39.2768L23.2988 40.8785C20.7819 43.3955 16.7018 43.3955 14.1849 40.8785L3.54395 30.2376C1.02702 27.7207 1.02702 23.6406 3.54395 21.1237L18.9755 5.69212C20.2761 4.3915 22.0705 3.70748 23.9058 3.81586L29.0239 4.11211" stroke="#32235C" stroke-width="2.87083" stroke-miterlimit="10"/>
</g>
<defs>
<clipPath id="clip0_10965_120767">
<rect width="53" height="43.6934" fill="white" transform="translate(0.5 0.226562)"/>
</clipPath>
</defs>
</svg>
