<svg width="220" height="247" viewBox="0 0 220 247" fill="none" xmlns="http://www.w3.org/2000/svg">
<g clip-path="url(#clip0_15342_185995)">
<path d="M65.5303 6.84375C65.5303 6.84375 71.7561 11.0293 71.4163 14.1956C71.0764 17.3619 67.6779 19.9644 67.6779 19.9644C67.6779 19.9644 63.0357 8.75943 62.6958 8.651C62.356 8.54256 65.5231 6.84375 65.5231 6.84375H65.5303Z" fill="#32235C"/>
<path d="M68.3882 33.4112C68.3882 33.4112 67.3108 38.3269 68.0773 40.7848L68.8438 43.2426C68.8438 43.2426 61.7719 45.3969 59.4725 44.1679C57.1658 42.939 56.8622 42.1727 56.8622 42.1727C56.8622 42.1727 65.7778 32.1823 68.3882 33.4184V33.4112Z" fill="#32235C"/>
<path d="M64.1702 7.8566C64.1702 7.8566 67.9086 16.0037 68.2412 17.8109C68.5811 19.6182 68.3569 23.1314 68.3569 24.4833C68.3569 25.8351 69.4922 30.7074 69.4922 31.9508C69.4922 33.1942 64.7415 43.0401 63.4905 43.4955C62.2468 43.9509 60.6633 43.2714 60.6633 43.2714C60.6633 43.2714 60.0993 47.4859 60.2077 48.3895C60.3234 49.2932 63.1507 50.5365 63.1507 50.5365C63.1507 50.5365 66.8891 57.8884 66.0937 60.4908C65.2983 63.0933 62.3553 65.5801 57.0406 64.9005C51.7186 64.221 49.2312 62.5222 47.7633 58.1125C46.9535 55.6836 39.4767 53.6378 39.0067 51.9462C38.6235 50.5655 45.1602 49.2859 45.1602 49.2859C45.1602 49.2859 46.8595 49.4883 46.8595 47.5654C46.8595 45.6425 46.7438 36.4762 46.7438 36.4762C46.7438 36.4762 45.1602 20.6374 50.0266 14.182C54.893 7.73371 62.4782 4.79151 64.1775 7.84214L64.1702 7.8566Z" fill="#FFDFDF"/>
<path d="M66.3203 6.6134C66.3203 6.6134 56.7032 16.4593 53.4204 22.1123C50.1376 27.7654 53.0805 43.727 51.8368 43.727C50.5931 43.727 46.363 43.6041 36.6303 38.9631C26.8975 34.3221 27.1216 25.2714 29.5006 18.7075C31.8795 12.1436 37.686 4.45916 42.8922 1.85672C48.0985 -0.745711 62.4735 -1.765 66.3203 6.60617V6.6134Z" fill="#32235C"/>
<path d="M50.7734 25.1172C48.9657 28.804 45.437 36.7559 46.0517 41.3896" stroke="#B2B2B2" stroke-width="0.381265" stroke-linecap="round" stroke-linejoin="round"/>
<path d="M51.7812 23.1406C51.7812 23.1406 51.6294 23.4226 51.3763 23.9141" stroke="#B2B2B2" stroke-width="0.381265" stroke-linecap="round" stroke-linejoin="round"/>
<path d="M35.4688 33.3828C35.0204 35.313 35.3169 36.4913 35.3169 36.7226" stroke="#B2B2B2" stroke-width="0.381265" stroke-linecap="round" stroke-linejoin="round"/>
<path d="M62.1927 6.99219C62.1927 6.99219 64.3041 8.19943 48.7577 18.4574C40.7242 23.7562 37.4052 28.296 36.0747 31.5201" stroke="#B2B2B2" stroke-width="0.381265" stroke-linecap="round" stroke-linejoin="round"/>
<path d="M65.1953 20.6484C65.1953 20.6484 64.0601 23.3665 64.0601 24.6099C64.0601 25.8533 64.6241 26.7569 64.6241 26.7569" stroke="#32235C" stroke-width="0.8" stroke-linecap="round" stroke-linejoin="round"/>
<path d="M65.875 32.1875C65.875 32.1875 65.0796 32.867 64.0673 33.2068" stroke="#32235C" stroke-width="0.8" stroke-linecap="round" stroke-linejoin="round"/>
<path d="M64.7344 35.0116C64.7344 35.0116 60.996 36.7104 58.3929 34.6719" stroke="#32235C" stroke-width="0.8" stroke-linecap="round" stroke-linejoin="round"/>
<path d="M61.4531 20.6464C61.4531 20.6464 56.7024 19.179 54.8875 22.0055" stroke="#32235C" stroke-width="0.8" stroke-linecap="round" stroke-linejoin="round"/>
<path d="M67.6797 19.9695C67.6797 19.9695 66.5444 19.0658 65.872 19.8538" stroke="#32235C" stroke-width="0.8" stroke-linecap="round" stroke-linejoin="round"/>
<path d="M60.6641 43.2834L55.3421 42.1484L60.3242 46.5654L60.6641 43.2834Z" fill="#32235C"/>
<path d="M86.1242 62.2443C86.1242 62.2443 85.6615 57.8346 87.5126 55.5213C89.3709 53.2008 98.9591 53.5912 98.9591 53.5912C98.9591 53.5912 100.427 50.2659 102.828 49.0297C105.228 47.7936 113.884 47.6345 111.873 54.7478C111.873 54.7478 113.804 57.9141 111.563 60.0033C111.563 60.0033 112.416 63.4805 110.789 64.5648C110.789 64.5648 119.994 66.3576 119.842 69.3721C119.69 72.3866 115.662 70.2902 112.799 69.8275C109.936 69.3649 100.347 67.5865 100.116 67.5865C99.8846 67.5865 100.427 74.6998 100.427 74.6998H86.117V62.2515L86.1242 62.2443Z" fill="#FFDFDF"/>
<path d="M99.1669 47.0784C99.3187 46.9844 103.939 45.5242 105.357 48.7845L105.516 49.1965L102.956 50.2086C102.956 50.2086 102.493 48.1339 98.8849 50.2086L99.1669 47.0784Z" fill="#BAD1FC"/>
<path d="M99.6406 47.1002C99.402 49.9267 98.2523 57.7123 92.9665 59.0352H86.531C85.2584 59.0352 84.0508 58.4714 83.2482 57.481C81.8888 55.8111 79.6617 52.7026 79.423 47.0785C79.3941 46.4712 79.7918 45.9146 80.3775 45.7628C84.7739 44.6134 94.9984 44.5917 98.5849 45.5749C99.2574 45.7628 99.6912 46.4062 99.6334 47.1002H99.6406Z" fill="#BAD1FC"/>
<path d="M110.912 59.8665C110.167 58.4641 109.126 57.2135 107.687 56.4906C106.262 55.7749 104.527 55.6665 103.131 56.4978C101.902 57.2279 101.121 58.6014 101.403 60.04C101.533 60.7195 101.881 61.3774 102.452 61.7966C103.037 62.2231 104.093 62.3822 104.354 61.493C104.513 60.9364 105.388 61.1749 105.228 61.7316C104.773 63.3147 102.878 63.3075 101.787 62.4111C100.687 61.5075 100.268 59.9822 100.536 58.6159C100.81 57.1918 101.909 56.0207 103.211 55.4496C104.693 54.799 106.378 54.9146 107.839 55.5652C109.553 56.3243 110.832 57.7845 111.7 59.4111C111.975 59.9243 111.194 60.3798 110.919 59.8665H110.912Z" fill="#32235C"/>
<path d="M103.493 59.7721C105.41 60.3793 107.066 61.7094 108.049 63.4661C108.331 63.9721 107.55 64.4275 107.268 63.9215C106.4 62.3673 104.947 61.1817 103.248 60.6395C102.698 60.466 102.929 59.5913 103.486 59.7648L103.493 59.7721Z" fill="#32235C"/>
<path d="M98.0501 51.9525C98.0501 51.9525 98.6648 53.6586 100.892 53.8827L101.102 57.049C101.102 57.049 97.7103 57.2225 96.5172 54.8008C95.3241 52.379 98.0501 51.9453 98.0501 51.9453V51.9525Z" fill="#BAD1FC"/>
<path d="M111.084 54.8428C110.173 52.4645 107.7 50.8524 105.141 51.3512C102.588 51.85 100.846 54.3802 101.54 56.9392C101.692 57.5031 100.824 57.7416 100.665 57.1778C99.8404 54.1633 101.865 51.0837 104.895 50.4837C107.975 49.8693 110.853 51.7488 111.952 54.6043C112.162 55.1464 111.287 55.385 111.077 54.8428H111.084Z" fill="#32235C"/>
<path d="M97.9821 47.0928C92.1974 48.0542 86.3186 48.206 80.4978 47.4976C79.9265 47.4253 79.9193 46.5217 80.4978 46.594C86.2391 47.2879 92.0383 47.1723 97.7435 46.218C98.3147 46.1241 98.5605 46.9915 97.9821 47.0928Z" fill="#32235C"/>
<path d="M100.13 47.1161C100.181 50.2824 99.429 53.4198 97.9756 56.2319C97.7081 56.7452 96.9271 56.2897 97.1947 55.7765C98.583 53.1017 99.2772 50.1306 99.2266 47.1161C99.2193 46.5378 100.123 46.5306 100.13 47.1161Z" fill="#32235C"/>
<path d="M100.701 54.432C100.086 54.2802 99.5945 53.8103 99.3848 53.2175C99.1606 52.5958 99.3486 51.8946 99.768 51.3958C99.9199 51.2151 100.252 51.2295 100.404 51.3958C100.578 51.591 100.571 51.844 100.404 52.032C100.346 52.097 100.426 51.9886 100.404 52.032C100.39 52.0536 100.368 52.0826 100.354 52.1042C100.325 52.1476 100.303 52.1982 100.281 52.2416C100.252 52.2922 100.318 52.1404 100.281 52.2416C100.274 52.2633 100.267 52.285 100.26 52.3067C100.245 52.3645 100.231 52.4223 100.216 52.4729C100.195 52.5597 100.216 52.4151 100.216 52.4729C100.216 52.4946 100.216 52.5163 100.216 52.5452C100.216 52.603 100.216 52.6609 100.216 52.7187C100.216 52.7332 100.216 52.7404 100.216 52.7549C100.216 52.791 100.216 52.7765 100.216 52.7187C100.216 52.7187 100.231 52.7838 100.231 52.791C100.245 52.8488 100.26 52.8994 100.274 52.9573C100.296 53.0296 100.274 52.9428 100.267 52.9428C100.267 52.9428 100.296 53.0079 100.303 53.0151C100.325 53.0585 100.354 53.1018 100.375 53.1452C100.375 53.1452 100.44 53.232 100.397 53.1814C100.361 53.1308 100.419 53.2031 100.426 53.2103C100.462 53.2464 100.491 53.2826 100.534 53.3187C100.549 53.3332 100.578 53.3621 100.6 53.3765C100.556 53.3549 100.556 53.3404 100.6 53.3765C100.643 53.4055 100.686 53.4344 100.73 53.4561C100.751 53.4705 100.78 53.4778 100.802 53.4922C100.701 53.4561 100.853 53.5211 100.802 53.4922C100.853 53.5067 100.91 53.5284 100.961 53.5428C101.192 53.6006 101.352 53.8681 101.279 54.0994C101.2 54.338 100.968 54.4754 100.722 54.4175L100.701 54.432Z" fill="#32235C"/>
<path d="M89.9587 41.9303C90.5661 41.2869 90.8698 40.405 90.7686 39.523C90.6674 38.5977 90.0094 37.9399 89.6623 37.1158C89.2718 36.1832 89.5321 35.3013 89.9515 34.4338C90.2914 33.7398 91.0651 32.4603 90.1757 31.8459C89.6984 31.5133 90.154 30.7326 90.6312 31.0651C91.4555 31.6362 91.6218 32.6483 91.3254 33.5663C90.9421 34.7664 89.937 35.7784 90.6312 37.0652C91.1301 37.9833 91.6725 38.7423 91.6797 39.8339C91.6797 40.8532 91.2892 41.8291 90.5878 42.5664C90.1901 42.9929 89.5466 42.3496 89.9515 41.9303H89.9587Z" fill="#32235C"/>
<path d="M86.5759 41.9303C87.1833 41.2869 87.487 40.405 87.3858 39.523C87.2846 38.5977 86.6265 37.9399 86.2795 37.1158C85.889 36.1832 86.1493 35.3013 86.5687 34.4338C86.9085 33.7398 87.6822 32.4603 86.7928 31.8459C86.3156 31.5133 86.7712 30.7326 87.2484 31.0651C88.0727 31.6362 88.239 32.6483 87.9426 33.5663C87.5593 34.7664 86.5542 35.7784 87.2484 37.0652C87.7473 37.9833 88.2896 38.7423 88.2969 39.8339C88.2969 40.8532 87.9064 41.8291 87.205 42.5664C86.8073 42.9929 86.1638 42.3496 86.5687 41.9303H86.5759Z" fill="#32235C"/>
<path d="M101.791 68.3428C99.6071 67.7645 97.38 67.338 95.1312 67.0705C94.8853 67.0416 94.6829 66.8826 94.6829 66.6223C94.6829 66.3982 94.8926 66.1452 95.1312 66.1741C97.4595 66.4488 99.7662 66.8754 102.029 67.4754C102.593 67.6272 102.355 68.4946 101.791 68.3501V68.3428Z" fill="#32235C"/>
<path d="M190.752 194.491C189.848 194.434 188.893 194.65 187.917 194.491C183.47 193.754 178.495 191.614 175.061 188.918C170.867 185.621 165.856 168.865 164.467 166.414C158.986 167.86 154.575 170.52 147.251 176.39C146.903 177.005 160.295 195.294 163.043 199.704C166.022 204.489 168.668 218.983 171.922 220.964C175.176 222.945 198.438 213.655 206.71 209.412C219.567 202.812 220.651 194.904 219.74 193.291C219.118 192.185 195.763 194.817 190.752 194.499V194.491Z" fill="#DFFD62"/>
<path d="M219.282 193.07C218.718 192.998 218.204 192.99 217.264 192.99C217.105 193.308 212.159 202.735 198.348 210.427C184.298 218.248 169.229 216.969 169.229 216.969C170.111 218.928 171.037 220.504 171.934 221.046C172.035 221.111 172.158 221.154 172.295 221.198C172.577 221.285 172.932 221.321 173.351 221.321C179.425 221.321 199.23 213.34 206.729 209.494C216.613 204.427 219.448 198.665 219.925 195.47C220.128 193.814 219.86 193.142 219.282 193.063V193.07Z" fill="#DFFD62"/>
<path d="M213.101 193.222L190.758 194.487C188.451 194.566 185.631 193.865 182.565 192.802C177.829 189.325 173.483 191.364 173.02 195.318C172.709 197.949 174.257 200.855 175.472 202.67C175.276 202.807 175.088 202.945 174.886 203.068C169.745 206.205 164.965 204.925 164.965 204.925C166.44 209.566 167.901 213.962 169.239 216.969C169.239 216.969 184.366 218.415 198.415 210.6C212.465 202.786 217.273 192.983 217.273 192.983L213.101 193.222Z" fill="#32235C"/>
<path d="M196.031 194.416C195.981 195.385 195.54 196.303 195.294 197.236C195.019 198.284 195.026 199.419 194.708 200.445C194.448 201.291 193.247 201.205 193.161 200.301C193.059 199.188 193.551 197.937 193.963 196.918C194.354 195.949 194.889 194.85 195.807 194.301C195.894 194.25 196.031 194.301 196.031 194.416Z" fill="white"/>
<path d="M191.572 194.574C191.644 195.441 191.037 196.41 190.806 197.227C190.531 198.203 190.495 199.243 190.14 200.19C189.858 200.942 188.673 200.747 188.477 200.039C188.159 198.875 188.6 197.523 189.114 196.475C189.54 195.615 190.249 194.465 191.276 194.299C191.435 194.277 191.565 194.436 191.572 194.581V194.574Z" fill="white"/>
<path d="M187.583 194.118C187.294 194.949 186.585 195.65 186.101 196.373C185.522 197.233 185.313 198.332 184.676 199.12C184.206 199.698 183.353 199.25 183.288 198.614C183.115 196.828 185.443 193.792 187.337 193.828C187.475 193.828 187.627 193.966 187.576 194.118H187.583Z" fill="white"/>
<path d="M203.58 193.818C204.614 207.379 183.645 202.261 176.501 203.28C175.495 203.425 175.445 201.842 176.45 201.704C185.235 200.49 200.052 206.208 202.734 193.745C202.835 193.261 203.544 193.348 203.58 193.825V193.818Z" fill="#BAD1FC"/>
<path d="M107.897 141.935C107.231 142.766 116.624 227.974 118.042 229.008C119.459 230.041 124.976 229.232 125.844 227.229L115.699 140.156L107.897 141.935Z" fill="#32235C"/>
<path d="M81.1419 93.1416C83.1015 95.1585 86.9122 98.4549 89.6382 99.1561C93.9261 100.262 98.619 98.1875 101.417 94.7465C104.216 91.3055 105.315 86.7512 105.358 82.3271C105.373 80.8017 105.264 79.2186 104.527 77.8812C103.789 76.5439 102.285 75.5246 100.788 75.7921C100.651 74.9318 101.034 72.6113 100.897 71.751C100.897 71.751 84.338 71.151 83.774 71.751C83.21 72.3511 81.1491 93.1416 81.1491 93.1416H81.1419Z" fill="#DFFD62"/>
<path d="M74.2056 49.1953C74.2056 49.1953 80.2145 50.4821 82.3187 55.4701C84.4229 60.4581 89.875 84.2342 89.875 84.2342L83.4974 94.4632L70.8288 84.7258L74.1984 49.1953H74.2056Z" fill="#DFFD62"/>
<path d="M33.5234 54.7643C33.5234 54.7643 8.46836 58.9643 2.95842 66.562C-2.55152 74.1597 0.926546 88.7622 3.16812 97.7045C6.08217 109.336 16.2416 139.813 18.4398 144.801C20.638 149.789 28.4835 155.023 37.8836 156.686C47.2838 158.356 82.0789 164.305 88.4638 162.881C94.8486 161.457 137.583 148.886 140.447 140.565C143.31 132.252 140.447 127.257 138.473 124.647C136.491 122.03 82.1801 121.857 82.1801 121.857C82.1801 121.857 73.7344 59.0439 69.8876 54.7643C68.2823 52.9787 66.4095 65.7957 59.251 66.056C49.2795 66.4174 33.5162 54.7499 33.5162 54.7499L33.5234 54.7643Z" fill="#32235C"/>
<path d="M65.0021 157C64.1706 157.658 64.0404 244.485 65.1829 245.808C66.3254 247.138 71.8859 247.601 73.1875 245.851L73.0067 157.043L65.0021 157Z" fill="#32235C"/>
<path d="M36.2083 153.742C35.2973 154.284 14.0601 237.345 15.0218 238.806C15.9835 240.273 21.4356 241.459 22.9541 239.89L44.1406 154.827L36.2083 153.742Z" fill="#32235C"/>
<path d="M77.967 136.028C77.3017 136.86 86.6947 222.068 88.1119 223.101C89.5292 224.135 95.0464 223.326 95.9141 221.323L85.7691 134.25L77.967 136.028Z" fill="#32235C"/>
<path d="M77.2714 51.3983L76.0856 66.0731C76.0856 66.0731 81.5304 70.3021 82.2029 75.319C83.1935 82.7215 77.5896 88.1794 77.5896 88.1794C77.5896 88.1794 83.1574 98.8494 81.0894 99.9988C79.0213 101.148 38.3041 107.083 36.9954 104.625C35.6938 102.167 34.2621 89.9794 34.2621 89.9794C34.2621 89.9794 25.1728 59.914 26.0911 57.5719C27.0022 55.2224 37.9498 50.379 44.8626 49.4682C46.4389 49.2585 46.6052 59.849 57.2419 57.9984C60.2933 57.6225 63.6051 53.4152 60.2138 48.3766C59.5774 47.4368 63.0049 47.3284 63.2435 47.3284C69.8959 47.2995 77.5462 49.7429 77.2714 51.3911V51.3983Z" fill="#DFFD62"/>
<path d="M78.5678 63.4996C77.7796 64.4394 76.9915 65.3792 76.2033 66.3117V65.6756C79.1752 68.0756 81.1565 71.5816 81.6409 75.3769C82.1326 79.2444 82.1037 83.4155 79.5078 86.5673C79.544 86.4228 79.5874 86.2709 79.6235 86.1264C80.1948 88.1649 80.7009 90.2252 81.142 92.2927C81.4529 93.7602 81.7349 95.2349 81.894 96.7241C81.988 97.6277 82.1471 98.7699 81.6988 99.6157C81.424 100.129 80.6431 99.6735 80.9178 99.1602C81.1782 98.6687 81.0842 97.9385 81.048 97.4108C80.9902 96.4638 80.8383 95.5313 80.6792 94.5987C80.3249 92.6035 79.8621 90.6228 79.3632 88.6565C79.2041 88.0276 79.0378 87.3987 78.8643 86.7697C78.6907 86.1408 78.8209 86.0468 79.2547 85.4396C81.2505 82.6709 81.142 79.0347 80.7877 75.7961C80.3755 72.066 78.481 68.6684 75.567 66.3189C75.3645 66.1599 75.4224 65.8491 75.567 65.6828C76.3552 64.743 77.1433 63.8033 77.9315 62.8707C78.3075 62.4225 78.9438 63.0659 78.5678 63.5069V63.4996Z" fill="#32235C"/>
<path d="M131.35 219.673C130.583 219.188 129.643 218.921 128.862 218.314C125.319 215.53 121.986 211.265 120.265 207.246C118.168 202.345 121.827 185.241 121.783 182.422C116.281 181.055 111.139 181.272 101.891 182.906C101.291 183.275 104.256 205.75 104.545 210.933C104.856 216.564 100.214 230.538 102.122 233.841C104.024 237.145 128.891 240.16 138.19 240.413C152.63 240.803 157.381 234.384 157.359 232.533C157.345 231.261 135.594 222.355 131.357 219.673H131.35Z" fill="#DFFD62"/>
<path d="M157.068 232.135C156.612 231.803 156.164 231.543 155.34 231.102C155.051 231.304 146.178 237.203 130.372 237.311C114.297 237.427 101.687 229.07 101.687 229.07C101.52 231.21 101.578 233.039 102.106 233.943C102.164 234.044 102.251 234.145 102.352 234.246C102.554 234.456 102.851 234.658 103.219 234.861C108.541 237.781 129.757 240.29 138.174 240.514C149.273 240.817 154.53 237.123 156.482 234.55C157.458 233.191 157.545 232.475 157.075 232.128L157.068 232.135Z" fill="#DFFD62"/>
<path d="M151.57 229.298L131.359 219.683C129.299 218.642 127.158 216.676 124.989 214.269C122.509 208.948 117.715 208.644 115.408 211.898C113.875 214.059 113.839 217.348 114.027 219.517C113.796 219.539 113.557 219.575 113.326 219.582C107.309 219.864 103.737 216.452 103.737 216.452C102.805 221.23 101.973 225.784 101.698 229.066C101.698 229.066 114.273 237.604 130.347 237.488C146.421 237.38 155.352 231.09 155.352 231.09L151.577 229.29L151.57 229.298Z" fill="#32235C"/>
<path d="M136.029 222.147C135.522 222.978 134.691 223.564 134.026 224.265C133.281 225.053 132.739 226.051 131.972 226.795C131.336 227.417 130.323 226.759 130.685 225.928C131.133 224.901 132.16 224.041 133.013 223.347C133.823 222.689 134.814 221.974 135.884 221.938C135.985 221.938 136.079 222.053 136.021 222.147H136.029Z" fill="white"/>
<path d="M132.044 220.147C131.69 220.942 130.692 221.498 130.099 222.106C129.39 222.828 128.863 223.725 128.096 224.383C127.482 224.903 126.541 224.166 126.708 223.45C126.99 222.279 128.024 221.303 128.978 220.631C129.766 220.074 130.938 219.409 131.914 219.763C132.066 219.821 132.102 220.024 132.044 220.154V220.147Z" fill="white"/>
<path d="M128.77 217.825C128.119 218.411 127.158 218.693 126.384 219.09C125.466 219.567 124.757 220.428 123.817 220.818C123.13 221.1 122.595 220.297 122.848 219.705C123.549 218.056 127.056 216.509 128.705 217.449C128.821 217.514 128.893 217.709 128.777 217.818L128.77 217.825Z" fill="white"/>
<path d="M142.934 225.245C137.323 237.635 121.386 223.076 114.64 220.538C113.692 220.184 114.408 218.767 115.348 219.129C123.642 222.281 133.888 234.411 142.225 224.767C142.551 224.392 143.129 224.804 142.927 225.245H142.934Z" fill="#BAD1FC"/>
<path d="M94.3394 162.78C94.6648 158.06 94.4406 153.245 94.4189 148.518C94.39 141.78 94.3394 135.043 94.2382 128.305C94.2092 126.296 94.2092 124.272 94.108 122.262C94.0791 121.684 94.9829 121.684 95.0119 122.262C95.2577 127.004 95.1926 131.775 95.2432 136.525C95.3083 143.262 95.3589 149.999 95.3373 156.737C95.3373 158.747 95.3806 160.771 95.2432 162.773C95.1999 163.351 94.296 163.351 94.3394 162.773V162.78Z" fill="#32235C"/>
<path d="M31.5829 154.541C46.1459 158.618 61.15 161.047 76.2553 161.733C80.5288 161.929 84.8167 161.979 89.0974 161.9C89.6759 161.892 89.6759 162.796 89.0974 162.803C73.8981 163.085 58.677 161.632 43.8103 158.48C39.6236 157.591 35.4658 156.565 31.3442 155.408C30.7874 155.249 31.0261 154.382 31.5829 154.533V154.541Z" fill="#DFFD62"/>
<path d="M32.7692 132.811C35.5098 130.317 38.9083 128.713 42.5093 127.917C46.291 127.086 50.1162 127.216 53.9485 127.628C62.011 128.489 70.1241 130.621 77.0006 135.045C80.5221 137.308 83.6386 140.192 85.8657 143.756C86.1766 144.248 85.3957 144.703 85.0848 144.212C81.1873 137.966 74.5277 133.968 67.7234 131.546C63.891 130.18 59.8923 129.298 55.8575 128.763C52.0902 128.257 48.2217 127.91 44.4399 128.474C40.3762 129.089 36.4642 130.664 33.3983 133.448C32.9717 133.838 32.3282 133.202 32.762 132.811H32.7692Z" fill="#DFFD62"/>
<path d="M112.164 97.0422C112.164 97.0422 126.315 90.6301 136.294 98.0181C146.273 105.406 184.112 171.053 186.99 180.335C187.662 182.518 154.928 196.564 151.045 193.773C147.162 190.99 130.95 147.768 130.95 147.768L112.164 97.035V97.0422Z" fill="#BAD1FC"/>
<path d="M38.7155 104.046C38.4913 105.354 37.1536 128.111 42.0634 134.364C46.9731 140.617 66.0265 143.14 75.7087 139.989C85.3909 136.837 94.5597 134.487 94.5597 134.487C94.5597 134.487 92.9689 203.777 94.0246 205.151C95.102 206.56 135.27 207.587 136.166 203.351C137.063 199.107 129.745 116.849 128.726 109.432C126.715 94.7279 112.912 96.5423 107.069 98.0098C102.499 99.1592 83.1204 103.518 83.1204 103.518L80.3582 98.393L38.7227 104.046H38.7155Z" fill="#BAD1FC"/>
<path d="M56.7328 114.041C61.4546 112.298 66.2269 110.723 71.0572 109.32C72.1274 109.009 73.1758 108.691 74.2315 108.337C77.9627 107.086 81.6938 105.828 85.4322 104.578C90.0527 103.024 94.6733 101.477 99.3011 99.9224C101.745 99.1055 104.182 98.1441 106.677 97.5079C110.191 96.6115 113.929 96.1561 117.508 96.9441C120.784 97.667 123.676 99.5176 125.81 102.091C131.883 109.443 130.77 119.73 131.124 128.614C131.529 138.663 132.657 148.667 133.438 158.687C134.226 168.771 135.152 178.841 135.839 188.933C136.02 191.557 136.179 194.188 136.323 196.82C136.417 198.649 136.75 200.666 136.367 202.48C136.135 203.601 135.456 204.432 134.436 204.938C132.65 205.82 130.502 206.116 128.564 206.492C119.128 208.35 109.359 208.487 99.8651 206.948C97.4933 206.564 95.1361 206.058 92.8077 205.466C92.2437 205.321 92.4823 204.446 93.0463 204.591C102.287 206.962 111.905 207.649 121.391 206.658C123.828 206.405 126.258 206.037 128.658 205.552C129.794 205.321 130.922 205.068 132.043 204.786C132.838 204.584 133.67 204.381 134.364 203.94C135.542 203.181 135.607 201.829 135.586 200.543C135.535 198.107 135.354 195.67 135.21 193.241C134.617 183.439 133.742 173.665 132.939 163.877C132.144 154.147 131.168 144.417 130.539 134.672C130.22 129.814 130.148 124.971 130.025 120.106C129.902 115.479 129.49 110.73 127.502 106.486C125.94 103.154 123.394 100.24 120.003 98.708C116.735 97.2332 113.025 97.2115 109.547 97.8116C106.64 98.3104 103.914 99.3224 101.13 100.255C96.7992 101.708 92.4606 103.168 88.1221 104.621C84.0873 105.973 80.0452 107.332 76.0103 108.684C71.896 110.065 67.7093 111.207 63.5949 112.58C61.375 113.318 59.1696 114.091 56.9714 114.901C56.4219 115.103 56.1905 114.229 56.7328 114.026V114.041Z" fill="#32235C"/>
<path d="M152.259 194.237C156.967 193.326 161.587 191.924 166.107 190.319C171.132 188.533 176.085 186.459 180.778 183.914C183.056 182.678 185.297 181.326 187.337 179.721C187.792 179.367 188.436 180.003 187.973 180.357C184.155 183.35 179.773 185.591 175.362 187.572C170.452 189.777 165.376 191.649 160.213 193.182C157.668 193.933 155.094 194.598 152.491 195.104C151.92 195.213 151.681 194.345 152.252 194.23L152.259 194.237Z" fill="#32235C"/>
<path d="M81.9213 90.5919C81.7261 86.5292 82.3552 82.452 83.7869 78.6496C84.105 77.811 84.4521 76.9869 84.8354 76.1845C85.0523 75.7291 85.4283 75.2303 85.5657 74.7532C85.5729 74.7242 85.6452 74.8616 85.6669 74.7532C85.6814 74.6809 85.6163 74.5218 85.6091 74.4568C85.5223 73.5242 85.0884 72.0929 85.7248 71.2616C86.014 70.8784 86.5418 70.8495 86.9829 70.7989C87.8289 70.7049 88.6822 70.6905 89.5282 70.6832C91.7987 70.6616 94.0764 70.7411 96.3397 70.864C97.4171 70.9218 98.4945 70.9869 99.5719 71.0953C100.027 71.1387 100.707 71.1098 101.112 71.37C101.597 71.6808 101.148 72.4688 100.657 72.1507C100.729 72.1941 100.505 72.1146 100.389 72.1001C100.114 72.064 99.8467 72.0278 99.5719 71.9989C98.7765 71.9194 97.9811 71.8688 97.1857 71.8182C95.0815 71.6881 92.9773 71.6086 90.8732 71.5869C89.9331 71.5796 89.0004 71.5796 88.0603 71.623C87.6482 71.6447 86.8383 71.5652 86.4695 71.7965C86.3538 71.8688 86.4912 71.7459 86.4406 71.8254C86.3105 72.0206 86.3394 72.4471 86.3322 72.664C86.3322 73.2278 86.4117 73.7845 86.5057 74.3411C86.5708 74.7098 86.5346 74.8544 86.3466 75.2086C85.8694 76.1267 85.4066 77.0448 85.0089 77.999C83.353 81.9822 82.6155 86.2906 82.8252 90.5991C82.8541 91.1774 81.9502 91.1774 81.9213 90.5991V90.5919Z" fill="#32235C"/>
<path d="M80.8911 104.631C80.8911 104.631 79.481 107.132 80.8766 108.672C82.2722 110.212 99.4311 115.012 102.345 115.135C105.259 115.258 146.345 106.207 146.88 105.043C147.423 103.879 147.321 101.993 147.321 101.993C147.321 101.993 148.992 101.848 149.223 99.2817C149.454 96.7154 153.381 67.7344 152.318 65.1754C151.255 62.6163 147.784 63.0428 144.292 63.7657C140.799 64.4886 105.57 70.7272 103.893 72.6935C102.215 74.6598 101.427 74.6381 100.913 78.043C100.4 81.4478 97.6378 100.214 97.6378 100.214C97.6378 100.214 82.2722 102.867 80.8911 104.638V104.631Z" fill="#32235C"/>
<path d="M132.703 88.1685C133.021 91.024 130.902 93.077 128.039 93.3878C125.183 93.7059 122.666 92.1661 122.348 89.3107C122.03 86.4552 124.091 83.8817 126.954 83.5636C129.81 83.2456 132.385 85.3058 132.703 88.1685Z" fill="#DFFD62"/>
<path d="M85.2602 105.44L97.1767 107.956L97.625 102.086C97.625 102.086 83.5971 103.727 85.2529 105.44H85.2602Z" fill="#DFFD62"/>
<path d="M96.6813 111.164C96.7464 111.786 96.2908 112.126 95.7702 112.184C95.2496 112.241 94.8736 111.988 94.8085 111.367C94.7434 110.745 95.1049 110.196 95.6183 110.138C96.139 110.08 96.609 110.535 96.6813 111.157V111.164Z" fill="#DFFD62"/>
<path d="M99.5094 111.961C99.5745 112.583 99.1189 112.923 98.5983 112.98C98.0777 113.038 97.7017 112.785 97.6366 112.164C97.5715 111.542 97.9331 110.992 98.4465 110.935C98.9671 110.877 99.4371 111.332 99.5094 111.954V111.961Z" fill="#DFFD62"/>
<path d="M28.9173 55.5078C28.8595 55.6379 23.3784 58.3705 21.2598 64.2621C18.5554 71.7875 8.77927 106.978 8.77927 112.747C8.77927 118.516 12.4887 129.2 26.2636 125.788C40.0384 122.376 48.1153 115.19 48.9903 113.477C49.8652 111.771 40.3204 98.4046 39.4455 98.6143C38.5706 98.8311 32.8365 101.007 32.8365 101.007L40.9351 72.814L28.9173 55.5078Z" fill="#DFFD62"/>
<path d="M22.6122 100.608C23.639 100.579 24.6586 100.651 25.6564 100.882C26.6471 101.114 27.5943 101.49 28.5343 101.873C28.7585 101.967 28.9176 102.176 28.8525 102.429C28.7946 102.639 28.5271 102.841 28.2957 102.747C27.3846 102.371 26.4591 102.003 25.4974 101.771C24.5501 101.547 23.5812 101.49 22.605 101.511C22.0265 101.526 22.0265 100.622 22.605 100.608H22.6122Z" fill="#32235C"/>
<path d="M33.1999 99.7776C34.9932 92.9823 36.7937 86.1943 38.5869 79.3991C38.7894 78.64 38.8256 78.1195 39.4402 77.6786C40.0114 77.2737 40.5827 76.8761 41.1539 76.4713C42.1735 75.7484 43.193 75.0327 44.2126 74.3098C44.6898 73.9701 45.1381 74.758 44.6681 75.0906C43.7209 75.7629 42.7736 76.4279 41.8264 77.1002C41.2407 77.5123 40.655 77.9316 40.062 78.3436C39.9463 78.4304 39.7005 78.5316 39.621 78.6545C39.6354 78.6328 39.5993 79.0882 39.592 79.1171C39.5559 79.5147 39.3751 79.9485 39.2666 80.3388C37.5312 86.9027 35.7958 93.4594 34.0604 100.023C33.9085 100.587 33.0408 100.349 33.1854 99.7848L33.1999 99.7776Z" fill="#32235C"/>
<path d="M28.9146 57.073C35.0825 57.6874 40.5636 61.8296 42.8485 67.5839C43.0655 68.1261 42.1905 68.3574 41.9736 67.8225C39.8549 62.473 34.6415 58.5477 28.9146 57.9766C28.3433 57.9188 28.3361 57.0151 28.9146 57.073Z" fill="#32235C"/>
<path d="M43.1964 101.985C43.1964 101.985 57.4051 94.286 61.2302 92.6667C66.0894 90.6137 71.433 89.1318 75.7933 89.8185C80.1535 90.5053 84.0003 92.5005 86.4805 95.1896C89.3801 98.327 89.438 100.084 87.7242 101.313C86.0105 102.542 83.7545 99.6644 81.7298 97.4306C79.7052 95.1969 76.473 94.2788 76.473 94.2788C76.473 94.2788 79.2786 98.9126 79.1339 101.096C78.9893 103.279 77.4419 103.893 75.6486 103.279C75.6486 103.279 74.658 106.127 71.7223 104.71C71.7223 104.71 70.0519 106.575 67.6368 105.592C67.6368 105.592 65.2289 106.958 62.6258 107.804C60.377 108.534 57.9185 108.108 56.0457 106.662L55.6335 106.344C55.6335 106.344 46.4431 112.286 45.8357 111.231C45.2283 110.175 43.1891 101.978 43.1891 101.978L43.1964 101.985Z" fill="#FFDFDF"/>
<path d="M72.0326 93.9146C74.3321 96.3941 75.6192 99.8496 76.0964 103.153C76.176 103.724 75.3082 103.97 75.2215 103.392C74.7659 100.24 73.5873 96.9146 71.3891 94.5507C70.9914 94.1242 71.6277 93.4881 72.0254 93.9146H72.0326Z" fill="#32235C"/>
<path d="M68.4863 96.1153C70.9809 98.2479 72.3982 101.508 72.2825 104.79C72.2608 105.368 71.3569 105.376 71.3786 104.79C71.4871 101.732 70.1783 98.7467 67.8499 96.7587C67.4089 96.3828 68.0524 95.7467 68.4863 96.1226V96.1153Z" fill="#32235C"/>
<path d="M64.9997 98.9171C65.9397 99.7629 66.7496 100.76 67.3931 101.852C67.5161 102.054 67.4437 102.358 67.2341 102.474C67.0171 102.589 66.7424 102.532 66.6122 102.315C65.9976 101.266 65.2745 100.385 64.3634 99.5604C64.1898 99.4014 64.1898 99.0833 64.3634 98.9243C64.5514 98.7508 64.8117 98.758 64.9997 98.9243V98.9171Z" fill="#32235C"/>
<path d="M66.645 102.217C66.5727 102.152 66.4136 102.123 66.3196 102.138C66.1605 102.159 66.0304 102.232 65.9291 102.347C65.6688 102.666 65.705 103.114 65.8279 103.482C65.9725 103.916 66.2618 104.335 66.551 104.69C66.8475 105.051 67.2162 105.369 67.7079 105.333C67.9538 105.319 68.1562 105.55 68.1562 105.781C68.1562 106.041 67.9466 106.215 67.7079 106.229C66.9632 106.28 66.3196 105.825 65.8713 105.268C65.4374 104.726 64.9964 104.097 64.8734 103.403C64.7505 102.716 64.9168 101.957 65.4953 101.516C66.0304 101.118 66.7752 101.126 67.2813 101.567C67.4621 101.726 67.4476 102.044 67.2813 102.203C67.1005 102.384 66.8258 102.362 66.645 102.203V102.217Z" fill="#32235C"/>
<path d="M65.2262 103.873C64.0475 104.343 62.7893 104.835 61.495 104.741C60.3959 104.661 59.3764 104.206 58.7183 103.302C58.5737 103.1 58.6822 102.803 58.8774 102.68C59.1016 102.543 59.3547 102.644 59.4993 102.84C60.0054 103.541 60.9238 103.837 61.7553 103.844C62.8761 103.859 63.9535 103.411 64.9803 102.999C65.2117 102.905 65.472 103.1 65.5371 103.317C65.6094 103.57 65.4503 103.779 65.2189 103.873H65.2262Z" fill="#32235C"/>
<path d="M73.8497 91.9087C76.1202 92.834 77.4869 94.8003 78.5426 96.9256C79.526 98.9064 80.5528 102.109 77.9352 103.316C77.241 103.634 76.4167 103.786 75.6502 103.728C75.0718 103.685 75.0718 102.781 75.6502 102.824C77.0313 102.926 78.6438 102.333 78.7161 100.75C78.8029 98.8341 77.5736 96.8316 76.5469 95.2919C75.8021 94.1786 74.8693 93.2894 73.6111 92.7762C73.076 92.5593 73.3146 91.6846 73.8497 91.9015V91.9087Z" fill="#32235C"/>
<path d="M45.2197 112.209C45.2197 112.209 53.9474 112.158 54.3089 107.965C54.6704 103.772 52.1541 96.124 49.7679 96.9987C47.3817 97.8734 38.936 99.6445 38.3865 101.148C37.8369 102.652 45.2269 112.209 45.2269 112.209H45.2197Z" fill="#DFFD62"/>
<path d="M40.6932 99.7084C39.0951 98.1036 36.4992 99.5421 34.7855 100.214C32.8042 100.988 30.8302 101.79 28.8634 102.614C24.8647 104.292 20.9167 106.084 17.0409 108.015C16.5203 108.275 16.0647 107.494 16.5854 107.234C20.8444 105.116 25.1901 103.171 29.5865 101.342C31.763 100.439 33.9467 99.5566 36.1522 98.7253C37.8731 98.0747 39.8978 97.6192 41.3439 99.0723C41.7561 99.4843 41.1126 100.12 40.7076 99.7084H40.6932Z" fill="#32235C"/>
<path d="M48.8705 112.971C47.7642 107.773 44.9658 103.074 40.9165 99.6259C40.4754 99.25 41.1117 98.6139 41.5528 98.9898C45.7034 102.525 48.6029 107.404 49.7382 112.732C49.8611 113.296 48.9862 113.542 48.8633 112.971H48.8705Z" fill="#32235C"/>
<path d="M51.6878 98.0152C50.2199 97.0537 48.2748 96.9959 46.5973 97.3501C44.6521 97.7621 42.9312 98.767 41.2464 99.779C40.7475 100.083 40.2919 99.2947 40.7908 98.9983C42.6347 97.8923 44.5437 96.7862 46.6913 96.4176C48.5062 96.0995 50.5598 96.2007 52.1434 97.2344C52.6278 97.5525 52.1795 98.3332 51.6878 98.0152Z" fill="#32235C"/>
<path d="M67.0094 186.621C67.0094 186.621 34.427 178.062 33.0893 179.963C31.7516 181.857 31.4551 188.84 31.4551 188.84C31.4551 188.84 67.5012 195.108 68.1664 194.66C68.8316 194.211 67.0094 186.621 67.0094 186.621Z" fill="#32235C"/>
<path d="M82.8326 140.85C75.2546 133.968 65.5218 129.479 55.3624 128.185C45.203 126.891 34.6603 128.792 25.5928 133.556C25.5928 133.556 24.6383 138.378 25.5928 140.25C26.54 142.13 82.1745 150.992 82.8326 148.043C83.4906 145.093 82.8326 140.843 82.8326 140.843V140.85Z" fill="#32235C"/>
<ellipse cx="0.916667" cy="1.82963" rx="0.916667" ry="1.82963" transform="matrix(-1 0 0 1 59.5859 22.8672)" fill="#463080"/>
<ellipse cx="0.916667" cy="1.37222" rx="0.916667" ry="1.37222" transform="matrix(-1 0 0 1 66.9141 22.8672)" fill="#463080"/>
</g>
<defs>
<clipPath id="clip0_15342_185995">
<rect width="220" height="247" fill="white" transform="matrix(-1 0 0 1 220 0)"/>
</clipPath>
</defs>
</svg>
