<svg width="179" height="219" viewBox="0 0 179 219" fill="none" xmlns="http://www.w3.org/2000/svg">
<path d="M146.383 182L131.404 172.5L117.923 187.5C120.086 189 124.214 192.4 123.415 194C122.416 196 121.917 206.5 120.918 211C120.12 214.6 122.25 217.833 123.415 219L133.9 204L146.383 182Z" fill="white"/>
<path d="M55.3117 163.234C55.3117 163.234 47.4327 177.274 48.8707 181.364C50.3086 185.454 75.8729 172.364 75.8729 172.364L55.3216 163.234H55.3117Z" fill="#FDFDFD" stroke="#32235C" stroke-width="2" stroke-linecap="round" stroke-linejoin="round"/>
<path d="M106.051 29.0923C103.654 21.3123 107.988 13.0023 115.717 10.5323C123.446 8.06229 131.655 12.3723 134.042 20.1523C136.438 27.9323 132.104 36.2423 124.375 38.7123C116.646 41.1823 108.438 36.8723 106.051 29.0923Z" fill="#FFDFDF" stroke="#32235C" stroke-width="2" stroke-linecap="round" stroke-linejoin="round"/>
<path d="M173.831 147.905C163.096 158.105 129.194 165.265 129.194 165.265L136.204 169.855L111.319 203.985C111.319 203.985 64.2846 173.035 44.0629 153.235C36.9029 146.225 24.8398 133.405 35.0156 118.895C44.7619 105.005 105.986 108.705 105.986 108.705C105.986 108.705 156.565 111.145 169.767 120.075C179.284 126.515 182.449 139.745 173.841 147.925L173.831 147.905Z" fill="#32235C"/>
<path d="M126.81 163.229L80.125 134.359" stroke="white" stroke-width="2" stroke-linecap="round" stroke-linejoin="round"/>
<path d="M92.0234 141.647L129.241 129.227" stroke="white" stroke-width="2" stroke-linecap="round" stroke-linejoin="round"/>
<path d="M134.171 173.852L146.833 182.262C146.833 182.262 127.34 215.642 123.735 217.732C121.309 219.142 121.798 212.122 122.387 205.422C122.946 199.062 124.694 192.392 124.694 192.392L122.657 191.042" stroke="#32235C" stroke-width="2" stroke-linecap="round" stroke-linejoin="round"/>
<path d="M119.172 200.959L127.82 199.289" stroke="#DFFD62" stroke-width="2" stroke-linecap="round" stroke-linejoin="round"/>
<path d="M120.586 197.553L129.234 195.883" stroke="#DFFD62" stroke-width="2" stroke-linecap="round" stroke-linejoin="round"/>
<path d="M51.3203 66.2846C51.3203 66.2846 75.6962 47.0245 94.5997 45.0245C113.503 43.0345 141.364 44.1945 155.794 61.2945C170.224 78.3945 172.94 95.2246 172.94 95.2246L139.796 90.3746L140.935 112.445C140.935 112.445 118.676 117.085 100.921 116.095C83.1657 115.095 71.552 103.925 71.552 103.925L78.8518 84.0445L63.4334 94.1745L51.3303 66.2745L51.3203 66.2846Z" fill="#DFFD62"/>
<path d="M106.26 45.4297C106.26 45.4297 104.872 56.2897 114.239 58.3697C123.606 60.4597 132.254 48.9597 132.254 48.9597" stroke="#32235C" stroke-width="2" stroke-linecap="round" stroke-linejoin="round"/>
<path d="M110.587 45.4297C110.587 45.4297 110.038 52.4697 115.201 53.6197C120.364 54.7697 126.804 47.7297 126.804 47.7297" stroke="#32235C" stroke-width="2" stroke-linecap="round" stroke-linejoin="round"/>
<path d="M86.9018 65.9062C86.9018 65.9062 84.0459 69.7562 80.6406 77.0262" stroke="#32235C" stroke-width="2" stroke-linecap="round" stroke-linejoin="round"/>
<path d="M139.039 73.1953L139.808 91.4653" stroke="#32235C" stroke-width="2" stroke-linecap="round" stroke-linejoin="round"/>
<path d="M141.03 91.496C141.03 91.496 137.425 85.426 129.487 82.746C118.652 79.096 101.596 84.006 106.349 87.716C107.567 88.666 114.018 88.586 117.813 87.446C121.288 86.406 123.735 86.526 123.735 86.526C123.735 86.526 117.863 86.576 114.877 88.826C109.994 92.516 113.948 95.586 113.948 95.586C113.948 95.586 116.724 93.616 119.391 92.566C122.057 91.506 126.391 91.136 126.391 91.136C126.391 91.136 121.118 91.816 118.302 93.126C115.456 94.456 113.359 95.846 115.356 97.516C117.064 98.946 123.795 97.556 123.795 97.556C123.795 97.556 126.83 99.856 129.377 101.056C131.933 102.256 135.768 102.866 135.768 102.866C135.768 102.866 150.028 132.516 167.523 128.926C185.019 125.336 171.118 95.236 171.118 95.236L141.02 91.506L141.03 91.496Z" fill="#FFDFDF"/>
<path d="M65.6935 87.09C65.6935 87.09 54.7688 95.81 42.2264 95.19C29.684 94.57 21.2957 51.15 21.2957 51.15C21.2957 51.15 15.1144 50.04 11.1699 49.05C7.23539 48.06 4.24958 45.3 2.11257 40.52C-0.0344182 35.74 1.33365 32.84 2.8016 32.61C4.26954 32.38 4.40935 36.03 6.20683 38.43C8.66339 41.69 11.6192 42.2 11.6192 42.2C11.6192 42.2 10.7605 40.41 9.38239 37.71C7.69476 34.42 7.21543 32.1 7.55495 29.36C8.03428 25.47 10.1613 24.6501 11.3097 26.5001C12.6278 28.6201 11.9288 29.5401 13.8961 34.7801C14.5152 36.4401 16.3327 39.58 16.3327 39.58C16.3327 39.58 15.4239 37.91 14.1257 35.02C12.8276 32.14 13.5066 26.59 15.0844 26.49C16.6622 26.4 17.531 28.8401 18.4797 31.4701C19.4183 34.1001 20.9861 37.2 20.9861 37.2C20.9861 37.2 26.6382 37 30.1533 39.4C33.6684 41.8 36.1449 47.92 36.1449 47.92L46.3007 71.48L51.3636 68.32" fill="#FFDFDF"/>
<path d="M65.6935 87.09C65.6935 87.09 54.7688 95.81 42.2264 95.19C29.684 94.57 21.2957 51.15 21.2957 51.15C21.2957 51.15 15.1144 50.04 11.1699 49.05C7.23539 48.06 4.24958 45.3 2.11257 40.52C-0.0344182 35.74 1.33365 32.84 2.8016 32.61C4.26954 32.38 4.40935 36.03 6.20683 38.43C8.66339 41.69 11.6192 42.2 11.6192 42.2C11.6192 42.2 10.7605 40.41 9.38239 37.71C7.69476 34.42 7.21543 32.1 7.55495 29.36C8.03428 25.47 10.1613 24.6501 11.3097 26.5001C12.6278 28.6201 11.9288 29.5401 13.8961 34.7801C14.5152 36.4401 16.3327 39.58 16.3327 39.58C16.3327 39.58 15.4239 37.91 14.1257 35.02C12.8276 32.14 13.5066 26.59 15.0844 26.49C16.6622 26.4 17.531 28.8401 18.4797 31.4701C19.4183 34.1001 20.9861 37.2 20.9861 37.2C20.9861 37.2 26.6382 37 30.1533 39.4C33.6684 41.8 36.1449 47.92 36.1449 47.92L46.3007 71.48L51.3636 68.32" stroke="#32235C" stroke-width="2" stroke-linecap="round" stroke-linejoin="round"/>
<path d="M171.126 95.236C171.126 95.236 185.027 125.336 167.531 128.926C150.036 132.516 135.776 102.866 135.776 102.866C135.776 102.866 131.941 102.266 129.385 101.056C126.828 99.856 123.802 97.556 123.802 97.556C123.802 97.556 117.072 98.946 115.364 97.516C113.367 95.846 115.464 94.456 118.31 93.126C121.116 91.816 126.399 91.136 126.399 91.136C126.399 91.136 122.065 91.516 119.399 92.566C116.732 93.626 113.956 95.586 113.956 95.586C113.956 95.586 110.002 92.516 114.885 88.826C117.861 86.576 123.742 86.526 123.742 86.526C123.742 86.526 121.296 86.406 117.821 87.446C114.016 88.586 107.575 88.666 106.357 87.716C101.603 84.006 118.66 79.096 129.494 82.746C137.443 85.426 141.038 91.496 141.038 91.496C141.038 91.496 152.452 97.756 157.106 101.826C161.759 105.896 164.925 110.266 164.925 110.266" stroke="#32235C" stroke-width="2" stroke-linecap="round" stroke-linejoin="round"/>
<path d="M129.206 17.7728C129.206 17.7728 113.808 17.7528 108.665 14.9428C101.715 11.1328 103.143 2.3828 109.084 0.5128C114.717 -1.2572 117.513 1.84281 122.755 5.41281C125.272 7.12281 130.694 5.3828 134.349 8.0628C138.623 11.2028 136.756 16.1628 136.756 16.1628C136.756 16.1628 143.886 16.8628 143.386 23.3428C142.737 31.8528 131.883 33.7928 131.883 33.7928C131.883 33.7928 129.835 30.7728 129.196 25.8228C128.557 20.8428 129.196 17.7628 129.196 17.7628L129.206 17.7728Z" fill="#32235C"/>
<path d="M119.934 20.9012C120.773 20.9512 121.422 21.6612 121.362 22.5112C121.302 23.3612 120.553 24.0112 119.715 23.9612C118.876 23.9112 118.257 23.1712 118.317 22.3212C118.376 21.4812 119.085 20.8512 119.934 20.9012Z" fill="#32235C"/>
<path d="M111.403 17.9091C112.242 17.9591 112.891 18.6691 112.831 19.5191C112.771 20.3591 112.022 21.0191 111.183 20.9691C110.344 20.9191 109.725 20.1791 109.785 19.3291C109.845 18.4791 110.554 17.8591 111.403 17.9091Z" fill="#32235C"/>
<path d="M115.686 20.6641L111.242 25.3641L114.418 25.9741" stroke="#32235C" stroke-width="2" stroke-linecap="round" stroke-linejoin="round"/>
<path d="M112.461 29.1053L119.331 26.9453C119.331 26.9453 119.301 31.9253 116.855 32.8453C115.167 33.4753 112.471 29.1053 112.471 29.1053H112.461Z" fill="#32235C"/>
<path d="M42.5156 73.5938C39.7894 73.5938 37.5625 75.9437 37.5625 78.8537L42.915 111.024C42.915 113.944 45.1319 116.314 47.8681 116.314C47.8681 116.314 47.888 116.314 47.898 116.314L121.535 116.684C122.723 116.684 123.722 115.694 123.722 114.494V112.954C123.722 111.764 122.733 110.804 121.535 110.804L106.885 110.434L101.663 78.8537C101.663 75.9437 99.4458 73.5938 96.7097 73.5938H42.5156Z" fill="#5E5BF0"/>
<path d="M69.3105 90.2197C69.3849 90.1671 69.486 90.1276 69.6436 90.1992C69.7515 90.2483 69.8088 90.2969 69.8584 90.3564C69.9175 90.4273 69.9684 90.5167 70.0605 90.6768L70.0615 90.6777C70.2647 91.0268 70.3474 91.3861 70.4375 91.7891C70.5168 92.1434 70.6027 92.5328 70.7988 92.9219C70.7791 92.9516 70.7562 92.9878 70.7275 93.0283C70.6283 93.1685 70.4914 93.3514 70.3516 93.5381C70.2132 93.7227 70.0711 93.9118 69.9668 94.0586C69.9151 94.1313 69.8687 94.1992 69.8359 94.2529C69.8203 94.2786 69.8034 94.3095 69.79 94.3398C69.7868 94.3473 69.7837 94.3584 69.7793 94.3711C69.5378 94.7895 69.2964 95.2043 69.0508 95.623L69.0498 95.625C68.7911 96.0715 68.5321 96.5185 68.2725 96.9648C68.2553 96.9595 68.2392 96.9538 68.2236 96.9512C68.1302 96.9354 68.0378 96.9545 67.9805 96.9688C67.9165 96.9847 67.8454 97.0085 67.7842 97.0283C67.6486 97.0721 67.5324 97.1064 67.4307 97.1113C67.3397 97.1157 67.293 97.0954 67.2578 97.0566L67.2568 97.0547L67.2031 97.0039C67.0753 96.897 66.924 96.8735 66.79 96.8887C66.653 96.9042 66.518 96.9609 66.4141 97.0078C66.2951 97.0615 66.2075 97.1067 66.1133 97.1416C66.0572 97.1624 66.0154 97.17 65.9854 97.1738C65.977 97.1489 65.9664 97.1115 65.959 97.0576C65.9362 96.892 65.9419 96.6677 65.9521 96.4277C65.9616 96.2058 65.9769 95.9541 65.9609 95.7842C65.9567 95.7391 65.949 95.6891 65.9355 95.6416C65.9232 95.5984 65.8982 95.5302 65.8428 95.4717C65.8394 95.4682 65.8355 95.4653 65.832 95.4619C65.8351 95.4566 65.8387 95.4516 65.8418 95.4463C65.9399 95.2749 66.038 95.1042 66.1367 94.9336V94.9326C66.9426 93.5324 67.7471 92.132 68.5566 90.7363C68.5649 90.7317 68.5748 90.7273 68.585 90.7217C68.6384 90.6921 68.7098 90.6529 68.7822 90.6143C68.8543 90.5758 68.9264 90.5382 68.9805 90.5098C69.0075 90.4956 69.0302 90.4838 69.0459 90.4756C69.0537 90.4715 69.0603 90.468 69.0645 90.4658L69.0703 90.4629L69.1416 90.4258L69.1797 90.3584C69.1803 90.3574 69.1811 90.3543 69.1836 90.3506C69.1886 90.343 69.1973 90.3311 69.209 90.3164C69.2332 90.2861 69.2682 90.2497 69.3105 90.2197Z" stroke="#32235C" stroke-width="0.539474"/>
<path d="M68.3892 90.4917C68.4883 90.2317 68.6245 89.9923 68.8268 89.7982C69.6358 89.0098 70.9733 89.2079 71.5223 90.1987C71.9351 90.9499 72.3727 91.6847 72.7979 92.4278C73.5079 93.662 74.2262 94.8963 74.9279 96.1347C75.5182 97.1708 74.8784 98.4794 73.706 98.6569C72.9878 98.7642 72.3149 98.434 71.9434 97.79C71.3201 96.7044 70.6926 95.6187 70.0693 94.5372C70.0569 94.5124 70.0404 94.4918 70.0239 94.4711C69.9578 94.4175 69.9289 94.339 69.8877 94.2688C69.6111 93.7817 69.3262 93.2988 69.0497 92.8158C68.8722 92.5021 68.6864 92.1925 68.5089 91.8787C68.3479 91.598 68.2736 91.2926 68.2819 90.9706C68.2943 90.8055 68.3149 90.6404 68.3892 90.4917Z" fill="#32235C"/>
<path d="M65.3277 95.8398C65.4061 95.7696 65.4804 95.6953 65.563 95.6293C66.5661 94.8367 68.0728 95.4105 68.2915 96.6654C68.3452 96.9668 68.3163 97.2557 68.2255 97.5447C68.2214 97.5694 68.2172 97.5901 68.209 97.6149C68.1718 97.6809 68.1388 97.7511 68.0975 97.8171C67.7301 98.4239 67.1894 98.7253 66.4794 98.6799C65.6662 98.6221 65.0263 98.0111 64.9149 97.2021C64.8612 96.8099 64.9396 96.4425 65.1419 96.104C65.1832 96.0297 65.2327 95.9637 65.2781 95.8894C65.2988 95.8728 65.2905 95.8398 65.3277 95.8398Z" fill="#32235C"/>
<path d="M65.3273 95.8368C65.3108 95.8533 65.3108 95.8822 65.2819 95.8864C65.2778 95.8575 65.2943 95.841 65.3108 95.8203L65.3273 95.8368Z" fill="#FABC04"/>
<path d="M68.21 97.6171C68.1935 97.5882 68.21 97.5675 68.2265 97.5469C68.2306 97.551 68.2389 97.5593 68.243 97.5634L68.21 97.6171Z" fill="#E1C025"/>
</svg>
