<svg width="423" height="224" viewBox="0 0 423 224" fill="none" xmlns="http://www.w3.org/2000/svg">
<rect x="405" width="17" height="173" fill="#DFFD62"/>
<rect x="405" y="195" width="18" height="29" fill="#FFD600"/>
<rect x="194" width="17" height="201" fill="#624AFF"/>
<path fill-rule="evenodd" clip-rule="evenodd" d="M194 0C97 0 97 0 0 0V201C97 201 97 201 194 201" fill="#7875FF"/>
<rect width="17" height="201" fill="#624AFF"/>
<path d="M38.9595 78.8182H40.4311L43.8913 87.2699H44.0107L47.4709 78.8182H48.9425V89H47.7891V81.2642H47.6896L44.5078 89H43.3942L40.2124 81.2642H40.1129V89H38.9595V78.8182ZM54.3578 89.1591C53.6684 89.1591 53.0635 88.995 52.5431 88.6669C52.0261 88.3388 51.6217 87.8797 51.3301 87.2898C51.0417 86.6998 50.8975 86.0104 50.8975 85.2216C50.8975 84.4261 51.0417 83.7318 51.3301 83.1385C51.6217 82.5452 52.0261 82.0845 52.5431 81.7564C53.0635 81.4283 53.6684 81.2642 54.3578 81.2642C55.0472 81.2642 55.6504 81.4283 56.1674 81.7564C56.6878 82.0845 57.0922 82.5452 57.3805 83.1385C57.6722 83.7318 57.818 84.4261 57.818 85.2216C57.818 86.0104 57.6722 86.6998 57.3805 87.2898C57.0922 87.8797 56.6878 88.3388 56.1674 88.6669C55.6504 88.995 55.0472 89.1591 54.3578 89.1591ZM54.3578 88.1051C54.8815 88.1051 55.3123 87.9709 55.6504 87.7024C55.9885 87.4339 56.2387 87.081 56.4011 86.6435C56.5635 86.206 56.6447 85.732 56.6447 85.2216C56.6447 84.7112 56.5635 84.2356 56.4011 83.7947C56.2387 83.3539 55.9885 82.9976 55.6504 82.7259C55.3123 82.4541 54.8815 82.3182 54.3578 82.3182C53.8341 82.3182 53.4032 82.4541 53.0652 82.7259C52.7271 82.9976 52.4769 83.3539 52.3145 83.7947C52.152 84.2356 52.0708 84.7112 52.0708 85.2216C52.0708 85.732 52.152 86.206 52.3145 86.6435C52.4769 87.081 52.7271 87.4339 53.0652 87.7024C53.4032 87.9709 53.8341 88.1051 54.3578 88.1051ZM60.7823 84.4062V89H59.609V81.3636H60.7425V82.5568H60.842C61.021 82.169 61.2927 81.8575 61.6573 81.6222C62.0219 81.3835 62.4925 81.2642 63.0692 81.2642C63.5863 81.2642 64.0387 81.3703 64.4265 81.5824C64.8143 81.7912 65.1159 82.1094 65.3313 82.5369C65.5468 82.9612 65.6545 83.4981 65.6545 84.1477V89H64.4812V84.2273C64.4812 83.6274 64.3254 83.16 64.0138 82.8253C63.7023 82.4872 63.2747 82.3182 62.7312 82.3182C62.3567 82.3182 62.0219 82.3994 61.7269 82.5618C61.4353 82.7242 61.2049 82.9612 61.0359 83.2727C60.8668 83.5843 60.7823 83.9621 60.7823 84.4062ZM71.1195 81.3636V82.358H67.1621V81.3636H71.1195ZM68.3155 79.5341H69.4888V86.8125C69.4888 87.1439 69.5369 87.3925 69.633 87.5582C69.7324 87.7206 69.8584 87.83 70.0108 87.8864C70.1666 87.9394 70.3307 87.9659 70.503 87.9659C70.6323 87.9659 70.7383 87.9593 70.8212 87.946C70.9041 87.9295 70.9703 87.9162 71.0201 87.9062L71.2587 88.9602C71.1792 88.9901 71.0681 89.0199 70.9256 89.0497C70.7831 89.0829 70.6025 89.0994 70.3837 89.0994C70.0523 89.0994 69.7275 89.0282 69.4093 88.8857C69.0944 88.7431 68.8326 88.526 68.6238 88.2344C68.4183 87.9427 68.3155 87.5748 68.3155 87.1307V79.5341ZM74.2218 84.4062V89H73.0485V78.8182H74.2218V82.5568H74.3212C74.5002 82.1624 74.7686 81.8492 75.1266 81.6172C75.4879 81.3819 75.9685 81.2642 76.5684 81.2642C77.0887 81.2642 77.5444 81.3686 77.9355 81.5774C78.3266 81.7829 78.6299 82.0994 78.8453 82.527C79.0641 82.9512 79.1735 83.4915 79.1735 84.1477V89H78.0002V84.2273C78.0002 83.6207 77.8427 83.1518 77.5279 82.8203C77.2163 82.4856 76.7838 82.3182 76.2303 82.3182C75.8458 82.3182 75.5011 82.3994 75.1962 82.5618C74.8946 82.7242 74.656 82.9612 74.4803 83.2727C74.3079 83.5843 74.2218 83.9621 74.2218 84.4062ZM82.4933 78.8182V89H81.32V78.8182H82.4933ZM85.3979 91.8636C85.199 91.8636 85.0217 91.8471 84.8659 91.8139C84.7102 91.7841 84.6025 91.7543 84.5428 91.7244L84.8411 90.6903C85.1261 90.7633 85.378 90.7898 85.5968 90.7699C85.8155 90.75 86.0094 90.6522 86.1784 90.4766C86.3508 90.3042 86.5082 90.0241 86.6507 89.6364L86.8695 89.0398L84.0456 81.3636H85.3184L87.4263 87.4489H87.5059L89.6138 81.3636H90.8865L87.6451 90.1136C87.4992 90.508 87.3186 90.8345 87.1032 91.093C86.8877 91.3549 86.6375 91.5488 86.3525 91.6747C86.0707 91.8007 85.7525 91.8636 85.3979 91.8636ZM96.5318 89V78.8182H100.091C100.801 78.8182 101.386 78.9408 101.846 79.1861C102.307 79.428 102.65 79.7545 102.876 80.1655C103.101 80.5732 103.214 81.0256 103.214 81.5227C103.214 81.9602 103.136 82.3215 102.98 82.6065C102.827 82.8916 102.625 83.117 102.373 83.2827C102.125 83.4484 101.855 83.571 101.563 83.6506V83.75C101.875 83.7699 102.188 83.8793 102.503 84.0781C102.818 84.277 103.081 84.562 103.293 84.9332C103.505 85.3045 103.611 85.7585 103.611 86.2955C103.611 86.8059 103.495 87.2649 103.263 87.6726C103.031 88.0803 102.665 88.4034 102.165 88.642C101.664 88.8807 101.013 89 100.211 89H96.5318ZM97.7647 87.9062H100.211C101.016 87.9062 101.588 87.7505 101.926 87.4389C102.267 87.1241 102.438 86.7429 102.438 86.2955C102.438 85.9508 102.35 85.6326 102.175 85.3409C101.999 85.0459 101.749 84.8106 101.424 84.6349C101.099 84.456 100.715 84.3665 100.27 84.3665H97.7647V87.9062ZM97.7647 83.2926H100.052C100.423 83.2926 100.758 83.2197 101.056 83.0739C101.358 82.928 101.596 82.7225 101.772 82.4574C101.951 82.1922 102.04 81.8807 102.04 81.5227C102.04 81.0753 101.885 80.6958 101.573 80.3842C101.261 80.0694 100.768 79.9119 100.091 79.9119H97.7647V83.2926ZM110.291 85.8778V81.3636H111.464V89H110.291V87.7074H110.211C110.032 88.0952 109.754 88.425 109.376 88.6967C108.998 88.9652 108.521 89.0994 107.944 89.0994C107.467 89.0994 107.043 88.995 106.671 88.7862C106.3 88.5741 106.008 88.2559 105.796 87.8317C105.584 87.4041 105.478 86.8655 105.478 86.2159V81.3636H106.651V86.1364C106.651 86.6932 106.807 87.1373 107.119 87.4688C107.434 87.8002 107.835 87.9659 108.322 87.9659C108.614 87.9659 108.91 87.8913 109.212 87.7422C109.517 87.593 109.772 87.3643 109.977 87.0561C110.186 86.7479 110.291 86.3551 110.291 85.8778ZM116.496 89.1591C115.86 89.1591 115.298 88.9983 114.811 88.6768C114.324 88.352 113.943 87.8946 113.668 87.3047C113.393 86.7114 113.255 86.0104 113.255 85.2017C113.255 84.3996 113.393 83.7036 113.668 83.1136C113.943 82.5237 114.326 82.0679 114.816 81.7464C115.307 81.425 115.873 81.2642 116.516 81.2642C117.013 81.2642 117.406 81.3471 117.695 81.5128C117.986 81.6752 118.208 81.8608 118.361 82.0696C118.517 82.2751 118.638 82.4441 118.724 82.5767H118.823V78.8182H119.996V89H118.863V87.8267H118.724C118.638 87.9659 118.515 88.1416 118.356 88.3537C118.197 88.5625 117.97 88.7498 117.675 88.9155C117.38 89.0779 116.987 89.1591 116.496 89.1591ZM116.656 88.1051C117.126 88.1051 117.524 87.9825 117.849 87.7372C118.174 87.4886 118.42 87.1456 118.589 86.7081C118.759 86.2673 118.843 85.7585 118.843 85.1818C118.843 84.6117 118.76 84.1129 118.594 83.6854C118.429 83.2545 118.183 82.9197 117.859 82.6811C117.534 82.4392 117.133 82.3182 116.656 82.3182C116.158 82.3182 115.744 82.4458 115.413 82.701C115.085 82.9529 114.838 83.2959 114.672 83.7301C114.509 84.161 114.428 84.6449 114.428 85.1818C114.428 85.7254 114.511 86.2192 114.677 86.6634C114.846 87.1042 115.094 87.4555 115.423 87.7173C115.754 87.9759 116.165 88.1051 116.656 88.1051ZM125.391 92.0227C124.824 92.0227 124.337 91.9498 123.929 91.804C123.521 91.6615 123.182 91.4725 122.91 91.2372C122.641 91.0052 122.428 90.7566 122.268 90.4915L123.203 89.8352C123.309 89.9744 123.443 90.1335 123.606 90.3125C123.768 90.4948 123.99 90.6522 124.272 90.7848C124.557 90.9207 124.93 90.9886 125.391 90.9886C126.007 90.9886 126.516 90.8395 126.917 90.5412C127.318 90.2429 127.518 89.7756 127.518 89.1392V87.5881H127.419C127.333 87.7273 127.21 87.8996 127.051 88.1051C126.895 88.3073 126.67 88.4879 126.375 88.647C126.083 88.8028 125.689 88.8807 125.192 88.8807C124.575 88.8807 124.022 88.7348 123.531 88.4432C123.044 88.1515 122.658 87.7273 122.373 87.1705C122.091 86.6136 121.95 85.9375 121.95 85.142C121.95 84.3598 122.088 83.6787 122.363 83.0987C122.638 82.5154 123.021 82.0646 123.511 81.7464C124.002 81.425 124.569 81.2642 125.212 81.2642C125.709 81.2642 126.103 81.3471 126.395 81.5128C126.69 81.6752 126.915 81.8608 127.071 82.0696C127.23 82.2751 127.353 82.4441 127.439 82.5767H127.558V81.3636H128.692V89.2188C128.692 89.875 128.543 90.4086 128.244 90.8196C127.949 91.2339 127.552 91.5372 127.051 91.7294C126.554 91.925 126 92.0227 125.391 92.0227ZM125.351 87.8267C125.821 87.8267 126.219 87.719 126.544 87.5036C126.869 87.2881 127.116 86.9782 127.285 86.5739C127.454 86.1695 127.538 85.6856 127.538 85.1222C127.538 84.572 127.455 84.0864 127.29 83.6655C127.124 83.2446 126.879 82.9148 126.554 82.6761C126.229 82.4375 125.828 82.3182 125.351 82.3182C124.854 82.3182 124.439 82.4441 124.108 82.696C123.78 82.9479 123.533 83.286 123.367 83.7102C123.205 84.1345 123.124 84.6051 123.124 85.1222C123.124 85.6525 123.206 86.1214 123.372 86.5291C123.541 86.9335 123.79 87.2517 124.118 87.4837C124.449 87.7124 124.86 87.8267 125.351 87.8267ZM134.041 89.1591C133.305 89.1591 132.671 88.9967 132.137 88.6719C131.607 88.3438 131.197 87.8864 130.909 87.2997C130.624 86.7098 130.482 86.0237 130.482 85.2415C130.482 84.4593 130.624 83.7699 130.909 83.1733C131.197 82.5734 131.598 82.1061 132.112 81.7713C132.629 81.4332 133.232 81.2642 133.922 81.2642C134.32 81.2642 134.712 81.3305 135.1 81.4631C135.488 81.5956 135.841 81.8111 136.159 82.1094C136.477 82.4044 136.731 82.7955 136.92 83.2827C137.109 83.7699 137.203 84.3698 137.203 85.0824V85.5795H131.317V84.5653H136.01C136.01 84.1345 135.924 83.75 135.751 83.4119C135.582 83.0739 135.34 82.8071 135.026 82.6115C134.714 82.416 134.346 82.3182 133.922 82.3182C133.455 82.3182 133.05 82.4342 132.709 82.6662C132.371 82.8949 132.111 83.1932 131.928 83.5611C131.746 83.929 131.655 84.3234 131.655 84.7443V85.4205C131.655 85.9972 131.754 86.486 131.953 86.8871C132.155 87.2848 132.435 87.5881 132.793 87.7969C133.151 88.0024 133.567 88.1051 134.041 88.1051C134.349 88.1051 134.628 88.062 134.876 87.9759C135.128 87.8864 135.345 87.7538 135.528 87.5781C135.71 87.3991 135.851 87.1771 135.95 86.9119L137.084 87.2301C136.964 87.6146 136.764 87.9527 136.482 88.2443C136.201 88.5327 135.853 88.758 135.438 88.9205C135.024 89.0795 134.558 89.1591 134.041 89.1591ZM142.309 81.3636V82.358H138.352V81.3636H142.309ZM139.505 79.5341H140.678V86.8125C140.678 87.1439 140.726 87.3925 140.822 87.5582C140.922 87.7206 141.048 87.83 141.2 87.8864C141.356 87.9394 141.52 87.9659 141.692 87.9659C141.822 87.9659 141.928 87.9593 142.011 87.946C142.094 87.9295 142.16 87.9162 142.21 87.9062L142.448 88.9602C142.369 88.9901 142.258 89.0199 142.115 89.0497C141.973 89.0829 141.792 89.0994 141.573 89.0994C141.242 89.0994 140.917 89.0282 140.599 88.8857C140.284 88.7431 140.022 88.526 139.813 88.2344C139.608 87.9427 139.505 87.5748 139.505 87.1307V79.5341Z" fill="white"/>
<path d="M87.8537 103.545V121H84.6918V106.622H84.5895L80.5071 109.23V106.332L84.8452 103.545H87.8537ZM98.7372 121.332C97.3338 121.332 96.1293 120.977 95.1236 120.267C94.1236 119.551 93.3537 118.52 92.8139 117.173C92.2798 115.821 92.0128 114.193 92.0128 112.29C92.0185 110.386 92.2884 108.767 92.8224 107.432C93.3622 106.091 94.1321 105.068 95.1321 104.364C96.1378 103.659 97.3395 103.307 98.7372 103.307C100.135 103.307 101.337 103.659 102.342 104.364C103.348 105.068 104.118 106.091 104.652 107.432C105.192 108.773 105.462 110.392 105.462 112.29C105.462 114.199 105.192 115.83 104.652 117.182C104.118 118.528 103.348 119.557 102.342 120.267C101.342 120.977 100.141 121.332 98.7372 121.332ZM98.7372 118.665C99.8281 118.665 100.689 118.128 101.32 117.054C101.956 115.974 102.274 114.386 102.274 112.29C102.274 110.903 102.129 109.739 101.839 108.795C101.55 107.852 101.141 107.142 100.612 106.665C100.084 106.182 99.4588 105.94 98.7372 105.94C97.652 105.94 96.794 106.48 96.1634 107.56C95.5327 108.634 95.2145 110.21 95.2088 112.29C95.2031 113.682 95.3423 114.852 95.6264 115.801C95.9162 116.75 96.3253 117.466 96.8537 117.949C97.3821 118.426 98.0099 118.665 98.7372 118.665ZM114.745 121.332C113.342 121.332 112.137 120.977 111.131 120.267C110.131 119.551 109.362 118.52 108.822 117.173C108.288 115.821 108.021 114.193 108.021 112.29C108.026 110.386 108.296 108.767 108.83 107.432C109.37 106.091 110.14 105.068 111.14 104.364C112.146 103.659 113.347 103.307 114.745 103.307C116.143 103.307 117.344 103.659 118.35 104.364C119.356 105.068 120.126 106.091 120.66 107.432C121.2 108.773 121.469 110.392 121.469 112.29C121.469 114.199 121.2 115.83 120.66 117.182C120.126 118.528 119.356 119.557 118.35 120.267C117.35 120.977 116.148 121.332 114.745 121.332ZM114.745 118.665C115.836 118.665 116.697 118.128 117.327 117.054C117.964 115.974 118.282 114.386 118.282 112.29C118.282 110.903 118.137 109.739 117.847 108.795C117.558 107.852 117.148 107.142 116.62 106.665C116.092 106.182 115.467 105.94 114.745 105.94C113.66 105.94 112.802 106.48 112.171 107.56C111.54 108.634 111.222 110.21 111.217 112.29C111.211 113.682 111.35 114.852 111.634 115.801C111.924 116.75 112.333 117.466 112.862 117.949C113.39 118.426 114.018 118.665 114.745 118.665ZM133.634 117.727V116.807C133.634 116.131 133.776 115.509 134.06 114.94C134.349 114.372 134.77 113.915 135.321 113.568C135.872 113.222 136.54 113.048 137.324 113.048C138.131 113.048 138.807 113.222 139.352 113.568C139.898 113.909 140.31 114.364 140.588 114.932C140.872 115.5 141.014 116.125 141.014 116.807V117.727C141.014 118.403 140.872 119.026 140.588 119.594C140.304 120.162 139.886 120.619 139.335 120.966C138.79 121.313 138.119 121.486 137.324 121.486C136.528 121.486 135.855 121.313 135.304 120.966C134.753 120.619 134.335 120.162 134.051 119.594C133.773 119.026 133.634 118.403 133.634 117.727ZM135.858 116.807V117.727C135.858 118.176 135.966 118.588 136.182 118.963C136.398 119.338 136.778 119.526 137.324 119.526C137.875 119.526 138.253 119.341 138.457 118.972C138.668 118.597 138.773 118.182 138.773 117.727V116.807C138.773 116.352 138.673 115.938 138.474 115.562C138.276 115.182 137.892 114.991 137.324 114.991C136.79 114.991 136.412 115.182 136.19 115.562C135.969 115.938 135.858 116.352 135.858 116.807ZM124.761 107.739V106.818C124.761 106.136 124.906 105.511 125.196 104.943C125.486 104.375 125.906 103.92 126.457 103.58C127.009 103.233 127.676 103.06 128.46 103.06C129.261 103.06 129.935 103.233 130.48 103.58C131.031 103.92 131.446 104.375 131.724 104.943C132.003 105.511 132.142 106.136 132.142 106.818V107.739C132.142 108.42 132 109.045 131.716 109.614C131.438 110.176 131.023 110.628 130.472 110.969C129.92 111.31 129.25 111.48 128.46 111.48C127.659 111.48 126.983 111.31 126.432 110.969C125.886 110.628 125.472 110.173 125.188 109.605C124.903 109.037 124.761 108.415 124.761 107.739ZM127.003 106.818V107.739C127.003 108.193 127.108 108.608 127.318 108.983C127.534 109.352 127.915 109.537 128.46 109.537C129.006 109.537 129.381 109.352 129.585 108.983C129.795 108.608 129.901 108.193 129.901 107.739V106.818C129.901 106.364 129.801 105.949 129.602 105.574C129.403 105.193 129.023 105.003 128.46 105.003C127.92 105.003 127.543 105.193 127.327 105.574C127.111 105.955 127.003 106.369 127.003 106.818ZM125.733 121L137.733 103.545H139.864L127.864 121H125.733Z" fill="white"/>
<path fill-rule="evenodd" clip-rule="evenodd" d="M405 0C308 0 308 0 211 0V173C308 173 308 173 405 173" fill="url(#paint0_linear_15342_185976)"/>
<path fill-rule="evenodd" clip-rule="evenodd" d="M405 195C308 195 308 173 211 173V200.746C308 200.746 308 224 405 224" fill="url(#paint1_linear_15342_185976)"/>
<path d="M354.966 180.909C354.966 181.983 354.773 182.911 354.385 183.693C353.997 184.475 353.465 185.079 352.789 185.503C352.113 185.927 351.34 186.139 350.472 186.139C349.604 186.139 348.831 185.927 348.155 185.503C347.479 185.079 346.947 184.475 346.559 183.693C346.172 182.911 345.978 181.983 345.978 180.909C345.978 179.835 346.172 178.907 346.559 178.125C346.947 177.343 347.479 176.74 348.155 176.315C348.831 175.891 349.604 175.679 350.472 175.679C351.34 175.679 352.113 175.891 352.789 176.315C353.465 176.74 353.997 177.343 354.385 178.125C354.773 178.907 354.966 179.835 354.966 180.909ZM353.773 180.909C353.773 180.027 353.626 179.283 353.331 178.677C353.039 178.07 352.643 177.611 352.143 177.3C351.645 176.988 351.089 176.832 350.472 176.832C349.856 176.832 349.297 176.988 348.797 177.3C348.3 177.611 347.903 178.07 347.608 178.677C347.317 179.283 347.171 180.027 347.171 180.909C347.171 181.791 347.317 182.535 347.608 183.141C347.903 183.748 348.3 184.207 348.797 184.518C349.297 184.83 349.856 184.986 350.472 184.986C351.089 184.986 351.645 184.83 352.143 184.518C352.643 184.207 353.039 183.748 353.331 183.141C353.626 182.535 353.773 181.791 353.773 180.909ZM360.202 178.364V179.358H356.244V178.364H360.202ZM357.398 176.534H358.571V183.812C358.571 184.144 358.619 184.393 358.715 184.558C358.814 184.721 358.94 184.83 359.093 184.886C359.249 184.939 359.413 184.966 359.585 184.966C359.714 184.966 359.82 184.959 359.903 184.946C359.986 184.929 360.052 184.916 360.102 184.906L360.341 185.96C360.261 185.99 360.15 186.02 360.008 186.05C359.865 186.083 359.684 186.099 359.466 186.099C359.134 186.099 358.809 186.028 358.491 185.886C358.176 185.743 357.915 185.526 357.706 185.234C357.5 184.943 357.398 184.575 357.398 184.131V176.534ZM363.304 181.406V186H362.131V175.818H363.304V179.557H363.403C363.582 179.162 363.851 178.849 364.209 178.617C364.57 178.382 365.05 178.264 365.65 178.264C366.171 178.264 366.626 178.369 367.018 178.577C367.409 178.783 367.712 179.099 367.927 179.527C368.146 179.951 368.256 180.491 368.256 181.148V186H367.082V181.227C367.082 180.621 366.925 180.152 366.61 179.82C366.298 179.486 365.866 179.318 365.312 179.318C364.928 179.318 364.583 179.399 364.278 179.562C363.977 179.724 363.738 179.961 363.562 180.273C363.39 180.584 363.304 180.962 363.304 181.406ZM373.604 186.159C372.868 186.159 372.233 185.997 371.7 185.672C371.169 185.344 370.76 184.886 370.472 184.3C370.187 183.71 370.044 183.024 370.044 182.241C370.044 181.459 370.187 180.77 370.472 180.173C370.76 179.573 371.161 179.106 371.675 178.771C372.192 178.433 372.795 178.264 373.484 178.264C373.882 178.264 374.275 178.33 374.663 178.463C375.05 178.596 375.403 178.811 375.722 179.109C376.04 179.404 376.293 179.795 376.482 180.283C376.671 180.77 376.766 181.37 376.766 182.082V182.58H370.879V181.565H375.572C375.572 181.134 375.486 180.75 375.314 180.412C375.145 180.074 374.903 179.807 374.588 179.612C374.277 179.416 373.909 179.318 373.484 179.318C373.017 179.318 372.613 179.434 372.271 179.666C371.933 179.895 371.673 180.193 371.491 180.561C371.308 180.929 371.217 181.323 371.217 181.744V182.42C371.217 182.997 371.317 183.486 371.516 183.887C371.718 184.285 371.998 184.588 372.356 184.797C372.714 185.002 373.13 185.105 373.604 185.105C373.912 185.105 374.19 185.062 374.439 184.976C374.691 184.886 374.908 184.754 375.09 184.578C375.272 184.399 375.413 184.177 375.513 183.912L376.646 184.23C376.527 184.615 376.326 184.953 376.045 185.244C375.763 185.533 375.415 185.758 375.001 185.92C374.586 186.08 374.121 186.159 373.604 186.159ZM378.55 186V178.364H379.684V179.517H379.763C379.903 179.139 380.155 178.833 380.519 178.597C380.884 178.362 381.295 178.244 381.752 178.244C381.838 178.244 381.946 178.246 382.075 178.249C382.205 178.253 382.302 178.258 382.369 178.264V179.457C382.329 179.447 382.238 179.433 382.095 179.413C381.956 179.389 381.808 179.378 381.653 179.378C381.281 179.378 380.95 179.456 380.658 179.612C380.37 179.764 380.141 179.976 379.972 180.248C379.807 180.516 379.724 180.823 379.724 181.168V186H378.55ZM389.169 180.074L388.115 180.372C388.048 180.196 387.95 180.026 387.821 179.86C387.695 179.691 387.523 179.552 387.304 179.442C387.085 179.333 386.805 179.278 386.464 179.278C385.997 179.278 385.607 179.386 385.296 179.602C384.987 179.814 384.833 180.084 384.833 180.412C384.833 180.704 384.939 180.934 385.151 181.103C385.364 181.272 385.695 181.413 386.146 181.526L387.279 181.804C387.962 181.97 388.471 182.223 388.806 182.565C389.14 182.903 389.308 183.339 389.308 183.872C389.308 184.31 389.182 184.701 388.93 185.045C388.681 185.39 388.333 185.662 387.886 185.861C387.438 186.06 386.918 186.159 386.325 186.159C385.546 186.159 384.901 185.99 384.391 185.652C383.88 185.314 383.557 184.82 383.421 184.17L384.535 183.892C384.641 184.303 384.842 184.611 385.137 184.817C385.435 185.022 385.824 185.125 386.305 185.125C386.852 185.125 387.286 185.009 387.607 184.777C387.932 184.542 388.095 184.26 388.095 183.932C388.095 183.667 388.002 183.445 387.816 183.266C387.631 183.083 387.346 182.947 386.961 182.858L385.688 182.56C384.989 182.394 384.475 182.137 384.147 181.789C383.822 181.438 383.66 180.999 383.66 180.472C383.66 180.041 383.781 179.66 384.023 179.328C384.268 178.997 384.601 178.737 385.022 178.548C385.446 178.359 385.927 178.264 386.464 178.264C387.22 178.264 387.813 178.43 388.244 178.761C388.678 179.093 388.986 179.53 389.169 180.074Z" fill="white"/>
<path d="M356.395 218V215.716L362.455 209.776C363.034 209.19 363.517 208.67 363.903 208.216C364.29 207.761 364.58 207.321 364.773 206.895C364.966 206.469 365.062 206.014 365.062 205.531C365.062 204.98 364.938 204.509 364.688 204.116C364.438 203.719 364.094 203.412 363.656 203.196C363.219 202.98 362.722 202.872 362.165 202.872C361.591 202.872 361.088 202.991 360.656 203.23C360.224 203.463 359.889 203.795 359.651 204.227C359.418 204.659 359.301 205.173 359.301 205.77H356.293C356.293 204.662 356.545 203.699 357.051 202.881C357.557 202.062 358.253 201.429 359.139 200.98C360.031 200.531 361.054 200.307 362.207 200.307C363.378 200.307 364.406 200.526 365.293 200.963C366.179 201.401 366.866 202 367.355 202.761C367.849 203.523 368.097 204.392 368.097 205.369C368.097 206.023 367.972 206.665 367.722 207.295C367.472 207.926 367.031 208.625 366.401 209.392C365.776 210.159 364.898 211.088 363.767 212.179L360.759 215.239V215.358H368.361V218H356.395ZM380.634 214.727V213.807C380.634 213.131 380.776 212.509 381.06 211.94C381.349 211.372 381.77 210.915 382.321 210.568C382.872 210.222 383.54 210.048 384.324 210.048C385.131 210.048 385.807 210.222 386.352 210.568C386.898 210.909 387.31 211.364 387.588 211.932C387.872 212.5 388.014 213.125 388.014 213.807V214.727C388.014 215.403 387.872 216.026 387.588 216.594C387.304 217.162 386.886 217.619 386.335 217.966C385.79 218.313 385.119 218.486 384.324 218.486C383.528 218.486 382.855 218.313 382.304 217.966C381.753 217.619 381.335 217.162 381.051 216.594C380.773 216.026 380.634 215.403 380.634 214.727ZM382.858 213.807V214.727C382.858 215.176 382.966 215.588 383.182 215.963C383.398 216.338 383.778 216.526 384.324 216.526C384.875 216.526 385.253 216.341 385.457 215.972C385.668 215.597 385.773 215.182 385.773 214.727V213.807C385.773 213.352 385.673 212.938 385.474 212.562C385.276 212.182 384.892 211.991 384.324 211.991C383.79 211.991 383.412 212.182 383.19 212.562C382.969 212.938 382.858 213.352 382.858 213.807ZM371.761 204.739V203.818C371.761 203.136 371.906 202.511 372.196 201.943C372.486 201.375 372.906 200.92 373.457 200.58C374.009 200.233 374.676 200.06 375.46 200.06C376.261 200.06 376.935 200.233 377.48 200.58C378.031 200.92 378.446 201.375 378.724 201.943C379.003 202.511 379.142 203.136 379.142 203.818V204.739C379.142 205.42 379 206.045 378.716 206.614C378.438 207.176 378.023 207.628 377.472 207.969C376.92 208.31 376.25 208.48 375.46 208.48C374.659 208.48 373.983 208.31 373.432 207.969C372.886 207.628 372.472 207.173 372.188 206.605C371.903 206.037 371.761 205.415 371.761 204.739ZM374.003 203.818V204.739C374.003 205.193 374.108 205.608 374.318 205.983C374.534 206.352 374.915 206.537 375.46 206.537C376.006 206.537 376.381 206.352 376.585 205.983C376.795 205.608 376.901 205.193 376.901 204.739V203.818C376.901 203.364 376.801 202.949 376.602 202.574C376.403 202.193 376.023 202.003 375.46 202.003C374.92 202.003 374.543 202.193 374.327 202.574C374.111 202.955 374.003 203.369 374.003 203.818ZM372.733 218L384.733 200.545H386.864L374.864 218H372.733Z" fill="white"/>
<path d="M325.94 99H324.707C324.634 98.6454 324.506 98.3338 324.324 98.0653C324.145 97.7969 323.926 97.5715 323.668 97.3892C323.413 97.2036 323.129 97.0644 322.818 96.9716C322.506 96.8788 322.181 96.8324 321.843 96.8324C321.227 96.8324 320.668 96.9882 320.168 97.2997C319.671 97.6113 319.275 98.0703 318.98 98.6768C318.688 99.2834 318.542 100.027 318.542 100.909C318.542 101.791 318.688 102.535 318.98 103.141C319.275 103.748 319.671 104.207 320.168 104.518C320.668 104.83 321.227 104.986 321.843 104.986C322.181 104.986 322.506 104.939 322.818 104.847C323.129 104.754 323.413 104.616 323.668 104.434C323.926 104.248 324.145 104.021 324.324 103.753C324.506 103.481 324.634 103.17 324.707 102.818H325.94C325.847 103.339 325.678 103.804 325.433 104.215C325.187 104.626 324.883 104.976 324.518 105.264C324.153 105.549 323.744 105.766 323.29 105.915C322.839 106.065 322.357 106.139 321.843 106.139C320.975 106.139 320.203 105.927 319.526 105.503C318.85 105.079 318.318 104.475 317.931 103.693C317.543 102.911 317.349 101.983 317.349 100.909C317.349 99.8352 317.543 98.9072 317.931 98.125C318.318 97.3428 318.85 96.7396 319.526 96.3153C320.203 95.8911 320.975 95.679 321.843 95.679C322.357 95.679 322.839 95.7536 323.29 95.9027C323.744 96.0518 324.153 96.2706 324.518 96.5589C324.883 96.844 325.187 97.192 325.433 97.603C325.678 98.0107 325.847 98.4763 325.94 99ZM330.875 106.159C330.186 106.159 329.581 105.995 329.061 105.667C328.544 105.339 328.139 104.88 327.848 104.29C327.559 103.7 327.415 103.01 327.415 102.222C327.415 101.426 327.559 100.732 327.848 100.138C328.139 99.5452 328.544 99.0845 329.061 98.7564C329.581 98.4283 330.186 98.2642 330.875 98.2642C331.565 98.2642 332.168 98.4283 332.685 98.7564C333.205 99.0845 333.61 99.5452 333.898 100.138C334.19 100.732 334.336 101.426 334.336 102.222C334.336 103.01 334.19 103.7 333.898 104.29C333.61 104.88 333.205 105.339 332.685 105.667C332.168 105.995 331.565 106.159 330.875 106.159ZM330.875 105.105C331.399 105.105 331.83 104.971 332.168 104.702C332.506 104.434 332.756 104.081 332.919 103.643C333.081 103.206 333.162 102.732 333.162 102.222C333.162 101.711 333.081 101.236 332.919 100.795C332.756 100.354 332.506 99.9976 332.168 99.7259C331.83 99.4541 331.399 99.3182 330.875 99.3182C330.352 99.3182 329.921 99.4541 329.583 99.7259C329.245 99.9976 328.994 100.354 328.832 100.795C328.67 101.236 328.588 101.711 328.588 102.222C328.588 102.732 328.67 103.206 328.832 103.643C328.994 104.081 329.245 104.434 329.583 104.702C329.921 104.971 330.352 105.105 330.875 105.105ZM337.3 101.406V106H336.127V98.3636H337.26V99.5568H337.36C337.539 99.169 337.81 98.8575 338.175 98.6222C338.539 98.3835 339.01 98.2642 339.587 98.2642C340.104 98.2642 340.556 98.3703 340.944 98.5824C341.332 98.7912 341.633 99.1094 341.849 99.5369C342.064 99.9612 342.172 100.498 342.172 101.148V106H340.999V101.227C340.999 100.627 340.843 100.16 340.531 99.8253C340.22 99.4872 339.792 99.3182 339.249 99.3182C338.874 99.3182 338.539 99.3994 338.244 99.5618C337.953 99.7242 337.722 99.9612 337.553 100.273C337.384 100.584 337.3 100.962 337.3 101.406ZM350.287 98.3636L347.463 106H346.27L343.446 98.3636H344.719L346.827 104.449H346.906L349.014 98.3636H350.287ZM354.764 106.159C354.028 106.159 353.393 105.997 352.86 105.672C352.329 105.344 351.92 104.886 351.632 104.3C351.347 103.71 351.204 103.024 351.204 102.241C351.204 101.459 351.347 100.77 351.632 100.173C351.92 99.5734 352.321 99.1061 352.835 98.7713C353.352 98.4332 353.955 98.2642 354.645 98.2642C355.042 98.2642 355.435 98.3305 355.823 98.4631C356.211 98.5956 356.564 98.8111 356.882 99.1094C357.2 99.4044 357.453 99.7955 357.642 100.283C357.831 100.77 357.926 101.37 357.926 102.082V102.58H352.039V101.565H356.733C356.733 101.134 356.646 100.75 356.474 100.412C356.305 100.074 356.063 99.8071 355.748 99.6115C355.437 99.416 355.069 99.3182 354.645 99.3182C354.177 99.3182 353.773 99.4342 353.431 99.6662C353.093 99.8949 352.833 100.193 352.651 100.561C352.469 100.929 352.377 101.323 352.377 101.744V102.42C352.377 102.997 352.477 103.486 352.676 103.887C352.878 104.285 353.158 104.588 353.516 104.797C353.874 105.002 354.29 105.105 354.764 105.105C355.072 105.105 355.35 105.062 355.599 104.976C355.851 104.886 356.068 104.754 356.25 104.578C356.433 104.399 356.574 104.177 356.673 103.912L357.806 104.23C357.687 104.615 357.487 104.953 357.205 105.244C356.923 105.533 356.575 105.758 356.161 105.92C355.747 106.08 355.281 106.159 354.764 106.159ZM359.711 106V98.3636H360.844V99.517H360.924C361.063 99.1392 361.315 98.8326 361.679 98.5973C362.044 98.362 362.455 98.2443 362.912 98.2443C362.998 98.2443 363.106 98.246 363.235 98.2493C363.365 98.2526 363.462 98.2576 363.529 98.2642V99.4574C363.489 99.4474 363.398 99.4325 363.255 99.4126C363.116 99.3894 362.969 99.3778 362.813 99.3778C362.442 99.3778 362.11 99.4557 361.819 99.6115C361.53 99.764 361.301 99.9761 361.132 100.248C360.967 100.516 360.884 100.823 360.884 101.168V106H359.711ZM368.719 98.3636V99.358H364.762V98.3636H368.719ZM365.915 96.5341H367.088V103.812C367.088 104.144 367.136 104.393 367.233 104.558C367.332 104.721 367.458 104.83 367.61 104.886C367.766 104.939 367.93 104.966 368.103 104.966C368.232 104.966 368.338 104.959 368.421 104.946C368.504 104.929 368.57 104.916 368.62 104.906L368.858 105.96C368.779 105.99 368.668 106.02 368.525 106.05C368.383 106.083 368.202 106.099 367.983 106.099C367.652 106.099 367.327 106.028 367.009 105.886C366.694 105.743 366.432 105.526 366.223 105.234C366.018 104.943 365.915 104.575 365.915 104.131V96.5341ZM373.604 106.159C372.868 106.159 372.233 105.997 371.7 105.672C371.169 105.344 370.76 104.886 370.472 104.3C370.187 103.71 370.044 103.024 370.044 102.241C370.044 101.459 370.187 100.77 370.472 100.173C370.76 99.5734 371.161 99.1061 371.675 98.7713C372.192 98.4332 372.795 98.2642 373.484 98.2642C373.882 98.2642 374.275 98.3305 374.663 98.4631C375.05 98.5956 375.403 98.8111 375.722 99.1094C376.04 99.4044 376.293 99.7955 376.482 100.283C376.671 100.77 376.766 101.37 376.766 102.082V102.58H370.879V101.565H375.572C375.572 101.134 375.486 100.75 375.314 100.412C375.145 100.074 374.903 99.8071 374.588 99.6115C374.277 99.416 373.909 99.3182 373.484 99.3182C373.017 99.3182 372.613 99.4342 372.271 99.6662C371.933 99.8949 371.673 100.193 371.491 100.561C371.308 100.929 371.217 101.323 371.217 101.744V102.42C371.217 102.997 371.317 103.486 371.516 103.887C371.718 104.285 371.998 104.588 372.356 104.797C372.714 105.002 373.13 105.105 373.604 105.105C373.912 105.105 374.19 105.062 374.439 104.976C374.691 104.886 374.908 104.754 375.09 104.578C375.272 104.399 375.413 104.177 375.513 103.912L376.646 104.23C376.527 104.615 376.326 104.953 376.045 105.244C375.763 105.533 375.415 105.758 375.001 105.92C374.586 106.08 374.121 106.159 373.604 106.159ZM378.55 106V98.3636H379.684V99.517H379.763C379.903 99.1392 380.155 98.8326 380.519 98.5973C380.884 98.362 381.295 98.2443 381.752 98.2443C381.838 98.2443 381.946 98.246 382.075 98.2493C382.205 98.2526 382.302 98.2576 382.369 98.2642V99.4574C382.329 99.4474 382.238 99.4325 382.095 99.4126C381.956 99.3894 381.808 99.3778 381.653 99.3778C381.281 99.3778 380.95 99.4557 380.658 99.6115C380.37 99.764 380.141 99.9761 379.972 100.248C379.807 100.516 379.724 100.823 379.724 101.168V106H378.55ZM389.169 100.074L388.115 100.372C388.048 100.196 387.95 100.026 387.821 99.8601C387.695 99.6911 387.523 99.5518 387.304 99.4425C387.085 99.3331 386.805 99.2784 386.464 99.2784C385.997 99.2784 385.607 99.3861 385.296 99.6016C384.987 99.8137 384.833 100.084 384.833 100.412C384.833 100.704 384.939 100.934 385.151 101.103C385.364 101.272 385.695 101.413 386.146 101.526L387.279 101.804C387.962 101.97 388.471 102.223 388.806 102.565C389.14 102.903 389.308 103.339 389.308 103.872C389.308 104.31 389.182 104.701 388.93 105.045C388.681 105.39 388.333 105.662 387.886 105.861C387.438 106.06 386.918 106.159 386.325 106.159C385.546 106.159 384.901 105.99 384.391 105.652C383.88 105.314 383.557 104.82 383.421 104.17L384.535 103.892C384.641 104.303 384.842 104.611 385.137 104.817C385.435 105.022 385.824 105.125 386.305 105.125C386.852 105.125 387.286 105.009 387.607 104.777C387.932 104.542 388.095 104.26 388.095 103.932C388.095 103.667 388.002 103.445 387.816 103.266C387.631 103.083 387.346 102.947 386.961 102.858L385.688 102.56C384.989 102.394 384.475 102.137 384.147 101.789C383.822 101.438 383.66 100.999 383.66 100.472C383.66 100.041 383.781 99.6596 384.023 99.3281C384.268 98.9967 384.601 98.7365 385.022 98.5476C385.446 98.3587 385.927 98.2642 386.464 98.2642C387.22 98.2642 387.813 98.4299 388.244 98.7614C388.678 99.0928 388.986 99.5303 389.169 100.074Z" fill="#463080"/>
<path d="M346.306 120.307C347.141 120.312 347.954 120.46 348.744 120.75C349.539 121.034 350.255 121.5 350.891 122.148C351.528 122.79 352.033 123.651 352.408 124.73C352.783 125.81 352.971 127.145 352.971 128.736C352.977 130.236 352.817 131.577 352.494 132.759C352.175 133.935 351.718 134.929 351.121 135.741C350.525 136.554 349.806 137.173 348.965 137.599C348.124 138.026 347.178 138.239 346.127 138.239C345.025 138.239 344.048 138.023 343.195 137.591C342.349 137.159 341.664 136.568 341.141 135.818C340.619 135.068 340.298 134.21 340.178 133.244H343.289C343.448 133.937 343.772 134.489 344.261 134.898C344.755 135.301 345.377 135.503 346.127 135.503C347.337 135.503 348.269 134.977 348.923 133.926C349.576 132.875 349.903 131.415 349.903 129.545H349.783C349.505 130.045 349.144 130.477 348.701 130.841C348.258 131.199 347.755 131.474 347.192 131.668C346.636 131.861 346.045 131.957 345.42 131.957C344.397 131.957 343.477 131.713 342.658 131.224C341.846 130.736 341.201 130.065 340.724 129.213C340.252 128.361 340.013 127.386 340.008 126.29C340.008 125.153 340.269 124.134 340.792 123.23C341.32 122.321 342.056 121.605 342.999 121.082C343.942 120.554 345.045 120.295 346.306 120.307ZM346.315 122.864C345.701 122.864 345.147 123.014 344.653 123.315C344.164 123.611 343.778 124.014 343.494 124.526C343.215 125.031 343.076 125.597 343.076 126.222C343.082 126.841 343.221 127.403 343.494 127.909C343.772 128.415 344.15 128.815 344.627 129.111C345.11 129.406 345.661 129.554 346.281 129.554C346.741 129.554 347.17 129.466 347.567 129.29C347.965 129.114 348.312 128.869 348.607 128.557C348.908 128.239 349.141 127.878 349.306 127.474C349.477 127.071 349.559 126.645 349.553 126.196C349.553 125.599 349.411 125.048 349.127 124.543C348.849 124.037 348.465 123.631 347.977 123.324C347.494 123.017 346.94 122.864 346.315 122.864ZM362.013 138.239C360.746 138.239 359.621 138.026 358.638 137.599C357.661 137.173 356.894 136.591 356.337 135.852C355.786 135.108 355.513 134.264 355.519 133.321C355.513 132.588 355.673 131.915 355.996 131.301C356.32 130.688 356.758 130.176 357.309 129.767C357.866 129.352 358.485 129.088 359.167 128.974V128.855C358.269 128.656 357.542 128.199 356.985 127.483C356.434 126.761 356.161 125.929 356.167 124.986C356.161 124.088 356.411 123.287 356.917 122.582C357.423 121.878 358.116 121.324 358.996 120.92C359.877 120.511 360.883 120.307 362.013 120.307C363.133 120.307 364.13 120.511 365.005 120.92C365.886 121.324 366.579 121.878 367.085 122.582C367.596 123.287 367.852 124.088 367.852 124.986C367.852 125.929 367.57 126.761 367.008 127.483C366.451 128.199 365.732 128.656 364.852 128.855V128.974C365.533 129.088 366.147 129.352 366.692 129.767C367.244 130.176 367.681 130.688 368.005 131.301C368.335 131.915 368.499 132.588 368.499 133.321C368.499 134.264 368.221 135.108 367.664 135.852C367.107 136.591 366.34 137.173 365.363 137.599C364.391 138.026 363.275 138.239 362.013 138.239ZM362.013 135.801C362.667 135.801 363.235 135.69 363.718 135.469C364.201 135.241 364.576 134.923 364.843 134.514C365.11 134.105 365.246 133.634 365.252 133.099C365.246 132.543 365.102 132.051 364.817 131.625C364.539 131.193 364.156 130.855 363.667 130.611C363.184 130.366 362.633 130.244 362.013 130.244C361.388 130.244 360.832 130.366 360.343 130.611C359.854 130.855 359.468 131.193 359.184 131.625C358.906 132.051 358.769 132.543 358.775 133.099C358.769 133.634 358.9 134.105 359.167 134.514C359.434 134.918 359.809 135.233 360.292 135.46C360.781 135.687 361.354 135.801 362.013 135.801ZM362.013 127.849C362.548 127.849 363.019 127.741 363.428 127.526C363.843 127.31 364.17 127.009 364.408 126.622C364.647 126.236 364.769 125.79 364.775 125.284C364.769 124.784 364.65 124.347 364.417 123.972C364.184 123.591 363.86 123.298 363.445 123.094C363.031 122.884 362.553 122.778 362.013 122.778C361.462 122.778 360.977 122.884 360.556 123.094C360.141 123.298 359.817 123.591 359.585 123.972C359.357 124.347 359.246 124.784 359.252 125.284C359.246 125.79 359.36 126.236 359.593 126.622C359.832 127.003 360.158 127.304 360.573 127.526C360.994 127.741 361.474 127.849 362.013 127.849ZM380.634 134.727V133.807C380.634 133.131 380.776 132.509 381.06 131.94C381.349 131.372 381.77 130.915 382.321 130.568C382.872 130.222 383.54 130.048 384.324 130.048C385.131 130.048 385.807 130.222 386.352 130.568C386.898 130.909 387.31 131.364 387.588 131.932C387.872 132.5 388.014 133.125 388.014 133.807V134.727C388.014 135.403 387.872 136.026 387.588 136.594C387.304 137.162 386.886 137.619 386.335 137.966C385.79 138.313 385.119 138.486 384.324 138.486C383.528 138.486 382.855 138.313 382.304 137.966C381.753 137.619 381.335 137.162 381.051 136.594C380.773 136.026 380.634 135.403 380.634 134.727ZM382.858 133.807V134.727C382.858 135.176 382.966 135.588 383.182 135.963C383.398 136.338 383.778 136.526 384.324 136.526C384.875 136.526 385.253 136.341 385.457 135.972C385.668 135.597 385.773 135.182 385.773 134.727V133.807C385.773 133.352 385.673 132.938 385.474 132.562C385.276 132.182 384.892 131.991 384.324 131.991C383.79 131.991 383.412 132.182 383.19 132.562C382.969 132.938 382.858 133.352 382.858 133.807ZM371.761 124.739V123.818C371.761 123.136 371.906 122.511 372.196 121.943C372.486 121.375 372.906 120.92 373.457 120.58C374.009 120.233 374.676 120.06 375.46 120.06C376.261 120.06 376.935 120.233 377.48 120.58C378.031 120.92 378.446 121.375 378.724 121.943C379.003 122.511 379.142 123.136 379.142 123.818V124.739C379.142 125.42 379 126.045 378.716 126.614C378.438 127.176 378.023 127.628 377.472 127.969C376.92 128.31 376.25 128.48 375.46 128.48C374.659 128.48 373.983 128.31 373.432 127.969C372.886 127.628 372.472 127.173 372.188 126.605C371.903 126.037 371.761 125.415 371.761 124.739ZM374.003 123.818V124.739C374.003 125.193 374.108 125.608 374.318 125.983C374.534 126.352 374.915 126.537 375.46 126.537C376.006 126.537 376.381 126.352 376.585 125.983C376.795 125.608 376.901 125.193 376.901 124.739V123.818C376.901 123.364 376.801 122.949 376.602 122.574C376.403 122.193 376.023 122.003 375.46 122.003C374.92 122.003 374.543 122.193 374.327 122.574C374.111 122.955 374.003 123.369 374.003 123.818ZM372.733 138L384.733 120.545H386.864L374.864 138H372.733Z" fill="#463080"/>
<defs>
<linearGradient id="paint0_linear_15342_185976" x1="211" y1="339.545" x2="405" y2="339.545" gradientUnits="userSpaceOnUse">
<stop stop-color="#A4A3FF"/>
<stop offset="0.504808" stop-color="#DFFD62"/>
<stop offset="0.995192" stop-color="#DFFD62" stop-opacity="0.9"/>
</linearGradient>
<linearGradient id="paint1_linear_15342_185976" x1="211" y1="184.697" x2="405" y2="184.697" gradientUnits="userSpaceOnUse">
<stop stop-color="#8987FF"/>
<stop offset="0.655" stop-color="#FFD600"/>
</linearGradient>
</defs>
</svg>
