<svg width="242" height="196" viewBox="0 0 242 196" fill="none" xmlns="http://www.w3.org/2000/svg">
<g filter="url(#filter0_f_15342_186128)">
<path d="M218 164.5C182.123 170.5 154.884 172 121 172C91.1027 172 74.4932 172 24 164.5C66.5205 158.5 71.1712 159 121 157C154.219 157 181.459 159 218 164.5Z" fill="#32235C" fill-opacity="0.7"/>
</g>
<g clip-path="url(#clip0_15342_186128)">
<path d="M54.5603 134.432C51.5843 132.538 51.9675 118.537 52.5312 111.773C68.6517 120.566 102.854 139.167 110.7 143.225C118.546 147.283 127.948 144.916 131.668 143.225L163.796 126.992L191.527 112.788C191.415 113.464 191.257 116.305 191.527 122.257C191.798 128.209 190.738 131.501 190.175 132.403L164.81 146.945C157.257 150.44 140.393 158.444 133.359 162.502C126.324 166.56 116.449 164.644 112.391 163.516L88.7179 151.68C78.572 146.72 57.5364 136.326 54.5603 134.432Z" fill="#D6E3FC"/>
<path d="M184.763 117.187L136.064 141.874C135.726 141.874 133.426 142.483 126.933 144.919C120.439 147.355 110.249 142.778 105.965 140.185C90.6337 132.857 58.8216 117.255 54.2223 113.468C49.6229 109.68 53.8841 106.704 56.5896 105.689L65.7207 101.293C75.5282 96.4452 97.9163 85.3292 109.009 79.6477C120.101 73.9661 128.511 76.1531 131.329 77.9567C147.675 86.0733 182.058 103.253 188.821 107.041C195.585 110.829 188.934 115.383 184.763 117.187Z" fill="#E5EDFC"/>
<path d="M113.367 77.3487L56.4906 105.425C56.4906 105.425 47.4948 109.862 55.5167 114.577C65.8923 120.678 112.637 143.87 112.637 143.87C112.637 143.87 122.417 148.24 134.484 142.038C147.788 135.199 187.701 115.185 187.701 115.185C187.701 115.185 196.731 111.161 186.484 105.54C176.237 99.9195 131.433 77.9642 131.433 77.9642C131.433 77.9642 122.032 73.0808 113.367 77.3555V77.3487Z" stroke="#463080" stroke-width="2.02913" stroke-miterlimit="10"/>
<path d="M132.41 115.038C133.235 114.098 123.143 106.469 123.143 106.469C123.143 106.469 122.115 116.452 122.102 117.568C122.081 118.684 125.112 118.853 127.154 118.021C129.19 117.189 131.591 115.972 132.416 115.032C132.416 115.032 132.416 115.032 132.41 115.032V115.038Z" fill="#B1CC2B"/>
<path d="M109.323 96.7912C109.851 97.0685 120.199 104.739 120.199 104.739C113.834 104.218 106.881 104.312 100.76 102.52C99.759 101.6 101.788 100.335 104.446 98.8676C107.098 97.3931 108.789 96.5206 109.323 96.7912Z" fill="#B1CC2B"/>
<path d="M145.184 107.256C138.656 105.308 131.155 106.397 124.398 105.938C124.398 105.938 134.564 113.479 135.39 113.56C136.208 113.648 138.751 112.336 141.883 110.605C145.014 108.873 146.306 107.96 145.184 107.256Z" fill="#B1CC2B"/>
<path d="M99.5811 104.578C106.473 104.646 113.291 105.058 120.17 105.62C120.17 105.62 105.662 110.388 103.261 110.26C100.859 110.131 97.8225 109.211 96.7336 107.642C95.6446 106.073 97.0988 104.68 99.5676 104.578C99.5676 104.578 99.5744 104.578 99.5811 104.578Z" fill="#B1CC2B"/>
<path d="M141.403 100.363C139.455 99.9231 124.453 105.037 124.453 105.037C131.724 105.496 139.09 104.705 146.314 105.381C148.539 105.348 148.776 104.049 147.213 103.001C145.658 101.952 143.338 100.796 141.39 100.356C141.39 100.356 141.396 100.356 141.403 100.356V100.363Z" fill="#B1CC2B"/>
<path d="M106.189 111.905C106.865 111.181 121.381 106.352 121.381 106.352C121.381 106.352 120.055 116.274 118.601 116.876C117.146 117.478 115.286 116.964 111.573 115.516C107.86 114.069 105.519 112.628 106.182 111.898L106.189 111.905Z" fill="#B1CC2B"/>
<path d="M191.372 110.461V126.275C191.372 132.741 190.344 132.775 183.181 137.016C175.153 141.77 129.964 163.868 129.964 163.868C129.964 163.868 119.71 167.283 109.213 161.913C98.7152 156.543 57.8281 136.157 57.8281 136.157C57.8281 136.157 52.3359 134.689 52.3359 127.005V111.306" stroke="#463080" stroke-width="2.02913" stroke-miterlimit="10"/>
<path d="M64.0637 130.088C63.4617 130.852 62.4945 130.832 61.6896 130.386C61.2567 130.149 60.391 129.27 60.1136 128.823C59.3561 127.592 58.7271 125.34 59.6402 124.102C60.2692 123.243 60.9794 123.196 61.9331 123.588C62.8868 123.98 64.0299 125.509 64.3207 126.523C64.6115 127.538 64.7671 129.182 64.0637 130.081V130.088Z" fill="#9DA4BE"/>
<path d="M72.0012 134.385C71.3992 135.149 70.432 135.129 69.6271 134.682C69.1942 134.446 68.3284 133.566 68.0511 133.12C67.2936 131.889 66.6646 129.637 67.5777 128.399C68.2067 127.54 68.9169 127.493 69.8706 127.885C70.8243 128.277 71.9674 129.806 72.2582 130.82C72.549 131.835 72.7046 133.478 72.0012 134.378V134.385Z" fill="#DFFD62"/>
<g clip-path="url(#clip1_15342_186128)">
<path d="M108.179 149.48C107.901 148.527 106.907 147.154 105.987 146.646C105.987 146.633 105.974 146.619 105.974 146.619L95.855 141.783C94.9013 141.391 94.1911 141.438 93.562 142.297C92.6489 143.535 93.278 145.787 94.0355 147.018C94.3061 147.458 95.1786 148.337 95.6115 148.581C95.7129 148.635 95.8144 148.689 95.9226 148.73L105.365 153.221C105.432 153.268 105.5 153.315 105.554 153.343C105.73 153.437 105.906 153.512 106.095 153.566L106.285 153.654C106.285 153.654 106.366 153.654 106.494 153.647C107.029 153.701 107.55 153.525 107.935 153.045C108.639 152.145 108.496 150.536 108.192 149.487L108.179 149.48Z" fill="#5E5BF0"/>
</g>
</g>
<g clip-path="url(#clip2_15342_186128)">
<path d="M184.96 103.218L184.962 103.252C185.006 103.889 184.738 104.583 184.147 105.331C183.56 106.075 182.726 106.779 181.835 107.396C180.951 108.009 180.052 108.51 179.37 108.859C179.03 109.033 178.747 109.167 178.551 109.258C178.453 109.303 178.377 109.337 178.326 109.359C178.301 109.371 178.282 109.379 178.27 109.384C178.264 109.386 178.259 109.389 178.257 109.39L178.255 109.391H178.254L178.227 109.402L178.199 109.416L178.514 110.052C178.199 109.416 178.198 109.416 178.198 109.416L178.197 109.417L178.178 109.427C178.164 109.434 178.142 109.444 178.114 109.458C178.059 109.486 177.976 109.526 177.867 109.58C177.65 109.688 177.329 109.847 176.916 110.052C176.09 110.462 174.895 111.056 173.418 111.791C170.463 113.262 166.376 115.298 161.855 117.564C152.817 122.095 142.031 127.546 135.064 131.214C128.314 134.768 122.394 135.111 118.179 134.585C116.067 134.321 114.378 133.838 113.224 133.425C112.647 133.218 112.205 133.029 111.912 132.895C111.766 132.827 111.656 132.774 111.586 132.738C111.551 132.721 111.525 132.707 111.51 132.699C111.502 132.695 111.498 132.692 111.495 132.69L111.478 132.681L111.459 132.672L111.451 132.668C111.446 132.665 111.438 132.661 111.427 132.655C111.405 132.644 111.372 132.629 111.329 132.607C111.244 132.565 111.117 132.5 110.951 132.417C110.619 132.251 110.132 132.007 109.511 131.695C108.268 131.072 106.486 130.18 104.334 129.102C100.029 126.945 94.2384 124.044 88.2998 121.068C76.423 115.118 63.9497 108.87 61.5684 107.68C59.6431 106.717 59.0515 104.975 58.9697 103.296C58.9289 102.457 59.0216 101.673 59.127 101.095C59.1793 100.807 59.2339 100.575 59.2744 100.418C59.2946 100.34 59.3113 100.281 59.3223 100.243C59.3277 100.224 59.3316 100.211 59.334 100.203C59.3345 100.201 59.3346 100.199 59.335 100.198L59.3369 100.194C59.3382 100.19 59.3397 100.183 59.3428 100.174C59.349 100.155 59.3596 100.125 59.373 100.086C59.3999 100.008 59.4408 99.8904 59.4961 99.7412C59.6069 99.4419 59.7744 99.0152 59.9961 98.5127C60.4421 97.5016 61.0974 96.2122 61.9463 95.0459C62.8037 93.8679 63.8005 92.8956 64.9014 92.4072C65.9465 91.9436 67.162 91.8781 68.6309 92.6504C72.165 94.5085 86.3479 100.451 99.5654 105.898C106.192 108.629 112.601 111.246 117.353 113.18C119.728 114.146 121.69 114.944 123.058 115.498C123.741 115.775 124.277 115.992 124.642 116.14C124.824 116.213 124.964 116.27 125.058 116.308C125.104 116.327 125.14 116.341 125.164 116.351C125.176 116.355 125.185 116.359 125.191 116.361C125.194 116.363 125.197 116.364 125.198 116.364L125.199 116.365C125.2 116.365 125.2 116.365 125.58 115.425L125.2 116.365L125.604 116.528L126 116.349L184.96 89.6045V103.218Z" fill="#4E4CC7" stroke="#463080" stroke-width="2.02913"/>
<path d="M54.5603 97.1508C51.5843 95.257 51.9675 81.256 52.5312 74.4922C68.6517 83.2851 102.854 101.885 110.7 105.944C118.546 110.002 127.948 107.635 131.668 105.944L163.796 89.7107L191.527 75.5068C191.415 76.1831 191.257 79.0239 191.527 84.976C191.798 90.9282 190.738 94.2199 190.175 95.1217L164.81 109.664C157.257 113.158 140.393 121.162 133.359 125.221C126.324 129.279 116.449 127.362 112.391 126.235L88.7179 114.398C78.572 109.438 57.5364 99.0447 54.5603 97.1508Z" fill="#D6E3FC"/>
<path d="M184.763 79.9054L136.064 104.593C135.726 104.593 133.426 105.202 126.933 107.638C120.439 110.074 110.249 105.497 105.965 102.903C90.6337 95.576 58.8216 79.9742 54.2223 76.1865C49.6229 72.3988 53.8841 69.4227 56.5896 68.4081L65.7207 64.0117C75.5282 59.1639 97.9163 48.048 109.009 42.3664C120.101 36.6848 128.511 38.8718 131.329 40.6755C147.675 48.792 182.058 65.972 188.821 69.7597C195.585 73.5474 188.934 78.1017 184.763 79.9054Z" fill="#E5EDFC"/>
<path d="M113.367 40.0441L56.4906 68.1205C56.4906 68.1205 47.4948 72.5575 55.5167 77.2719C65.8923 83.3728 112.637 106.566 112.637 106.566C112.637 106.566 122.417 110.935 134.484 104.733C147.788 97.8946 187.701 77.8806 187.701 77.8806C187.701 77.8806 196.731 73.8562 186.484 68.2355C176.237 62.6148 131.433 40.6596 131.433 40.6596C131.433 40.6596 122.032 35.7761 113.367 40.0508V40.0441Z" stroke="#463080" stroke-width="2.02913" stroke-miterlimit="10"/>
<path d="M132.41 77.7572C133.235 76.817 123.143 69.1875 123.143 69.1875C123.143 69.1875 122.115 79.1708 122.102 80.2869C122.081 81.4029 125.112 81.572 127.154 80.74C129.19 79.9081 131.591 78.6906 132.416 77.7504C132.416 77.7504 132.416 77.7504 132.41 77.7504V77.7572Z" fill="#B1CC2B"/>
<path d="M109.323 59.5099C109.851 59.7872 120.199 67.4573 120.199 67.4573C113.834 66.9365 106.881 67.0312 100.76 65.2388C99.759 64.3189 101.788 63.0541 104.446 61.5864C107.098 60.1119 108.789 59.2393 109.323 59.5099Z" fill="#B1CC2B"/>
<path d="M145.184 69.9752C138.656 68.0272 131.155 69.1162 124.398 68.6562C124.398 68.6562 134.564 76.1979 135.39 76.279C136.208 76.367 138.751 75.0548 141.883 73.3233C145.014 71.5917 146.306 70.6786 145.184 69.9752Z" fill="#B1CC2B"/>
<path d="M99.5811 67.2969C106.473 67.3645 113.291 67.7771 120.17 68.3385C120.17 68.3385 105.662 73.107 103.261 72.9784C100.859 72.8499 97.8225 71.9301 96.7336 70.3609C95.6446 68.7917 97.0988 67.3983 99.5676 67.2969C99.5676 67.2969 99.5744 67.2969 99.5811 67.2969Z" fill="#B1CC2B"/>
<path d="M141.403 63.0815C139.455 62.6419 124.453 67.7553 124.453 67.7553C131.724 68.2152 139.09 67.4238 146.314 68.1002C148.539 68.0664 148.776 66.7678 147.213 65.7194C145.658 64.671 143.338 63.5144 141.39 63.0747C141.39 63.0747 141.396 63.0747 141.403 63.0747V63.0815Z" fill="#B1CC2B"/>
<path d="M106.189 74.6234C106.865 73.8996 121.381 69.0703 121.381 69.0703C121.381 69.0703 120.055 78.9928 118.601 79.5947C117.146 80.1967 115.286 79.6827 111.573 78.2352C107.86 76.7878 105.519 75.3471 106.182 74.6166L106.189 74.6234Z" fill="#B1CC2B"/>
<path d="M191.372 73.1875V89.0012C191.372 95.4674 190.344 95.5012 183.181 99.7421C175.153 104.497 129.964 126.594 129.964 126.594C129.964 126.594 119.71 130.01 109.213 124.64C98.7152 119.269 57.8281 98.8831 57.8281 98.8831C57.8281 98.8831 52.3359 97.4153 52.3359 89.7317V74.033" stroke="#463080" stroke-width="2.02913" stroke-miterlimit="10"/>
<path d="M64.0637 92.8145C63.4617 93.5788 62.4945 93.5585 61.6896 93.1121C61.2567 92.8754 60.391 91.9961 60.1136 91.5497C59.3561 90.3187 58.7271 88.0663 59.6402 86.8286C60.2692 85.9696 60.9794 85.9222 61.9331 86.3145C62.8868 86.7068 64.0299 88.2354 64.3207 89.25C64.6115 90.2645 64.7671 91.9081 64.0637 92.8077V92.8145Z" fill="#DFFD62"/>
<path d="M72.0012 97.1114C71.3992 97.8757 70.432 97.8554 69.6271 97.409C69.1942 97.1722 68.3284 96.293 68.0511 95.8465C67.2936 94.6155 66.6646 92.3632 67.5777 91.1254C68.2067 90.2664 68.9169 90.2191 69.8706 90.6114C70.8243 91.0037 71.9674 92.5323 72.2582 93.5469C72.549 94.5614 72.7046 96.205 72.0012 97.1046V97.1114Z" fill="#9DA4BE"/>
<g clip-path="url(#clip3_15342_186128)">
<path d="M108.179 112.184C107.901 111.23 106.907 109.857 105.987 109.35C105.987 109.336 105.974 109.322 105.974 109.322L95.855 104.486C94.9013 104.094 94.1911 104.141 93.562 105C92.6489 106.238 93.278 108.491 94.0355 109.722C94.3061 110.161 95.1786 111.04 95.6115 111.284C95.7129 111.338 95.8144 111.392 95.9226 111.433L105.365 115.924C105.432 115.971 105.5 116.019 105.554 116.046C105.73 116.14 105.906 116.215 106.095 116.269L106.285 116.357C106.285 116.357 106.366 116.357 106.494 116.35C107.029 116.404 107.55 116.228 107.935 115.748C108.639 114.848 108.496 113.239 108.192 112.19L108.179 112.184Z" fill="#5E5BF0"/>
</g>
</g>
<g clip-path="url(#clip4_15342_186128)">
<path d="M184.96 65.9287L184.962 65.9629C185.006 66.5996 184.738 67.2943 184.147 68.042C183.56 68.7859 182.726 69.4895 181.835 70.1074C180.951 70.7204 180.052 71.2214 179.37 71.5703C179.03 71.7441 178.747 71.8784 178.551 71.9688C178.453 72.0138 178.377 72.048 178.326 72.0703C178.301 72.0815 178.282 72.0895 178.27 72.0947C178.264 72.0973 178.259 72.0995 178.257 72.1006L178.255 72.1016H178.254L178.227 72.1133L178.199 72.127L178.514 72.7627C178.199 72.127 178.198 72.1269 178.198 72.127L178.197 72.1279L178.178 72.1377C178.164 72.1447 178.142 72.1551 178.114 72.1689C178.059 72.1966 177.976 72.2373 177.867 72.291C177.65 72.3988 177.329 72.5578 176.916 72.7627C176.09 73.1725 174.895 73.7668 173.418 74.502C170.463 75.9724 166.376 78.0094 161.855 80.2754C152.817 84.806 142.031 90.257 135.064 93.9248C128.314 97.4787 122.394 97.8223 118.179 97.2959C116.067 97.0321 114.378 96.5493 113.224 96.1357C112.647 95.9292 112.205 95.7401 111.912 95.6055C111.766 95.5383 111.656 95.4847 111.586 95.4492C111.551 95.4315 111.525 95.4182 111.51 95.4102C111.502 95.4062 111.498 95.4028 111.495 95.4014L111.478 95.3916L111.459 95.3828L111.451 95.3789C111.446 95.3762 111.438 95.3716 111.427 95.3662C111.405 95.3553 111.372 95.3398 111.329 95.3184C111.244 95.2755 111.117 95.211 110.951 95.1279C110.619 94.9617 110.132 94.7177 109.511 94.4062C108.268 93.7834 106.486 92.8909 104.334 91.8125C100.029 89.6555 94.2384 86.7545 88.2998 83.7793C76.423 77.8291 63.9497 71.5813 61.5684 70.3906C59.6431 69.4279 59.0515 67.6863 58.9697 66.0068C58.9289 65.1678 59.0216 64.3843 59.127 63.8057C59.1793 63.5183 59.2339 63.2858 59.2744 63.1289C59.2946 63.0509 59.3113 62.9918 59.3223 62.9541C59.3277 62.9354 59.3316 62.9219 59.334 62.9141C59.3345 62.9122 59.3346 62.9104 59.335 62.9092L59.3369 62.9053C59.3382 62.9013 59.3397 62.8941 59.3428 62.8848C59.349 62.8659 59.3596 62.836 59.373 62.7969C59.3999 62.7185 59.4408 62.6013 59.4961 62.4521C59.6069 62.1529 59.7744 61.7261 59.9961 61.2236C60.4421 60.2125 61.0974 58.9231 61.9463 57.7568C62.8037 56.5788 63.8005 55.6066 64.9014 55.1182C65.9465 54.6546 67.162 54.5891 68.6309 55.3613C72.165 57.2194 86.3479 63.1619 99.5654 68.6094C106.192 71.3404 112.601 73.9569 117.353 75.8906C119.728 76.8574 121.69 77.6545 123.058 78.209C123.741 78.4862 124.277 78.7031 124.642 78.8506C124.824 78.9243 124.964 78.9805 125.058 79.0186C125.104 79.0375 125.14 79.0519 125.164 79.0615C125.176 79.0663 125.185 79.0698 125.191 79.0723C125.194 79.0735 125.197 79.0746 125.198 79.0752L125.199 79.0762C125.2 79.0763 125.2 79.076 125.58 78.1357L125.2 79.0762L125.604 79.2393L126 79.0596L184.96 52.3154V65.9287Z" fill="#4E4CC7" stroke="#463080" stroke-width="2.02913"/>
<path d="M54.5603 59.854C51.5843 57.9601 51.9675 43.9591 52.5312 37.1953C68.6517 45.9882 102.854 64.5886 110.7 68.6469C118.546 72.7051 127.948 70.3378 131.668 68.6469L163.796 52.4138L191.527 38.2099C191.415 38.8863 191.257 41.727 191.527 47.6792C191.798 53.6313 190.738 56.923 190.175 57.8248L164.81 72.367C157.257 75.8616 140.393 83.8654 133.359 87.9236C126.324 91.9819 116.449 90.0655 112.391 88.9382L88.7179 77.1016C78.572 72.1415 57.5364 61.7478 54.5603 59.854Z" fill="#D6E3FC"/>
<path d="M184.763 42.614L136.064 67.3018C135.726 67.3018 133.426 67.9108 126.933 70.3467C120.439 72.7826 110.249 68.2052 105.965 65.612C90.6337 58.2846 58.8216 42.6828 54.2223 38.8951C49.6229 35.1074 53.8841 32.1313 56.5896 31.1168L65.7207 26.7203C75.5282 21.8725 97.9163 14.6808 109.009 8.99923C120.101 3.31766 128.511 5.50462 131.329 7.30829C147.675 15.4248 182.058 28.6806 188.821 32.4683C195.585 36.2561 188.934 40.8103 184.763 42.614Z" fill="#E5EDFC"/>
<path d="M56.4906 30.8391C56.4906 30.8391 47.4948 35.2762 55.5167 39.9905C65.8923 46.0915 112.637 69.2845 112.637 69.2845C112.637 69.2845 122.417 73.6539 134.484 67.4515C147.788 60.6133 187.701 40.5993 187.701 40.5993C187.701 40.5993 196.731 36.5748 186.484 30.9541C176.237 25.3334 131.433 7.4955 131.433 7.4955C131.433 7.4955 122.032 2.61205 113.367 6.88676L56.4906 30.8391Z" stroke="#463080" stroke-width="2.02913" stroke-miterlimit="10"/>
<path d="M191.372 35.8906V51.7043C191.372 58.1705 190.344 58.2043 183.181 62.4452C175.153 67.2002 129.964 89.2974 129.964 89.2974C129.964 89.2974 119.71 92.7131 109.213 87.3427C98.7152 81.9722 57.8281 61.5862 57.8281 61.5862C57.8281 61.5862 52.3359 60.1185 52.3359 52.4348V36.7361" stroke="#463080" stroke-width="2.02913" stroke-miterlimit="10"/>
<path d="M64.0637 55.5176C63.4617 56.2819 62.4945 56.2616 61.6896 55.8152C61.2567 55.5785 60.391 54.6992 60.1136 54.2528C59.3561 53.0218 58.7271 50.7694 59.6402 49.5317C60.2692 48.6727 60.9794 48.6253 61.9331 49.0176C62.8868 49.4099 64.0299 50.9385 64.3207 51.9531C64.6115 52.9677 64.7671 54.6113 64.0637 55.5109V55.5176Z" fill="#9DA4BE"/>
<path d="M72.0012 59.8145C71.3992 60.5788 70.432 60.5585 69.6271 60.1121C69.1942 59.8754 68.3284 58.9961 68.0511 58.5497C67.2936 57.3187 66.6646 55.0663 67.5777 53.8285C68.2067 52.9695 68.9169 52.9222 69.8706 53.3145C70.8243 53.7068 71.9674 55.2354 72.2582 56.25C72.549 57.2645 72.7046 58.9081 72.0012 59.8077V59.8145Z" fill="#DFFD62"/>
<g clip-path="url(#clip5_15342_186128)">
<path d="M108.179 74.9023C107.901 73.9486 106.907 72.5756 105.987 72.0683C105.987 72.0548 105.974 72.0412 105.974 72.0412L95.855 67.2051C94.9013 66.8128 94.1911 66.8602 93.562 67.7192C92.6489 68.9569 93.278 71.2093 94.0355 72.4403C94.3061 72.8799 95.1786 73.7592 95.6115 74.0027C95.7129 74.0568 95.8144 74.1109 95.9226 74.1515L105.365 78.6427C105.432 78.69 105.5 78.7374 105.554 78.7644C105.73 78.8591 105.906 78.9335 106.095 78.9876L106.285 79.0756C106.285 79.0756 106.366 79.0756 106.494 79.0688C107.029 79.1229 107.55 78.947 107.935 78.4668C108.639 77.5672 108.496 75.9575 108.192 74.9091L108.179 74.9023Z" fill="#5E5BF0"/>
</g>
</g>
<g clip-path="url(#clip6_15342_186128)">
<path d="M112.455 23.5417C112.981 24.4382 122.9 29.3992 122.9 29.3992C122.9 29.3992 123.955 22.7139 123.219 21.889C122.52 21.1001 120.312 20.7235 116.86 21.2315C113.318 21.7545 111.944 22.684 112.455 23.5417Z" fill="#B2D61A"/>
<path d="M102.468 29.3277C104.689 29.8089 121.807 29.8686 121.807 29.8686C121.807 29.8686 111.843 24.836 109.793 24.4534C107.773 24.0739 105.023 24.4803 102.573 26.0045C99.9309 27.6422 100.307 28.8585 102.474 29.3307L102.468 29.3247V29.3277Z" fill="#B2D61A"/>
<path d="M101.491 31.0827C104.33 30.5896 121.733 30.6016 121.733 30.6016C121.733 30.6016 106.545 37.0957 103.356 37.7352C100.099 38.3807 97.1699 37.6575 96.7605 35.2428C96.384 33.0253 98.6014 31.5938 101.488 31.0857L101.491 31.0827Z" fill="#B2D61A"/>
<path d="M119.4 42.9462C121.02 41.1292 122.714 31.0938 122.714 31.0938C122.714 31.0938 107.545 37.7791 105.644 39.3899C103.615 41.0993 104.12 43.1764 108.83 44.4734C113.743 45.8362 117.694 44.8619 119.415 42.9373L119.4 42.9433V42.9462Z" fill="#B2D61A"/>
<path d="M138.816 39.4706C137.381 37.8448 124.175 31.0938 124.175 31.0938C124.175 31.0938 122.908 41.1292 123.996 42.9522C125.14 44.8858 128.819 45.875 134.133 44.5451C139.228 43.269 140.352 41.192 138.819 39.4706H138.816Z" fill="#B2D61A"/>
<path d="M145.42 31.1724C142.718 30.6643 125.289 30.6016 125.289 30.6016C125.289 30.6016 138.576 37.1733 141.58 37.8189C144.667 38.4883 147.808 37.774 148.925 35.3533C149.962 33.1328 148.154 31.6864 145.408 31.1694L145.42 31.1754V31.1724Z" fill="#B2D61A"/>
</g>
<defs>
<filter id="filter0_f_15342_186128" x="0" y="133" width="242" height="63" filterUnits="userSpaceOnUse" color-interpolation-filters="sRGB">
<feFlood flood-opacity="0" result="BackgroundImageFix"/>
<feBlend mode="normal" in="SourceGraphic" in2="BackgroundImageFix" result="shape"/>
<feGaussianBlur stdDeviation="12" result="effect1_foregroundBlur_15342_186128"/>
</filter>
<clipPath id="clip0_15342_186128">
<rect width="142.499" height="106.499" fill="white" transform="translate(50.1016 73.5)"/>
</clipPath>
<clipPath id="clip1_15342_186128">
<rect width="15.32" height="12.1072" fill="white" transform="translate(93.1094 141.547)"/>
</clipPath>
<clipPath id="clip2_15342_186128">
<rect width="142.039" height="98.7512" fill="white" transform="translate(50.5 37.2891)"/>
</clipPath>
<clipPath id="clip3_15342_186128">
<rect width="15.32" height="12.1072" fill="white" transform="translate(93.1094 104.25)"/>
</clipPath>
<clipPath id="clip4_15342_186128">
<rect width="142.039" height="98.7512" fill="white" transform="translate(50.5)"/>
</clipPath>
<clipPath id="clip5_15342_186128">
<rect width="15.32" height="12.1072" fill="white" transform="translate(93.1094 66.9688)"/>
</clipPath>
<clipPath id="clip6_15342_186128">
<rect width="52.4995" height="24.1503" fill="white" transform="translate(96.7188 21)"/>
</clipPath>
</defs>
</svg>
