<svg width="162" height="28" viewBox="0 0 162 28" fill="none" xmlns="http://www.w3.org/2000/svg">
<g clip-path="url(#clip0_216_2404)">
<path d="M1.83205 2.0603V4.56168C2.56873 3.87494 3.79861 3.87494 3.79861 3.87494C7.38419 3.825 6.98255 7.94748 6.98255 7.94748C7.17817 12.5111 3.94012 12.0679 3.94012 12.0679C2.66446 12.1657 1.63436 11.479 1.63436 11.479V12.0679H0.606339V2.0603H1.83205ZM1.882 5.93723V10.2054C1.882 10.2054 2.22536 10.8442 3.50102 10.7943C3.50102 10.7943 5.61117 11.0919 5.61117 8.36785C5.61117 8.36785 6.01697 5.05488 3.80277 5.20263C3.80277 5.20263 2.47092 5.15268 1.882 5.93931V5.93723Z" fill="#161F6B"/>
<path d="M26.3651 13.8847V23.8923H25.335V23.3034C25.335 23.3034 24.3049 23.9901 23.0292 23.8923C23.0292 23.8923 19.7912 24.3335 19.9868 19.7719C19.9868 19.7719 19.5852 15.6515 23.1707 15.6993C23.1707 15.6993 24.4027 15.6993 25.1373 16.3861V13.8847H26.363H26.3651ZM23.1687 17.0249C20.9545 16.8772 21.3603 20.1902 21.3603 20.1902C21.3603 22.9142 23.4704 22.6187 23.4704 22.6187C24.7461 22.6666 25.0894 22.0298 25.0894 22.0298V17.7616C24.5005 16.9771 23.1687 17.0249 23.1687 17.0249Z" fill="#161F6B"/>
<path d="M11.4983 3.87701C14.1475 4.02477 14.1974 5.83941 14.1974 5.83941V12.0824H13.0695V11.481C12.6283 11.9721 10.4682 12.0824 10.4682 12.0824C7.6235 11.8494 7.76917 9.61852 7.76917 9.61852C7.62142 8.29292 9.58382 7.41057 9.58382 7.41057C10.1228 7.11715 12.2329 6.72384 12.2329 6.72384C13.0175 6.67389 12.7241 6.18485 12.7241 6.18485C12.9197 5.007 11.0551 5.19846 11.0551 5.19846C10.4662 5.14435 9.1905 6.18485 9.1905 6.18485L8.30816 5.19846C9.33826 3.82083 11.4983 3.8791 11.4983 3.8791V3.87701ZM9.19259 9.71425C9.09478 11.0877 10.9802 10.8026 10.9802 10.8026C11.8355 10.7631 12.774 10.351 12.774 10.351V7.97661C8.79927 8.5468 9.19259 9.71217 9.19259 9.71217V9.71425Z" fill="#161F6B"/>
<path d="M75.8411 3.64609C82.3401 4.0061 82.4608 8.45947 82.4608 8.45947V23.7715H79.6931V22.2982C78.6089 23.501 73.3148 23.7715 73.3148 23.7715C66.3351 23.1993 66.6951 17.7262 66.6951 17.7262C66.333 14.4777 71.1484 12.3093 71.1484 12.3093C72.472 11.5872 77.6474 10.6237 77.6474 10.6237C79.5724 10.503 78.8503 9.30019 78.8503 9.30019C79.331 6.41175 74.759 6.88206 74.759 6.88206C73.3148 6.75096 70.1849 9.30019 70.1849 9.30019L68.0186 6.88206C70.5449 3.50042 75.8411 3.64401 75.8411 3.64401V3.64609ZM70.1849 17.9676C69.9435 21.3368 74.5675 20.6396 74.5675 20.6396C76.6631 20.5418 78.9689 19.5325 78.9689 19.5325V13.7099C69.2214 15.1083 70.1828 17.9676 70.1828 17.9676H70.1849Z" fill="#161F6B"/>
<path d="M15.5709 4.17047V12.0804H16.7966V5.68961C16.7966 5.68961 17.679 5.09236 18.5634 5.19433C18.5634 5.19433 20.1824 5.15063 20.428 6.3264V12.0783H21.6537V5.93309C21.6537 5.93309 21.4081 4.03105 19.0899 4.16631C19.0899 4.16631 17.3231 4.11637 16.9194 4.52216V4.16007L15.5709 4.16631V4.17047Z" fill="#161F6B"/>
<path d="M100.524 23.5488V4.06012H97.5024V19.803C97.5024 19.803 95.3256 21.2763 93.151 21.0245C93.151 21.0245 89.1617 21.1348 88.5582 18.2339V4.06012H85.5366V19.1974C85.5366 19.1974 86.1421 23.8817 91.8524 23.5488C91.8524 23.5488 96.2038 23.6716 97.2006 22.6727V23.5654L100.524 23.5488Z" fill="#161F6B"/>
<path d="M28.1298 6.3284L29.1599 5.69162C29.1599 5.69162 28.521 3.97478 26.413 3.87697C26.413 3.87697 22.586 3.39834 22.7337 7.97865C22.7337 7.97865 22.5339 12.0449 25.9447 12.0824C25.9447 12.0824 28.2775 12.1199 29.1599 10.403L28.2276 9.61848C28.2276 9.61848 26.9977 11.0107 25.9447 10.8296C25.9447 10.8296 23.9594 10.8484 24.205 8.00154C24.205 8.00154 23.9074 5.19217 25.9447 5.19842C25.9447 5.19842 27.7864 5.00696 28.1298 6.33049V6.3284Z" fill="#161F6B"/>
<path d="M33.478 3.87497C33.478 3.87497 36.9117 3.52953 36.9117 7.9704C36.9117 7.9704 37.4028 12.0908 33.478 12.0804C33.478 12.0804 29.8466 12.4654 29.8466 8.12232C29.8466 8.12232 29.4054 3.77717 33.478 3.87497ZM31.32 8.12232C31.1722 10.9941 33.3843 10.8276 33.3843 10.8276C35.7921 11.1564 35.4425 7.9704 35.4425 7.9704C35.4425 4.85305 33.3843 5.19434 33.3843 5.19434C31.2784 5.23804 31.32 8.12024 31.32 8.12024V8.12232Z" fill="#161F6B"/>
<path d="M153.23 3.70431C153.23 3.70431 161.606 2.86151 161.606 13.6911C161.606 13.6911 162.802 23.7424 153.23 23.7132C153.23 23.7132 144.377 24.6538 144.377 14.0594C144.377 14.0594 143.299 3.46292 153.23 3.70431ZM147.967 14.0594C147.609 21.0641 152.999 20.6583 152.999 20.6583C158.869 21.4595 158.018 13.6911 158.018 13.6911C158.018 6.09123 152.999 6.92364 152.999 6.92364C147.861 7.03185 147.967 14.0594 147.967 14.0594Z" fill="#161F6B"/>
<path d="M36.9325 13.8847H35.4591V23.9048H36.9325V13.8847Z" fill="#161F6B"/>
<path d="M30.8247 22.6269C32.2439 22.783 33.0368 21.3908 33.0368 21.3908L33.8713 22.2731C32.9889 24.1876 30.8268 23.9046 30.8268 23.9046C27.339 23.965 27.4451 19.8238 27.4451 19.8238C27.2974 15.7054 30.9287 15.8469 30.9287 15.8469C34.8535 15.6992 34.1668 20.3607 34.1668 20.3607H28.9164C28.9663 22.8142 30.8268 22.6269 30.8268 22.6269H30.8247ZM28.8665 19.1349H32.889C32.889 19.1349 32.7413 16.9166 30.8767 17.0206C30.8767 17.0206 29.1099 16.8791 28.8644 19.1349H28.8665Z" fill="#161F6B"/>
<path d="M43.9788 2.5015L46.3823 0.00012207L59.1389 12.7567C59.1389 12.7567 60.2668 13.8846 59.1389 15.1603L55.2141 19.135L52.7606 16.6336L55.4098 13.8867L43.9788 2.50358V2.5015Z" fill="#FFB719"/>
<path d="M59.6071 25.4405L57.2036 27.9418L44.447 15.1852C44.447 15.1852 43.3191 14.0573 44.447 12.7817L48.3718 8.80695L50.8253 11.3083L48.1762 14.0553L59.6071 25.4384V25.4405Z" fill="#E90729"/>
<path d="M56.9809 0.00012207L59.6404 2.45363L55.262 6.77173L52.7606 4.16422L56.9809 0.00012207Z" fill="#E90729"/>
<path d="M48.1637 21.2306L50.8253 23.6841L46.4468 28.0001L43.9455 25.3926L48.1637 21.2306Z" fill="#FFB719"/>
<path d="M133.225 4.06018H136.217V6.08501C136.217 6.08501 139.664 2.25803 144.344 4.85929L142.45 7.41061C142.45 7.41061 138.378 6.13495 136.661 10.3053V23.5676H133.227V4.06018H133.225Z" fill="#161F6B"/>
<path d="M121.303 0.784651L124.248 0.0479736L124.689 4.05808H129.939V7.16295H124.884V19.8696C124.884 19.8696 125.032 21.7841 129.939 19.8696L130.135 22.7643C130.135 22.7643 129.25 23.5988 126.062 23.7715C126.062 23.7715 121.646 23.732 121.303 20.6978V0.784651Z" fill="#161F6B"/>
<path d="M115.268 9.17528L117.869 7.11508C117.869 7.11508 114.877 3.68558 110.461 3.95195C110.461 3.95195 103.837 3.63147 103.396 9.17528C103.396 9.17528 102.905 12.2697 106.095 13.8139C106.095 13.8139 110.315 15.2602 112.769 15.7013C112.769 15.7013 115.32 16.0946 114.977 18.3026C114.977 18.3026 115.124 20.9746 111.247 20.7186C111.247 20.7186 107.518 20.9538 105.751 18.1569L103.15 20.3649C103.15 20.3649 105.702 24.144 111.05 23.7757C111.05 23.7757 118.458 24.4874 118.606 18.0591C118.606 18.0591 119.097 14.0844 114.631 12.8587C114.631 12.8587 110.02 11.5331 108.401 11.0919C108.401 11.0919 106.879 10.5529 106.929 9.17736C106.929 9.17736 106.782 6.82998 110.609 6.89866C110.609 6.89866 113.308 6.82166 115.27 9.17736L115.268 9.17528Z" fill="#161F6B"/>
</g>
<defs>
<clipPath id="clip0_216_2404">
<rect width="161.047" height="28" fill="white" transform="translate(0.606323)"/>
</clipPath>
</defs>
</svg>
