<svg width="33" height="32" viewBox="0 0 33 32" fill="none" xmlns="http://www.w3.org/2000/svg">
<g clip-path="url(#clip0_469_843)">
<path d="M21.4797 0H0.609131V20.8706C0.609131 23.8223 1.78169 26.6531 3.86886 28.7403C5.95603 30.8274 8.78685 32 11.7386 32H32.6091V11.1294C32.6091 9.66788 32.3213 8.22066 31.762 6.87038C31.2026 5.52009 30.3829 4.29319 29.3494 3.25973C28.3159 2.22627 27.089 1.40648 25.7388 0.847177C24.3885 0.287871 22.9412 0 21.4797 0ZM27.7405 20.8706C27.741 22.1655 27.3397 23.4287 26.592 24.4859C25.8442 25.5431 24.7869 26.3423 23.5658 26.7732C22.3447 27.2041 21.02 27.2456 19.7743 26.8918C18.5286 26.5381 17.4234 25.8066 16.6111 24.7982C15.9472 25.6223 15.0852 26.2647 14.1056 26.6654C13.1261 27.066 12.061 27.2118 11.0098 27.0892C9.95861 26.9665 8.95569 26.5794 8.09471 25.9639C7.23374 25.3485 6.54283 24.5249 6.08652 23.57C5.63022 22.6151 5.42342 21.5601 5.48544 20.5036C5.54747 19.4472 5.87629 18.4236 6.4412 17.5287C7.0061 16.6338 7.78865 15.8966 8.71572 15.3862C9.64279 14.8757 10.6841 14.6086 11.7424 14.6098H15.2228V11.1294C15.2216 10.0711 15.4888 9.02977 15.9992 8.1027C16.5097 7.17563 17.2468 6.39309 18.1417 5.82818C19.0366 5.26328 20.0602 4.93445 21.1167 4.87242C22.1732 4.8104 23.2281 5.0172 24.183 5.4735C25.1379 5.92981 25.9615 6.62072 26.577 7.48169C27.1924 8.34267 27.5795 9.34559 27.7022 10.3968C27.8248 11.4479 27.679 12.5131 27.2784 13.4926C26.8778 14.4722 26.2353 15.3341 25.4112 15.9981C26.1391 16.5843 26.7263 17.3264 27.1294 18.1697C27.5325 19.013 27.7413 19.9359 27.7405 20.8706ZM21.4797 17.3902H17.9993V20.8706C17.9993 21.5591 18.2036 22.2321 18.5862 22.8046C18.9688 23.377 19.5125 23.8231 20.1487 24.0864C20.7849 24.3497 21.4849 24.4184 22.1601 24.2838C22.8354 24.1492 23.4555 23.8173 23.9421 23.3302C24.4287 22.8431 24.7598 22.2226 24.8937 21.5472C25.0275 20.8718 24.9581 20.1719 24.694 19.536C24.43 18.9001 23.9833 18.3568 23.4105 17.9749C22.8376 17.5929 22.1643 17.3894 21.4758 17.3902H21.4797ZM8.25818 20.8667C8.28835 21.7691 8.66805 22.6245 9.31709 23.2522C9.96612 23.8798 10.8337 24.2307 11.7366 24.2307C12.6395 24.2307 13.5071 23.8798 14.1561 23.2522C14.8052 22.6245 15.1849 21.7691 15.215 20.8667V17.3902H11.7386C10.8177 17.3963 9.93646 17.7651 9.2857 18.4166C8.63495 19.0681 8.26716 19.9498 8.26207 20.8706L8.25818 20.8667ZM21.4797 7.64516C20.5582 7.65026 19.6759 8.01858 19.0244 8.67018C18.3728 9.32177 18.0044 10.2041 17.9993 11.1255V14.602H21.4797C21.9365 14.602 22.3888 14.512 22.8108 14.3372C23.2329 14.1624 23.6163 13.9062 23.9393 13.5832C24.2623 13.2602 24.5186 12.8767 24.6934 12.4547C24.8682 12.0327 24.9581 11.5804 24.9581 11.1236C24.9581 10.6668 24.8682 10.2145 24.6934 9.79245C24.5186 9.37043 24.2623 8.98697 23.9393 8.66397C23.6163 8.34096 23.2329 8.08474 22.8108 7.90994C22.3888 7.73513 21.9365 7.64516 21.4797 7.64516Z" fill="#3480CD"/>
</g>
<defs>
<clipPath id="clip0_469_843">
<rect width="33" height="32" fill="white"/>
</clipPath>
</defs>
</svg>
