<svg width="227" height="32" viewBox="0 0 227 32" fill="none" xmlns="http://www.w3.org/2000/svg">
<g clip-path="url(#clip0_36_721)">
<path d="M21.1889 0H0.318359V20.8706C0.318359 23.8223 1.49092 26.6531 3.57809 28.7403C5.66526 30.8274 8.49607 32 11.4478 32H32.3184V11.1294C32.3184 9.66788 32.0305 8.22066 31.4712 6.87038C30.9119 5.52009 30.0921 4.29319 29.0586 3.25973C28.0252 2.22627 26.7983 1.40648 25.448 0.847177C24.0977 0.287871 22.6505 0 21.1889 0ZM27.4497 20.8706C27.4502 22.1655 27.0489 23.4287 26.3012 24.4859C25.5535 25.5431 24.4961 26.3423 23.275 26.7732C22.0539 27.2041 20.7292 27.2456 19.4835 26.8918C18.2379 26.5381 17.1327 25.8066 16.3203 24.7982C15.6564 25.6223 14.7944 26.2647 13.8149 26.6654C12.8353 27.066 11.7702 27.2118 10.719 27.0892C9.66784 26.9665 8.66491 26.5794 7.80394 25.9639C6.94297 25.3485 6.25205 24.5249 5.79575 23.57C5.33945 22.6151 5.13265 21.5601 5.19467 20.5036C5.2567 19.4472 5.58552 18.4236 6.15043 17.5287C6.71533 16.6338 7.49788 15.8966 8.42495 15.3862C9.35202 14.8757 10.3934 14.6086 11.4517 14.6098H14.932V11.1294C14.9309 10.0711 15.198 9.02977 15.7084 8.1027C16.2189 7.17563 16.956 6.39309 17.8509 5.82818C18.7459 5.26328 19.7694 4.93445 20.8259 4.87242C21.8824 4.8104 22.9374 5.0172 23.8922 5.4735C24.8471 5.92981 25.6708 6.62072 26.2862 7.48169C26.9016 8.34267 27.2887 9.34559 27.4114 10.3968C27.5341 11.4479 27.3883 12.5131 26.9876 13.4926C26.587 14.4722 25.9446 15.3341 25.1204 15.9981C25.8483 16.5843 26.4355 17.3264 26.8386 18.1697C27.2417 19.013 27.4506 19.9359 27.4497 20.8706ZM21.1889 17.3902H17.7086V20.8706C17.7086 21.5591 17.9128 22.2321 18.2954 22.8046C18.678 23.377 19.2218 23.8231 19.858 24.0864C20.4941 24.3497 21.1941 24.4184 21.8694 24.2838C22.5446 24.1492 23.1647 23.8173 23.6513 23.3302C24.1379 22.8431 24.4691 22.2226 24.6029 21.5472C24.7368 20.8718 24.6673 20.1719 24.4033 19.536C24.1392 18.9001 23.6926 18.3568 23.1197 17.9749C22.5468 17.5929 21.8736 17.3894 21.185 17.3902H21.1889ZM7.96741 20.8667C7.99758 21.7691 8.37728 22.6245 9.02631 23.2522C9.67535 23.8799 10.5429 24.2307 11.4458 24.2307C12.3487 24.2307 13.2163 23.8799 13.8654 23.2522C14.5144 22.6245 14.8941 21.7691 14.9243 20.8667V17.3902H11.4478C10.527 17.3963 9.64569 17.7651 8.99493 18.4166C8.34417 19.0681 7.97639 19.9498 7.97129 20.8706L7.96741 20.8667ZM21.1889 7.64516C20.2675 7.65026 19.3852 8.01858 18.7336 8.67018C18.082 9.32177 17.7137 10.2041 17.7086 11.1255V14.602H21.1889C21.6457 14.602 22.0981 14.512 22.5201 14.3372C22.9421 14.1624 23.3256 13.9062 23.6486 13.5832C23.9716 13.2602 24.2278 12.8767 24.4026 12.4547C24.5774 12.0327 24.6674 11.5804 24.6674 11.1236C24.6674 10.6668 24.5774 10.2145 24.4026 9.79245C24.2278 9.37043 23.9716 8.98697 23.6486 8.66397C23.3256 8.34096 22.9421 8.08474 22.5201 7.90994C22.0981 7.73513 21.6457 7.64516 21.1889 7.64516ZM52.8584 16.0758C54.3205 15.3331 54.9661 14.2909 54.9661 12.7043C54.9661 10.1495 53.4106 8.39178 49.2886 8.39178H43.4556V24.3626H49.588C53.6284 24.3626 55.4638 22.1577 55.4638 19.6534C55.4638 18.0668 54.6939 16.8263 52.8584 16.0836V16.0758ZM46.2476 11.0205H49.2964C51.404 11.0205 52.1234 11.8372 52.1234 12.9649C52.1234 14.0926 51.404 14.9714 49.2964 14.9714H46.2476V11.0205ZM49.5919 21.73H46.2476V17.4213H49.5919C51.8707 17.4213 52.6173 18.339 52.6173 19.6029C52.6173 20.8667 51.8435 21.7339 49.588 21.7339L49.5919 21.73ZM61.9657 11.8644C60.6373 11.8755 59.3169 12.0705 58.042 12.4438L58.4309 14.9248C59.5188 14.5312 60.6689 14.3375 61.8257 14.3531C63.4395 14.3531 64.4039 14.7731 64.4039 16.0136V16.9313H62.1718C59.1464 16.9313 57.1632 17.9463 57.1632 20.7734C57.1632 23.4254 58.8742 24.6387 62.2185 24.6387C63.8773 24.6382 65.5257 24.3757 67.1027 23.861V16.3053C67.1143 13.0077 64.9367 11.8683 61.9618 11.8683L61.9657 11.8644ZM64.4195 22.0527C63.671 22.2251 62.9048 22.3087 62.1368 22.3016C60.8224 22.3016 59.9086 22.08 59.9086 20.6645C59.9086 19.4745 60.6008 19.004 62.164 19.004H64.4195V22.0527ZM88.3271 22.0527C85.8967 22.0527 84.8584 20.7384 84.8584 18.1368C84.8584 15.7803 85.6984 14.4426 88.1288 14.4426C89.0789 14.4376 90.0187 14.6407 90.882 15.0375L91.3136 12.4438C90.2887 12.0352 89.1932 11.833 88.0899 11.8488C84.1001 11.8488 82.1169 14.4776 82.1169 18.269C82.1169 22.4338 84.4967 24.6154 88.191 24.6154C89.3375 24.5987 90.4746 24.4059 91.5625 24.0437L91.1425 21.4928C90.2417 21.8445 89.2861 22.0354 88.3193 22.0566L88.3271 22.0527ZM75.02 11.8644C73.1846 11.8644 70.9058 12.1366 69.5759 12.6421V24.3626H72.2979V14.7459C73.1734 14.5328 74.0724 14.4322 74.9734 14.4465C76.4861 14.4465 77.501 14.9403 77.501 16.7797V24.3626H80.2036V16.7214C80.192 13.2215 78.2865 11.8683 75.0122 11.8683L75.02 11.8644ZM191.058 11.0866V24.3471H193.781V14.6953H197.996V12.1171H193.777V10.8883C193.777 9.42618 194.554 8.97898 195.783 8.97898C196.56 8.97025 197.332 9.10199 198.062 9.36785L198.451 6.81687C197.525 6.54535 196.565 6.41426 195.6 6.428C192.983 6.41633 191.051 7.45461 191.051 11.0983L191.058 11.0866ZM185.723 24.3471H188.445V12.1171H185.723V24.3471ZM201.13 6.61077C200.802 6.61077 200.481 6.70815 200.208 6.89061C199.935 7.07306 199.722 7.33239 199.596 7.6358C199.47 7.93921 199.437 8.27308 199.502 8.59518C199.566 8.91728 199.724 9.21314 199.956 9.44536C200.188 9.67759 200.484 9.83573 200.806 9.8998C201.128 9.96387 201.462 9.93099 201.766 9.80531C202.069 9.67963 202.328 9.46681 202.511 9.19374C202.693 8.92068 202.791 8.59965 202.791 8.27124C202.791 7.83085 202.616 7.40851 202.304 7.09711C201.993 6.78571 201.571 6.61077 201.13 6.61077ZM185.863 10.5539H187.947L190.475 7.1824H187.823L185.863 10.5539ZM199.769 24.3587H202.491V12.1171H199.769V24.3587ZM210.696 22.0566C208.266 22.0566 207.228 20.7423 207.228 18.1407C207.228 15.7842 208.071 14.4465 210.498 14.4465C211.448 14.4414 212.388 14.6444 213.251 15.0414L213.663 12.4438C212.638 12.0353 211.543 11.8331 210.44 11.8488C206.45 11.8683 204.474 14.497 204.474 18.2768C204.474 22.4416 206.854 24.6232 210.549 24.6232C211.695 24.6064 212.832 24.4136 213.92 24.0515L213.5 21.5005C212.605 21.8473 211.656 22.0355 210.696 22.0566ZM220.62 11.8683C216.802 11.8683 214.919 14.3726 214.919 18.2379C214.919 22.2783 216.63 24.6348 220.62 24.6348C224.462 24.6348 226.298 22.1072 226.298 18.2379C226.29 14.2248 224.606 11.8683 220.612 11.8683H220.62ZM220.62 22.0566C218.217 22.0566 217.669 20.5673 217.669 18.2379C217.669 15.9086 218.213 14.4465 220.62 14.4465C223.027 14.4465 223.572 15.9086 223.572 18.2379C223.572 20.5673 223.043 22.0566 220.612 22.0566H220.62ZM98.2433 11.8683C94.4246 11.8683 92.5424 14.3726 92.5424 18.2379C92.5424 22.2783 94.2535 24.6348 98.2433 24.6348C102.085 24.6348 103.921 22.1072 103.921 18.2379C103.921 14.2248 102.237 11.8683 98.2433 11.8683ZM98.2433 22.0566C95.84 22.0566 95.2917 20.5673 95.2917 18.2379C95.2917 15.9086 95.8362 14.4465 98.2433 14.4465C100.65 14.4465 101.195 15.9086 101.195 18.2379C101.195 20.5673 100.674 22.0566 98.2433 22.0566ZM140.7 22.0061C140.031 22.0061 139.685 21.6172 139.685 20.1978V7.15907H136.963V20.7695C136.963 23.5188 138.448 24.5882 140.408 24.5882C140.938 24.6035 141.465 24.5191 141.964 24.3393L141.575 21.835C141.297 21.9471 141 22.0051 140.7 22.0061ZM129.648 11.8683C125.557 11.8683 124.169 14.7187 124.169 18.2885C124.169 22.6244 126.203 24.6348 130.317 24.6348C131.735 24.652 133.143 24.3876 134.459 23.8571L134.039 21.2789C132.868 21.7719 131.614 22.0359 130.344 22.0566C128.089 22.0566 126.973 21.0378 126.973 19.3812V19.2568H134.606C134.777 18.623 134.861 17.9688 134.855 17.3124C134.867 13.7271 133.047 11.8683 129.648 11.8683ZM132.254 17.0247H126.973V16.9002C126.973 15.0648 127.941 14.2481 129.574 14.2481C131.208 14.2481 132.254 15.1425 132.254 16.9002V17.0247ZM119.421 12.2144C118.695 11.9679 117.932 11.8508 117.166 11.8683C113.499 11.8683 111.488 14.4231 111.488 18.1174C111.488 22.2316 113.397 24.6387 117.562 24.6387C118.48 24.6387 120.634 24.5143 122.147 23.861V7.13963H119.425L119.421 12.2144ZM119.421 21.8078C118.787 21.9791 118.133 22.0628 117.477 22.0566C115.12 22.0566 114.253 20.9406 114.253 18.2379C114.253 15.7842 114.871 14.4465 117.364 14.4465C118.07 14.4269 118.771 14.5595 119.421 14.8353V21.8078ZM155.516 8.39567H149.484V24.3626H152.284V18.8835H155.531C159.895 18.8835 161.606 16.7758 161.606 13.6532C161.606 10.5306 159.922 8.39567 155.531 8.39567H155.516ZM155.516 16.2547H152.269V11.0244H155.516C157.97 11.0244 158.763 11.9655 158.763 13.6532C158.763 15.3409 157.989 16.2547 155.531 16.2547H155.516ZM167.458 11.8683C166.139 11.8806 164.828 12.0742 163.562 12.4438L163.95 14.9248C165.038 14.5311 166.188 14.3374 167.345 14.3531C168.955 14.3531 169.923 14.7731 169.923 16.0136V16.9313H167.695C164.67 16.9313 162.687 17.9463 162.687 20.7734C162.687 23.4254 164.398 24.6387 167.742 24.6387C169.401 24.638 171.049 24.3755 172.626 23.861V16.3053C172.634 13.0077 170.452 11.8683 167.477 11.8683H167.458ZM169.912 22.0566C169.165 22.2288 168.4 22.3123 167.633 22.3055C166.319 22.3055 165.401 22.0839 165.401 20.6684C165.401 19.4784 166.093 19.0079 167.656 19.0079H169.912V22.0566ZM180.742 22.0566C178.311 22.0566 177.273 20.7423 177.273 18.1407C177.273 15.7842 178.117 14.4465 180.547 14.4465C181.496 14.4417 182.435 14.6448 183.297 15.0414L183.732 12.4438C182.707 12.0349 181.612 11.8327 180.508 11.8488C176.519 11.8683 174.532 14.497 174.532 18.2768C174.532 22.4416 176.911 24.6232 180.606 24.6232C181.752 24.6064 182.889 24.4136 183.977 24.0515L183.557 21.5005C182.662 21.8474 181.713 22.0355 180.753 22.0566H180.742Z" fill="#3480CD"/>
</g>
<defs>
<clipPath id="clip0_36_721">
<rect width="225.972" height="32" fill="white" transform="translate(0.318359)"/>
</clipPath>
</defs>
</svg>
