<svg width="36" height="35" viewBox="0 0 36 35" fill="none" xmlns="http://www.w3.org/2000/svg">
<path d="M17.3094 28.8155C10.1939 28.1357 3.89689 24.7205 1.56396 20.7805C1.68514 21.5193 2.52696 23.1327 2.91238 24.1961C3.19362 24.9749 3.60169 25.6091 3.79233 26.1806C6.73794 28.2655 10.1177 29.3546 14.7643 29.7985C19.5543 30.2557 23.7668 29.6694 27.0888 28.0836C24.1738 28.8253 20.9628 29.1628 17.3094 28.8155Z" fill="#F5D303"/>
<path d="M11.7642 14.4894C9.31499 11.8266 7.11569 9.13579 5.21122 6.51294C4.95452 6.84891 4.66612 7.24264 4.36261 7.68884C3.94397 8.30039 3.60648 8.87418 3.35205 9.35134C5.22594 11.4045 7.30255 13.4774 9.55244 15.5117C15.9638 21.3104 22.2114 25.0741 27.2034 27.7887C22.7029 24.4765 17.2477 20.4448 11.7642 14.4894Z" fill="#F5D303"/>
<path d="M21.8865 9.78535C20.0556 6.141 18.6226 3.72842 16.5132 0.897949C16.2395 0.927016 15.7797 1.15729 14.9696 1.28375C14.3626 1.37964 13.7458 1.31697 13.2546 1.51365C16.3312 4.74313 18.8133 8.12173 21.543 12.9835C24.649 18.5116 26.2066 22.9204 27.515 27.5322C26.9604 22.2216 25.3391 16.6577 21.8865 9.78535Z" fill="#F5D303"/>
<path d="M18.8929 34.4524C9.99378 34.4524 2.77944 27.4766 2.77944 18.8701C2.77944 10.2643 9.94924 3.53803 18.8491 3.53803C27.5749 3.53803 34.724 9.99473 34.9977 18.3691C35.006 18.1539 35.0116 17.9369 35.0116 17.7198C35.0116 8.32922 27.353 0.718506 17.905 0.718506C8.45775 0.718506 0.79834 8.32922 0.79834 17.7198C0.79834 27.1082 8.45775 34.7185 17.905 34.7185C19.7468 34.7185 21.5199 34.4278 23.182 33.8933C21.8162 34.2561 20.3787 34.4524 18.8929 34.4524Z" fill="#265092"/>
<path d="M9.67523 10.5266C15.7733 4.31037 25.2609 3.83925 30.8656 9.4749C34.2888 12.918 35.6485 18.1116 34.4787 22.5661C36.0638 17.2661 35.0932 11.2586 31.068 7.21067C25.1726 1.28171 15.2297 1.65354 9.13126 7.87167C5.11545 11.966 3.6719 17.6334 4.83799 22.7198C4.67038 18.4491 6.30003 13.9675 9.67523 10.5266Z" fill="#9C1574"/>
<path d="M34.1731 19.2554C34.1229 15.5141 32.6929 12.0539 30.0629 10.2431C24.9765 6.74368 17.0748 9.48091 12.1496 16.6745C9.59958 20.3989 8.40896 24.5162 8.55467 28.1081C7.42671 23.8968 8.35573 18.6775 11.4516 14.1558C16.3779 6.96225 24.9154 4.25937 30.5235 8.11777C33.8451 10.4028 35.4592 14.5095 35.1448 18.9478C35.1448 18.9478 35.0444 20.2271 34.9247 20.7854C34.8111 21.3158 34.5166 22.4653 34.4 22.8035C34.2841 23.1402 34.1731 19.2554 34.1731 19.2554Z" fill="#25845C"/>
<path d="M17.2701 17.0817C12.2475 22.4078 11.1105 29.4934 14.7318 32.9079C14.8926 33.0604 15.0602 33.2004 15.2343 33.3325C12.0463 30.1446 13.004 24.039 17.4143 19.2746C21.4675 14.8937 28.3644 12.9791 31.7018 16.1278C34.644 18.9027 34.2503 24.2296 31.0227 28.7331C35.4949 23.5037 36.3805 16.885 32.9188 13.6216C29.2979 10.2078 22.2916 11.7567 17.2701 17.0817Z" fill="#D06519"/>
<path d="M21.9582 22.5099C18.577 25.4476 17.4464 29.6812 19.4331 31.9692C20.9899 33.7608 23.9974 33.825 26.8524 32.3554C24.4516 33.4614 21.9744 33.3255 20.6543 31.8061C18.8918 29.7778 19.857 26.0546 22.8083 23.4891C25.7615 20.9248 29.5825 20.4895 31.3439 22.5186C32.6651 24.0384 32.4549 26.5098 31.023 28.7329C32.8754 26.112 33.2329 23.1237 31.6768 21.3325C29.6905 19.0463 25.3383 19.5722 21.9582 22.5099Z" fill="#B6161A"/>
</svg>
