<svg width="135" height="36" viewBox="0 0 135 36" fill="none" xmlns="http://www.w3.org/2000/svg">
<g clip-path="url(#clip0_36_726)">
<path d="M19.0371 0C20.042 0.173785 21.0583 0.313569 22.0557 0.528912C24.3111 1.01627 26.8234 2.23654 28.2968 3.50215C27.2277 3.28681 26.1283 2.96191 25.01 2.85612C19.158 2.30077 14.5073 4.44664 11.1639 9.25596C9.34289 11.8778 8.58352 14.8435 8.80642 18.0472C9.07843 21.9536 12.3917 25.5389 16.3094 26.1509C19.532 26.6534 22.3201 25.7958 24.6398 23.4912C24.7493 23.3817 24.874 23.2872 25.0289 23.2154C24.4962 24.4546 23.7331 25.5389 22.8113 26.5098C18.444 31.1189 11.7154 32.2447 6.09386 29.3055C5.69718 29.0977 5.31561 28.803 5.02093 28.4668C2.53126 25.6484 1.09564 22.373 0.778298 18.6252C0.763186 18.4439 0.695183 18.2663 0.653625 18.0888V16.2036C0.710295 15.8371 0.77452 15.4707 0.819855 15.1042C1.65856 8.19058 6.755 2.36121 13.5175 0.638472C14.666 0.343793 15.8523 0.207787 17.0234 0H19.0371Z" fill="#D1007E"/>
<path d="M8.23596 31.2965C9.54313 31.5156 10.8692 31.8216 12.2104 31.9463C17.7186 32.4525 23.4497 29.2677 25.9961 24.3526C27.2957 21.8441 27.9417 19.2071 27.6319 16.3698C27.2088 12.4559 23.7746 8.99905 19.8531 8.51926C16.6305 8.12635 13.9029 9.07839 11.6588 11.4169C11.5946 11.4849 11.519 11.5416 11.4472 11.6021C11.3905 11.5605 11.3339 11.5152 11.2772 11.4736C11.9723 10.4989 12.5844 9.45241 13.374 8.56081C16.2112 5.35334 19.8267 3.7855 24.1071 3.80816C26.3852 3.8195 28.5424 4.4013 30.5409 5.50068C30.8998 5.69714 31.2285 5.98426 31.5005 6.29027C36.903 12.3992 37.2619 21.4625 32.2334 27.8963C28.2515 32.9928 22.9208 35.1537 16.4794 34.5342C13.4911 34.247 10.7974 33.1628 8.37197 31.4098C8.30774 31.3645 8.2473 31.304 8.23596 31.2927V31.2965Z" fill="#D1007E"/>
<path d="M52.5286 9.91331C52.5852 9.96242 52.7061 10.0304 52.759 10.0531C54.3533 10.7105 55.0711 12.1914 54.7462 13.9822C54.4818 15.4367 53.1935 16.5927 51.4556 16.7552C49.8311 16.9063 48.1915 16.8685 46.5556 16.8987C45.8038 16.9138 45.052 16.8987 44.2473 16.8987V3.64949C44.5533 3.64949 44.8405 3.64949 45.1276 3.64949C46.8881 3.64949 48.6524 3.6306 50.4129 3.67215C50.9872 3.68727 51.773 3.79683 52.2943 4.04239C53.7715 4.73375 54.2249 5.61024 54.3269 7.00052C54.4213 8.26613 53.8168 9.13506 52.6872 9.75086C52.6381 9.77731 52.5701 9.8642 52.5248 9.90953L52.5286 9.91331ZM47.0279 14.4884C48.2935 14.4884 49.4382 14.5488 50.6207 14.4771C51.2403 14.4393 51.6747 13.9746 51.8334 13.321C52.1054 12.1839 51.4254 11.3149 50.1711 11.2507C49.2946 11.2054 47.0279 11.2054 47.0279 11.2054V14.4846V14.4884ZM47.0279 6.02959V9.17284C47.0279 9.17284 49.7064 9.21817 50.3562 9.03305C50.9834 8.85171 51.5123 8.24724 51.4254 7.25364C51.365 6.53961 50.7265 6.12404 50.2165 6.0787C49.2418 5.99181 48.1084 6.03337 47.0279 6.03337V6.02959Z" fill="#D1007E"/>
<path d="M65.4189 16.8912H62.6912V15.7805C61.3198 17.1292 59.6084 17.235 57.931 16.8421C56.5218 16.5134 55.6718 15.4254 55.5811 14.1182C55.4829 12.7468 56.1894 11.6361 57.5079 11.043C58.8717 10.4272 60.2771 10.4952 61.6976 10.7596C61.9621 10.8087 62.3399 10.9183 62.6005 10.975C62.8763 9.95869 62.1736 9.00665 61.146 8.76864C59.9144 8.48529 58.7357 8.77997 57.5608 9.10488C57.3228 9.1691 57.0885 9.25221 56.775 9.35422C56.5634 8.73086 56.3594 8.13394 56.144 7.49169C57.4323 6.823 58.7697 6.4981 60.1562 6.45654C60.9836 6.43009 61.8374 6.51699 62.6383 6.71344C63.9455 7.03456 65.1998 8.50796 65.3282 9.81891C65.5776 12.301 65.4189 15.8409 65.4189 16.8912ZM60.2431 15.0891C61.9054 15.0891 62.7857 14.3033 62.6912 12.9168C62.6459 12.6864 62.6459 12.5919 62.4154 12.5012C61.6296 12.1763 59.9673 12.1763 59.3175 12.4559C58.7546 12.6977 58.3919 12.9962 58.3919 13.6573C58.3919 14.2504 58.645 14.7227 59.2835 14.9342C59.5782 15.0325 59.9182 15.0891 60.2431 15.0891Z" fill="#D1007E"/>
<path d="M94.1275 16.9819C90.9653 16.9743 88.6419 14.7151 88.6646 11.6663C88.6872 8.64019 91.0447 6.41498 94.2144 6.42631C97.2783 6.43765 99.6168 8.71952 99.613 11.689C99.613 14.7416 97.282 16.9857 94.1237 16.9781L94.1275 16.9819ZM96.908 11.7041C96.908 9.9738 95.7935 8.80264 94.1426 8.79886C92.4841 8.79508 91.4036 9.97002 91.4036 11.7834C91.4036 13.4835 92.4954 14.6131 94.1501 14.6093C95.8011 14.6093 96.908 13.4457 96.908 11.7041Z" fill="#D1007E"/>
<path d="M66.847 6.67564H69.5822V8.17548C69.858 7.94125 70.0658 7.74102 70.2282 7.60501C71.0594 6.67942 72.7368 6.1165 74.3499 6.60386C75.9745 7.09499 76.798 8.34171 76.8925 9.92089C77.0247 12.1499 76.9341 14.6546 76.9378 16.8912C76.9378 16.9252 75.2 16.8799 74.3046 16.8799C74.2895 16.623 74.2933 13.1208 74.2857 11.5718C74.2782 9.92089 73.4659 8.88951 72.0303 8.89329C70.4964 8.89707 69.6048 10.0153 69.6011 11.5983C69.5973 13.1473 69.6011 16.6456 69.6011 16.9025H66.8507V6.66808L66.847 6.67564Z" fill="#D1007E"/>
<path d="M88.1394 9.27109C87.467 9.55443 86.8398 9.84155 86.19 10.0682C86.0465 10.1173 85.7593 10.004 85.6498 9.87178C84.8488 8.90085 83.8212 8.62128 82.6576 8.95374C81.5129 9.28242 80.9009 10.1513 80.7498 11.2923C80.5987 12.4446 80.9236 13.457 81.9285 14.1522C83.0392 14.9229 84.7128 14.7264 85.5818 13.6837C85.8727 13.3362 86.0993 13.3021 86.4771 13.4835C87.0212 13.7442 87.5841 13.9557 88.1357 14.1862C87.5992 16.0903 85.3324 17.2048 82.6199 16.9403C80.1264 16.6985 78.2148 14.6471 78.0183 12.0025C77.837 9.56954 79.6391 7.18566 82.1061 6.59253C84.6373 5.98428 87.1836 7.09121 88.1432 9.27486L88.1394 9.27109Z" fill="#D1007E"/>
<path d="M53.8622 26.6231H49.2417C49.2417 25.9317 49.2266 25.3122 49.2568 24.6964C49.2606 24.5943 49.4609 24.4243 49.5704 24.4206C51.9996 24.4054 54.4251 24.4092 56.843 24.4092C57.3265 27.934 55.5056 30.9526 52.0828 31.8329C48.233 32.8227 44.4589 30.9526 43.2915 27.4807C42.143 24.0541 43.8091 20.3631 47.1148 19.0181C50.5187 17.6316 54.6933 18.9463 56.1251 21.9045C55.3922 22.2482 54.6631 22.6109 53.9151 22.9169C53.7942 22.9661 53.507 22.7885 53.3861 22.6449C52.0488 21.0355 49.986 20.5557 48.1159 21.4435C46.2005 22.354 45.2862 24.5528 45.9549 26.6382C46.5783 28.5763 48.6297 29.823 50.6509 29.4943C52.0336 29.2677 53.1632 28.6972 53.6922 27.2994C53.7639 27.1142 53.7904 26.914 53.8584 26.6269L53.8622 26.6231Z" fill="#D1007E"/>
<path d="M110.569 22.917V21.6967C110.569 21.6967 112.87 21.7042 113.35 21.7042C113.35 26.4342 113.319 31.1189 113.319 35.8148H110.569V30.9073C110.429 30.8922 110.373 30.998 110.339 31.032C108.929 32.3656 107.346 32.5054 105.59 31.9387C103.814 31.3644 102.972 29.9439 102.643 28.2061C102.371 26.7856 102.492 25.3839 103.134 24.0617C104.449 21.3491 108.042 20.6464 110.274 22.6638C110.35 22.7318 110.429 22.7961 110.573 22.917H110.569ZM105.265 26.8573C105.253 28.5499 106.398 29.7739 108.015 29.7966C109.587 29.8193 110.686 28.6405 110.713 26.9065C110.735 25.1951 109.655 23.9899 108.068 23.9672C106.47 23.9446 105.276 25.1762 105.265 26.8573Z" fill="#D1007E"/>
<path d="M79.5408 35.2633C79.828 34.5493 80.1831 33.7068 80.44 33.0683C81.086 33.2988 81.6338 33.5519 82.2534 33.5859C83.2281 33.6388 84.0933 32.9361 84.2859 31.9954C84.3237 31.814 84.2255 31.5874 84.1461 31.406C82.7899 28.3723 81.426 25.3424 80.0622 22.3125C79.9866 22.1463 79.9262 21.9725 79.8091 21.674C80.8253 21.674 81.7509 21.6514 82.6727 21.6967C82.8163 21.7043 82.9901 21.9989 83.0694 22.1916C83.8288 24.0277 84.573 25.8751 85.3249 27.715C85.4193 27.9492 85.5251 28.1759 85.6762 28.5272C85.816 28.2288 85.918 28.0361 86.0011 27.8321C86.7605 25.9696 87.535 24.1146 88.2603 22.2407C88.4379 21.7836 88.6759 21.6287 89.1519 21.6514C89.8886 21.6854 90.6253 21.6589 91.464 21.6589C90.8633 23.0908 90.3155 24.413 89.7564 25.7278C88.7779 28.0474 87.7503 30.3482 86.8247 32.6905C85.5666 35.864 83.281 36.6762 79.964 35.4597C79.8468 35.4182 79.7373 35.354 79.5446 35.2595L79.5408 35.2633Z" fill="#D1007E"/>
<path d="M79.5144 32.0029H76.7867V30.8922C75.4153 32.2409 73.7039 32.3467 72.0265 31.9538C70.6173 31.6251 69.7673 30.5371 69.6766 29.2299C69.5784 27.8585 70.2849 26.7478 71.6034 26.1547C72.9672 25.5389 74.3726 25.6069 75.7931 25.8713C76.0576 25.9204 76.4353 26.03 76.696 26.0867C76.9718 25.0704 76.2691 24.1183 75.2415 23.8803C74.0099 23.597 72.8312 23.8917 71.6563 24.2166C71.4182 24.2808 71.184 24.3639 70.8704 24.4659C70.6589 23.8426 70.4549 23.2456 70.2395 22.6034C71.5278 21.9347 72.8652 21.6098 74.2517 21.5682C75.0791 21.5418 75.9329 21.6287 76.7338 21.8251C78.041 22.1463 79.2952 23.6197 79.4237 24.9306C79.673 27.4127 79.5144 30.9526 79.5144 32.0029ZM74.3386 30.2008C76.0009 30.2008 76.8811 29.415 76.7867 28.0285C76.7414 27.7981 76.7414 27.7036 76.5109 27.6129C75.7251 27.288 74.0628 27.288 73.413 27.5676C72.8501 27.8094 72.4874 28.1078 72.4874 28.769C72.4874 29.3621 72.7405 29.8344 73.379 30.0459C73.6737 30.1442 74.0137 30.2008 74.3348 30.2008H74.3386Z" fill="#D1007E"/>
<path d="M101.328 32.0029H98.6005V30.8922C97.2291 32.2409 95.5177 32.3467 93.8403 31.9538C92.4312 31.6251 91.5811 30.5371 91.4905 29.2299C91.3922 27.8585 92.0987 26.7478 93.4172 26.1547C94.781 25.5389 96.1864 25.6069 97.6069 25.8713C97.8714 25.9204 98.2492 26.03 98.5099 26.0867C98.7857 25.0704 98.083 24.1183 97.0554 23.8803C95.8237 23.597 94.645 23.8917 93.4701 24.2166C93.2321 24.2808 92.9979 24.3639 92.6843 24.4659C92.4727 23.8426 92.2687 23.2456 92.0534 22.6034C93.3416 21.9347 94.679 21.6098 96.0655 21.5682C96.8929 21.5418 97.7467 21.6287 98.5476 21.8251C99.8548 22.1463 101.109 23.6197 101.238 24.9306C101.487 27.4127 101.328 30.9526 101.328 32.0029ZM96.1524 30.2008C97.8147 30.2008 98.695 29.415 98.6005 28.0285C98.5552 27.7981 98.5552 27.7036 98.3247 27.6129C97.5389 27.288 95.8766 27.288 95.2268 27.5676C94.6639 27.8094 94.3012 28.1078 94.3012 28.769C94.3012 29.3621 94.5544 29.8344 95.1928 30.0459C95.4875 30.1442 95.8275 30.2008 96.1487 30.2008H96.1524Z" fill="#D1007E"/>
<path d="M65.8496 21.6703C66.692 21.6703 68.5621 21.6967 68.5621 21.6967C68.5621 21.6967 68.5848 31.5118 68.5848 32.0029H65.7891V30.4766C65.1431 31.2624 64.1722 31.7687 63.5715 32.0029C60.9382 32.7887 58.4448 31.4325 58.3466 28.191C58.2823 26.0602 58.3352 23.9257 58.3352 21.674C59.1513 21.674 61.1498 21.6514 61.1498 21.6514C61.1498 21.6514 61.0894 25.3386 61.0894 26.8649C61.0894 27.0727 61.0818 27.2843 61.0969 27.4921C61.2027 28.9163 61.9923 29.6757 63.3335 29.653C64.7728 29.6304 65.8307 28.6519 65.8458 27.2767C65.8684 25.4369 65.8496 23.597 65.8496 21.6703Z" fill="#D1007E"/>
<path d="M122.368 21.6703C123.21 21.6703 125.08 21.6967 125.08 21.6967C125.08 21.6967 125.103 31.5118 125.103 32.0029H122.307V30.4766C121.661 31.2624 120.69 31.7687 120.089 32.0029C117.456 32.7887 114.963 31.4325 114.865 28.191C114.8 26.0602 114.853 23.9257 114.853 21.674C115.669 21.674 117.668 21.6514 117.668 21.6514C117.668 21.6514 117.607 25.3386 117.607 26.8649C117.607 27.0727 117.6 27.2843 117.615 27.4921C117.721 28.9163 118.51 29.6757 119.851 29.653C121.291 29.6304 122.349 28.6519 122.364 27.2767C122.386 25.4369 122.368 23.597 122.368 21.6703Z" fill="#D1007E"/>
<path d="M134.393 17.9188V31.9803H131.522C131.506 31.7422 131.48 31.5194 131.48 31.2927C131.48 28.8257 131.484 18.2928 131.484 18.2928C131.484 18.2928 134.087 17.9603 134.393 17.9225V17.9188Z" fill="#D1007E"/>
<path d="M129.731 31.9803H126.916V21.7572H129.731V31.9803Z" fill="#D1007E"/>
<path d="M129.957 19.0861C129.969 19.9588 129.24 20.6615 128.325 20.6577C127.434 20.654 126.701 19.989 126.682 19.1617C126.663 18.2965 127.381 17.6165 128.318 17.6052C129.228 17.5976 129.946 18.2436 129.957 19.0861Z" fill="#D1007E"/>
</g>
<defs>
<clipPath id="clip0_36_726">
<rect width="133.739" height="36" fill="white" transform="translate(0.653625)"/>
</clipPath>
</defs>
</svg>
