<svg width="210" height="38" viewBox="0 0 210 38" fill="none" xmlns="http://www.w3.org/2000/svg">
<g clip-path="url(#clip0_36_754)">
<path d="M11.414 13.0462H5.54327V15.4122H11.414V13.0462Z" fill="#FF8000"/>
<path d="M11.414 22.5073H5.54327V24.8733H11.414V22.5073Z" fill="#FF8000"/>
<path d="M11.414 17.8183H0.731018V20.1843H11.414V17.8183Z" fill="#FF8000"/>
<path d="M34.0017 13.0462H28.131V15.4122H34.0017V13.0462Z" fill="#FF8000"/>
<path d="M34.0017 22.5073H28.131V24.8733H34.0017V22.5073Z" fill="#FF8000"/>
<path d="M38.814 17.8183H28.131V20.1843H38.814V17.8183Z" fill="#FF8000"/>
<path d="M21.0359 0H18.5895V38H21.0359V0Z" fill="#FF8000"/>
<path d="M25.8481 4.72919H23.4018V33.2707H25.8481V4.72919Z" fill="#FF8000"/>
<path d="M16.3871 4.72919H13.9407V33.2707H16.3871V4.72919Z" fill="#FF8000"/>
<path d="M49.8668 2.67407C50.3249 2.58029 51.1583 2.51062 51.9675 2.51062C53.0366 2.51062 53.693 2.63923 54.2343 3.01436C54.7273 3.3091 55.0569 3.82355 55.0569 4.49342C55.0569 5.22223 54.5987 5.88941 53.7412 6.20826V6.23238C54.5746 6.44406 55.3382 7.10052 55.3382 8.19374C55.3382 8.89843 55.0327 9.4504 54.5746 9.82553C54.0119 10.3185 53.0848 10.5651 51.6406 10.5651C50.8421 10.5651 50.2312 10.5061 49.8668 10.4606V2.67407ZM51.3003 5.79563H52.0398C53.0366 5.79563 53.6019 5.32672 53.6019 4.65686C53.6019 3.91733 53.0392 3.57704 52.1229 3.57704C51.6995 3.57704 51.453 3.60116 51.3003 3.63599V5.79563ZM51.3003 9.43701C51.4878 9.46112 51.7343 9.47184 52.0639 9.47184C52.991 9.47184 53.8136 9.12083 53.8136 8.14551C53.8136 7.22914 53.0151 6.85401 52.0184 6.85401H51.3029V9.43701H51.3003Z" fill="#614E4B"/>
<path d="M63.1247 10.482V2.56689H64.7699L66.8116 5.95908C67.3395 6.84062 67.7977 7.75699 68.1621 8.61173H68.1862C68.0924 7.55603 68.0576 6.53248 68.0576 5.32405V2.56421H69.3973V10.4766H67.9075L65.8417 7.00138C65.3379 6.13324 64.8074 5.15792 64.4215 4.26566L64.3867 4.27638C64.4457 5.29725 64.4564 6.34224 64.4564 7.64713V10.4766H63.1301L63.1247 10.482Z" fill="#614E4B"/>
<path d="M76.2647 10.2462C75.9244 10.423 75.1715 10.5972 74.223 10.5972C71.7097 10.5972 70.1851 9.02432 70.1851 6.61549C70.1851 4.00839 71.9937 2.43555 74.4106 2.43555C75.3618 2.43555 76.0423 2.63651 76.3371 2.78656L76.0209 3.93604C75.6458 3.77259 75.1286 3.63058 74.4722 3.63058C72.8645 3.63058 71.7016 4.64074 71.7016 6.54315C71.7016 8.27943 72.7225 9.39676 74.4615 9.39676C75.0483 9.39676 75.6592 9.27887 76.0343 9.10203L76.2701 10.2408L76.2647 10.2462Z" fill="#614E4B"/>
<path d="M83.7458 6.4414C83.7458 9.09405 82.1381 10.6106 79.9544 10.6106C77.7706 10.6106 76.3157 8.90917 76.3157 6.58341C76.3157 4.25764 77.843 2.43829 80.0723 2.43829C82.3016 2.43829 83.7485 4.18798 83.7485 6.4414H83.7458ZM77.8376 6.55929C77.8376 8.16696 78.6468 9.44774 80.0321 9.44774C81.4174 9.44774 82.2158 8.15625 82.2158 6.50034C82.2158 5.00789 81.4763 3.60118 80.0321 3.60118C78.5878 3.60118 77.8376 4.9275 77.8376 6.55929Z" fill="#614E4B"/>
<path d="M55.1239 10.482L57.8945 2.43829H59.5798L62.4629 10.482H60.5873L58.7921 4.03793L56.8763 10.482H55.1239Z" fill="#614E4B"/>
<path d="M52.3051 13.7268V29.9964H49.3362V13.7268H52.3051Z" fill="#614E4B"/>
<path d="M54.7407 29.9991V13.7295H58.1195L62.3209 20.7068C63.4061 22.5181 64.3492 24.4018 65.0968 26.1622H65.145C64.9521 23.9891 64.8798 21.8884 64.8798 19.4019V13.7295H67.6316V29.9991H64.5663L60.3167 22.853C59.2797 21.0658 58.1919 19.0643 57.3961 17.2289L57.3237 17.253C57.4443 19.3537 57.4684 21.5026 57.4684 24.182V29.9991H54.7407Z" fill="#614E4B"/>
<path d="M73.2075 16.2133H68.572V13.7268H80.86V16.2133H76.1763V29.9964H73.2075V16.2133Z" fill="#614E4B"/>
<path d="M90.8999 22.7807H84.7693V27.5608H91.626V29.9991H81.8005V13.7295H91.2643V16.1678H84.772V20.3692H90.9026V22.7834L90.8999 22.7807Z" fill="#614E4B"/>
<path d="M93.2659 13.9465C94.3752 13.7536 96.0418 13.6089 97.7566 13.6089C100.098 13.6089 101.69 13.9947 102.778 14.9111C103.67 15.6587 104.177 16.7948 104.177 18.1693C104.177 20.27 102.754 21.6928 101.232 22.2501V22.3225C102.389 22.7565 103.091 23.8926 103.501 25.4601C104.008 27.4885 104.442 29.3721 104.779 29.9991H101.714C101.473 29.5168 101.087 28.1878 100.629 26.1594C100.171 24.0346 99.3991 23.3594 97.7084 23.3112H96.2106V29.9991H93.2659V13.9465ZM96.2106 21.1381H97.9737C99.9779 21.1381 101.232 20.0771 101.232 18.4587C101.232 16.6715 99.9752 15.8516 98.046 15.8516C97.1055 15.8516 96.5 15.9239 96.2106 15.9963V21.1381Z" fill="#614E4B"/>
<path d="M106.034 29.9991V13.7295H109.412L113.614 20.7068C114.699 22.5181 115.642 24.4018 116.39 26.1622H116.438C116.245 23.9891 116.173 21.8884 116.173 19.4019V13.7295H118.924V29.9991H115.859L111.609 22.853C110.573 21.0658 109.485 19.0643 108.689 17.2289L108.617 17.253C108.737 19.3537 108.761 21.5026 108.761 24.182V29.9991H106.034Z" fill="#614E4B"/>
<path d="M146.925 29.5141C146.225 29.8759 144.679 30.2376 142.723 30.2376C137.557 30.2376 134.42 27.0035 134.42 22.0546C134.42 16.6956 138.136 13.4615 143.109 13.4615C145.065 13.4615 146.464 13.8715 147.069 14.185L146.418 16.551C145.647 16.2133 144.583 15.924 143.232 15.924C139.926 15.924 137.536 18.0005 137.536 21.9099C137.536 25.4816 139.637 27.7752 143.208 27.7752C144.417 27.7752 145.671 27.534 146.442 27.1723L146.925 29.5141Z" fill="#614E4B"/>
<path d="M151.461 13.7268V29.9964H148.492V13.7268H151.461Z" fill="#614E4B"/>
<path d="M168.333 21.6928C168.333 27.1482 165.027 30.2617 160.536 30.2617C156.045 30.2617 153.052 26.7624 153.052 21.9822C153.052 17.2021 156.19 13.4615 160.777 13.4615C165.365 13.4615 168.333 17.0574 168.333 21.6928ZM156.193 21.9367C156.193 25.2431 157.859 27.8743 160.708 27.8743C163.556 27.8743 165.198 25.219 165.198 21.8161C165.198 18.7508 163.679 15.8543 160.708 15.8543C157.736 15.8543 156.193 18.582 156.193 21.9367Z" fill="#614E4B"/>
<path d="M169.925 29.9991V13.7295H173.304L177.505 20.7068C178.59 22.5181 179.534 24.4018 180.281 26.1622H180.329C180.136 23.9891 180.064 21.8884 180.064 19.4019V13.7295H182.816V29.9991H179.751L175.501 22.853C174.464 21.0658 173.376 19.0643 172.58 17.2289L172.508 17.253C172.629 19.3537 172.653 21.5026 172.653 24.182V29.9991H169.925Z" fill="#614E4B"/>
<path d="M199.664 13.7268H202.633V27.5099H209.318V29.9964H199.662V13.7268H199.664Z" fill="#614E4B"/>
<path d="M120.074 29.9991L125.987 13.4615H129.819L135.202 29.9991H131.735L127.638 16.1464L123.501 29.9991H120.074Z" fill="#614E4B"/>
<path d="M183.601 29.9991L189.512 13.4615H193.343L198.726 29.9991H195.262L191.162 16.1464L187.025 29.9991H183.601Z" fill="#614E4B"/>
</g>
<defs>
<clipPath id="clip0_36_754">
<rect width="208.587" height="38" fill="white" transform="translate(0.731018)"/>
</clipPath>
</defs>
</svg>
