<svg width="37" height="35" viewBox="0 0 37 35" fill="none" xmlns="http://www.w3.org/2000/svg">
<g clip-path="url(#clip0_470_863)">
<path d="M19.2804 0C20.2854 0.173785 21.3016 0.313569 22.299 0.528912C24.5544 1.01627 27.0668 2.23654 28.5402 3.50215C27.471 3.28681 26.3716 2.96191 25.2534 2.85612C19.4013 2.30077 14.7507 4.44664 11.4072 9.25596C9.58624 11.8778 8.82687 14.8435 9.04977 18.0472C9.32178 21.9536 12.635 25.5389 16.5528 26.1509C19.7753 26.6534 22.5635 25.7958 24.8831 23.4912C24.9927 23.3817 25.1174 23.2872 25.2722 23.2154C24.7396 24.4546 23.9764 25.5389 23.0546 26.5098C18.6873 31.1189 11.9588 32.2447 6.33721 29.3055C5.94052 29.0977 5.55895 28.803 5.26427 28.4668C2.77461 25.6484 1.33899 22.373 1.02164 18.6252C1.00653 18.4439 0.93853 18.2663 0.896973 18.0888V16.2036C0.953642 15.8371 1.01787 15.4707 1.0632 15.1042C1.90191 8.19058 6.99835 2.36121 13.7609 0.638472C14.9094 0.343793 16.0956 0.207787 17.2668 0H19.2804Z" fill="#D1007E"/>
<path d="M8.47925 31.2964C9.78642 31.5155 11.1125 31.8215 12.4536 31.9462C17.9619 32.4524 23.693 29.2676 26.2394 24.3525C27.539 21.844 28.185 19.207 27.8752 16.3698C27.4521 12.4558 24.0179 8.99899 20.0964 8.5192C16.8738 8.12629 14.1462 9.07833 11.9021 11.4169C11.8378 11.4849 11.7623 11.5415 11.6905 11.602C11.6338 11.5604 11.5772 11.5151 11.5205 11.4735C12.2156 10.4988 12.8277 9.45235 13.6172 8.56075C16.4545 5.35328 20.07 3.78544 24.3504 3.8081C26.6285 3.81944 28.7857 4.40124 30.7842 5.50062C31.1431 5.69707 31.4718 5.9842 31.7438 6.29021C37.1463 12.3991 37.5052 21.4624 32.4767 27.8963C28.4948 32.9927 23.1641 35.1537 16.7227 34.5341C13.7344 34.247 11.0407 33.1627 8.61525 31.4097C8.55103 31.3644 8.49058 31.304 8.47925 31.2926V31.2964Z" fill="#D1007E"/>
</g>
<defs>
<clipPath id="clip0_470_863">
<rect width="37" height="35" fill="white"/>
</clipPath>
</defs>
</svg>
