<svg width="44" height="43" viewBox="0 0 44 43" fill="none" xmlns="http://www.w3.org/2000/svg">
<path fill-rule="evenodd" clip-rule="evenodd" d="M28.4022 10.6129C20.4638 18.4061 13.3776 27.0087 7.00146 36.1258L7.00751 36.1301C18.3616 26.2665 30.7099 17.5551 43.9919 10.4922V10.476C38.7974 10.2763 33.5968 10.3167 28.4022 10.6129Z" fill="#62B447"/>
<path fill-rule="evenodd" clip-rule="evenodd" d="M35.2083 39.6222L35.2143 39.616C33.5221 33.322 31.848 27.0213 30.194 20.7098C26.0944 23.357 22.0935 26.1303 18.1741 29.0394C23.9106 32.4765 29.5776 36.0151 35.2083 39.6222ZM2.34766 41.2683H2.35975C9.24656 29.9421 17.2283 19.2952 26.5044 9.80922C25.3843 6.91388 23.0826 1.12573 23.0826 1.12573C19.9409 4.67237 17.1668 8.50962 14.6033 12.493C9.65753 13.6265 4.78025 15.0456 0.0581055 16.9075C0.0581055 16.9075 6.05548 20.978 8.99775 23.0783C6.50372 28.8403 2.58437 40.5653 2.34766 41.2683Z" fill="#006340"/>
<path fill-rule="evenodd" clip-rule="evenodd" d="M28.4022 10.6129C20.4638 18.4061 13.3776 27.0087 7.00146 36.1258L7.00751 36.1301C18.3616 26.2665 30.7099 17.5551 43.9919 10.4922V10.476C38.7974 10.2763 33.5968 10.3167 28.4022 10.6129Z" fill="#62B447"/>
<path fill-rule="evenodd" clip-rule="evenodd" d="M35.2083 39.6222L35.2143 39.616C33.5221 33.322 31.848 27.0213 30.194 20.7098C26.0944 23.357 22.0935 26.1303 18.1741 29.0394C23.9106 32.4765 29.5776 36.0151 35.2083 39.6222ZM2.34766 41.2683H2.35975C9.24656 29.9421 17.2283 19.2952 26.5044 9.80922C25.3843 6.91388 23.0826 1.12573 23.0826 1.12573C19.9409 4.67237 17.1668 8.50962 14.6033 12.493C9.65753 13.6265 4.78025 15.0456 0.0581055 16.9075C0.0581055 16.9075 6.05548 20.978 8.99775 23.0783C6.50372 28.8403 2.58437 40.5653 2.34766 41.2683Z" fill="#006340"/>
</svg>
