<svg width="153" height="32" viewBox="0 0 153 32" fill="none" xmlns="http://www.w3.org/2000/svg">
<g clip-path="url(#clip0_36_748)">
<path d="M20.5142 0.441467H0.726715V21.319C0.726715 27.1043 5.42206 31.8835 11.2912 31.8835H32.1687V0.441467H20.5142Z" fill="#FFDD00"/>
<path d="M90.6925 0.189209C88.6802 0.189209 87.0868 0.776782 85.7453 2.11831C84.4037 3.37599 83.7343 5.0529 83.7343 7.14903C83.7343 9.16132 84.4037 10.8386 85.7453 12.0962C87.0868 13.3539 88.7637 13.9402 90.776 13.9402C93.0398 13.9402 94.8009 13.1017 96.1424 11.4248L94.2985 9.4122C93.3762 10.6699 92.2017 11.2578 90.6925 11.2578C89.5186 11.3416 88.596 10.9217 87.8414 10.1671C87.0868 9.41253 86.6689 8.40704 86.6689 7.06551C86.6689 5.80783 87.0868 4.80202 87.8414 4.04741C88.596 3.2928 89.519 2.87324 90.6089 2.87324C91.6151 2.87324 92.5367 3.2083 93.2913 3.79522C93.8783 4.21444 94.6339 4.13125 95.1369 3.62818L95.9754 2.70457C94.6339 1.02766 92.8724 0.189209 90.6925 0.189209ZM104.36 0.274364C102.431 0.274364 100.838 0.944145 99.4962 2.20183C98.1547 3.45951 97.5688 5.13707 97.5688 7.06551C97.5688 9.0778 98.2385 10.6712 99.4962 12.0127C100.838 13.2704 102.431 13.9402 104.36 13.9402C106.288 13.9402 107.88 13.2704 109.222 12.0127C110.563 10.6712 111.235 9.0778 111.235 7.06551C111.235 5.13707 110.563 3.45951 109.222 2.20183C107.88 0.8603 106.288 0.274364 104.36 0.274364ZM42.5649 0.4414V13.6896H48.8533C50.1948 13.6896 51.369 13.3536 52.1236 12.599C52.962 11.8444 53.3813 10.9217 53.3813 9.74791C53.4651 8.65792 52.8779 7.65178 51.7879 6.81332C52.7102 6.14256 53.1307 5.22091 53.1307 4.13092C53.1307 1.78325 51.37 0.4414 48.5192 0.4414H42.5649ZM59.7532 0.4414L54.5554 13.6896H57.49L58.4955 11.0891H63.6114L64.7004 13.6896H67.635L62.7729 1.36337C62.5214 0.776454 62.017 0.4414 61.4301 0.4414H59.7532ZM78.3679 0.4414V9.49736L73.4206 1.19634C73.1691 0.777109 72.666 0.524918 72.163 0.524918H69.5641V13.6896H72.4152V4.8007L77.3607 13.0182C77.6961 13.4374 78.1153 13.6896 78.6184 13.6896H81.1338V0.4414H78.3679ZM104.443 2.95676C105.617 2.95676 106.54 3.37599 107.295 4.21444C107.965 4.96905 108.384 5.97552 108.384 7.06551C108.384 8.23935 108.049 9.24517 107.295 10.0836C106.624 10.9221 105.617 11.2578 104.443 11.2578C103.186 11.2578 102.263 10.8382 101.509 10.0836C100.754 9.24517 100.418 8.32319 100.418 7.06551C100.418 5.89168 100.754 4.88553 101.509 4.13092C102.263 3.29247 103.186 2.95676 104.443 2.95676ZM45.416 3.04028H48.0148C49.6079 3.04028 50.2796 3.46049 50.2796 4.46663C50.2796 5.38893 49.5254 5.80783 48.1 5.80783H45.416V3.04028ZM61.096 4.29796L62.6878 8.6589H59.4191L61.096 4.29796ZM16.4893 5.72431V10.4193H22.1914V16.205H26.97V5.72431H16.4893ZM45.416 8.15452H48.267C49.8601 8.15452 50.6154 8.65858 50.6154 9.58087C50.6154 10.6709 49.7762 11.0891 48.267 11.0891H45.416V8.15452ZM117.775 18.3846C115.763 18.3846 114.17 18.9706 112.828 20.3121C111.486 21.5698 110.815 23.247 110.815 25.2593C110.815 27.2716 111.486 28.9488 112.828 30.2065C114.17 31.4642 115.846 32.0505 117.859 32.0505C120.123 32.0505 121.884 31.212 123.225 29.5351L121.38 27.5241C120.457 28.7818 119.284 29.3681 117.775 29.3681C116.601 29.5357 115.679 29.1172 114.924 28.3626C114.17 27.608 113.75 26.6008 113.75 25.2593C113.75 24.0016 114.17 22.912 114.924 22.2412C115.679 21.4866 116.602 21.067 117.692 21.067C118.698 21.067 119.619 21.4021 120.374 21.989C120.961 22.4082 121.715 22.325 122.218 21.822L123.056 20.9C121.715 19.2231 119.955 18.3846 117.775 18.3846ZM67.8037 18.4682C65.7914 18.4682 64.198 19.0557 62.8565 20.3973C61.5149 21.6549 60.8438 23.3305 60.8438 25.3428C60.8438 27.3551 61.5149 29.0323 62.8565 30.29C64.198 31.5477 65.8749 32.1356 67.8872 32.1356C70.151 32.1356 71.9121 31.2972 73.2536 29.6202L71.408 27.6076C70.4857 28.8653 69.3129 29.4516 67.8037 29.4516C66.6298 29.4516 65.7072 29.032 64.9526 28.2774C64.198 27.5228 63.7784 26.5173 63.7784 25.1758C63.7784 23.9181 64.198 22.8284 64.9526 22.1577C65.7072 21.4031 66.6285 20.9835 67.7185 20.9835C68.7247 20.9835 69.6479 21.3186 70.4025 21.9055C70.9895 22.3247 71.7434 22.2415 72.2465 21.7385L73.0849 20.8165C71.7434 19.3073 69.9836 18.4682 67.8037 18.4682ZM42.5649 18.6352V31.8834H45.416V27.6911H47.9313C49.4405 27.6911 50.6982 27.2719 51.7044 26.4335C52.6267 25.595 53.1307 24.505 53.1307 23.0797C53.1307 21.7381 52.6267 20.6478 51.7044 19.8094C50.7821 19.0547 49.5244 18.6352 47.9313 18.6352H42.5649ZM55.5609 18.6352V31.8834H58.3285V18.6352H55.5609ZM75.8525 18.6352V31.8834H78.7036V26.4335H84.237V31.8834H87.0029V18.6352H85.6617C84.9071 18.6352 84.237 19.3069 84.237 20.0615V23.8346H78.7036V18.6352H75.8525ZM90.5254 18.6352V31.8834H93.2913V18.6352H90.5254ZM96.7303 18.6352V31.8834H99.5798V22.9961L104.527 31.212C104.778 31.6312 105.282 31.8834 105.785 31.8834H108.3V18.6352H105.534V27.6076L100.587 19.3066C100.251 18.9712 99.8323 18.6352 99.3292 18.6352H96.7303ZM125.824 18.6352V31.8834H128.675V26.4335H134.209V31.9669H136.976V18.6352H135.633C134.879 18.6352 134.209 19.3069 134.209 20.0615V23.8346H128.675V18.6352H125.824ZM144.437 18.6352L139.239 31.8834H142.174L143.179 29.2845H148.295L149.384 31.8834H152.286L147.457 19.5588C147.205 18.9719 146.701 18.6352 146.114 18.6352H144.437ZM152.286 31.8834L152.319 31.9669V31.8834H152.286ZM45.416 21.2357H47.5121C49.4405 21.2357 50.3632 21.8216 50.3632 23.1632C50.3632 24.5047 49.4405 25.0923 47.5121 25.0923H45.416V21.2357ZM145.78 22.4934L147.372 26.8527H144.103L145.78 22.4934Z" fill="#111B68"/>
</g>
<defs>
<clipPath id="clip0_36_748">
<rect width="152.381" height="32" fill="white" transform="translate(0.289917)"/>
</clipPath>
</defs>
</svg>
