<svg width="48" height="18" viewBox="0 0 48 18" fill="none" xmlns="http://www.w3.org/2000/svg">
<path d="M17.2959 0H30.6189V4.31335H22.4815V6.53651H29.9328V10.5467H22.4815V12.7699H30.9593V17.0832H17.2959V0Z" fill="#007E32"/>
<path d="M5.16432 17.4927C2.31357 17.4927 0 15.1792 0 12.3284V10.0202H5.1856V12.3284C5.1856 12.9666 5.70681 13.4879 6.34504 13.4879H8.47778C9.11601 13.4879 9.63723 12.9666 9.63723 12.3284V0H14.8228V12.3231C14.8228 15.1739 12.5092 17.4874 9.6585 17.4874H5.16432V17.4927Z" fill="#007E32"/>
<path d="M42.8358 0H33.1772V17.0779H38.3682V11.52L42.8358 11.504C45.6865 11.504 48.0001 9.19047 48.0001 6.33972V5.16432C48.0001 2.31357 45.6865 0 42.8358 0ZM43.123 6.32377C43.123 6.962 42.6017 7.48322 41.9635 7.48322H38.3575V4.03147L41.9635 4.01019C42.6017 4.01019 43.123 4.5261 43.123 5.16964V6.32377Z" fill="#007E32"/>
</svg>
