<svg width="22" height="40" viewBox="0 0 22 40" fill="none" xmlns="http://www.w3.org/2000/svg">
<path d="M0.0466309 3.50623L3.41576 0L21.297 17.8812C21.297 17.8812 22.878 19.4622 21.297 21.2503L15.7955 26.8218L12.3564 23.3156L16.0697 19.4651L0.0466309 3.50915V3.50623Z" fill="#FFB719"/>
<path d="M21.9532 35.6605L18.5841 39.1668L0.702916 21.2856C0.702916 21.2856 -0.878096 19.7046 0.702916 17.9164L6.20437 12.345L9.64352 15.8512L5.93018 19.7016L21.9532 35.6576V35.6605Z" fill="#E90729"/>
<path d="M18.2721 0L22 3.43914L15.8627 9.49191L12.3564 5.83691L18.2721 0Z" fill="#E90729"/>
<path d="M5.91276 29.7595L9.6436 33.1987L3.50623 39.2485L0 35.5935L5.91276 29.7595Z" fill="#FFB719"/>
</svg>
