<svg width="32" height="32" viewBox="0 0 32 32" fill="none" xmlns="http://www.w3.org/2000/svg">
<path d="M6.74336 0H0V31.9718H6.74336V0Z" fill="#108094"/>
<path d="M17.7879 0H23.834C23.834 0 30.8102 0.465651 31.1582 7.44061C31.1582 7.44061 31.8554 11.7418 26.7406 14.3004C26.7406 14.3004 32.4375 16.7414 31.9731 23.2519C31.9731 23.2519 31.8566 30.2281 24.2996 31.9718H16.5098C16.5098 31.9718 24.1832 31.1582 25.3461 23.9504C25.3461 23.9504 26.3926 17.7891 19.9985 14.4168C19.9985 14.4168 25.1145 12.3238 24.7653 7.20901C24.7653 7.20901 23.9516 0.814889 17.7891 0.00122472L17.7879 0Z" fill="#108094"/>
<path d="M6.62695 0H12.6731C12.6731 0 19.6493 0.465651 19.9973 7.44061C19.9973 7.44061 20.6945 11.7418 15.5797 14.3004C15.5797 14.3004 21.2766 16.7414 20.8109 23.2519C20.8109 23.2519 20.6945 30.2281 13.1375 31.9718H6.74337C6.74337 31.9718 13.0211 31.1582 14.184 23.9504C14.184 23.9504 15.2305 17.7891 8.83634 14.4168C8.83634 14.4168 13.9524 12.3238 13.6031 7.20901C13.6031 7.20901 12.7895 0.814889 6.62695 0.00122472V0Z" fill="#108094"/>
</svg>
