<svg width="143" height="44" viewBox="0 0 143 44" fill="none" xmlns="http://www.w3.org/2000/svg">
<path fill-rule="evenodd" clip-rule="evenodd" d="M38.0879 19.3164C36.8563 19.3164 36.5012 20.6752 36.0673 22.7234C35.6816 24.5415 35.3528 26.2759 36.6283 26.2759C37.632 26.2759 38.0967 25.064 38.5657 22.8698C38.9908 20.8627 39.2363 19.3164 38.0879 19.3164ZM37.7373 27.0705H37.6934C37.277 27.8441 36.3961 28.7418 34.8926 28.7418C32.6134 28.7418 31.7499 27.1122 32.6441 22.8908C33.3936 19.3787 34.4324 16.8501 37.2113 16.8501C38.1536 16.8501 39.1092 17.1639 39.4159 18.3754H39.4554L40.4898 13.5276H43.8736L40.7002 28.4499H37.4436L37.7373 27.0705Z" fill="#006340"/>
<path fill-rule="evenodd" clip-rule="evenodd" d="M51.3598 28.4498H48.0989L48.3837 27.1116H48.3443C47.6474 28.1153 46.5341 28.7417 45.2805 28.7417C43.3564 28.7417 42.5367 27.78 42.9969 25.6069L44.7984 17.1428H48.1821L46.5472 24.8552C46.3719 25.6696 46.6261 26.1504 47.2529 26.1504C47.9016 26.1504 48.5722 25.6499 48.8045 24.5414L50.3781 17.1428H53.7661L51.3598 28.4498Z" fill="#006340"/>
<path fill-rule="evenodd" clip-rule="evenodd" d="M58.0484 26.2759C59.3239 26.2759 59.7359 24.5415 60.1216 22.7238C60.5556 20.6752 60.7834 19.3164 59.5474 19.3164C58.4035 19.3164 57.9914 20.8627 57.5618 22.8698C57.0973 25.064 57.049 26.2759 58.0484 26.2759ZM56.225 13.5276H59.6132L58.5788 18.3754H58.6226C59.4422 17.1639 60.5336 16.8501 61.4759 16.8501C64.2548 16.8501 64.2198 19.3787 63.4703 22.8908C62.5761 27.1122 61.0158 28.7418 58.7365 28.7418C57.2331 28.7418 56.7334 27.8441 56.6502 27.0705H56.6063L56.3127 28.4499H53.0561L56.225 13.5276Z" fill="#006340"/>
<path fill-rule="evenodd" clip-rule="evenodd" d="M16.2778 17.124H19.5387L19.2013 18.7116H19.2451C19.8982 17.7087 20.9413 16.8308 22.3615 16.8308C22.528 16.8308 22.6946 16.8308 22.8962 16.872L22.2212 20.0515C21.9012 19.9875 21.6338 19.9664 21.3007 19.9664C19.9376 19.9664 18.9427 20.531 18.6271 22.016L17.2595 28.4341H13.8758L16.2778 17.124Z" fill="#006340"/>
<path fill-rule="evenodd" clip-rule="evenodd" d="M27.7569 19.0424C26.7532 19.0424 26.2536 20.0221 25.6706 22.7558C25.0876 25.5088 25.1709 26.4889 26.1702 26.4889C27.2178 26.4889 27.6254 25.5513 28.2128 22.7773C28.8089 19.9804 28.7957 19.0424 27.7569 19.0424ZM22.2869 22.7957C23.0013 19.4181 24.3031 16.8308 28.204 16.8308C32.3373 16.8308 32.3197 19.3554 31.6009 22.7357C30.8821 26.1142 29.5847 28.7002 25.6838 28.7002C21.5505 28.7002 21.5681 26.1768 22.2869 22.7957Z" fill="#006340"/>
<path fill-rule="evenodd" clip-rule="evenodd" d="M8.2962 20.0158H9.25611C10.6586 20.0158 11.1759 19.1392 11.3907 18.1368C11.6361 16.9867 11.4476 16.1088 10.0231 16.1088H9.129L8.2962 20.0158ZM6.16601 13.5192H11.5966C15.296 13.5192 15.4362 16.1942 15.0418 18.0518C14.4764 20.7254 12.802 22.6066 9.29117 22.6066H7.74392L6.50789 28.4339H2.99704L6.16601 13.5192Z" fill="#006340"/>
<path fill-rule="evenodd" clip-rule="evenodd" d="M82.4399 16.8237C81.1824 16.8237 80.0646 17.4492 79.372 18.4556H79.328L79.6133 17.116H76.3481L73.9415 28.4367H77.3295L78.9071 21.0293C79.1442 19.9199 79.8148 19.4168 80.4635 19.4168C81.0901 19.4168 81.3442 19.8998 81.1739 20.7163L79.5295 28.4367H82.9225L84.7237 19.962C85.1842 17.7853 84.3646 16.8237 82.4399 16.8237Z" fill="#006340"/>
<path fill-rule="evenodd" clip-rule="evenodd" d="M69.7995 24.8592C69.5584 25.9892 68.822 26.4069 68.112 26.4069C67.4852 26.4069 67.2441 25.8629 67.437 24.964C67.5685 24.339 67.8139 23.983 68.2216 23.7104C68.5941 23.4606 69.0587 23.4404 70.2422 22.8772C70.1457 23.3344 70.0011 23.9225 69.7995 24.8592ZM70.6454 16.8571C69.2428 16.8571 68.2391 17.0442 67.3318 17.5877C66.4201 18.1329 65.7626 19.0713 65.412 20.6186H68.4232C68.6511 19.6359 69.0412 19.0713 69.9836 19.0713C70.7375 19.0713 70.9566 19.5114 70.812 20.2C70.6279 21.0564 70.4043 21.2248 69.3217 21.4956C68.3268 21.7455 67.0294 21.9545 66.0957 22.4156C65.1622 22.8772 64.3863 23.983 64.1059 25.2988C63.5843 27.7446 64.4784 28.7496 66.3807 28.7496C67.5115 28.7496 68.6993 28.1627 69.3699 27.1581H69.4138C69.3437 27.5999 69.2867 28.0558 69.3305 28.4564H72.5875C72.2979 27.9546 72.53 26.868 72.7095 26.0115L73.9458 20.2C74.4546 17.8191 73.4242 16.8571 70.6454 16.8571Z" fill="#006340"/>
<path fill-rule="evenodd" clip-rule="evenodd" d="M100.907 19.0424C99.9023 19.0424 99.4027 20.0221 98.8243 22.7558C98.2367 25.5088 98.3204 26.4889 99.3197 26.4889C100.367 26.4889 100.775 25.5513 101.362 22.7773C101.958 19.9804 101.95 19.0424 100.907 19.0424ZM95.4363 22.7957C96.151 19.4181 97.4525 16.8308 101.354 16.8308C105.487 16.8308 105.469 19.3554 104.75 22.7357C104.031 26.1142 102.73 28.7002 98.8328 28.7002C94.6997 28.7002 94.7174 26.1768 95.4363 22.7957Z" fill="#006340"/>
<path fill-rule="evenodd" clip-rule="evenodd" d="M91.6664 21.3939C92.017 19.7441 91.7892 19.0542 90.8907 19.0542C89.7645 19.0542 89.3174 20.4748 88.8263 22.7939C88.2827 25.3422 88.1819 26.5107 89.3081 26.5107C90.3123 26.5107 90.6849 25.8217 91.149 23.8375H94.283C93.5208 27.326 91.8459 28.7259 88.7737 28.7259C84.5136 28.7259 84.8159 25.7393 85.5305 22.3766C86.2012 19.2011 87.6255 16.8399 91.303 16.8399C94.8528 16.8399 95.3745 18.6996 94.8003 21.3939H91.6664Z" fill="#006340"/>
<path fill-rule="evenodd" clip-rule="evenodd" d="M48.3048 36.2319C48.2128 36.6619 47.8271 36.8363 47.5553 36.8363C47.2836 36.8363 47.2266 36.5878 47.2923 36.2902C47.3668 35.94 47.5684 35.7441 47.9936 35.6586C48.1251 35.6279 48.3092 35.5622 48.467 35.4583L48.3048 36.2319ZM48.445 33.3982C47.6868 33.3982 47.0074 33.7046 46.8146 34.6067L46.7926 34.7018H47.6956L47.7175 34.5935C47.7832 34.2853 47.9892 34.0846 48.2917 34.0846C48.6291 34.0846 48.7256 34.2648 48.6599 34.5637C48.6029 34.8258 48.4758 34.9424 48.1602 35.0209L47.5597 35.176C46.8234 35.3641 46.4639 35.6647 46.3061 36.4007C46.1966 36.9236 46.3193 37.5223 47.0162 37.5223C47.4983 37.5223 47.8051 37.4215 48.1251 37.0121H48.1382C48.1382 37.1418 48.1382 37.2957 48.1733 37.4215H49.1376C49.0806 37.1935 49.0982 37.0261 49.1771 36.6619L49.611 34.5992C49.7644 33.8944 49.6416 33.3982 48.445 33.3982ZM46.2316 34.9104C46.4288 33.9891 46.0695 33.3982 45.149 33.3982C44.2242 33.3982 43.4615 33.8488 43.1196 35.4583C42.7821 37.0344 43.181 37.5223 44.1803 37.5223C45.2498 37.5223 45.7977 36.9459 46.0125 35.9168H45.057C44.9211 36.554 44.7063 36.8363 44.3732 36.8363C43.9174 36.8363 43.9174 36.4344 44.1234 35.4684C44.3162 34.5637 44.4915 34.1254 44.9825 34.1254C45.3638 34.1254 45.3506 34.5334 45.2717 34.9104H46.2316ZM41.1341 37.4215H42.1422L42.975 33.4995H41.9713L41.1341 37.4215ZM43.2599 32.1587H42.2562L42.0721 33.0182H43.0758L43.2599 32.1587ZM41.5899 33.4118C41.5286 33.4043 41.4672 33.3982 41.4102 33.3982C40.9939 33.3982 40.6607 33.6454 40.3715 34.0215H40.3539L40.4678 33.4995H39.508L38.6752 37.4215H39.6789L40.183 35.0651C40.2926 34.5413 40.7221 34.3582 41.0727 34.3582C41.1735 34.3582 41.2831 34.3673 41.384 34.3735L41.5899 33.4118ZM37.6978 35.0143H36.6721L36.7028 34.8613C36.7817 34.498 36.9833 34.0846 37.3866 34.0846C37.8029 34.0846 37.8029 34.4178 37.6978 35.0143ZM37.5707 33.3982C36.2119 33.3982 35.8043 34.3735 35.5763 35.4206C35.3704 36.4007 35.1906 37.5223 36.6502 37.5223C37.5926 37.5223 38.1405 37.0121 38.3727 36.0986H37.4698C37.3076 36.5852 37.1148 36.8363 36.7773 36.8363C36.4047 36.8363 36.3785 36.384 36.4792 35.926L36.545 35.6117H38.535L38.5832 35.3873C38.8374 34.1819 38.7453 33.3982 37.5707 33.3982ZM34.5069 33.3982C34.0335 33.3982 33.6215 33.6095 33.3848 34.0215H33.3673C33.3454 33.6231 33.0561 33.3982 32.6002 33.3982C32.1751 33.3982 31.8288 33.5442 31.5001 33.9006H31.4869L31.5746 33.4995H30.6104L29.7775 37.4215H30.7812L31.3292 34.8398C31.4256 34.3866 31.6754 34.1666 31.9998 34.1666C32.2847 34.1666 32.3504 34.3538 32.2847 34.6816L31.7017 37.4215H32.7098L33.2533 34.8398C33.3498 34.3866 33.5996 34.1666 33.9196 34.1666C34.2044 34.1666 34.2746 34.3538 34.2088 34.6816L33.6215 37.4215H34.6296L35.2345 34.5699C35.3923 33.8138 35.1731 33.3982 34.5069 33.3982ZM28.6467 35.4583C28.4407 36.4344 28.2259 36.8363 27.8183 36.8363C27.3231 36.8363 27.4019 36.2591 27.5685 35.4583C27.7394 34.6571 27.906 34.0846 28.4013 34.0846C28.8089 34.0846 28.8527 34.4848 28.6467 35.4583ZM28.5459 33.3982C27.3975 33.3982 26.8496 34.1171 26.5648 35.4583C26.2754 36.8245 26.4552 37.5433 27.6693 37.5223C28.822 37.5223 29.3699 36.8013 29.6548 35.4583C29.9441 34.0974 29.7644 33.3759 28.5459 33.3982ZM26.7664 33.4118C26.7094 33.4043 26.648 33.3982 26.5867 33.3982C26.1703 33.3982 25.8328 33.6454 25.5523 34.0215H25.5347L25.6487 33.4995H24.6844L23.8516 37.4215H24.8554L25.3594 35.0651C25.469 34.5413 25.9029 34.3582 26.2492 34.3582C26.3543 34.3582 26.4595 34.3673 26.5604 34.3735L26.7664 33.4118ZM23.1109 33.855C23.0013 34.3853 22.6638 34.6351 22.2474 34.6351H21.7828L22.1159 33.0542H22.5542C23.0802 33.0542 23.2205 33.3461 23.1109 33.855ZM23.1328 32.2161H21.2963L20.1874 37.4215H21.2393L21.682 35.3425H22.243C23.2336 35.3425 24.0006 34.8539 24.2286 33.7774C24.3951 32.9963 24.1979 32.2161 23.1328 32.2161ZM17.1938 35.4583C16.9877 36.4344 16.7686 36.8363 16.361 36.8363C15.8657 36.8363 15.9446 36.2591 16.1155 35.4583C16.282 34.6571 16.453 34.0846 16.9483 34.0846C17.3559 34.0846 17.3997 34.4848 17.1938 35.4583ZM17.0929 33.3982C15.9402 33.3982 15.3923 34.1171 15.1118 35.4583C14.8181 36.8245 15.0022 37.5433 16.2163 37.5223C17.3691 37.5223 17.9169 36.8013 18.1975 35.4583C18.4911 34.0974 18.307 33.3759 17.0929 33.3982ZM13.6566 35.4583C13.4769 36.3139 13.2972 36.7491 12.8588 36.7491C12.4162 36.7491 12.4205 36.3139 12.6046 35.4583C12.7843 34.6067 12.9641 34.1666 13.4111 34.1666C13.8451 34.1666 13.8407 34.6067 13.6566 35.4583ZM13.8977 33.3982C13.5076 33.3982 13.1964 33.5481 12.9027 33.9141H12.8852L12.9728 33.4995H12.0129L10.9084 38.7017H11.9121L12.2628 37.0529H12.2803C12.4205 37.3667 12.6441 37.5223 13.0211 37.5223C13.8494 37.5223 14.3535 36.9165 14.6647 35.4583C14.9715 34.0023 14.7217 33.3982 13.8977 33.3982ZM10.3386 33.4995L9.78636 36.0986C9.68991 36.5374 9.45757 36.7491 9.11131 36.7491C8.81765 36.7491 8.71688 36.5979 8.80012 36.2017L9.37432 33.4995H8.37062L7.75258 36.4064C7.59041 37.1786 7.88407 37.5223 8.51086 37.5223C8.93602 37.5223 9.33926 37.347 9.63293 36.9604H9.64606L9.54528 37.4215H10.5095L11.3423 33.4995H10.3386ZM7.95419 33.4118C7.8972 33.4043 7.83148 33.3982 7.7745 33.3982C7.35811 33.3982 7.02061 33.6454 6.7357 34.0215H6.72255L6.83214 33.4995H5.87224L5.03946 37.4215H6.04318L6.54724 35.0651C6.65681 34.5413 7.08636 34.3582 7.437 34.3582C7.5422 34.3582 7.64739 34.3673 7.74819 34.3735L7.95419 33.4118ZM3.19418 35.3873H3.8867L3.77713 35.9168C3.65441 36.4809 3.19856 36.7491 2.94872 36.7491C2.34386 36.7491 2.39646 35.961 2.66382 34.7088C2.93558 33.4118 3.25116 32.8876 3.76398 32.8876C4.18476 32.8876 4.25489 33.3759 4.17599 33.7603H5.17972C5.40764 32.7057 5.06576 32.1144 3.91301 32.1144C2.57178 32.1144 1.9713 33.0112 1.60312 34.7614C1.22179 36.5593 1.27001 37.5223 2.55864 37.5223C3.04954 37.5223 3.44402 37.347 3.77713 36.938H3.79028L3.68946 37.4215H4.46089L5.05698 34.6141H3.36073L3.19418 35.3873Z" fill="#006340"/>
<path fill-rule="evenodd" clip-rule="evenodd" d="M130.72 12.4774C125.127 17.9681 120.134 24.029 115.642 30.4523L115.646 30.4554C123.646 23.506 132.346 17.3684 141.704 12.3923V12.3809C138.044 12.2402 134.38 12.2687 130.72 12.4774Z" fill="#62B447"/>
<path fill-rule="evenodd" clip-rule="evenodd" d="M135.515 32.9158L135.519 32.9114C134.327 28.477 133.148 24.0379 131.982 19.5912C129.094 21.4562 126.275 23.4102 123.514 25.4597C127.555 27.8813 131.548 30.3744 135.515 32.9158ZM112.363 34.0755H112.372C117.224 26.0957 122.847 18.5945 129.383 11.9112C128.594 9.87129 126.972 5.79327 126.972 5.79327C124.759 8.29204 122.804 10.9956 120.998 13.802C117.514 14.6006 114.077 15.6004 110.75 16.9123C110.75 16.9123 114.976 19.7801 117.049 21.2598C115.292 25.3195 112.53 33.5803 112.363 34.0755Z" fill="#006340"/>
<path fill-rule="evenodd" clip-rule="evenodd" d="M38.0879 19.3164C36.8563 19.3164 36.5012 20.6752 36.0673 22.7234C35.6816 24.5415 35.3528 26.2759 36.6283 26.2759C37.632 26.2759 38.0967 25.064 38.5657 22.8698C38.9908 20.8627 39.2363 19.3164 38.0879 19.3164ZM37.7373 27.0705H37.6934C37.277 27.8441 36.3961 28.7418 34.8926 28.7418C32.6134 28.7418 31.7499 27.1122 32.6441 22.8908C33.3936 19.3787 34.4324 16.8501 37.2113 16.8501C38.1536 16.8501 39.1092 17.1639 39.4159 18.3754H39.4554L40.4898 13.5276H43.8736L40.7002 28.4499H37.4436L37.7373 27.0705Z" fill="#006340"/>
<path fill-rule="evenodd" clip-rule="evenodd" d="M51.3598 28.4498H48.0989L48.3837 27.1116H48.3443C47.6474 28.1153 46.5341 28.7417 45.2805 28.7417C43.3564 28.7417 42.5367 27.78 42.9969 25.6069L44.7984 17.1428H48.1821L46.5472 24.8552C46.3719 25.6696 46.6261 26.1504 47.2529 26.1504C47.9016 26.1504 48.5722 25.6499 48.8045 24.5414L50.3781 17.1428H53.7661L51.3598 28.4498Z" fill="#006340"/>
<path fill-rule="evenodd" clip-rule="evenodd" d="M58.0484 26.2759C59.3239 26.2759 59.7359 24.5415 60.1216 22.7238C60.5556 20.6752 60.7834 19.3164 59.5474 19.3164C58.4035 19.3164 57.9914 20.8627 57.5618 22.8698C57.0973 25.064 57.049 26.2759 58.0484 26.2759ZM56.225 13.5276H59.6132L58.5788 18.3754H58.6226C59.4422 17.1639 60.5336 16.8501 61.4759 16.8501C64.2548 16.8501 64.2198 19.3787 63.4703 22.8908C62.5761 27.1122 61.0158 28.7418 58.7365 28.7418C57.2331 28.7418 56.7334 27.8441 56.6502 27.0705H56.6063L56.3127 28.4499H53.0561L56.225 13.5276Z" fill="#006340"/>
<path fill-rule="evenodd" clip-rule="evenodd" d="M16.2778 17.124H19.5387L19.2013 18.7116H19.2451C19.8982 17.7087 20.9413 16.8308 22.3615 16.8308C22.528 16.8308 22.6946 16.8308 22.8962 16.872L22.2212 20.0515C21.9012 19.9875 21.6338 19.9664 21.3007 19.9664C19.9376 19.9664 18.9427 20.531 18.6271 22.016L17.2595 28.4341H13.8758L16.2778 17.124Z" fill="#006340"/>
<path fill-rule="evenodd" clip-rule="evenodd" d="M27.7569 19.0424C26.7532 19.0424 26.2536 20.0221 25.6706 22.7558C25.0876 25.5088 25.1709 26.4889 26.1702 26.4889C27.2178 26.4889 27.6254 25.5513 28.2128 22.7773C28.8089 19.9804 28.7957 19.0424 27.7569 19.0424ZM22.2869 22.7957C23.0013 19.4181 24.3031 16.8308 28.204 16.8308C32.3373 16.8308 32.3197 19.3554 31.6009 22.7357C30.8821 26.1142 29.5847 28.7002 25.6838 28.7002C21.5505 28.7002 21.5681 26.1768 22.2869 22.7957Z" fill="#006340"/>
<path fill-rule="evenodd" clip-rule="evenodd" d="M8.2962 20.0158H9.25611C10.6586 20.0158 11.1759 19.1392 11.3907 18.1368C11.6361 16.9867 11.4476 16.1088 10.0231 16.1088H9.129L8.2962 20.0158ZM6.16601 13.5192H11.5966C15.296 13.5192 15.4362 16.1942 15.0418 18.0518C14.4764 20.7254 12.802 22.6066 9.29117 22.6066H7.74392L6.50789 28.4339H2.99704L6.16601 13.5192Z" fill="#006340"/>
<path fill-rule="evenodd" clip-rule="evenodd" d="M82.4399 16.8237C81.1824 16.8237 80.0646 17.4492 79.372 18.4556H79.328L79.6133 17.116H76.3481L73.9415 28.4367H77.3295L78.9071 21.0293C79.1442 19.9199 79.8148 19.4168 80.4635 19.4168C81.0901 19.4168 81.3442 19.8998 81.1739 20.7163L79.5295 28.4367H82.9225L84.7237 19.962C85.1842 17.7853 84.3646 16.8237 82.4399 16.8237Z" fill="#006340"/>
<path fill-rule="evenodd" clip-rule="evenodd" d="M69.7995 24.8592C69.5584 25.9892 68.822 26.4069 68.112 26.4069C67.4852 26.4069 67.2441 25.8629 67.437 24.964C67.5685 24.339 67.8139 23.983 68.2216 23.7104C68.5941 23.4606 69.0587 23.4404 70.2422 22.8772C70.1457 23.3344 70.0011 23.9225 69.7995 24.8592ZM70.6454 16.8571C69.2428 16.8571 68.2391 17.0442 67.3318 17.5877C66.4201 18.1329 65.7626 19.0713 65.412 20.6186H68.4232C68.6511 19.6359 69.0412 19.0713 69.9836 19.0713C70.7375 19.0713 70.9566 19.5114 70.812 20.2C70.6279 21.0564 70.4043 21.2248 69.3217 21.4956C68.3268 21.7455 67.0294 21.9545 66.0957 22.4156C65.1622 22.8772 64.3863 23.983 64.1059 25.2988C63.5843 27.7446 64.4784 28.7496 66.3807 28.7496C67.5115 28.7496 68.6993 28.1627 69.3699 27.1581H69.4138C69.3437 27.5999 69.2867 28.0558 69.3305 28.4564H72.5875C72.2979 27.9546 72.53 26.868 72.7095 26.0115L73.9458 20.2C74.4546 17.8191 73.4242 16.8571 70.6454 16.8571Z" fill="#006340"/>
<path fill-rule="evenodd" clip-rule="evenodd" d="M100.907 19.0424C99.9023 19.0424 99.4027 20.0221 98.8243 22.7558C98.2367 25.5088 98.3204 26.4889 99.3197 26.4889C100.367 26.4889 100.775 25.5513 101.362 22.7773C101.958 19.9804 101.95 19.0424 100.907 19.0424ZM95.4363 22.7957C96.151 19.4181 97.4525 16.8308 101.354 16.8308C105.487 16.8308 105.469 19.3554 104.75 22.7357C104.031 26.1142 102.73 28.7002 98.8328 28.7002C94.6997 28.7002 94.7174 26.1768 95.4363 22.7957Z" fill="#006340"/>
<path fill-rule="evenodd" clip-rule="evenodd" d="M91.6664 21.3939C92.017 19.7441 91.7892 19.0542 90.8907 19.0542C89.7645 19.0542 89.3174 20.4748 88.8263 22.7939C88.2827 25.3422 88.1819 26.5107 89.3081 26.5107C90.3123 26.5107 90.6849 25.8217 91.149 23.8375H94.283C93.5208 27.326 91.8459 28.7259 88.7737 28.7259C84.5136 28.7259 84.8159 25.7393 85.5305 22.3766C86.2012 19.2011 87.6255 16.8399 91.303 16.8399C94.8528 16.8399 95.3745 18.6996 94.8003 21.3939H91.6664Z" fill="#006340"/>
<path fill-rule="evenodd" clip-rule="evenodd" d="M48.3048 36.2319C48.2128 36.6619 47.8271 36.8363 47.5553 36.8363C47.2836 36.8363 47.2266 36.5878 47.2923 36.2902C47.3668 35.94 47.5684 35.7441 47.9936 35.6586C48.1251 35.6279 48.3092 35.5622 48.467 35.4583L48.3048 36.2319ZM48.445 33.3982C47.6868 33.3982 47.0074 33.7046 46.8146 34.6067L46.7926 34.7018H47.6956L47.7175 34.5935C47.7832 34.2853 47.9892 34.0846 48.2917 34.0846C48.6291 34.0846 48.7256 34.2648 48.6599 34.5637C48.6029 34.8258 48.4758 34.9424 48.1602 35.0209L47.5597 35.176C46.8234 35.3641 46.4639 35.6647 46.3061 36.4007C46.1966 36.9236 46.3193 37.5223 47.0162 37.5223C47.4983 37.5223 47.8051 37.4215 48.1251 37.0121H48.1382C48.1382 37.1418 48.1382 37.2957 48.1733 37.4215H49.1376C49.0806 37.1935 49.0982 37.0261 49.1771 36.6619L49.611 34.5992C49.7644 33.8944 49.6416 33.3982 48.445 33.3982ZM46.2316 34.9104C46.4288 33.9891 46.0695 33.3982 45.149 33.3982C44.2242 33.3982 43.4615 33.8488 43.1196 35.4583C42.7821 37.0344 43.181 37.5223 44.1803 37.5223C45.2498 37.5223 45.7977 36.9459 46.0125 35.9168H45.057C44.9211 36.554 44.7063 36.8363 44.3732 36.8363C43.9174 36.8363 43.9174 36.4344 44.1234 35.4684C44.3162 34.5637 44.4915 34.1254 44.9825 34.1254C45.3638 34.1254 45.3506 34.5334 45.2717 34.9104H46.2316ZM41.1341 37.4215H42.1422L42.975 33.4995H41.9713L41.1341 37.4215ZM43.2599 32.1587H42.2562L42.0721 33.0182H43.0758L43.2599 32.1587ZM41.5899 33.4118C41.5286 33.4043 41.4672 33.3982 41.4102 33.3982C40.9939 33.3982 40.6607 33.6454 40.3715 34.0215H40.3539L40.4678 33.4995H39.508L38.6752 37.4215H39.6789L40.183 35.0651C40.2926 34.5413 40.7221 34.3582 41.0727 34.3582C41.1735 34.3582 41.2831 34.3673 41.384 34.3735L41.5899 33.4118ZM37.6978 35.0143H36.6721L36.7028 34.8613C36.7817 34.498 36.9833 34.0846 37.3866 34.0846C37.8029 34.0846 37.8029 34.4178 37.6978 35.0143ZM37.5707 33.3982C36.2119 33.3982 35.8043 34.3735 35.5763 35.4206C35.3704 36.4007 35.1906 37.5223 36.6502 37.5223C37.5926 37.5223 38.1405 37.0121 38.3727 36.0986H37.4698C37.3076 36.5852 37.1148 36.8363 36.7773 36.8363C36.4047 36.8363 36.3785 36.384 36.4792 35.926L36.545 35.6117H38.535L38.5832 35.3873C38.8374 34.1819 38.7453 33.3982 37.5707 33.3982ZM34.5069 33.3982C34.0335 33.3982 33.6215 33.6095 33.3848 34.0215H33.3673C33.3454 33.6231 33.0561 33.3982 32.6002 33.3982C32.1751 33.3982 31.8288 33.5442 31.5001 33.9006H31.4869L31.5746 33.4995H30.6104L29.7775 37.4215H30.7812L31.3292 34.8398C31.4256 34.3866 31.6754 34.1666 31.9998 34.1666C32.2847 34.1666 32.3504 34.3538 32.2847 34.6816L31.7017 37.4215H32.7098L33.2533 34.8398C33.3498 34.3866 33.5996 34.1666 33.9196 34.1666C34.2044 34.1666 34.2746 34.3538 34.2088 34.6816L33.6215 37.4215H34.6296L35.2345 34.5699C35.3923 33.8138 35.1731 33.3982 34.5069 33.3982ZM28.6467 35.4583C28.4407 36.4344 28.2259 36.8363 27.8183 36.8363C27.3231 36.8363 27.4019 36.2591 27.5685 35.4583C27.7394 34.6571 27.906 34.0846 28.4013 34.0846C28.8089 34.0846 28.8527 34.4848 28.6467 35.4583ZM28.5459 33.3982C27.3975 33.3982 26.8496 34.1171 26.5648 35.4583C26.2754 36.8245 26.4552 37.5433 27.6693 37.5223C28.822 37.5223 29.3699 36.8013 29.6548 35.4583C29.9441 34.0974 29.7644 33.3759 28.5459 33.3982ZM26.7664 33.4118C26.7094 33.4043 26.648 33.3982 26.5867 33.3982C26.1703 33.3982 25.8328 33.6454 25.5523 34.0215H25.5347L25.6487 33.4995H24.6844L23.8516 37.4215H24.8554L25.3594 35.0651C25.469 34.5413 25.9029 34.3582 26.2492 34.3582C26.3543 34.3582 26.4595 34.3673 26.5604 34.3735L26.7664 33.4118ZM23.1109 33.855C23.0013 34.3853 22.6638 34.6351 22.2474 34.6351H21.7828L22.1159 33.0542H22.5542C23.0802 33.0542 23.2205 33.3461 23.1109 33.855ZM23.1328 32.2161H21.2963L20.1874 37.4215H21.2393L21.682 35.3425H22.243C23.2336 35.3425 24.0006 34.8539 24.2286 33.7774C24.3951 32.9963 24.1979 32.2161 23.1328 32.2161ZM17.1938 35.4583C16.9877 36.4344 16.7686 36.8363 16.361 36.8363C15.8657 36.8363 15.9446 36.2591 16.1155 35.4583C16.282 34.6571 16.453 34.0846 16.9483 34.0846C17.3559 34.0846 17.3997 34.4848 17.1938 35.4583ZM17.0929 33.3982C15.9402 33.3982 15.3923 34.1171 15.1118 35.4583C14.8181 36.8245 15.0022 37.5433 16.2163 37.5223C17.3691 37.5223 17.9169 36.8013 18.1975 35.4583C18.4911 34.0974 18.307 33.3759 17.0929 33.3982ZM13.6566 35.4583C13.4769 36.3139 13.2972 36.7491 12.8588 36.7491C12.4162 36.7491 12.4205 36.3139 12.6046 35.4583C12.7843 34.6067 12.9641 34.1666 13.4111 34.1666C13.8451 34.1666 13.8407 34.6067 13.6566 35.4583ZM13.8977 33.3982C13.5076 33.3982 13.1964 33.5481 12.9027 33.9141H12.8852L12.9728 33.4995H12.0129L10.9084 38.7017H11.9121L12.2628 37.0529H12.2803C12.4205 37.3667 12.6441 37.5223 13.0211 37.5223C13.8494 37.5223 14.3535 36.9165 14.6647 35.4583C14.9715 34.0023 14.7217 33.3982 13.8977 33.3982ZM10.3386 33.4995L9.78636 36.0986C9.68991 36.5374 9.45757 36.7491 9.11131 36.7491C8.81765 36.7491 8.71688 36.5979 8.80012 36.2017L9.37432 33.4995H8.37062L7.75258 36.4064C7.59041 37.1786 7.88407 37.5223 8.51086 37.5223C8.93602 37.5223 9.33926 37.347 9.63293 36.9604H9.64606L9.54528 37.4215H10.5095L11.3423 33.4995H10.3386ZM7.95419 33.4118C7.8972 33.4043 7.83148 33.3982 7.7745 33.3982C7.35811 33.3982 7.02061 33.6454 6.7357 34.0215H6.72255L6.83214 33.4995H5.87224L5.03946 37.4215H6.04318L6.54724 35.0651C6.65681 34.5413 7.08636 34.3582 7.437 34.3582C7.5422 34.3582 7.64739 34.3673 7.74819 34.3735L7.95419 33.4118ZM3.19418 35.3873H3.8867L3.77713 35.9168C3.65441 36.4809 3.19856 36.7491 2.94872 36.7491C2.34386 36.7491 2.39646 35.961 2.66382 34.7088C2.93558 33.4118 3.25116 32.8876 3.76398 32.8876C4.18476 32.8876 4.25489 33.3759 4.17599 33.7603H5.17972C5.40764 32.7057 5.06576 32.1144 3.91301 32.1144C2.57178 32.1144 1.9713 33.0112 1.60312 34.7614C1.22179 36.5593 1.27001 37.5223 2.55864 37.5223C3.04954 37.5223 3.44402 37.347 3.77713 36.938H3.79028L3.68946 37.4215H4.46089L5.05698 34.6141H3.36073L3.19418 35.3873Z" fill="#006340"/>
<path fill-rule="evenodd" clip-rule="evenodd" d="M130.72 12.4774C125.127 17.9681 120.134 24.029 115.642 30.4523L115.646 30.4554C123.646 23.506 132.346 17.3684 141.704 12.3923V12.3809C138.044 12.2402 134.38 12.2687 130.72 12.4774Z" fill="#62B447"/>
<path fill-rule="evenodd" clip-rule="evenodd" d="M135.515 32.9158L135.519 32.9114C134.327 28.477 133.148 24.0379 131.982 19.5912C129.094 21.4562 126.275 23.4102 123.514 25.4597C127.555 27.8813 131.548 30.3744 135.515 32.9158ZM112.363 34.0755H112.372C117.224 26.0957 122.847 18.5945 129.383 11.9112C128.594 9.87129 126.972 5.79327 126.972 5.79327C124.759 8.29204 122.804 10.9956 120.998 13.802C117.514 14.6006 114.077 15.6004 110.75 16.9123C110.75 16.9123 114.976 19.7801 117.049 21.2598C115.292 25.3195 112.53 33.5803 112.363 34.0755Z" fill="#006340"/>
</svg>
