<svg width="56" height="56" viewBox="0 0 56 56" fill="none" xmlns="http://www.w3.org/2000/svg">
<g id="Group 1">
<path id="Vector" d="M55.1619 34.7711C51.4218 49.7728 36.2275 58.9026 21.224 55.1616C6.2267 51.4215 -2.90316 36.2264 0.838741 21.2255C4.57714 6.22205 19.7714 -2.90866 34.7705 0.831485C49.7731 4.57163 58.9021 19.7685 55.1619 34.7711Z" fill="#F7931A"/>
<path id="Vector_2" d="M40.3466 24.0075C40.9041 20.2813 38.067 18.2783 34.1877 16.942L35.4461 11.8944L32.3737 11.1287L31.1485 16.0433C30.3408 15.842 29.5112 15.6521 28.6869 15.464L29.9208 10.517L26.8501 9.75134L25.5908 14.7971C24.9222 14.6449 24.2659 14.4944 23.6288 14.336L23.6323 14.3202L19.3952 13.2622L18.5778 16.5438C18.5778 16.5438 20.8574 17.0662 20.8093 17.0986C22.0537 17.4093 22.2786 18.2327 22.2409 18.8856L20.8075 24.6358C20.8933 24.6577 21.0045 24.6892 21.127 24.7382C21.0246 24.7128 20.9152 24.6848 20.8023 24.6577L18.7931 32.7129C18.6408 33.091 18.2549 33.658 17.3851 33.4427C17.4157 33.4874 15.1518 32.8853 15.1518 32.8853L13.6265 36.4023L17.6248 37.399C18.3687 37.5854 19.0976 37.7806 19.8152 37.9643L18.5437 43.0696L21.6126 43.8353L22.8719 38.7843C23.7102 39.0118 24.5241 39.2219 25.3204 39.4196L24.0655 44.447L27.138 45.2127L28.4095 40.1171C33.6487 41.1086 37.5883 40.7086 39.2466 35.97C40.5829 32.1546 39.1801 29.9537 36.4236 28.5186C38.431 28.0557 39.9432 26.7352 40.3466 24.0075ZM33.3266 33.8514C32.3771 37.6668 25.9531 35.6042 23.8704 35.087L25.5576 28.3234C27.6403 28.8432 34.319 29.8724 33.3266 33.8514ZM34.277 23.9523C33.4106 27.423 28.0638 25.6597 26.3294 25.2274L27.8591 19.093C29.5935 19.5253 35.1792 20.3321 34.277 23.9523Z" fill="white"/>
</g>
</svg>
