<svg width="48" height="49" viewBox="0 0 48 49" fill="none" xmlns="http://www.w3.org/2000/svg">
<g clip-path="url(#clip0_216_2343)">
<mask id="mask0_216_2343" style="mask-type:alpha" maskUnits="userSpaceOnUse" x="0" y="1" width="48" height="48">
<path d="M24.1568 48.5599C37.2752 48.5599 47.9097 37.9254 47.9097 24.8071C47.9097 11.6887 37.2752 1.0542 24.1568 1.0542C11.0385 1.0542 0.403931 11.6887 0.403931 24.8071C0.403931 37.9254 11.0385 48.5599 24.1568 48.5599Z" fill="#606060"/>
</mask>
<g mask="url(#mask0_216_2343)">
<path d="M42.0498 42.6982C51.9309 32.8171 51.9309 16.7967 42.0498 6.91554C32.1686 -2.96557 16.1482 -2.96557 6.26707 6.91554C-3.61404 16.7967 -3.61404 32.8171 6.26708 42.6982C16.1482 52.5793 32.1686 52.5793 42.0498 42.6982Z" fill="white"/>
<path d="M24.1569 48.5599C37.2753 48.5599 47.9098 37.9254 47.9098 24.8071C47.9098 11.6887 37.2753 1.0542 24.1569 1.0542C11.0386 1.0542 0.404053 11.6887 0.404053 24.8071C0.404053 37.9254 11.0386 48.5599 24.1569 48.5599Z" fill="#606060"/>
<mask id="mask1_216_2343" style="mask-type:luminance" maskUnits="userSpaceOnUse" x="0" y="1" width="48" height="48">
<path d="M24.1569 48.5599C37.2753 48.5599 47.9098 37.9254 47.9098 24.8071C47.9098 11.6887 37.2753 1.0542 24.1569 1.0542C11.0386 1.0542 0.404053 11.6887 0.404053 24.8071C0.404053 37.9254 11.0386 48.5599 24.1569 48.5599Z" fill="white"/>
</mask>
<g mask="url(#mask1_216_2343)">
<path d="M64.0016 1.04004H-15.6831V24.7739H64.0016V1.04004Z" fill="#FFD41F"/>
<path d="M64.0016 24.7737H-15.6831V36.6596H64.0016V24.7737Z" fill="#3358AA"/>
<path d="M64.0016 36.6313H-15.6831V48.5173H64.0016V36.6313Z" fill="#F94351"/>
</g>
</g>
<path d="M28.2915 33.8559L24.7081 29.8306L24.1663 30.0587L23.6245 29.8306L20.0459 33.8607H22.3794L24.1663 30.2535L25.958 33.8559H28.2915Z" fill="#FFA522"/>
<path d="M24.461 29.8115L24.1663 29.8638L23.8669 29.8115L22.9972 34.9299H24.1378H24.2043H25.3449L24.461 29.8115Z" fill="#F94351"/>
<path d="M22.6313 21.0432L14.7327 15.7537L14.7469 28.4713C14.7469 29.7069 15.2744 30.8808 16.1917 31.703C17.6317 32.9956 19.756 33.181 21.3956 32.1545L26.4143 29.0226L22.6313 21.0337V21.0432Z" fill="#FFD41F"/>
<path d="M22.5172 30.1346L25.9295 28.0055L22.6313 21.0431L16.5006 16.937L16.5101 26.8031C16.5101 27.92 16.9854 28.9798 17.817 29.7259C19.1192 30.895 21.0345 31.0614 22.522 30.1346H22.5172Z" fill="#3358AA"/>
<path d="M25.9295 28.0055L22.6313 21.0431L18.3778 18.1964L18.3873 26.1806C18.3873 27.2974 18.8626 28.3572 19.6943 29.1033C20.5069 29.8305 21.5525 30.1679 22.5885 30.0966L25.9343 28.0103L25.9295 28.0055Z" fill="#F94351"/>
<path d="M25.6824 21.043L33.5715 15.7393L33.5857 28.4569C33.5857 29.6925 33.0629 30.8664 32.1457 31.6933C30.7057 32.9907 28.5861 33.1761 26.9418 32.1543L24.1616 30.4244L21.9184 29.0319L25.6871 21.0383L25.6824 21.043Z" fill="#FFD41F"/>
<path d="M25.8154 30.1299L22.3984 28.0103L25.6823 21.0431L31.8083 16.9275L31.8178 26.7936C31.8178 27.9105 31.3473 28.9703 30.5156 29.7164C29.2182 30.8855 27.2982 31.0566 25.8154 30.1346V30.1299Z" fill="#3358AA"/>
<path d="M22.3984 28.0103L25.6823 21.0431L29.931 18.1869L29.9405 26.171C29.9405 27.2879 29.4701 28.3477 28.6384 29.0938C27.8304 29.8209 26.7801 30.1631 25.7441 30.0918L22.3936 28.0103H22.3984Z" fill="#F94351"/>
<path d="M29.3798 24.1512C29.3798 27.7679 27.0463 30.7001 24.1663 30.7001C21.2816 30.7001 18.9434 27.7726 18.9386 24.1607C18.9386 20.5441 21.2721 17.6118 24.1521 17.6118C27.0368 17.6118 29.375 20.5393 29.3798 24.1512Z" fill="white"/>
<path d="M24.1664 29.5501C21.9232 29.5501 20.0935 27.1358 20.0887 24.1608C20.0887 21.1857 21.9089 18.7667 24.1521 18.762C26.3953 18.762 28.225 21.1762 28.225 24.1513C28.225 27.1263 26.4048 29.5453 24.1616 29.5501H24.1664Z" fill="#6CA8FF"/>
<path d="M28.2297 24.1512C28.2297 23.809 28.2012 23.4764 28.1537 23.1532C28.1204 23.1009 28.0967 23.0487 28.0634 22.9964C26.5046 20.6106 24.3517 23.3623 23.9715 22.9346C23.6246 22.5496 22.8024 22.3643 20.2266 22.8538C20.1458 23.272 20.0935 23.7045 20.0935 24.156C20.0935 25.5722 20.5212 26.8554 21.1961 27.8154H27.1367C27.8115 26.8459 28.2345 25.5627 28.2345 24.1465L28.2297 24.1512Z" fill="#337036"/>
<path d="M31.1905 16.4807C28.9331 14.8601 26.3573 15.3591 26.3573 15.3591L24.6036 16.7231C24.4848 16.5757 24.3279 16.4759 24.1569 16.4759C23.981 16.4759 23.8289 16.5757 23.7101 16.7231L21.9517 15.3639C21.9517 15.3639 19.3711 14.8744 17.1184 16.4949L23.6246 17.9587C23.7481 18.1868 23.9382 18.3484 24.1569 18.3484C24.3802 18.3484 24.5656 18.1916 24.6891 17.9587L31.1905 16.4807Z" fill="#753C04"/>
<path d="M20.1885 23.3767C20.16 23.6333 20.1267 23.8947 20.1315 24.1609C20.1315 27.1359 21.9612 29.5549 24.2091 29.5502C26.1957 29.5502 27.8448 27.6492 28.1965 25.1541L20.1933 23.3767H20.1885Z" fill="#34A53C"/>
<path d="M24.9885 20.4823C24.9885 20.9433 24.6178 21.314 24.1568 21.314C23.6958 21.314 23.3251 20.9433 23.3251 20.4823C23.3251 20.0213 23.6958 19.6506 24.1568 19.6506C24.6178 19.6506 24.9885 20.0213 24.9885 20.4823Z" fill="#FFD41F"/>
</g>
<defs>
<clipPath id="clip0_216_2343">
<rect width="48" height="48" fill="white" transform="translate(0 0.930664)"/>
</clipPath>
</defs>
</svg>
