<svg width="32" height="32" viewBox="0 0 32 32" fill="none" xmlns="http://www.w3.org/2000/svg">
<g clip-path="url(#clip0_216_2187)">
<mask id="mask0_216_2187" style="mask-type:alpha" maskUnits="userSpaceOnUse" x="0" y="0" width="32" height="32">
<path d="M16.1045 31.7529C24.8501 31.7529 31.9398 24.6632 31.9398 15.9176C31.9398 7.17206 24.8501 0.0823765 16.1045 0.0823765C7.35897 0.0823765 0.269287 7.17206 0.269287 15.9176C0.269287 24.6632 7.35897 31.7529 16.1045 31.7529Z" fill="#606060"/>
</mask>
<g mask="url(#mask0_216_2187)">
<path d="M28.0332 27.8451C34.6206 21.2577 34.6206 10.5773 28.0332 3.98994C21.4458 -2.59747 10.7655 -2.59747 4.17805 3.98994C-2.40936 10.5773 -2.40936 21.2576 4.17805 27.8451C10.7655 34.4325 21.4458 34.4325 28.0332 27.8451Z" fill="white"/>
<path d="M16.1046 31.7529C24.8502 31.7529 31.9398 24.6632 31.9398 15.9176C31.9398 7.17206 24.8502 0.0823746 16.1046 0.0823746C7.35903 0.0823746 0.269348 7.17206 0.269348 15.9176C0.269348 24.6632 7.35903 31.7529 16.1046 31.7529Z" fill="#606060"/>
<mask id="mask1_216_2187" style="mask-type:luminance" maskUnits="userSpaceOnUse" x="0" y="0" width="32" height="32">
<path d="M16.1046 31.7529C24.8502 31.7529 31.9398 24.6632 31.9398 15.9176C31.9398 7.17206 24.8502 0.0823746 16.1046 0.0823746C7.35903 0.0823746 0.269348 7.17206 0.269348 15.9176C0.269348 24.6632 7.35903 31.7529 16.1046 31.7529Z" fill="white"/>
</mask>
<g mask="url(#mask1_216_2187)">
<path d="M42.6678 0.0728722H-10.4554V15.8954H42.6678V0.0728722Z" fill="#FFD41F"/>
<path d="M42.6678 15.8954H-10.4554V23.8194H42.6678V15.8954Z" fill="#3358AA"/>
<path d="M42.6678 23.8004H-10.4554V31.7244H42.6678V23.8004Z" fill="#F94351"/>
</g>
</g>
<path d="M18.8609 21.9501L16.472 19.2665L16.1108 19.4186L15.7496 19.2665L13.3639 21.9533H14.9195L16.1108 19.5485L17.3053 21.9501H18.8609Z" fill="#FFA522"/>
<path d="M16.3073 19.2539L16.1108 19.2887L15.9112 19.2539L15.3314 22.6661H16.0918H16.1362H16.8966L16.3073 19.2539Z" fill="#F94351"/>
<path d="M15.0875 13.4083L9.82178 9.88198L9.83128 18.3604C9.83128 19.1842 10.183 19.9667 10.7945 20.5149C11.7545 21.3766 13.1707 21.5002 14.2638 20.8158L17.6095 18.7279L15.0875 13.402V13.4083Z" fill="#FFD41F"/>
<path d="M15.0115 19.4693L17.2863 18.0499L15.0875 13.4083L11.0004 10.6709L11.0067 17.2483C11.0067 17.9929 11.3235 18.6994 11.878 19.1968C12.7461 19.9762 14.0229 20.0871 15.0146 19.4693H15.0115Z" fill="#3358AA"/>
<path d="M17.2863 18.0499L15.0875 13.4083L12.2519 11.5105L12.2582 16.8333C12.2582 17.5778 12.5751 18.2844 13.1295 18.7818C13.6713 19.2665 14.3683 19.4915 15.059 19.444L17.2895 18.0531L17.2863 18.0499Z" fill="#F94351"/>
<path d="M17.1216 13.4083L22.381 9.87248L22.3905 18.3509C22.3905 19.1747 22.042 19.9572 21.4305 20.5085C20.4705 21.3735 19.0575 21.497 17.9612 20.8158L16.1077 19.6626L14.6123 18.7343L17.1248 13.4052L17.1216 13.4083Z" fill="#FFD41F"/>
<path d="M17.2103 19.4661L14.9323 18.0531L17.1216 13.4083L21.2055 10.6646L21.2119 17.242C21.2119 17.9865 20.8982 18.6931 20.3437 19.1905C19.4788 19.9699 18.1988 20.084 17.2103 19.4693V19.4661Z" fill="#3358AA"/>
<path d="M14.9322 18.0531L17.1216 13.4083L19.954 11.5042L19.9604 16.8269C19.9604 17.5715 19.6467 18.278 19.0922 18.7755C18.5536 19.2602 17.8534 19.4883 17.1627 19.4408L14.9291 18.0531H14.9322Z" fill="#F94351"/>
<path d="M19.5865 15.4804C19.5865 17.8915 18.0309 19.8463 16.1109 19.8463C14.1877 19.8463 12.6289 17.8947 12.6257 15.4867C12.6257 13.0756 14.1814 11.1208 16.1014 11.1208C18.0245 11.1208 19.5834 13.0725 19.5865 15.4804Z" fill="white"/>
<path d="M16.1109 19.0796C14.6154 19.0796 13.3956 17.4701 13.3925 15.4867C13.3925 13.5034 14.6059 11.8907 16.1014 11.8875C17.5968 11.8875 18.8166 13.497 18.8166 15.4804C18.8166 17.4638 17.6031 19.0764 16.1077 19.0796H16.1109Z" fill="#6CA8FF"/>
<path d="M18.8198 15.4804C18.8198 15.2523 18.8008 15.0305 18.7691 14.815C18.7469 14.7802 18.7311 14.7453 18.7089 14.7105C17.6697 13.12 16.2344 14.9545 15.981 14.6693C15.7497 14.4127 15.2016 14.2891 13.4843 14.6154C13.4305 14.8943 13.3956 15.1826 13.3956 15.4836C13.3956 16.4277 13.6808 17.2832 14.1307 17.9232H18.0911C18.541 17.2768 18.823 16.4214 18.823 15.4772L18.8198 15.4804Z" fill="#337036"/>
<path d="M20.7937 10.3667C19.2887 9.28634 17.5715 9.61901 17.5715 9.61901L16.4024 10.5283C16.3232 10.4301 16.2186 10.3636 16.1046 10.3636C15.9873 10.3636 15.886 10.4301 15.8067 10.5283L14.6345 9.62218C14.6345 9.62218 12.9141 9.29584 11.4123 10.3762L15.7497 11.3521C15.8321 11.5042 15.9588 11.6119 16.1046 11.6119C16.2535 11.6119 16.377 11.5073 16.4594 11.3521L20.7937 10.3667Z" fill="#753C04"/>
<path d="M13.459 14.964C13.44 15.135 13.4178 15.3093 13.421 15.4867C13.421 17.4701 14.6408 19.0828 16.1394 19.0796C17.4637 19.0796 18.5631 17.8123 18.7976 16.1489L13.4621 14.964H13.459Z" fill="#34A53C"/>
<path d="M16.659 13.0345C16.659 13.3418 16.4119 13.5889 16.1046 13.5889C15.7972 13.5889 15.5501 13.3418 15.5501 13.0345C15.5501 12.7271 15.7972 12.48 16.1046 12.48C16.4119 12.48 16.659 12.7271 16.659 13.0345Z" fill="#FFD41F"/>
</g>
<defs>
<clipPath id="clip0_216_2187">
<rect width="32" height="32" fill="white"/>
</clipPath>
</defs>
</svg>
