<svg width="32" height="32" viewBox="0 0 32 32" fill="none" xmlns="http://www.w3.org/2000/svg">
<rect width="32" height="32" rx="16" fill="#E5EDFC"/>
<path d="M15.937 26.625C18.5146 26.625 20.6042 24.5355 20.6042 21.9579C20.6042 19.3803 18.5146 17.2908 15.937 17.2908C13.3594 17.2908 11.2699 19.3803 11.2699 21.9579C11.2699 24.5355 13.3594 26.625 15.937 26.625Z" fill="#6E22BF"/>
<path d="M9.66713 17.7779C12.2447 17.7779 14.3343 15.6883 14.3343 13.1107C14.3343 10.5331 12.2447 8.4436 9.66713 8.4436C7.08954 8.4436 5 10.5331 5 13.1107C5 15.6883 7.08954 17.7779 9.66713 17.7779Z" fill="#8F2CF8"/>
<path d="M27 13.1107C27 15.6879 24.91 17.7779 22.3329 17.7779C19.7558 17.7779 17.6658 15.6879 17.6658 13.1107C17.6658 10.5336 19.7558 8.4436 22.3329 8.4436C24.91 8.4436 27 10.5336 27 13.1107Z" fill="#8F2CF8"/>
<path d="M15.9371 7.375V10.895C15.9371 14.4307 13.0771 17.2907 9.54138 17.2907" stroke="#8F2CF8" stroke-width="0.708209" stroke-miterlimit="10"/>
<path d="M15.9371 7.375C15.9371 10.8007 15.9371 9.55928 15.9371 10.895C15.9371 14.4307 18.7971 17.2907 22.3328 17.2907" stroke="#8F2CF8" stroke-width="0.708209" stroke-miterlimit="10"/>
</svg>
