<svg width="32" height="32" viewBox="0 0 32 32" fill="none" xmlns="http://www.w3.org/2000/svg">
<g clip-path="url(#clip0_15342_187078)">
<path d="M32 16C32 7.16344 24.8366 0 16 0C7.16344 0 0 7.16344 0 16C0 24.8366 7.16344 32 16 32C24.8366 32 32 24.8366 32 16Z" fill="white"/>
<path d="M15.2298 24.8581C15.6645 23.8241 15.7194 16.7422 15.7194 16.7422C15.7194 16.7422 10.7013 21.7434 10.2708 22.7732C9.83609 23.8072 10.3003 24.9847 11.9674 25.6811C13.6345 26.3817 14.7993 25.8836 15.234 24.8539L15.2298 24.8581Z" fill="#B2D61A"/>
<path d="M15.3053 7.16928C15.7274 8.20329 15.7189 15.2894 15.7189 15.2894C15.7189 15.2894 10.7515 10.2418 10.3252 9.20775C9.90319 8.16953 10.3759 6.99625 12.0472 6.31254C13.7185 5.62882 14.8791 6.13528 15.3053 7.16928Z" fill="#B2D61A"/>
<path d="M21.6984 22.8238C21.2764 21.7856 16.3047 16.7422 16.3047 16.7422C16.3047 16.7422 16.2921 23.8241 16.7183 24.8623C17.1404 25.8963 18.3052 26.4028 19.9765 25.719C21.6478 25.0353 22.1247 23.8621 21.6984 22.8238Z" fill="#B2D61A"/>
<path d="M9.26263 10.2672C10.2966 10.7019 15.2936 15.7158 15.2936 15.7158C15.2936 15.7158 8.21175 15.6609 7.17774 15.2262C6.14373 14.7915 5.64994 13.6267 6.35053 11.9596C7.05113 10.2925 8.22863 9.82828 9.25841 10.263L9.26263 10.2672Z" fill="#B2D61A"/>
<path d="M24.8503 16.8099C23.8163 16.3752 16.7344 16.3203 16.7344 16.3203C16.7344 16.3203 21.7356 21.3384 22.7654 21.7689C23.7994 22.2036 24.9769 21.7393 25.6732 20.0723C26.3738 18.4052 25.8758 17.2404 24.846 16.8057L24.8503 16.8099Z" fill="#B2D61A"/>
<path d="M7.16928 16.7261C8.20751 16.3041 15.2894 16.3125 15.2894 16.3125C15.2894 16.3125 10.2418 21.28 9.20775 21.7062C8.17374 22.1283 6.99624 21.6556 6.31253 19.9843C5.62883 18.313 6.13528 17.1524 7.16928 16.7261Z" fill="#B2D61A"/>
</g>
<defs>
<clipPath id="clip0_15342_187078">
<rect width="32" height="32" fill="white"/>
</clipPath>
</defs>
</svg>
