<svg width="360" height="390" viewBox="0 0 360 390" fill="none" xmlns="http://www.w3.org/2000/svg">
<g clip-path="url(#clip0_435_1803)">
<g opacity="0.7">
<path d="M283.549 374.724C283.158 374.962 282.76 375.194 282.362 375.426C281.993 375.635 281.624 375.845 281.254 376.048C280.871 376.265 280.487 376.475 280.097 376.685C279.706 376.895 279.315 377.097 278.924 377.3C278.533 377.503 278.143 377.705 277.752 377.901C277.354 378.096 276.963 378.291 276.565 378.487L275.371 379.051C274.973 379.232 274.575 379.413 274.17 379.594C273.692 379.811 273.207 380.021 272.722 380.224C272.237 380.433 271.752 380.636 271.268 380.831C270.291 381.23 269.306 381.613 268.322 381.975C267.939 382.12 267.555 382.257 267.172 382.395C267.02 382.445 266.868 382.503 266.716 382.554C265.261 383.068 263.799 383.538 262.316 383.987C261.31 384.291 260.289 384.58 259.269 384.855C258.755 384.993 258.248 385.123 257.735 385.253C257.134 385.405 256.533 385.557 255.933 385.695C255.498 385.796 255.072 385.897 254.645 385.991C252.546 386.462 250.425 386.874 248.298 387.236C247.806 387.323 247.314 387.403 246.814 387.475C246.293 387.562 245.765 387.641 245.237 387.714C244.18 387.866 243.123 388.003 242.067 388.133C241.539 388.191 241.01 388.257 240.482 388.307C240.106 388.351 239.729 388.387 239.353 388.423C239.107 388.452 238.861 388.474 238.622 388.495C237.66 388.589 236.704 388.669 235.742 388.734C233.491 388.901 231.24 389.016 228.997 389.074C228.686 389.089 228.375 389.096 228.064 389.103C227.528 389.11 226.992 389.125 226.457 389.125C225.82 389.132 225.183 389.139 224.546 389.139C222.99 389.139 221.435 389.118 219.886 389.074C218.764 389.045 217.65 389.002 216.535 388.951C216.318 388.944 216.108 388.93 215.891 388.915C214.053 388.828 212.222 388.705 210.398 388.56C209.154 388.459 207.916 388.343 206.671 388.228L206.519 388.206C205.94 388.148 205.354 388.083 204.775 388.025C204.03 387.938 203.292 387.851 202.554 387.764C202.025 387.699 201.504 387.634 200.976 387.562C200.375 387.482 199.775 387.403 199.167 387.316C196.959 387.005 194.759 386.657 192.567 386.274C192.024 386.18 191.481 386.078 190.938 385.977C189.925 385.796 188.919 385.601 187.921 385.398C187.443 385.304 186.973 385.21 186.495 385.108C184.367 384.667 182.254 384.197 180.148 383.683C179.548 383.545 178.954 383.393 178.361 383.249C177.767 383.097 177.174 382.952 176.573 382.793C172.246 381.678 167.954 380.419 163.699 379.037C163.243 378.892 162.787 378.74 162.331 378.588C161.202 378.219 160.08 377.835 158.959 377.445C157.989 377.104 157.026 376.764 156.064 376.417C154.573 375.874 153.09 375.317 151.613 374.753C150.6 374.362 149.587 373.964 148.581 373.558C147.438 373.103 146.301 372.639 145.158 372.162C144.167 371.749 143.175 371.329 142.191 370.903C141.822 370.736 141.445 370.577 141.069 370.41C140.172 370.02 139.267 369.614 138.37 369.209C137.328 368.739 136.278 368.261 135.236 367.769C135.084 367.697 134.925 367.624 134.766 367.552C133.731 367.067 132.696 366.568 131.661 366.068C130.771 365.641 129.881 365.2 128.998 364.758C127.674 364.1 126.357 363.427 125.039 362.747C123.939 362.182 122.847 361.603 121.754 361.017C120.791 360.503 119.829 359.982 118.866 359.454C118.736 359.381 118.599 359.309 118.468 359.237C117.484 358.694 116.507 358.151 115.537 357.601C114.799 357.181 114.061 356.762 113.33 356.335C112.614 355.922 111.897 355.51 111.188 355.09C110.508 354.692 109.82 354.287 109.147 353.881C107.989 353.187 106.839 352.492 105.688 351.783C98.7045 347.484 91.8946 342.918 85.2874 338.148C74.1643 330.123 63.3741 321.265 53.4886 311.582C52.8083 310.916 52.1353 310.25 51.4622 309.577C48.0754 306.176 44.7971 302.681 41.6708 299.084C33.4135 289.618 26.1332 279.472 20.2713 268.667C15.9003 260.613 12.3253 252.189 9.71999 243.403C9.14104 241.457 8.61275 239.503 8.14236 237.527C7.74433 235.906 7.38972 234.285 7.06406 232.642C5.73972 225.919 5.04498 219.124 4.93642 212.328C4.90024 210.193 4.92195 208.059 5.00879 205.924C5.52261 192.434 8.30157 179.024 12.9983 166.222C20.3437 146.191 32.3714 127.657 47.757 112.662C79.4689 81.7463 105.413 67.2291 149.978 64.1535C149.978 64.1535 186.068 56.8153 208.119 102.27C216 118.502 220.863 136.262 231.089 151.177C245.048 171.527 267.222 184.749 285.177 201.813C309.522 224.942 326.413 256.589 327.513 289.842C328.62 323.096 312.453 357.391 283.549 374.724Z" fill="white" fill-opacity="0.14"/>
</g>
<path d="M15.8422 179.618C16.0449 178.199 16.6745 176.426 18.1074 176.404C19.533 176.383 20.235 178.178 20.1554 179.603C20.0758 181.022 19.6633 182.57 20.4014 183.793C22.4857 169.783 25.5324 155.106 34.9476 144.519C35.9752 143.361 37.5456 142.174 38.9134 142.891C40.5127 143.723 40.0713 146.096 39.4199 147.783C34.2962 161.077 31.0686 175.095 29.8528 189.286C33.6377 178.807 39.7239 168.987 48.343 161.924C49.6963 160.816 51.3825 159.716 53.0831 160.143C55.1022 160.65 56.0141 163.038 56.0864 165.115C56.2457 169.529 54.1542 173.669 52.2147 177.642C44.645 193.143 38.6962 209.434 34.4989 226.165C33.6304 229.632 32.7403 233.308 30.2581 235.884C29.1219 237.064 27.3054 237.976 25.8798 237.165C25.1923 236.774 24.758 236.065 24.3745 235.378C19.685 227.113 16.9422 217.756 16.3995 208.276C15.8495 198.68 14.4817 189.25 15.8422 179.632V179.618Z" fill="#ABFA00"/>
<path opacity="0.2" d="M15.8422 179.618C16.0449 178.199 16.6745 176.426 18.1074 176.404C19.533 176.383 20.235 178.178 20.1554 179.603C20.0758 181.022 19.6633 182.57 20.4014 183.793C22.4857 169.783 25.5324 155.106 34.9476 144.519C35.9752 143.361 37.5456 142.174 38.9134 142.891C40.5127 143.723 40.0713 146.096 39.4199 147.783C34.2962 161.077 31.0686 175.095 29.8528 189.286C33.6377 178.807 39.7239 168.987 48.343 161.924C49.6963 160.816 51.3825 159.716 53.0831 160.143C55.1022 160.65 56.0141 163.038 56.0864 165.115C56.2457 169.529 54.1542 173.669 52.2147 177.642C44.645 193.143 38.6962 209.434 34.4989 226.165C33.6304 229.632 32.7403 233.308 30.2581 235.884C29.1219 237.064 27.3054 237.976 25.8798 237.165C25.1923 236.774 24.758 236.065 24.3745 235.378C19.685 227.113 16.9422 217.756 16.3995 208.276C15.8495 198.68 14.4817 189.25 15.8422 179.632V179.618Z" fill="white"/>
<path d="M0.109519 212.459C-0.143771 210.888 -0.0569285 208.804 1.45558 208.319C2.95361 207.834 4.28519 209.499 4.67598 211.026C5.05954 212.553 5.12467 214.326 6.31151 215.375C3.91611 199.874 2.324 183.352 8.80823 169.066C9.51745 167.51 10.7839 165.737 12.4701 166.041C14.4385 166.396 14.7425 169.059 14.6122 171.049C13.5556 186.789 14.7352 202.674 18.1076 218.082C18.6721 205.757 21.8853 193.375 28.6879 183.077C29.759 181.456 31.1774 179.741 33.1169 179.639C35.4182 179.516 37.1623 181.738 37.9222 183.916C39.5432 188.534 38.682 193.599 37.9366 198.434C35.0129 217.307 34.0721 236.485 35.1215 255.561C35.3386 259.52 35.5991 263.688 33.8188 267.227C33.0011 268.848 31.38 270.411 29.607 270.021C28.753 269.833 28.0655 269.225 27.4287 268.624C19.7576 261.423 13.7944 252.428 10.1036 242.579C6.36941 232.606 1.83913 223.09 0.116756 212.466L0.109519 212.459Z" fill="#ABFA00"/>
<path opacity="0.2" d="M0.109519 212.459C-0.143771 210.888 -0.0569285 208.804 1.45558 208.319C2.95361 207.834 4.28519 209.499 4.67598 211.026C5.05954 212.553 5.12467 214.326 6.31151 215.375C3.91611 199.874 2.324 183.352 8.80823 169.066C9.51745 167.51 10.7839 165.737 12.4701 166.041C14.4385 166.396 14.7425 169.059 14.6122 171.049C13.5556 186.789 14.7352 202.674 18.1076 218.082C18.6721 205.757 21.8853 193.375 28.6879 183.077C29.759 181.456 31.1774 179.741 33.1169 179.639C35.4182 179.516 37.1623 181.738 37.9222 183.916C39.5432 188.534 38.682 193.599 37.9366 198.434C35.0129 217.307 34.0721 236.485 35.1215 255.561C35.3386 259.52 35.5991 263.688 33.8188 267.227C33.0011 268.848 31.38 270.411 29.607 270.021C28.753 269.833 28.0655 269.225 27.4287 268.624C19.7576 261.423 13.7944 252.428 10.1036 242.579C6.36941 232.606 1.83913 223.09 0.116756 212.466L0.109519 212.459Z" fill="#2D0F52"/>
<path d="M42.1484 299.004C42.0905 299.076 41.924 299.105 41.6707 299.084C41.5115 299.076 41.3306 299.048 41.1207 299.004C37.6398 295.849 34.3398 292.534 31.2641 289.046C30.1424 286.455 28.7891 284.017 27.2404 281.592C24.5338 277.366 21.393 273.451 18.3101 269.499C17.5864 268.573 16.87 267.639 16.1608 266.706C15.4009 265.7 14.6483 264.687 13.9173 263.666C11.5002 260.309 9.2785 256.791 7.56337 253.014C6.68047 251.053 5.92783 248.882 6.39099 246.783C6.70218 245.444 7.69363 244.214 8.90942 243.657C9.16995 243.533 9.43772 243.447 9.71995 243.403C9.93706 243.36 10.1686 243.345 10.393 243.36H10.4002C10.639 243.367 10.8634 243.403 11.1022 243.476C12.4627 243.895 13.3311 245.191 14.091 246.399C16.0016 249.446 17.9121 252.493 19.8299 255.539C17.116 248.404 14.395 241.203 13.143 233.677C11.891 226.136 12.2022 218.154 15.3647 211.206C15.6397 210.606 16.0016 209.976 16.4502 209.484H16.4575C16.4575 209.484 16.4719 209.462 16.4792 209.455C16.9423 208.97 17.4996 208.63 18.1726 208.637C18.491 208.637 18.7805 208.717 19.0338 208.847C20.1338 209.412 20.7055 210.982 20.995 212.306C22.8187 220.672 24.6351 229.031 26.4588 237.389L27.3707 241.58C27.4792 242.072 27.5878 242.564 27.6963 243.063L27.6529 240.914C27.6384 239.749 27.6384 238.576 27.6529 237.404C27.7542 230.565 28.6154 223.712 32.5378 218.255C33.3845 217.068 34.5352 215.918 35.845 215.389C36.3878 215.165 36.9668 215.056 37.5602 215.093C37.6615 215.093 37.7628 215.107 37.8569 215.114C39.3766 215.339 40.6069 216.554 41.251 217.951C41.9023 219.341 42.0543 220.904 42.1918 222.431C42.8431 230.131 39.1378 236.108 40.5418 256.082C40.5997 256.958 40.672 257.855 40.7516 258.782C42.1773 275.007 50.5504 289.524 42.1484 299.004Z" fill="#ABFA00"/>
<path d="M54.9431 251.313C54.7549 259.382 50.051 265.063 49.595 287.295C49.4358 295.161 50.9266 302.811 51.4621 309.577C48.0753 306.176 44.797 302.68 41.6707 299.084C41.5115 299.077 41.3305 299.048 41.1207 299.004C37.6397 295.849 34.3397 292.534 31.264 289.046C30.1423 286.455 28.789 284.017 27.2404 281.592C24.5338 277.366 21.393 273.451 18.3101 269.499C18.6936 269.203 19.1134 268.971 19.562 268.826C19.7936 268.747 20.0324 268.689 20.2712 268.667C20.539 268.638 20.8068 268.646 21.0745 268.689C21.3061 268.718 21.5377 268.783 21.7693 268.884C23.0719 269.442 23.7956 270.824 24.4252 272.105C25.9884 275.347 27.566 278.575 29.1436 281.817C27.8627 276.91 26.5818 271.967 25.7351 266.974C25.3081 264.448 24.9969 261.915 24.8522 259.353C24.5121 253.332 25.1706 247.145 27.3706 241.58C27.4575 241.355 27.5515 241.131 27.6529 240.914C28.1739 239.655 28.789 238.439 29.4838 237.259C29.8239 236.688 30.2581 236.094 30.7575 235.66C30.7575 235.653 30.7719 235.638 30.7792 235.638C31.293 235.204 31.8864 234.929 32.5594 235.009C32.8706 235.038 33.1456 235.153 33.3917 235.313C34.0792 235.761 34.4845 236.63 34.716 237.563C34.8391 238.026 34.9114 238.511 34.9621 238.96C35.8739 247.47 36.7785 255.981 37.6904 264.484C37.893 266.409 38.1029 268.334 38.3055 270.252C38.472 268.399 38.6457 266.511 38.8772 264.629C39.2391 261.727 39.7312 258.832 40.5417 256.082C41.6128 252.406 43.2338 248.976 45.8029 246.117C46.7727 245.032 48.0391 244.004 49.3924 243.628C49.9569 243.461 50.5503 243.418 51.1292 243.512C51.2306 243.526 51.3319 243.548 51.4187 243.57C52.9095 243.953 54.0023 245.292 54.4944 246.754C54.9865 248.209 54.9793 249.779 54.9431 251.313Z" fill="#ABFA00"/>
<path opacity="0.2" d="M54.9431 251.313C54.7549 259.382 50.051 265.063 49.595 287.295C49.4358 295.161 50.9266 302.811 51.4621 309.577C48.0753 306.176 34.3397 292.534 31.264 289.046C30.1423 286.455 28.789 284.017 27.2404 281.592C24.5338 277.366 21.393 273.451 18.3101 269.499C18.6936 269.203 19.1134 268.971 19.562 268.826C19.7936 268.747 20.0324 268.689 20.2712 268.667C20.539 268.638 20.8068 268.646 21.0745 268.689C21.3061 268.718 21.5377 268.783 21.7693 268.884C23.0719 269.442 23.7956 270.824 24.4252 272.105C25.9884 275.347 27.566 278.575 29.1436 281.817C27.8627 276.91 26.5818 271.967 25.7351 266.974C25.3081 264.448 24.9969 261.915 24.8522 259.353C24.5121 253.332 25.1706 247.145 27.3706 241.58C27.4575 241.355 27.5515 241.131 27.6529 240.914C28.1739 239.655 28.789 238.439 29.4838 237.259C29.8239 236.688 30.2581 236.094 30.7575 235.66C30.7575 235.653 30.7719 235.638 30.7792 235.638C31.293 235.204 31.8864 234.929 32.5594 235.009C32.8706 235.038 33.1456 235.153 33.3917 235.313C34.0792 235.761 34.4845 236.63 34.716 237.563C34.8391 238.026 34.9114 238.511 34.9621 238.96C35.8739 247.47 36.7785 255.981 37.6904 264.484C37.893 266.409 38.1029 268.334 38.3055 270.252C38.472 268.399 38.6457 266.511 38.8772 264.629C39.2391 261.727 39.7312 258.832 40.5417 256.082C41.6128 252.406 43.2338 248.976 45.8029 246.117C46.7727 245.032 48.0391 244.004 49.3924 243.628C49.9569 243.461 50.5503 243.418 51.1292 243.512C51.2306 243.526 51.3319 243.548 51.4187 243.57C52.9095 243.953 54.0023 245.292 54.4944 246.754C54.9865 248.209 54.9793 249.779 54.9431 251.313Z" fill="white"/>
<path d="M285.56 194.308C285.777 199.085 282.998 205.779 278.135 204.954C277.339 204.824 276.608 204.512 275.877 204.187C276.623 200.677 274.799 196.617 276.76 193.664C277.831 192.036 280.466 189.047 282.354 188.91C284.887 188.721 285.416 191.681 285.56 194.316V194.308Z" fill="#ABFA00"/>
<path d="M279.062 208.898C277.173 212.321 274.734 214.97 269.48 214.434C268.351 214.311 267.164 213.855 266.245 213.146C265.326 212.437 264.631 211.409 264.581 210.251C264.501 208.71 265.587 207.386 266.933 206.785C268.156 206.228 269.733 206.003 271.333 206.025C273.012 206.061 274.705 206.358 276.051 206.857C277.245 207.306 278.143 208.117 279.062 208.884V208.898Z" fill="#ABFA00"/>
<path d="M275.66 204.368C278.533 207.769 281.421 211.127 284.128 214.593" stroke="#ABFA00" stroke-width="0.723687" stroke-miterlimit="10"/>
<path d="M301.728 214.919C301.735 217.488 300.751 220.39 299.18 222.373C297.617 224.363 295.468 225.463 293.145 224.718C292.385 224.472 291.712 224.059 291.024 223.661C291.611 221.99 291.545 220.057 291.545 218.19C291.524 216.345 291.618 214.536 292.617 213.045C293.724 211.424 296.293 208.334 298.326 208.428C301.026 208.572 301.786 212.068 301.728 214.919Z" fill="#ABFA00"/>
<path d="M293.449 228.727C292.233 230.254 290.88 231.564 289.237 232.316C287.594 233.069 285.64 233.279 283.136 232.758C282.08 232.533 281.059 232.012 280.314 231.303C279.547 230.601 279.091 229.697 279.228 228.64C279.409 227.236 280.618 226.028 281.978 225.499C283.216 225.022 284.757 224.884 286.306 225.029C287.927 225.181 289.584 225.63 290.807 226.317C291.9 226.918 292.66 227.837 293.456 228.727H293.449Z" fill="#ABFA00"/>
<path d="M284.128 214.593C286.69 217.799 289.013 221.164 291.27 224.573C293.434 228.039 295.526 231.556 297.357 235.218" stroke="#ABFA00" stroke-width="0.723687" stroke-miterlimit="10"/>
<path d="M314.566 238.83C313.473 243.881 308.653 249.178 304.289 246.855C303.573 246.479 302.972 245.965 302.393 245.43C302.842 244.655 303.16 243.787 303.385 242.89C303.602 241.999 303.747 241.073 303.92 240.161C304.268 238.345 304.716 236.579 305.997 235.313C307.401 233.938 310.484 231.419 312.496 231.89C315.087 232.548 315.13 236.101 314.566 238.822V238.83Z" fill="#ABFA00"/>
<path d="M303.899 250.879C300.953 253.513 297.783 255.084 293.043 253.028C291.01 252.182 289.266 250.148 289.888 248.1C290.293 246.747 291.704 245.791 293.152 245.531C294.462 245.299 296.039 245.444 297.537 245.893C299.093 246.363 300.599 247.138 301.713 248.028C302.683 248.817 303.327 249.844 303.906 250.879H303.899Z" fill="#ABFA00"/>
<path d="M297.356 235.219C301.076 242.506 304.123 250.148 306.743 257.935" stroke="#ABFA00" stroke-width="0.723687" stroke-miterlimit="10"/>
<path d="M323.322 264.499C322.396 267.075 320.413 269.427 318.206 270.672C315.999 271.924 313.596 272.091 311.729 270.513C311.099 269.999 310.636 269.369 310.151 268.747C311.338 267.408 311.961 265.599 312.568 263.79C313.162 261.966 313.799 260.36 315.239 259.281C316.802 258.123 320.254 256.09 322.143 256.806C323.395 257.298 323.901 258.333 324.017 259.708C324.205 261.394 323.822 263.088 323.322 264.506V264.499Z" fill="#ABFA00"/>
<path d="M310.448 274.326C306.989 276.215 303.523 276.852 299.405 274.066C297.661 272.886 296.365 270.86 297.408 269.253C298.095 268.197 299.651 267.502 301.098 267.422C302.415 267.35 303.906 267.668 305.288 268.327C306.743 269 308.06 270.028 308.965 271.106C309.754 272.061 310.087 273.205 310.448 274.326Z" fill="#ABFA00"/>
<path d="M306.743 257.935L308.625 263.804C309.225 265.714 309.652 267.683 310.036 269.673C310.788 273.661 311.237 277.728 311.432 281.788" stroke="#ABFA00" stroke-width="0.723687" stroke-miterlimit="10"/>
<path d="M325.399 292.708C323.8 294.85 321.238 296.601 318.785 297.188C316.303 297.788 313.972 297.274 312.59 295.248C312.141 294.582 311.859 293.851 311.562 293.113C314.616 291.21 315.897 286.781 319.219 285.529C321.057 284.87 324.958 283.836 326.55 285.167C328.685 286.947 327.143 290.392 325.392 292.708H325.399Z" fill="#ABFA00"/>
<path d="M310.31 298.555C308.4 298.961 306.54 299.077 304.781 298.613C303.03 298.157 301.373 297.108 299.766 295.263C298.399 293.692 297.726 291.398 299.18 289.958C300.157 289.01 301.851 288.778 303.255 289.162C304.535 289.509 305.853 290.305 307.01 291.348C308.19 292.426 309.21 293.779 309.76 295.06C310.274 296.196 310.253 297.376 310.31 298.555Z" fill="#ABFA00"/>
<path d="M311.439 281.795C311.83 289.922 311.201 298.128 309.073 305.93" stroke="#ABFA00" stroke-width="0.723687" stroke-miterlimit="10"/>
<path d="M318.199 321.388C316.976 322.155 315.623 322.734 314.219 323.045C312.8 323.349 311.404 323.393 310.152 323.168C307.648 322.72 305.759 321.2 305.346 318.797C305.223 318.016 305.245 317.227 305.259 316.438C307.032 316.177 308.639 315.114 310.246 314.093C311.823 313.066 313.415 312.089 315.196 312.038C317.157 312.024 321.209 312.248 322.23 314.137C323.634 316.677 320.782 319.724 318.199 321.381V321.388Z" fill="#ABFA00"/>
<path d="M301.887 320.78C300.027 320.302 298.305 319.521 296.951 318.334C295.605 317.162 294.52 315.49 293.753 313.362C293.065 311.495 293.181 309.527 294.961 308.919C296.162 308.528 297.82 308.948 298.999 309.787C300.07 310.547 301.026 311.719 301.728 313.087C302.415 314.469 302.871 316.105 302.842 317.458C302.857 318.689 302.357 319.731 301.887 320.78Z" fill="#ABFA00"/>
<path d="M309.073 305.93C307.98 309.816 306.511 313.579 304.586 317.089C302.647 320.592 300.222 323.798 297.371 326.584" stroke="#ABFA00" stroke-width="0.723687" stroke-miterlimit="10"/>
<path d="M298.963 343.8C296.561 343.967 293.615 343.409 291.43 342.15C289.237 340.891 287.811 338.959 288.195 336.542C288.318 335.746 288.622 335.007 288.94 334.276C292.457 334.978 296.496 333.053 299.47 334.993C300.259 335.536 301.496 336.375 302.538 337.33C303.588 338.278 304.34 339.451 304.319 340.507C304.572 342.997 301.626 343.598 298.963 343.807V343.8Z" fill="#ABFA00"/>
<path d="M284.265 337.454C280.857 335.514 278.345 332.996 278.714 327.887C278.866 325.73 280.328 323.255 282.666 323.089C284.207 322.987 285.553 324.044 286.183 325.376C286.755 326.591 287.008 328.162 287.015 329.754C287.015 331.426 286.755 333.119 286.27 334.458C285.836 335.645 285.032 336.535 284.272 337.447L284.265 337.454Z" fill="#ABFA00"/>
<path d="M297.378 326.584C296.698 327.315 295.895 327.916 295.164 328.589L292.776 330.593L288.065 334.661C286.501 336.007 284.945 337.345 283.353 338.619C282.557 339.256 281.754 339.886 280.943 340.493C280.14 341.087 279.308 341.695 278.447 342.361" stroke="#ABFA00" stroke-width="0.723687" stroke-miterlimit="10"/>
<path d="M281.211 358.839C280.147 358.889 278.968 358.853 277.737 358.687C276.507 358.52 275.205 358.223 274.047 357.796C271.753 356.964 269.77 355.459 269.712 353.02C269.69 352.217 269.871 351.428 270.074 350.639C273.692 350.791 277.426 348.685 280.451 350.632C282.108 351.638 285.09 354.221 285.452 356.002C285.575 356.588 285.51 357.037 285.307 357.384C285.126 357.753 284.801 358.021 284.381 358.216C283.527 358.585 282.355 358.759 281.204 358.839H281.211Z" fill="#ABFA00"/>
<path d="M266.035 354.873C264.103 354.417 262.33 353.888 260.926 352.709C259.522 351.522 258.567 349.727 258.502 346.688C258.437 344.14 260.101 340.754 262.692 340.081C264.371 339.61 265.854 340.58 266.542 341.883C267.164 343.062 267.519 344.712 267.635 346.362C267.736 348.077 267.7 349.894 267.418 351.356C267.135 352.629 266.593 353.773 266.035 354.873Z" fill="#ABFA00"/>
<path d="M278.447 342.353C271.652 347.505 266.13 354.243 262.258 361.813" stroke="#ABFA00" stroke-width="0.723687" stroke-miterlimit="10"/>
<path d="M271.81 375.563C269.951 376.562 267.396 377.445 264.885 377.669C262.395 377.879 260.043 377.379 258.929 375.187C258.574 374.47 258.35 373.667 258.249 372.878C261.563 371.467 264.081 367.993 267.635 368.427C269.56 368.616 273.359 369.65 274.452 371.127C275.899 373.037 273.793 374.405 271.803 375.563H271.81Z" fill="#ABFA00"/>
<path d="M256.396 378.429C252.567 379.218 248.84 379.659 246.076 374.224C245.54 373.081 245.265 371.576 245.367 370.121C245.526 368.688 246.069 367.313 247.06 366.459C248.435 365.337 250.143 365.576 251.33 366.459C252.415 367.263 253.371 368.58 254.217 370.034C255.079 371.554 255.737 373.197 256.15 374.651C256.316 375.295 256.359 375.918 256.381 376.547C256.417 377.177 256.403 377.807 256.403 378.429H256.396Z" fill="#ABFA00"/>
<path d="M262.258 361.813C258.386 369.376 256.142 377.799 255.947 386.331" stroke="#ABFA00" stroke-width="0.723687" stroke-miterlimit="10"/>
<path d="M281.298 236.456C281.32 237.795 281.052 239.162 280.567 240.393C280.111 241.616 279.402 242.708 278.584 243.541C276.941 245.205 274.843 245.828 272.838 244.88C272.158 244.576 271.579 244.156 271.022 243.722C271.695 242.267 271.738 240.48 271.716 238.735C271.695 236.999 271.673 235.255 272.44 233.814C273.33 232.266 275.306 229.096 277.361 229.299C278.751 229.429 279.742 230.507 280.408 231.889C281.03 233.293 281.32 234.98 281.298 236.456Z" fill="#ABFA00"/>
<path d="M272.541 248.527C271.203 249.692 269.784 250.582 268.178 250.987C266.564 251.414 264.82 251.313 262.772 250.799C261.071 250.3 259.595 249.345 260.152 247.774C260.485 246.754 261.628 245.697 262.851 245.198C263.951 244.749 265.348 244.547 266.68 244.713C268.112 244.851 269.495 245.372 270.551 246.074C271.441 246.71 272.028 247.615 272.549 248.527H272.541Z" fill="#ABFA00"/>
<path d="M270.718 243.881C272.722 247.724 274.018 251.581 274.684 254.961" stroke="#ABFA00" stroke-width="0.723687" stroke-miterlimit="10"/>
<path d="M288.448 263.761C287.145 265.961 284.931 267.748 282.731 268.436C280.516 269.138 278.367 268.798 276.992 267.025C276.551 266.446 276.239 265.794 275.921 265.143C278.577 263.211 279.344 259.006 282.181 257.45C283.773 256.632 287.167 255.156 288.766 256.292C290.923 257.827 289.874 261.402 288.455 263.761H288.448Z" fill="#ABFA00"/>
<path d="M275.11 270.18C273.395 270.657 271.709 270.874 270.095 270.549C268.481 270.223 266.918 269.355 265.348 267.791C264.675 267.133 264.161 266.293 263.951 265.497C263.734 264.708 263.857 263.927 264.458 263.276C265.283 262.414 266.781 262.067 268.098 262.277C269.285 262.465 270.537 263.051 271.673 263.883C272.824 264.752 273.851 265.895 274.423 267.031C274.958 268.03 275.009 269.116 275.118 270.187L275.11 270.18Z" fill="#ABFA00"/>
<path d="M274.683 254.96C275.436 258.564 275.704 262.27 275.646 265.96C275.552 269.659 275.125 273.364 274.401 277.018" stroke="#ABFA00" stroke-width="0.723687" stroke-miterlimit="10"/>
<path d="M284.388 289.668C282.55 291.174 279.959 292.143 277.651 292.18C275.342 292.216 273.337 291.34 272.527 289.256C272.252 288.568 272.15 287.852 272.056 287.136C275.154 286.05 277.238 282.424 280.466 282.048C282.231 281.867 285.901 281.802 287.022 283.336C288.506 285.391 286.422 288.062 284.388 289.676V289.668Z" fill="#ABFA00"/>
<path d="M269.849 291.803C266.274 291.876 263.148 291.022 261.092 286.832C260.231 285.059 260.13 282.692 261.765 281.679C262.837 281.006 264.385 281.158 265.543 281.817C266.592 282.41 267.606 283.416 268.387 284.603C269.219 285.84 269.813 287.266 270.052 288.54C270.254 289.661 270.044 290.74 269.849 291.811V291.803Z" fill="#ABFA00"/>
<path d="M274.408 277.019C272.968 284.335 270.486 291.449 267.562 298.382" stroke="#ABFA00" stroke-width="0.723687" stroke-miterlimit="10"/>
<path d="M275.566 312.023C273.67 313.051 271.123 313.63 268.843 313.485C266.571 313.341 264.566 312.443 263.886 310.301C263.669 309.599 263.618 308.868 263.596 308.137C266.766 307.319 269.335 304.164 272.577 304.418C274.343 304.562 277.925 305.264 278.794 306.864C279.937 309.006 277.643 310.902 275.566 312.023Z" fill="#ABFA00"/>
<path d="M261.085 312.776C257.532 312.805 254.217 312.277 252.56 307.348C251.865 305.271 252.22 302.377 254.072 301.356C255.303 300.676 256.808 301.031 257.857 301.877C258.805 302.644 259.63 303.838 260.245 305.163C260.897 306.545 261.331 308.079 261.469 309.411C261.592 310.59 261.302 311.676 261.092 312.776H261.085Z" fill="#ABFA00"/>
<path d="M267.562 298.382C264.653 305.308 261.172 312.168 259.095 319.68" stroke="#ABFA00" stroke-width="0.723687" stroke-miterlimit="10"/>
<path d="M270.269 329.848C268.865 330.977 266.795 332.193 264.682 332.981C262.598 333.741 260.362 333.987 258.849 332.316C258.343 331.773 258.031 331.107 257.713 330.419C259.044 329.414 260.021 328.017 261.165 326.844C262.287 325.672 263.524 324.724 265.116 324.579C266.875 324.391 270.464 324.623 271.702 325.708C273.359 327.105 271.781 328.567 270.276 329.848H270.269Z" fill="#ABFA00"/>
<path d="M257.481 335.869C255.932 336.788 254.442 337.642 252.777 337.743C251.127 337.837 249.267 337.157 247.371 334.819C245.743 332.858 244.94 329.095 246.438 327.025C247.407 325.643 248.985 325.513 250.215 326.07C251.337 326.577 252.48 327.604 253.501 328.748C254.594 329.956 255.556 331.302 256.258 332.525C256.852 333.604 257.119 334.754 257.474 335.869H257.481Z" fill="#ABFA00"/>
<path d="M259.095 319.68C258.06 323.428 257.423 327.336 257.438 331.288C257.452 335.232 255.079 343.793 258.451 371.886" stroke="#ABFA00" stroke-width="0.723687" stroke-miterlimit="10"/>
<path d="M213.029 195.665C214.038 195.129 215.092 194.53 216.201 193.875" stroke="#2D0F52" stroke-width="1.81995" stroke-linecap="round" stroke-linejoin="round"/>
<path d="M220.917 191.719C243.038 176.956 273.767 145.28 259.239 104.438C247.295 70.8439 219.4 78.6339 212.053 87.1895C199.564 101.716 202.102 130.609 224.061 133.063C260.456 137.12 279.619 88.9648 285.495 70.8782" stroke="#2D0F52" stroke-width="1.81995" stroke-linecap="round" stroke-linejoin="round" stroke-dasharray="7.19 4.5"/>
<path d="M275.501 87.7584C276.179 85.5613 276.518 84.269 276.518 84.269" stroke="#2D0F52" stroke-width="1.81995" stroke-linecap="round" stroke-linejoin="round"/>
<path d="M202.025 166.215V245.162L167.114 285.428C161.651 291.319 155.014 296.001 147.611 299.12C144.246 300.539 140.237 300.93 139.969 301.183C137.979 303.079 115.957 334.943 104.241 351.978C97.2569 347.68 90.4471 343.113 83.8398 338.344C72.7167 330.318 61.9266 321.461 52.041 311.778L89.4411 261.098C95.8602 245.162 95.0352 236.102 96.7214 220.195C98.1977 206.228 101.99 194.678 102.373 189.851C102.511 188.15 103.893 167.692 103.922 165.984C103.973 163.733 106.846 158.407 107.352 156.214C111.666 137.716 115.11 134.945 119.966 137.745C120.683 138.158 127.196 141.798 121.406 162.821C120.082 167.641 121.942 198.521 121.942 198.521L202.025 166.215Z" fill="white"/>
<mask id="mask0_435_1803" style="mask-type:luminance" maskUnits="userSpaceOnUse" x="52" y="136" width="151" height="216">
<path d="M202.025 166.215V245.162L167.114 285.428C161.651 291.319 155.014 296.001 147.611 299.12C144.246 300.539 140.237 300.93 139.969 301.183C137.979 303.079 115.957 334.943 104.241 351.978C97.2569 347.68 90.4471 343.113 83.8398 338.344C72.7167 330.318 61.9266 321.461 52.041 311.778L89.4411 261.098C95.8602 245.162 95.0352 236.102 96.7214 220.195C98.1977 206.228 101.99 194.678 102.373 189.851C102.511 188.15 103.893 167.692 103.922 165.984C103.973 163.733 106.846 158.407 107.352 156.214C111.666 137.716 115.11 134.945 119.966 137.745C120.683 138.158 127.196 141.798 121.406 162.821C120.082 167.641 121.942 198.521 121.942 198.521L202.025 166.215Z" fill="white"/>
</mask>
<g mask="url(#mask0_435_1803)">
<path d="M152.879 277.807C140.374 282.656 126.269 284.552 113.525 280.384C118.823 285.059 124.113 289.734 129.41 294.409C131.95 296.652 134.584 298.954 137.79 300.046C143.24 301.906 149.261 299.931 154.29 297.13C167.831 289.589 177.246 276.527 186.205 263.876C188.036 261.293 189.809 257.117 185.199 259.44C181.494 261.307 178.078 264.26 174.561 266.482C167.657 270.846 160.5 274.855 152.872 277.815L152.879 277.807Z" fill="#ABFA00"/>
<path opacity="0.5" d="M152.879 277.807C140.374 282.656 126.269 284.552 113.525 280.384C118.823 285.059 124.113 289.734 129.41 294.409C131.95 296.652 134.584 298.954 137.79 300.046C143.24 301.906 149.261 299.931 154.29 297.13C167.831 289.589 177.246 276.527 186.205 263.876C188.036 261.293 189.809 257.117 185.199 259.44C181.494 261.307 178.078 264.26 174.561 266.482C167.657 270.846 160.5 274.855 152.872 277.815L152.879 277.807Z" fill="white"/>
<path d="M116.261 166.859C123.881 177.57 119.749 198.231 117.173 202.284C117.173 202.284 122.268 241.775 132.32 256.821C137.465 231.036 139.014 204.542 136.908 178.337C135.902 165.803 131.77 148.528 122.875 139.641C122.875 139.641 122.376 159.499 116.261 166.859Z" fill="#ABFA00"/>
<g opacity="0.5">
<path d="M116.261 166.859C123.881 177.57 119.749 198.231 117.173 202.284C117.173 202.284 122.268 241.775 132.32 256.821C137.465 231.036 139.014 204.542 136.908 178.337C135.902 165.803 131.77 148.528 122.875 139.641C122.875 139.641 122.376 159.499 116.261 166.859Z" fill="white"/>
</g>
<path d="M122.81 265.288C124.25 269.905 125.69 274.529 127.131 279.147C136.857 277.967 146.663 277.504 156.462 277.764C161.499 277.902 166.6 278.22 171.529 277.156C176.457 276.1 181.299 273.422 183.679 268.979C185.257 266.041 185.344 261.836 182.637 259.889C181.081 258.768 179.012 258.688 177.101 258.796C170.892 259.137 164.856 260.96 158.683 261.698C152.51 262.444 145.795 261.952 140.823 258.21C137.552 255.75 135.366 252.131 132.457 249.251C129.931 246.754 123.295 242.738 120.545 246.704C117.6 250.959 121.486 260.996 122.817 265.288H122.81Z" fill="#ABFA00"/>
<path opacity="0.5" d="M122.81 265.288C124.25 269.905 125.69 274.529 127.131 279.147C136.857 277.967 146.663 277.504 156.462 277.764C161.499 277.902 166.6 278.22 171.529 277.156C176.457 276.1 181.299 273.422 183.679 268.979C185.257 266.041 185.344 261.836 182.637 259.889C181.081 258.768 179.012 258.688 177.101 258.796C170.892 259.137 164.856 260.96 158.683 261.698C152.51 262.444 145.795 261.952 140.823 258.21C137.552 255.75 135.366 252.131 132.457 249.251C129.931 246.754 123.295 242.738 120.545 246.704C117.6 250.959 121.486 260.996 122.817 265.288H122.81Z" fill="white"/>
<path d="M106.607 283.272C105.471 286.897 103.459 290.176 101.469 293.418C94.7387 304.367 88.0084 315.316 81.2781 326.273C99.1025 307.653 106.672 294.865 117.853 283.315C117.303 284.509 109.856 276.469 109.618 276.389C106.253 275.275 107.418 280.71 106.607 283.272Z" fill="#ABFA00"/>
<g opacity="0.5">
<path d="M106.607 283.272C105.471 286.897 103.459 290.176 101.469 293.418C94.7387 304.367 88.0084 315.316 81.2781 326.273C99.1025 307.653 106.672 294.865 117.853 283.315C117.303 284.509 109.856 276.469 109.618 276.389C106.253 275.275 107.418 280.71 106.607 283.272Z" fill="white"/>
</g>
<path d="M105.68 315.367C109.147 310.837 112.621 306.306 116.087 301.769C119.358 297.499 123.208 292.882 128.549 292.245C126.016 292.549 123.592 286.043 120.465 286.579C117.788 287.042 116.579 292.564 115.617 294.706C112.49 301.675 109.176 308.564 105.68 315.36V315.367Z" fill="#ABFA00"/>
<path opacity="0.5" d="M105.68 315.367C109.147 310.837 112.621 306.306 116.087 301.769C119.358 297.499 123.208 292.882 128.549 292.245C126.016 292.549 123.592 286.043 120.465 286.579C117.788 287.042 116.579 292.564 115.617 294.706C112.49 301.675 109.176 308.564 105.68 315.36V315.367Z" fill="white"/>
<path d="M90.0995 356.48C92.8061 358.694 95.5127 360.916 98.2193 363.13C115.277 344.336 129.859 323.306 141.474 300.734C139.621 299.887 137.892 300.351 132.471 295.994C130.988 294.8 111.325 330.492 90.0923 356.473L90.0995 356.48Z" fill="#ABFA00"/>
<path opacity="0.5" d="M90.0995 356.48C92.8061 358.694 95.5127 360.916 98.2193 363.13C115.277 344.336 129.859 323.306 141.474 300.734C139.621 299.887 137.892 300.351 132.471 295.994C130.988 294.8 111.325 330.492 90.0923 356.473L90.0995 356.48Z" fill="white"/>
</g>
<path d="M52.041 311.778L89.4411 261.098C95.8602 245.162 95.0352 236.102 96.7214 220.195C98.1977 206.228 101.99 194.678 102.373 189.851C102.511 188.15 103.893 167.692 103.922 165.984C103.973 163.733 106.846 158.407 107.352 156.214C111.666 137.716 115.11 134.945 119.966 137.745C120.683 138.158 128.433 141.798 122.644 162.821C121.32 167.641 122.883 198.144 122.883 198.144L202.025 166.215V245.162L167.114 285.428C161.651 291.319 155.014 296.001 147.611 299.12C144.246 300.539 140.237 300.93 139.969 301.183C137.979 303.079 115.957 334.943 104.241 351.978" stroke="#2D0F52" stroke-width="0.723687" stroke-miterlimit="10"/>
<path d="M208.929 164.638C209.798 164.233 210.601 163.921 211.317 163.675C214.227 162.698 218.286 162.257 220.819 163.994C223.642 165.933 225.27 172.758 218.75 177.498C218.75 177.498 213.814 181.413 205.998 184.503C203.979 185.299 201.671 185.227 199.767 184.17C198.624 183.533 197.654 182.593 197.596 181.225C197.285 173.271 201.707 167.996 208.929 164.638Z" fill="white"/>
<mask id="mask1_435_1803" style="mask-type:luminance" maskUnits="userSpaceOnUse" x="197" y="162" width="27" height="24">
<path d="M208.929 164.638C209.798 164.233 210.601 163.921 211.317 163.675C214.227 162.698 218.286 162.257 220.819 163.994C223.642 165.933 225.27 172.758 218.75 177.498C218.75 177.498 213.814 181.413 205.998 184.503C203.979 185.299 201.671 185.227 199.767 184.17C198.624 183.533 197.654 182.593 197.596 181.225C197.285 173.271 201.707 167.996 208.929 164.638Z" fill="white"/>
</mask>
<g mask="url(#mask1_435_1803)">
<path d="M206.635 169.277C205.737 172.338 206.179 175.616 206.635 178.779C206.873 180.436 207.329 182.383 208.885 183.005C210.275 183.555 211.794 182.73 213.025 181.883C215.348 180.284 217.591 178.453 219.068 176.043C220.544 173.641 221.152 170.565 220.088 167.952C217.352 161.208 208.473 163.031 206.635 169.284V169.277Z" fill="#ABFA00"/>
<path opacity="0.5" d="M206.635 169.277C205.737 172.338 206.179 175.616 206.635 178.779C206.873 180.436 207.329 182.383 208.885 183.005C210.275 183.555 211.794 182.73 213.025 181.883C215.348 180.284 217.591 178.453 219.068 176.043C220.544 173.641 221.152 170.565 220.088 167.952C217.352 161.208 208.473 163.031 206.635 169.284V169.277Z" fill="white"/>
</g>
<path d="M208.929 164.638C209.798 164.233 210.601 163.921 211.317 163.675C214.227 162.698 218.286 162.257 220.819 163.994C223.642 165.933 225.27 172.758 218.75 177.498C218.75 177.498 213.814 181.413 205.998 184.503C203.979 185.299 201.671 185.227 199.767 184.17C198.624 183.533 197.654 182.593 197.596 181.225C197.285 173.271 201.707 167.996 208.929 164.638Z" stroke="#2D0F52" stroke-width="0.723687" stroke-miterlimit="10"/>
<path d="M207.901 201.51L196.38 207.263V189.641L210.434 183.106C210.434 183.106 203.277 192.818 207.901 201.51Z" stroke="#2D0F52" stroke-width="0.723687" stroke-miterlimit="10"/>
<path d="M203.972 208.218L196.38 212.43V232.165L208.835 227.569L210.434 209.441C210.434 209.441 208.495 208.609 203.972 208.225V208.218Z" stroke="#2D0F52" stroke-width="0.723687" stroke-miterlimit="10"/>
<path d="M209.392 118.973V260.628C209.392 266.511 204.616 271.288 198.732 271.288H133.63C127.746 271.288 122.97 266.511 122.97 260.628V118.973C122.97 113.083 127.746 108.313 133.63 108.313H198.732C199.521 108.313 200.288 108.4 201.034 108.567C205.81 109.616 209.392 113.871 209.392 118.973Z" fill="#2D0F52"/>
<path d="M194.367 112.59H138.057C132.17 112.59 127.397 117.363 127.397 123.25V256.242C127.397 262.129 132.17 266.902 138.057 266.902H194.367C200.254 266.902 205.027 262.129 205.027 256.242V123.25C205.027 117.363 200.254 112.59 194.367 112.59Z" fill="#ABFA00"/>
<path d="M197.01 244.594C203.684 231.551 234.138 201.279 302.568 184.535" stroke="black" stroke-width="1.81995" stroke-dasharray="5.46 5.46"/>
<rect x="151.057" y="114.012" width="32.7591" height="7.27981" rx="3.6399" fill="#2D0F52"/>
<path d="M157.611 119.841C158.718 119.841 159.616 118.944 159.616 117.837C159.616 116.73 158.718 115.832 157.611 115.832C156.504 115.832 155.606 116.73 155.606 117.837C155.606 118.944 156.504 119.841 157.611 119.841Z" fill="white" stroke="#2D0F52" stroke-width="0.723687" stroke-miterlimit="10"/>
<path d="M177.12 115.836H165.895C164.94 115.836 164.166 116.61 164.166 117.565V118.108C164.166 119.063 164.94 119.838 165.895 119.838H177.12C178.075 119.838 178.849 119.063 178.849 118.108V117.565C178.849 116.61 178.075 115.836 177.12 115.836Z" fill="white" stroke="#2D0F52" stroke-width="0.723687" stroke-miterlimit="10"/>
<path d="M204.427 192.833C204 195.228 204.702 197.761 206.338 199.744C207.981 201.734 210.543 203.16 213.35 203.645C215.493 204.014 217.997 203.746 219.386 202.32C220.595 201.076 220.631 199.317 220.616 197.703C220.573 193.766 219.567 188.382 214.154 187.152C209.696 186.139 205.079 189.178 204.427 192.826V192.833Z" fill="white"/>
<mask id="mask2_435_1803" style="mask-type:luminance" maskUnits="userSpaceOnUse" x="204" y="186" width="17" height="18">
<path d="M204.427 192.833C204 195.228 204.702 197.761 206.338 199.744C207.981 201.734 210.543 203.16 213.35 203.645C215.493 204.014 217.997 203.746 219.386 202.32C220.595 201.076 220.631 199.317 220.616 197.703C220.573 193.766 219.567 188.382 214.154 187.152C209.696 186.139 205.079 189.178 204.427 192.826V192.833Z" fill="white"/>
</mask>
<g mask="url(#mask2_435_1803)">
<path d="M204.42 191.632C203.617 194.331 204.565 197.37 206.468 199.447C208.372 201.524 211.093 202.718 213.872 203.182C214.48 202.016 213.532 200.692 212.83 199.578C211.578 197.616 210.962 195.264 211.085 192.941C211.143 191.892 211.549 190.626 212.584 190.43C213.503 190.249 214.349 191.089 214.624 191.986C214.899 192.884 214.798 193.846 214.907 194.772C215.015 195.706 215.449 196.712 216.325 197.03C216.397 194.91 216.376 192.717 215.565 190.756C213.365 185.393 206.02 186.247 204.413 191.632H204.42Z" fill="#ABFA00"/>
<path opacity="0.5" d="M204.42 191.632C203.617 194.331 204.565 197.37 206.468 199.447C208.372 201.524 211.093 202.718 213.872 203.182C214.48 202.016 213.532 200.692 212.83 199.578C211.578 197.616 210.962 195.264 211.085 192.941C211.143 191.892 211.549 190.626 212.584 190.43C213.503 190.249 214.349 191.089 214.624 191.986C214.899 192.884 214.798 193.846 214.907 194.772C215.015 195.706 215.449 196.712 216.325 197.03C216.397 194.91 216.376 192.717 215.565 190.756C213.365 185.393 206.02 186.247 204.413 191.632H204.42Z" fill="white"/>
</g>
<path d="M204.427 192.833C204 195.228 204.702 197.761 206.338 199.744C207.981 201.734 210.543 203.16 213.35 203.645C215.493 204.014 217.997 203.746 219.386 202.32C220.595 201.076 220.631 199.317 220.616 197.703C220.573 193.766 219.567 188.382 214.154 187.152C209.696 186.139 205.079 189.178 204.427 192.826V192.833Z" stroke="#2D0F52" stroke-width="0.723687" stroke-miterlimit="10"/>
<path d="M209.03 238.15L201.033 244.207C201.033 244.207 196.069 252.312 205.694 254.404L213.987 252.023C217.96 250.88 220.906 247.341 220.964 243.208C221.022 239.322 218.684 235.212 209.11 234.285L209.03 238.15Z" fill="white"/>
<mask id="mask3_435_1803" style="mask-type:luminance" maskUnits="userSpaceOnUse" x="199" y="234" width="22" height="21">
<path d="M209.03 238.15L201.033 244.207C201.033 244.207 196.069 252.312 205.694 254.404L213.987 252.023C217.96 250.88 220.906 247.341 220.964 243.208C221.022 239.322 218.684 235.212 209.11 234.285L209.03 238.15Z" fill="white"/>
</mask>
<g mask="url(#mask3_435_1803)">
<path d="M207.207 241.558C207.214 242.224 207.568 242.839 207.887 243.425C209.515 246.429 210.557 249.75 210.934 253.144C210.666 250.691 212.026 247.521 211.954 244.887C211.882 242.238 211.635 238.801 210.253 236.55C209.457 237.882 207.192 239.908 207.214 241.558H207.207Z" fill="#ABFA00"/>
<path opacity="0.5" d="M207.207 241.558C207.214 242.224 207.568 242.839 207.887 243.425C209.515 246.429 210.557 249.75 210.934 253.144C210.666 250.691 212.026 247.521 211.954 244.887C211.882 242.238 211.635 238.801 210.253 236.55C209.457 237.882 207.192 239.908 207.214 241.558H207.207Z" fill="white"/>
</g>
<path d="M209.03 238.15L201.033 244.207C201.033 244.207 196.069 252.312 205.694 254.404L213.987 252.023C217.96 250.88 220.906 247.341 220.964 243.208C221.022 239.322 218.684 235.212 209.11 234.285L209.03 238.15Z" stroke="#2D0F52" stroke-width="0.723687" stroke-miterlimit="10"/>
<path d="M206.157 214.435L198.732 222.446C198.732 222.446 194.94 232.078 205.658 232.498L214.031 228.409C218.214 226.368 221.333 222.511 222.129 217.923C222.925 213.291 221.174 208.594 210.152 209.463L206.157 214.435Z" fill="white"/>
<mask id="mask4_435_1803" style="mask-type:luminance" maskUnits="userSpaceOnUse" x="198" y="209" width="25" height="24">
<path d="M206.157 214.435L198.732 222.446C198.732 222.446 194.94 232.078 205.658 232.498L214.031 228.409C218.214 226.368 221.333 222.511 222.129 217.923C222.925 213.291 221.174 208.594 210.152 209.463L206.157 214.435Z" fill="white"/>
</mask>
<g mask="url(#mask4_435_1803)">
<path d="M206.686 231.579C207.416 232.208 208.654 231.752 209.139 230.92C209.624 230.081 209.566 229.046 209.443 228.091C209.262 226.622 207.409 216.75 205.159 217.959C203.812 218.683 206.425 229.806 206.686 231.586V231.579Z" fill="#ABFA00"/>
<path opacity="0.5" d="M206.686 231.579C207.416 232.208 208.654 231.752 209.139 230.92C209.624 230.081 209.566 229.046 209.443 228.091C209.262 226.622 207.409 216.75 205.159 217.959C203.812 218.683 206.425 229.806 206.686 231.586V231.579Z" fill="white"/>
</g>
<path d="M206.157 214.435L198.732 222.446C198.732 222.446 194.94 232.078 205.658 232.498L214.031 228.409C218.214 226.368 221.333 222.511 222.129 217.923C222.925 213.291 221.174 208.594 210.152 209.463L206.157 214.435Z" stroke="#2D0F52" stroke-width="0.723687" stroke-miterlimit="10"/>
<path d="M205.636 220.34C203.342 220.738 201.772 223.452 202.568 225.637C203.357 227.823 206.302 228.901 208.321 227.736" stroke="#2D0F52" stroke-width="0.723687" stroke-miterlimit="10"/>
<path d="M208.111 244.475C205.824 244.106 203.617 246.675 204.326 248.882C205.036 251.089 208.321 251.892 209.971 250.257" fill="white"/>
<path d="M208.111 244.475C205.824 244.106 203.617 246.675 204.326 248.882C205.036 251.089 208.321 251.892 209.971 250.257" stroke="#2D0F52" stroke-width="0.723687" stroke-miterlimit="10"/>
<path d="M112.816 166.86C116.304 167.142 119.887 166.056 122.637 163.893" stroke="#2D0F52" stroke-width="0.723687" stroke-miterlimit="10"/>
<path d="M121.32 200.156C118.526 202.45 114.937 203.753 111.325 203.796" stroke="#2D0F52" stroke-width="0.723687" stroke-miterlimit="10"/>
<path d="M131.422 270.672C129.844 275.224 126.696 279.219 122.644 281.817" stroke="#2D0F52" stroke-width="0.723687" stroke-miterlimit="10"/>
<path d="M176.126 178.193C180.638 172.713 179.854 164.613 174.374 160.101C168.895 155.589 160.795 156.373 156.282 161.853C151.77 167.332 152.554 175.432 158.034 179.945C163.514 184.457 171.614 183.673 176.126 178.193Z" stroke="#2D0F52" stroke-width="0.723687" stroke-miterlimit="10"/>
<path d="M163.988 177.245L157.511 170.247L159.103 168.777L164.075 174.147L174.178 164.421L175.683 165.984L163.988 177.245Z" fill="#2D0F52"/>
<path d="M166.883 242.159C178.118 242.159 187.226 233.051 187.226 221.816C187.226 210.581 178.118 201.473 166.883 201.473C155.648 201.473 146.54 210.581 146.54 221.816C146.54 233.051 155.648 242.159 166.883 242.159Z" fill="#2D0F52"/>
<path d="M164.301 228.669L156.517 220.227L158.43 218.455L164.405 224.933L176.547 213.2L178.356 215.085L164.301 228.669Z" fill="white"/>
<path opacity="0.2" d="M150.057 108.328L122.868 143.484V118.988C122.868 113.097 127.644 108.328 133.528 108.328H150.057Z" fill="white"/>
<path opacity="0.2" d="M200.947 108.356L122.883 206.17V168.321L172.889 108.103H198.645C199.434 108.103 200.201 108.19 200.947 108.356Z" fill="white"/>
<path opacity="0.2" d="M209.392 216.975V233.359L205.021 238.721L182.037 266.902L178.462 271.287H164.285L167.925 266.902L205.021 222.236L209.392 216.975Z" fill="white"/>
<path d="M274.104 379.789C257.336 387.287 238.34 389.783 219.82 389.27C218.699 389.241 217.584 389.197 216.47 389.147L214.458 381.309C199.68 366.097 172.542 352.173 170.19 331.1C167.15 304.041 162.989 305.141 162.989 298.411C162.989 298.172 164.878 295.038 167.15 288.163C167.896 285.942 168.265 282.678 168.67 280C169.09 277.178 171.608 275.094 174.46 275.303C176.385 275.434 178.302 276.165 179.721 277.359C182.464 279.682 183.853 283.293 184.193 286.875C184.548 290.457 183.983 294.054 183.397 297.607C186.306 303.093 187.949 309.881 189.179 315.967C190.453 310.902 192.436 295.378 187.226 284.957C178.462 267.401 168.866 250.553 161.31 228.278C160.717 226.549 160.558 223.661 161.021 221.888C162.779 215.252 169.56 216.301 172.723 219.883C173.577 220.824 174.221 221.903 174.749 223.046C178.368 230.92 185.771 242.94 191.003 249.844L209.037 273.726L211.209 272.032C211.209 272.032 212.185 242.361 211.701 241.891C211.216 241.406 208.314 222.431 208.314 222.431C208.314 222.431 206.722 218.899 204.782 214.391C202.864 209.889 204.782 206.358 204.782 206.358C208.169 199.439 215.232 202.66 216.68 206.358C218.127 210.049 222.469 217.293 222.469 217.293L230.524 239.322C230.22 244.301 233.078 268.906 233.078 268.906L235.98 267.582L240.648 253.137L237.102 238.345C237.102 238.345 229.388 229.834 230.676 224.841C231.957 219.862 238.549 221.309 238.549 221.309L251.728 237.057H255.599L264.761 248.643C267.236 256.133 268.488 263.927 268.488 271.75C268.488 276.874 267.953 282.034 266.86 287.092L264.761 296.876V360.069C264.761 360.069 271.028 370.193 271.028 371.156C271.028 371.351 272.338 374.97 274.104 379.789Z" fill="white"/>
<mask id="mask5_435_1803" style="mask-type:luminance" maskUnits="userSpaceOnUse" x="160" y="202" width="115" height="188">
<path d="M274.104 379.789C257.336 387.287 238.34 389.783 219.82 389.27C218.699 389.241 217.584 389.197 216.47 389.147L214.458 381.309C199.68 366.097 172.542 352.173 170.19 331.1C167.15 304.041 162.989 305.141 162.989 298.411C162.989 298.172 164.878 295.038 167.15 288.163C167.896 285.942 168.265 282.678 168.67 280C169.09 277.178 171.608 275.094 174.46 275.303C176.385 275.434 178.302 276.165 179.721 277.359C182.464 279.682 183.853 283.293 184.193 286.875C184.548 290.457 183.983 294.054 183.397 297.607C186.306 303.093 187.949 309.881 189.179 315.967C190.453 310.902 192.436 295.378 187.226 284.957C178.462 267.401 168.866 250.553 161.31 228.278C160.717 226.549 160.558 223.661 161.021 221.888C162.779 215.252 169.56 216.301 172.723 219.883C173.577 220.824 174.221 221.903 174.749 223.046C178.368 230.92 185.771 242.94 191.003 249.844L209.037 273.726L211.209 272.032C211.209 272.032 212.185 242.361 211.701 241.891C211.216 241.406 208.314 222.431 208.314 222.431C208.314 222.431 206.722 218.899 204.782 214.391C202.864 209.889 204.782 206.358 204.782 206.358C208.169 199.439 215.232 202.66 216.68 206.358C218.127 210.049 222.469 217.293 222.469 217.293L230.524 239.322C230.22 244.301 233.078 268.906 233.078 268.906L235.98 267.582L240.648 253.137L237.102 238.345C237.102 238.345 229.388 229.834 230.676 224.841C231.957 219.862 238.549 221.309 238.549 221.309L251.728 237.057H255.599L264.761 248.643C267.236 256.133 268.488 263.927 268.488 271.75C268.488 276.874 267.953 282.034 266.86 287.092L264.761 296.876V360.069C264.761 360.069 271.028 370.193 271.028 371.156C271.028 371.351 272.338 374.97 274.104 379.789Z" fill="white"/>
</mask>
<g mask="url(#mask5_435_1803)">
<path d="M164.697 295.183C164.618 295.501 164.553 295.9 164.806 296.109C165.197 296.435 165.718 295.936 166.007 295.516C167.925 292.795 171.71 291.565 174.865 292.643C176.066 292.621 176.479 290.79 175.69 289.878C174.901 288.967 173.562 288.815 172.361 288.807C171.16 288.807 169.872 288.865 168.851 288.228C167.599 287.447 167.107 285.848 167.426 284.48C166.615 288.062 165.616 291.623 164.697 295.183Z" fill="#ABFA00"/>
<g opacity="0.5">
<path d="M164.697 295.183C164.618 295.501 164.553 295.9 164.806 296.109C165.197 296.435 165.718 295.936 166.007 295.516C167.925 292.795 171.71 291.565 174.865 292.643C176.066 292.621 176.479 290.79 175.69 289.878C174.901 288.967 173.562 288.815 172.361 288.807C171.16 288.807 169.872 288.865 168.851 288.228C167.599 287.447 167.107 285.848 167.426 284.48C166.615 288.062 165.616 291.623 164.697 295.183Z" fill="white"/>
</g>
<path d="M180.886 320.736C181.067 320.411 181.219 320.078 181.371 319.738C181.06 319.977 180.85 320.31 180.886 320.736Z" fill="#ABFA00"/>
<path d="M185.308 297.709C185.018 294.047 185.539 290.363 185.387 286.687C185.235 283.018 184.273 279.146 181.603 276.628C177.767 273.009 167.266 274.862 170.783 281.723C171.76 283.626 174.279 284.61 176.233 283.756C178.194 282.902 179.156 280.232 178.085 278.386C182.333 284.827 181.95 293.975 177.188 300.039C182.637 304.758 184.367 313.21 181.385 319.738C182.022 319.253 183.13 319.188 183.831 319.716C184.874 320.505 185.221 321.873 185.728 323.074C186.234 324.275 187.218 325.527 188.521 325.441C190.308 321.062 189.715 316.083 188.557 311.502C187.399 306.921 185.691 302.427 185.322 297.716L185.308 297.709Z" fill="#ABFA00"/>
<path d="M215.826 235.732C215.855 235.978 215.884 236.224 215.913 236.47C215.963 236.232 215.949 235.978 215.826 235.732Z" fill="#ABFA00"/>
<path d="M208.524 267.958C203.313 257.718 198.095 247.478 192.364 237.513C189.013 231.687 185.467 225.934 180.995 220.919C179.012 218.697 173.324 213.551 170.19 216.938C168.099 219.196 170.849 223.314 168.28 225.76C168.866 225.796 171.775 225.478 172.079 225.861C178.607 233.923 182.203 244.315 182.059 254.693C184.157 253.05 187.03 255.33 188.666 257.436C198.74 270.375 208.155 283.829 216.861 297.723C215.174 291.579 215.131 285.066 213.307 278.965C212.164 275.13 210.333 271.533 208.517 267.965L208.524 267.958Z" fill="#ABFA00"/>
<g opacity="0.5">
<path d="M180.886 320.736C181.067 320.411 181.219 320.078 181.371 319.738C181.06 319.977 180.85 320.31 180.886 320.736Z" fill="white"/>
<path d="M185.308 297.709C185.018 294.047 185.539 290.363 185.387 286.687C185.235 283.018 184.273 279.146 181.603 276.628C177.767 273.009 167.266 274.862 170.783 281.723C171.76 283.626 174.279 284.61 176.233 283.756C178.194 282.902 179.156 280.232 178.085 278.386C182.333 284.827 181.95 293.975 177.188 300.039C182.637 304.758 184.367 313.21 181.385 319.738C182.022 319.253 183.13 319.188 183.831 319.716C184.874 320.505 185.221 321.873 185.728 323.074C186.234 324.275 187.218 325.527 188.521 325.441C190.308 321.062 189.715 316.083 188.557 311.502C187.399 306.921 185.691 302.427 185.322 297.716L185.308 297.709Z" fill="white"/>
<path d="M215.826 235.732C215.855 235.978 215.884 236.224 215.913 236.47C215.963 236.232 215.949 235.978 215.826 235.732Z" fill="white"/>
<path d="M208.524 267.958C203.313 257.718 198.095 247.478 192.364 237.513C189.013 231.687 185.467 225.934 180.995 220.919C179.012 218.697 173.324 213.551 170.19 216.938C168.099 219.196 170.849 223.314 168.28 225.76C168.866 225.796 171.775 225.478 172.079 225.861C178.607 233.923 182.203 244.315 182.059 254.693C184.157 253.05 187.03 255.33 188.666 257.436C198.74 270.375 208.155 283.829 216.861 297.723C215.174 291.579 215.131 285.066 213.307 278.965C212.164 275.13 210.333 271.533 208.517 267.965L208.524 267.958Z" fill="white"/>
</g>
<path d="M213.72 210.28C219.328 217.524 222.534 226.585 222.744 235.739C219.531 236.166 216.955 239.387 217.244 242.622C217.555 240.458 220.732 239.85 222.484 241.16C224.228 242.47 224.828 244.793 225.219 246.942C227.528 259.672 225.784 272.763 226.71 285.667C227.057 290.53 231.19 301.168 233.976 323.414C233.281 307.232 233.947 290.052 233.252 273.871C232.724 261.59 232.536 251.443 230.538 239.314C229.105 230.63 225.176 220.795 220.928 213.081C219.907 211.235 217.353 205.576 215.283 204.824C211.853 203.586 214.168 208.037 213.72 210.273V210.28Z" fill="#ABFA00"/>
<path opacity="0.5" d="M213.72 210.28C219.328 217.524 222.534 226.585 222.744 235.739C219.531 236.166 216.955 239.387 217.244 242.622C217.555 240.458 220.732 239.85 222.484 241.16C224.228 242.47 224.828 244.793 225.219 246.942C227.528 259.672 225.784 272.763 226.71 285.667C227.057 290.53 231.19 301.168 233.976 323.414C233.281 307.232 233.947 290.052 233.252 273.871C232.724 261.59 232.536 251.443 230.538 239.314C229.105 230.63 225.176 220.795 220.928 213.081C219.907 211.235 217.353 205.576 215.283 204.824C211.853 203.586 214.168 208.037 213.72 210.273V210.28Z" fill="white"/>
<path d="M232.087 226.491C231.971 224.725 233.324 222.988 235.061 222.655C236.798 222.322 238.694 223.451 239.23 225.138C237.63 225.051 236.125 226.549 236.205 228.155C237.457 227.663 238.709 227.171 239.961 226.679C240.482 230.392 242.949 233.496 245.396 236.34C247.842 239.177 248.03 241.088 248.934 244.728C249.839 248.368 250.751 253.933 247.176 255.055C248.768 254.736 250.288 256.119 250.729 257.682C251.171 259.238 250.83 260.902 250.505 262.487C248.059 274.348 246.648 286.419 246.286 298.527C249.521 292.484 253.609 282.909 255.23 276.252C259.175 260.106 257.597 257.588 255.086 247.058C253.457 240.241 250.324 233.996 245.786 228.64C243.883 226.39 241.003 222.887 238.217 221.751C235.344 220.578 231.414 223.09 232.087 226.498V226.491Z" fill="#ABFA00"/>
<path opacity="0.5" d="M232.087 226.491C231.971 224.725 233.324 222.988 235.061 222.655C236.798 222.322 238.694 223.451 239.23 225.138C237.63 225.051 236.125 226.549 236.205 228.155C237.457 227.663 238.709 227.171 239.961 226.679C240.482 230.392 242.949 233.496 245.396 236.34C247.842 239.177 248.03 241.088 248.934 244.728C249.839 248.368 250.751 253.933 247.176 255.055C248.768 254.736 250.288 256.119 250.729 257.682C251.171 259.238 250.83 260.902 250.505 262.487C248.059 274.348 246.648 286.419 246.286 298.527C247.719 295.849 249.318 292.484 250.794 288.988C252.654 284.581 254.326 279.964 255.23 276.252C259.175 260.106 257.597 257.588 255.086 247.058C253.457 240.241 250.324 233.996 245.786 228.64C243.883 226.39 241.003 222.887 238.217 221.751C235.344 220.578 231.414 223.09 232.087 226.498V226.491Z" fill="white"/>
<path d="M256.75 252.124C257.814 250.735 258.928 249.294 260.499 248.513C262.069 247.731 264.219 247.833 265.297 249.215C262.742 246.393 260.499 243.295 258.61 239.995C257.944 238.83 257.278 237.592 256.157 236.854C255.223 236.246 253.349 236.022 252.647 237.137C252.017 238.142 252.944 239.944 253.24 240.892C254.413 244.634 255.585 248.383 256.757 252.124H256.75Z" fill="#ABFA00"/>
<path opacity="0.5" d="M256.75 252.124C257.814 250.735 258.928 249.294 260.499 248.513C262.069 247.731 264.219 247.833 265.297 249.215C262.742 246.393 260.499 243.295 258.61 239.995C257.944 238.83 257.278 237.592 256.157 236.854C255.223 236.246 253.349 236.022 252.647 237.137C252.017 238.142 252.944 239.944 253.24 240.892C254.413 244.634 255.585 248.383 256.757 252.124H256.75Z" fill="white"/>
<path d="M255.578 270.411C254.854 273.806 253.667 277.142 253.595 280.615C253.508 284.914 255.231 289.22 258.263 292.267C257.843 287.534 258.089 282.743 259.001 278.075C259.305 276.519 259.37 271.099 260.579 270.079C261.787 269.058 264.002 269.123 264.653 270.571C264.588 268.429 261.946 266.836 260.021 267.77C261.577 267.017 259.406 259.1 259.037 257.544C258.531 255.424 256.287 245.205 253.928 244.648C251.554 244.091 253.704 247.941 253.971 248.665C254.825 250.966 255.455 253.354 255.867 255.771C256.685 260.613 256.613 265.606 255.585 270.411H255.578Z" fill="#ABFA00"/>
<path opacity="0.5" d="M255.578 270.411C254.854 273.806 253.667 277.142 253.595 280.615C253.508 284.914 255.231 289.22 258.263 292.267C257.843 287.534 258.089 282.743 259.001 278.075C259.305 276.519 259.37 271.099 260.579 270.079C261.787 269.058 264.002 269.123 264.653 270.571C264.588 268.429 261.946 266.836 260.021 267.77C261.577 267.017 259.406 259.1 259.037 257.544C258.531 255.424 256.287 245.205 253.928 244.648C251.554 244.091 253.704 247.941 253.971 248.665C254.825 250.966 255.455 253.354 255.867 255.771C256.685 260.613 256.613 265.606 255.585 270.411H255.578Z" fill="white"/>
<path d="M243.905 300.77L244.404 325.99C246.648 323.74 248.341 320.961 249.376 317.957C250.172 315.656 253.573 316.271 253.465 318.703C253.45 319.065 253.429 319.426 253.407 319.781C252.705 331.664 251.996 343.54 251.294 355.423L259.334 325.086C260.76 334.016 256.917 359.179 254.196 367.798C260.854 368.898 263.271 377.198 263.466 383.943C263.662 390.688 263.589 398.62 269.01 402.636C274.249 400.327 273.569 401.862 276.254 401.883C279.539 401.912 282.391 400.06 284.866 397.078C285.821 395.927 286.66 393.764 286.704 392.266C286.805 388.242 284.656 384.884 282.854 381.475C269.625 356.407 274.235 324.803 261.201 299.677C261.107 299.496 260.832 299.547 260.81 299.749C260.21 304.837 258.227 303.592 255.115 299.518C255.093 299.489 250.512 302.622 250.491 302.594C248.276 299.597 247.864 295.682 247.531 291.977C244.527 297.086 243.898 300.763 243.898 300.763L243.905 300.77Z" fill="#ABFA00"/>
<g opacity="0.5">
<path d="M243.905 300.77L244.404 325.99C246.648 323.74 248.341 320.961 249.376 317.957C250.172 315.656 253.573 316.271 253.465 318.703C253.45 319.065 253.429 319.426 253.407 319.781C252.705 331.664 251.996 343.54 251.294 355.423L259.334 325.086C260.76 334.016 256.917 359.179 254.196 367.798C260.854 368.898 263.271 377.198 263.466 383.943C263.662 390.688 263.589 398.62 269.01 402.636C274.249 400.327 273.569 401.862 276.254 401.883C279.539 401.912 282.391 400.06 284.866 397.078C285.821 395.927 286.66 393.764 286.704 392.266C286.805 388.242 284.656 384.884 282.854 381.475C269.625 356.407 274.235 324.803 261.201 299.677C261.107 299.496 260.832 299.547 260.81 299.749C260.21 304.837 258.227 303.592 255.115 299.518C255.093 299.489 250.512 302.622 250.491 302.594C248.276 299.597 247.864 295.682 247.531 291.977C244.527 297.086 243.898 300.763 243.898 300.763L243.905 300.77Z" fill="white"/>
</g>
<path d="M218.46 396.897C219.061 392.475 220.002 383.675 218.424 379.5C217.273 376.446 215.03 373.884 212.388 371.981C208.466 369.158 203.429 367.537 198.588 367.566C198.747 370.07 201.497 370.193 203.277 371.177C205.897 372.617 208.285 374.948 210.29 377.133C213.192 380.296 219.104 392.2 218.467 396.897H218.46Z" fill="#ABFA00"/>
<path opacity="0.5" d="M218.46 396.897C219.061 392.475 220.067 383.654 218.424 379.5C217.157 376.301 214.95 373.775 212.388 371.981C208.43 369.209 203.429 367.537 198.588 367.566C198.747 370.07 201.497 370.193 203.277 371.177C205.897 372.617 208.285 374.948 210.29 377.133C213.192 380.296 219.104 392.2 218.467 396.897H218.46Z" fill="white"/>
</g>
<path d="M216.47 389.147L214.458 381.309C199.68 366.097 172.542 352.173 170.19 331.1C167.15 304.041 162.989 305.141 162.989 298.411C162.989 298.172 164.878 295.038 167.15 288.163C167.896 285.942 168.265 282.678 168.67 280C169.09 277.178 171.608 275.094 174.46 275.303C176.385 275.434 178.302 276.165 179.721 277.359C182.464 279.682 183.853 283.293 184.193 286.875C184.548 290.457 183.983 294.054 183.397 297.607C186.306 303.093 187.949 309.881 189.179 315.967C190.453 310.902 192.436 295.378 187.226 284.957C178.462 267.401 168.866 250.553 161.31 228.278C160.717 226.549 160.558 223.661 161.021 221.888C162.779 215.252 169.56 216.301 172.723 219.883C173.577 220.824 174.221 221.903 174.749 223.046C178.368 230.92 185.771 242.94 191.003 249.844L209.037 273.726L211.209 272.032C211.209 272.032 212.185 242.361 211.701 241.891C211.216 241.406 208.314 222.431 208.314 222.431C208.314 222.431 206.722 218.899 204.782 214.391C202.864 209.889 204.782 206.358 204.782 206.358C208.169 199.439 215.232 202.66 216.68 206.358C218.127 210.049 222.469 217.293 222.469 217.293L230.524 239.322C230.22 244.301 233.078 268.906 233.078 268.906L235.98 267.582L240.648 253.137L237.102 238.345C237.102 238.345 229.388 229.834 230.676 224.841C231.957 219.862 238.549 221.309 238.549 221.309L251.728 237.057H255.599L264.761 248.643C267.236 256.133 268.488 263.927 268.488 271.75C268.488 276.874 267.953 282.034 266.86 287.092L264.761 296.876V360.069C264.761 360.069 271.028 370.193 271.028 371.156C271.028 371.351 272.338 374.969 274.104 379.789" stroke="#2D0F52" stroke-width="0.723687" stroke-miterlimit="10"/>
<path d="M180.763 255.713C183.079 253.137 186.683 251.784 190.12 252.189" stroke="#2D0F52" stroke-width="0.723687" stroke-miterlimit="10"/>
<path d="M174.749 225.499C172.115 225.043 169.314 225.702 167.158 227.279C167.158 227.279 163.366 223.487 164.169 220.39" stroke="#2D0F52" stroke-width="0.723687" stroke-miterlimit="10"/>
<path d="M257.872 292.542C255.78 289.307 253.747 284.863 254.311 281.05C255.411 273.588 258.813 264.991 257.278 257.609C256.301 252.891 255.325 248.173 254.348 243.454" stroke="#2D0F52" stroke-width="0.723687" stroke-miterlimit="10"/>
<path d="M217.208 212.509C215.754 213.551 213.698 213.696 212.113 212.856C210.529 212.017 209.486 210.244 209.53 208.449" stroke="#2D0F52" stroke-width="0.723687" stroke-miterlimit="10"/>
<path d="M211.607 258.528C211.44 261.076 211.773 273.06 211.607 275.607" stroke="#2D0F52" stroke-width="0.723687" stroke-miterlimit="10"/>
<path d="M226.63 280.405C229.945 284.038 229.46 292.759 227.115 297.557" stroke="#2D0F52" stroke-width="0.723687" stroke-miterlimit="10"/>
<path d="M201.026 290.537C202.814 294.033 205.571 297.021 208.828 299.019" stroke="#2D0F52" stroke-width="0.723687" stroke-miterlimit="10"/>
<path d="M247.878 285.761C248.428 289.408 247.603 293.251 245.613 296.356" stroke="#2D0F52" stroke-width="0.723687" stroke-miterlimit="10"/>
<path d="M261.983 297.115C262.142 299.981 261.302 302.898 259.638 305.235" stroke="#2D0F52" stroke-width="0.723687" stroke-miterlimit="10"/>
<path d="M242.653 227.005C240.93 226.172 238.708 226.527 237.333 227.858C236.704 227.033 236.082 226.208 235.452 225.376" stroke="#2D0F52" stroke-width="0.723687" stroke-miterlimit="10"/>
<path d="M227.05 238.171C224.539 236.572 220.855 237.194 219.01 239.539" stroke="#2D0F52" stroke-width="0.723687" stroke-miterlimit="10"/>
<path d="M256.902 258.528C255.325 255.807 252.054 254.186 248.935 254.577" stroke="#2D0F52" stroke-width="0.723687" stroke-miterlimit="10"/>
<path d="M267.099 273.082C267.056 271.113 265.442 269.304 263.495 269.036" stroke="#2D0F52" stroke-width="0.723687" stroke-miterlimit="10"/>
<path d="M189.1 317.176C188.014 317.654 186.929 318.131 185.843 318.609" stroke="#2D0F52" stroke-width="0.723687" stroke-miterlimit="10"/>
<path d="M189.932 319.789C189.404 322.293 189.389 324.905 189.896 327.416" stroke="#2D0F52" stroke-width="0.723687" stroke-miterlimit="10"/>
<path d="M168.591 294.553C166.847 295.936 165.341 297.629 164.169 299.525" stroke="#2D0F52" stroke-width="0.723687" stroke-miterlimit="10"/>
<path d="M169.387 284.632C171.768 282.931 175.567 286.738 177.76 284.791C178.635 284.017 178.701 282.678 178.498 281.527C178.295 280.377 177.89 279.226 178.064 278.075" stroke="#2D0F52" stroke-width="0.723687" stroke-miterlimit="10"/>
<path d="M220.066 320.432C220.132 321.648 220.175 322.864 220.182 324.08" stroke="#2D0F52" stroke-width="0.723687" stroke-miterlimit="10"/>
<path d="M216.658 299.634C218.185 304.837 219.025 310.229 219.661 315.685" stroke="#2D0F52" stroke-width="0.723687" stroke-miterlimit="10"/>
<path d="M212.46 289.234C213.683 291.97 214.776 294.749 215.746 297.557" stroke="#2D0F52" stroke-width="0.723687" stroke-miterlimit="10"/>
<path d="M354.281 189.75L350.405 213.327C350.405 213.327 312.127 221.418 271.653 195.718L284.354 174.13C284.354 174.13 299.737 185.272 316.649 189.168C333.558 193.07 354.281 189.75 354.281 189.75Z" fill="#ABFA00" stroke="#2D0F52" stroke-width="0.909976" stroke-miterlimit="10"/>
<path d="M341.837 208.294C342.273 207.342 343.431 206.884 344.754 206.991L345.65 196.13C345.12 196.076 344.56 195.925 344.006 195.672C342.973 195.199 342.2 194.478 341.803 193.74C336.036 194.098 325.111 194.34 315.411 192.121C304.934 189.726 294.846 184.413 290.47 181.911C289.968 182.311 288.786 182.235 287.529 181.717L280.586 193.902C280.879 194.011 281.182 194.134 281.486 194.273C283.816 195.339 285.382 196.914 284.983 197.785C284.869 198.035 284.595 198.187 284.229 198.273C311.195 211.876 334.739 211.187 342.094 210.535C341.65 209.793 341.522 208.983 341.837 208.294ZM311.65 202.479C307.08 201.399 303.731 199.009 304.172 197.136C304.613 195.263 308.678 194.625 313.248 195.704C317.818 196.784 321.167 199.174 320.726 201.047C320.285 202.92 316.22 203.558 311.65 202.479Z" fill="white" stroke="#2D0F52" stroke-width="0.909976" stroke-miterlimit="10"/>
<g clip-path="url(#clip1_435_1803)">
<path d="M293.527 44.4927C293.527 44.4927 290.208 36.68 276.195 34.7757C262.178 32.8621 255.646 28.5186 252.882 25.6454C250.118 22.7722 249.645 29.5809 255.017 33.2089C260.385 36.8276 269.14 39.1104 269.14 39.1104C269.14 39.1104 260.709 41.5384 254.768 40.7275C254.768 40.7275 253.49 43.29 256.779 44.7565C260.071 46.2323 270.803 46.1889 270.803 46.1889C270.803 46.1889 267.88 48.0134 263.535 49.3417C259.191 50.67 256.551 51.3312 259.135 52.5524C261.72 53.7736 263.845 54.5153 268.169 53.6627C272.49 52.8009 274.898 52.3793 274.898 52.3793C274.898 52.3793 267.774 58.5909 266.542 59.7429C265.31 60.8949 266.158 64.1991 270.02 62.8578C273.881 61.5165 278.799 57.3804 278.799 57.3804C278.799 57.3804 273.712 66.6863 276.624 65.3337C279.533 63.9719 292.717 47.9993 293.549 44.4945L293.527 44.4927Z" fill="white" stroke="#2D0F52" stroke-width="0.909976" stroke-linecap="round" stroke-linejoin="round"/>
<path d="M309.148 83.3512C309.148 83.3512 318.633 83.477 326.32 96.6818C334.008 109.887 341.196 114.632 345.305 116.224C349.413 117.817 342.526 121.054 336.568 117.177C330.61 113.3 324.679 105.5 324.679 105.5C324.679 105.5 325.578 114.898 328.841 120.489C328.841 120.489 326.697 122.806 323.824 120.124C320.95 117.443 316.622 106.719 316.622 106.719C316.622 106.719 315.915 110.376 316.291 115.248C316.676 120.115 317.065 123.025 314.742 120.946C312.42 118.868 310.776 117.055 309.918 112.394C309.051 107.736 308.52 105.159 308.52 105.159C308.52 105.159 304.952 114.795 304.258 116.491C303.565 118.187 299.777 118.691 299.599 114.296C299.42 109.9 301.73 103.319 301.73 103.319C301.73 103.319 294.113 112.18 294.343 108.719C294.568 105.271 305.824 85.62 309.139 83.3549L309.148 83.3512Z" fill="white" stroke="#2D0F52" stroke-width="0.909976" stroke-linecap="round" stroke-linejoin="round"/>
<path d="M309.148 83.3514C306.183 85.3732 296.871 101.308 294.779 107.113L315.32 85.3054C311.746 83.3871 309.158 83.3477 309.158 83.3477L309.148 83.3514Z" fill="#2D0F52" stroke="#2D0F52" stroke-width="0.909976" stroke-miterlimit="10"/>
<path d="M312.487 76.2928C312.487 76.2928 313.554 81.5421 301.958 94.8307C290.34 108.117 274.084 123.315 274.084 123.315C274.084 123.315 273.228 107.118 269.861 99.4303C266.155 90.9611 256.58 80.7279 256.58 80.7279C256.58 80.7279 304.034 51.31 304.386 10.6541C304.386 10.6541 316.206 12.9175 320.399 25.7674C324.593 38.6174 312.474 76.2872 312.474 76.2872L312.487 76.2928Z" fill="#ABFA00" stroke="#2D0F52" stroke-width="0.909976" stroke-linejoin="round"/>
<path d="M308.522 23.2182C308.522 23.2182 296.539 56.9868 275.001 74.2517C275.001 74.2517 276.16 81.1235 268.635 81.7614C268.635 81.7614 277.088 90.8181 277.537 106.143C277.537 106.143 281.59 105.844 282.586 107.612C282.586 107.612 308.202 82.6801 312.319 67.6511C316.428 52.6257 316.65 43.0126 316.689 35.6506C316.719 28.2923 311.995 22.8798 311.995 22.8798C311.995 22.8798 310.393 28.4401 308.522 23.2182ZM304.559 55.5912C307.53 57.0227 307.402 63.1862 304.278 69.3527C301.148 75.5321 296.201 79.3714 293.234 77.9491C290.263 76.5177 290.392 70.3541 293.516 64.1876C296.645 58.0082 301.592 54.169 304.559 55.5912Z" fill="white" stroke="#2D0F52" stroke-width="0.909976" stroke-miterlimit="10"/>
<path d="M311.125 81.4401C311.125 81.4401 319.982 64.2053 321.145 50.2265C322.298 36.2513 320.412 25.773 320.412 25.773C320.412 25.773 322.666 30.7276 316.964 38.1583C313.706 42.3999 307.035 44.8301 307.035 44.8301C307.035 44.8301 311.958 62.2637 311.125 81.4401Z" fill="#ABFA00" stroke="#2D0F52" stroke-width="0.909976" stroke-linejoin="round"/>
</g>
<g clip-path="url(#clip2_435_1803)">
<path d="M192.342 19.1929L200.05 47.4385C200.05 47.4385 161.531 75.9754 103.329 67.9858L106.468 37.4561C106.468 37.4561 129.29 42.0242 150.12 37.7382C170.949 33.4613 192.342 19.1929 192.342 19.1929Z" fill="#ABFA00" stroke="#2D0F52" stroke-width="0.909976" stroke-miterlimit="10"/>
<path d="M187.938 46.2007C187.938 44.9177 188.994 43.8166 190.522 43.2615L185.982 30.7039C185.363 30.9131 184.662 31.0314 183.916 31.0314C182.524 31.0314 181.295 30.622 180.476 30.0032C174.234 33.3428 162.186 39.1848 150.247 41.66C137.352 44.3353 123.403 43.5618 117.251 43.0067C116.896 43.7074 115.54 44.2261 113.875 44.2898L112.355 61.4064C112.738 61.3791 113.138 61.3609 113.548 61.3609C116.687 61.3609 119.235 62.3164 119.235 63.4903C119.235 63.827 119.007 64.1364 118.643 64.4185C155.625 65.8198 181.505 53.0438 189.367 48.5667C188.493 47.9661 187.938 47.1289 187.938 46.2007ZM151.339 55.1185C145.697 56.2469 140.747 55.2914 140.283 52.9801C139.819 50.6687 144.023 47.8842 149.664 46.7558C155.306 45.6275 160.257 46.5829 160.721 48.8943C161.185 51.2056 156.981 53.9901 151.339 55.1185Z" fill="white" stroke="#2D0F52" stroke-width="0.909976" stroke-miterlimit="10"/>
</g>
<g clip-path="url(#clip3_435_1803)">
<path d="M24.2424 112.129C24.2424 112.129 53.8712 102.374 71.2154 90.8079L89.6424 121.156C89.6424 121.156 45.5632 155.48 33.9974 146.444L24.2424 112.129Z" fill="#ABFA00" stroke="#2D0F52" stroke-width="0.909976" stroke-linejoin="round"/>
<path d="M76.994 119.354C76.994 117.607 78.2862 116.132 80.0788 115.605L71.889 102.028C71.2429 102.246 70.5241 102.374 69.7688 102.374C67.7304 102.374 65.9924 101.509 65.1916 100.271C49.8858 110.964 26.4084 116.46 26.4084 116.46L31.1039 134.887C31.1039 134.887 30.385 145.006 43.0246 142.476C52.8159 140.52 71.243 128.18 79.0869 122.693C77.8312 121.984 76.994 120.755 76.994 119.345V119.354ZM45.4269 132.912C39.8852 134.177 34.7256 132.294 33.8975 128.699C33.0695 125.105 36.9005 121.155 42.4422 119.881C47.984 118.617 53.1526 120.5 53.9716 124.095C54.7997 127.689 50.9687 131.638 45.4269 132.912Z" fill="white" stroke="#2D0F52" stroke-width="0.909976" stroke-miterlimit="10"/>
<path d="M19.9111 98.3972L40.149 138.5C40.149 138.5 33.2878 142.112 34.0066 146.453L14.4877 108.152C14.4877 108.152 11.9579 102.01 19.9111 98.3972Z" fill="#ABFA00" stroke="#2D0F52" stroke-width="0.909976" stroke-linejoin="round"/>
<path d="M16.2168 111.555L31.2405 141.048C31.9776 138.873 34.3617 137.79 34.3617 137.79L17.7365 108.516L16.2168 111.555Z" fill="white" stroke="#2D0F52" stroke-width="0.909976" stroke-miterlimit="10"/>
</g>
<path d="M166.27 143.906C166.229 143.539 166.058 143.255 165.758 143.053C165.459 142.849 165.081 142.747 164.626 142.747C164.3 142.747 164.019 142.798 163.781 142.902C163.543 143.003 163.358 143.142 163.226 143.321C163.097 143.496 163.032 143.697 163.032 143.922C163.032 144.11 163.076 144.273 163.164 144.41C163.255 144.547 163.372 144.662 163.517 144.755C163.664 144.846 163.822 144.922 163.99 144.984C164.158 145.044 164.32 145.093 164.475 145.131L165.25 145.333C165.504 145.395 165.764 145.479 166.03 145.585C166.296 145.691 166.543 145.831 166.771 146.004C166.998 146.177 167.182 146.392 167.321 146.648C167.463 146.904 167.534 147.21 167.534 147.567C167.534 148.016 167.418 148.416 167.185 148.765C166.955 149.114 166.621 149.389 166.181 149.591C165.744 149.792 165.216 149.893 164.595 149.893C164.001 149.893 163.486 149.799 163.052 149.61C162.618 149.422 162.278 149.154 162.032 148.808C161.786 148.459 161.651 148.045 161.625 147.567H162.827C162.85 147.854 162.943 148.093 163.106 148.284C163.272 148.473 163.482 148.614 163.738 148.707C163.997 148.797 164.28 148.842 164.587 148.842C164.926 148.842 165.227 148.789 165.491 148.683C165.757 148.575 165.967 148.425 166.119 148.234C166.272 148.04 166.348 147.814 166.348 147.555C166.348 147.32 166.281 147.127 166.146 146.977C166.014 146.827 165.835 146.703 165.607 146.605C165.382 146.507 165.128 146.42 164.843 146.345L163.905 146.089C163.269 145.916 162.765 145.661 162.393 145.325C162.023 144.989 161.838 144.545 161.838 143.991C161.838 143.534 161.962 143.134 162.21 142.793C162.459 142.452 162.795 142.187 163.219 141.998C163.643 141.807 164.121 141.711 164.653 141.711C165.191 141.711 165.665 141.806 166.076 141.994C166.49 142.183 166.816 142.443 167.054 142.774C167.291 143.102 167.416 143.48 167.426 143.906H166.27ZM168.873 149.761V143.805H170.033V149.761H168.873ZM169.459 142.886C169.257 142.886 169.084 142.819 168.939 142.685C168.797 142.548 168.726 142.385 168.726 142.196C168.726 142.005 168.797 141.842 168.939 141.707C169.084 141.57 169.257 141.502 169.459 141.502C169.66 141.502 169.832 141.57 169.975 141.707C170.119 141.842 170.192 142.005 170.192 142.196C170.192 142.385 170.119 142.548 169.975 142.685C169.832 142.819 169.66 142.886 169.459 142.886Z" fill="#2D0F52"/>
<path d="M151.019 197.99V190.049H155.998V191.08H152.217V193.5H155.738V194.527H152.217V196.959H156.045V197.99H151.019ZM158.665 194.454V197.99H157.506V192.034H158.619V193.003H158.692C158.829 192.688 159.044 192.435 159.336 192.243C159.631 192.052 160.002 191.956 160.449 191.956C160.855 191.956 161.21 192.042 161.515 192.212C161.82 192.38 162.057 192.631 162.225 192.965C162.393 193.298 162.477 193.711 162.477 194.202V197.99H161.318V194.341C161.318 193.91 161.205 193.572 160.98 193.329C160.755 193.084 160.446 192.961 160.053 192.961C159.785 192.961 159.545 193.019 159.336 193.135C159.129 193.252 158.965 193.422 158.844 193.647C158.725 193.869 158.665 194.138 158.665 194.454ZM168.914 192.034L166.754 197.99H165.513L163.349 192.034H164.594L166.103 196.618H166.165L167.669 192.034H168.914ZM170.004 197.99V192.034H171.163V197.99H170.004ZM170.589 191.115C170.388 191.115 170.214 191.048 170.07 190.913C169.927 190.776 169.856 190.613 169.856 190.425C169.856 190.233 169.927 190.071 170.07 189.936C170.214 189.799 170.388 189.731 170.589 189.731C170.791 189.731 170.963 189.799 171.105 189.936C171.25 190.071 171.322 190.233 171.322 190.425C171.322 190.613 171.25 190.776 171.105 190.913C170.963 191.048 170.791 191.115 170.589 191.115ZM174.456 198.122C174.079 198.122 173.738 198.052 173.433 197.913C173.127 197.77 172.886 197.565 172.707 197.296C172.532 197.027 172.444 196.698 172.444 196.307C172.444 195.971 172.508 195.695 172.638 195.477C172.767 195.26 172.941 195.088 173.161 194.962C173.381 194.835 173.626 194.739 173.898 194.675C174.169 194.61 174.446 194.561 174.728 194.527C175.084 194.486 175.374 194.452 175.596 194.427C175.819 194.398 175.98 194.353 176.081 194.291C176.182 194.229 176.232 194.128 176.232 193.988V193.961C176.232 193.623 176.137 193.36 175.945 193.174C175.757 192.988 175.475 192.895 175.1 192.895C174.71 192.895 174.402 192.981 174.177 193.155C173.955 193.325 173.801 193.515 173.716 193.725L172.626 193.477C172.755 193.115 172.944 192.823 173.192 192.6C173.443 192.375 173.731 192.212 174.057 192.112C174.383 192.008 174.725 191.956 175.084 191.956C175.322 191.956 175.574 191.985 175.841 192.042C176.109 192.096 176.36 192.197 176.593 192.344C176.828 192.492 177.021 192.702 177.171 192.976C177.321 193.248 177.396 193.601 177.396 194.035V197.99H176.263V197.176H176.217C176.142 197.326 176.029 197.473 175.879 197.618C175.729 197.763 175.537 197.883 175.302 197.979C175.066 198.074 174.785 198.122 174.456 198.122ZM174.708 197.191C175.029 197.191 175.303 197.128 175.53 197.001C175.76 196.875 175.935 196.709 176.054 196.505C176.175 196.298 176.236 196.077 176.236 195.842V195.074C176.195 195.116 176.115 195.154 175.996 195.191C175.879 195.224 175.746 195.254 175.596 195.28C175.446 195.303 175.3 195.325 175.158 195.346C175.016 195.364 174.897 195.379 174.801 195.392C174.576 195.421 174.371 195.468 174.185 195.536C174.001 195.603 173.854 195.7 173.743 195.826C173.634 195.951 173.58 196.116 173.58 196.323C173.58 196.61 173.686 196.827 173.898 196.974C174.11 197.119 174.38 197.191 174.708 197.191ZM178.94 197.99V192.034H180.061V192.98H180.123C180.231 192.66 180.422 192.408 180.697 192.224C180.973 192.038 181.286 191.945 181.635 191.945C181.707 191.945 181.793 191.947 181.891 191.953C181.992 191.958 182.071 191.964 182.127 191.972V193.081C182.081 193.068 181.998 193.054 181.879 193.038C181.76 193.02 181.641 193.011 181.522 193.011C181.248 193.011 181.004 193.069 180.79 193.186C180.578 193.299 180.41 193.458 180.285 193.663C180.161 193.864 180.099 194.094 180.099 194.353V197.99H178.94Z" fill="#2D0F52"/>
</g>
<defs>
<clipPath id="clip0_435_1803">
<rect width="360" height="389.47" fill="white" transform="translate(0 0.265137)"/>
</clipPath>
<clipPath id="clip1_435_1803">
<rect width="81.8978" height="123.757" fill="white" transform="translate(235.684 30.115) rotate(-21.3752)"/>
</clipPath>
<clipPath id="clip2_435_1803">
<rect width="97.7405" height="51.3863" fill="white" transform="translate(102.828 18.4648)"/>
</clipPath>
<clipPath id="clip3_435_1803">
<rect width="76.4471" height="58.0655" fill="white" transform="translate(13.6504 90.353)"/>
</clipPath>
</defs>
</svg>
