<svg width="360" height="322" viewBox="0 0 360 322" fill="none" xmlns="http://www.w3.org/2000/svg">
<g clip-path="url(#clip0_41_10594)">
<path opacity="0.7" d="M356.38 151.133C352.319 131.259 345.188 111.874 336.708 94.0461C322.089 63.2897 298.138 37.7498 267.498 22.5887C192.313 -14.6166 138.055 0.885576 108.601 31.1149C79.1466 61.3442 87.6728 113.277 55.8933 135.755C24.1137 158.233 1.63553 168.309 0.0853072 209.39C-1.46491 250.471 18.688 281.476 51.2426 291.552C83.7972 301.628 132.629 334.183 230.293 315.58C327.957 296.978 351.985 245.045 358.186 207.84C361.31 189.121 360.217 169.914 356.38 151.133Z" fill="white" fill-opacity="0.12"/>
<path d="M107.926 78.1096V32.3083" stroke="#263238" stroke-width="0.77511" stroke-linecap="round" stroke-linejoin="round"/>
<path d="M107.926 307.333V82.6672" stroke="#263238" stroke-width="0.77511" stroke-linecap="round" stroke-linejoin="round"/>
<path d="M127.451 37.7188H120.429V68.8394H127.451V37.7188Z" fill="#C9C9C9" stroke="#263238" stroke-width="0.77511" stroke-linecap="round" stroke-linejoin="round"/>
<path d="M127.451 42.4004H120.429V45.4388H127.451V42.4004Z" fill="white" stroke="#263238" stroke-width="0.77511" stroke-linecap="round" stroke-linejoin="round"/>
<path d="M127.451 61.7004H120.429V64.7389H127.451V61.7004Z" fill="white" stroke="#263238" stroke-width="0.77511" stroke-linecap="round" stroke-linejoin="round"/>
<path d="M135.644 37.7188H125.816V68.8394H135.644V37.7188Z" fill="#878787" stroke="#263238" stroke-width="0.77511" stroke-linecap="round" stroke-linejoin="round"/>
<path d="M134.939 37.7188H127.917V68.8394H134.939V37.7188Z" fill="#C9C9C9" stroke="#263238" stroke-width="0.77511" stroke-linecap="round" stroke-linejoin="round"/>
<path d="M134.939 42.4004H127.917V45.4388H134.939V42.4004Z" fill="white" stroke="#263238" stroke-width="0.77511" stroke-linecap="round" stroke-linejoin="round"/>
<path d="M134.939 61.7004H127.917V64.7389H134.939V61.7004Z" fill="white" stroke="#263238" stroke-width="0.77511" stroke-linecap="round" stroke-linejoin="round"/>
<path d="M143.132 37.7188H133.303V68.8394H143.132V37.7188Z" fill="#878787" stroke="#263238" stroke-width="0.77511" stroke-linecap="round" stroke-linejoin="round"/>
<path d="M142.427 37.7188H135.404V68.8394H142.427V37.7188Z" fill="#C9C9C9" stroke="#263238" stroke-width="0.77511" stroke-linecap="round" stroke-linejoin="round"/>
<path d="M142.427 42.4004H135.404V45.4388H142.427V42.4004Z" fill="white" stroke="#263238" stroke-width="0.77511" stroke-linecap="round" stroke-linejoin="round"/>
<path d="M142.427 61.7004H135.404V64.7389H142.427V61.7004Z" fill="white" stroke="#263238" stroke-width="0.77511" stroke-linecap="round" stroke-linejoin="round"/>
<path d="M150.619 37.7188H140.791V68.8394H150.619V37.7188Z" fill="#C9C9C9" stroke="#263238" stroke-width="0.77511" stroke-linecap="round" stroke-linejoin="round"/>
<path d="M157.022 69.157H173.516L177.903 65.1885H157.022V69.157Z" fill="white" stroke="#263238" stroke-width="0.77511" stroke-linecap="round" stroke-linejoin="round"/>
<path d="M176.035 69.3587L175.508 68.4518L156.673 68.4131L157.223 69.3587H176.035Z" fill="white" stroke="#263238" stroke-width="0.77511" stroke-linecap="round" stroke-linejoin="round"/>
<path d="M147.473 38.3585L141.394 41.874L156.973 68.8145L163.052 65.299L147.473 38.3585Z" fill="#C9C9C9" stroke="#263238" stroke-width="0.77511" stroke-linecap="round" stroke-linejoin="round"/>
<path d="M149.818 42.4008L143.739 45.9163L145.26 48.5466L151.34 45.0311L149.818 42.4008Z" fill="white" stroke="#263238" stroke-width="0.77511" stroke-linecap="round" stroke-linejoin="round"/>
<path d="M159.486 59.1198L153.407 62.6353L154.928 65.2656L161.008 61.7501L159.486 59.1198Z" fill="white" stroke="#263238" stroke-width="0.77511" stroke-linecap="round" stroke-linejoin="round"/>
<path d="M177.787 65.4599L162.889 65.4211L147.31 38.4783L162.207 38.517L177.787 65.4599Z" fill="#C9C9C9" stroke="#263238" stroke-width="0.77511" stroke-linecap="round" stroke-linejoin="round"/>
<path d="M185.918 53.3992C185.918 53.3992 183.205 52.4304 182.43 48.1673C181.655 43.9041 180.298 37.897 181.849 36.5406C183.399 35.1842 186.306 34.409 186.693 37.1219C187.081 39.8348 186.499 45.0668 187.081 46.2295C187.662 47.3921 189.6 46.617 189.6 44.2917C189.6 40.4627 188.026 36.5406 188.6 32.634C189.391 27.2703 194.801 26.6889 195.382 32.603C195.708 35.8895 195.801 39.2457 195.801 42.5477C195.801 43.9041 198.126 44.6793 197.932 41.385C197.793 39.0287 199.482 36.3468 201.808 37.1219C204.133 37.897 202.195 48.1673 201.42 49.9113C200.645 51.6553 195.801 52.0428 195.801 52.0428V56.4997L189.987 56.6935L189.794 52.2366C189.794 52.2366 187.856 53.3992 185.918 53.3992Z" fill="#ABFA00" stroke="#263238" stroke-width="0.77511" stroke-linecap="round" stroke-linejoin="round"/>
<path d="M191.15 44.9041C191.22 45.8729 191.266 46.4853 191.266 46.4853" stroke="#263238" stroke-width="0.77511" stroke-linecap="round" stroke-linejoin="round"/>
<path d="M191.561 29.8745C191.561 29.8745 190.282 30.7581 190.383 33.4168C190.445 35.029 190.755 39.4859 190.995 42.7568" stroke="#263238" stroke-width="0.77511" stroke-linecap="round" stroke-linejoin="round"/>
<path d="M193.723 39.0129L193.917 45.5006" stroke="#263238" stroke-width="0.77511" stroke-linecap="round" stroke-linejoin="round"/>
<path d="M196.56 49.7097C195.808 49.826 195.204 49.826 195.204 49.826" stroke="#263238" stroke-width="0.77511" stroke-linecap="round" stroke-linejoin="round"/>
<path d="M200.606 38.8193C200.606 38.8193 199.917 39.9975 199.917 41.571C199.917 43.1445 200.017 47.4696 199.033 48.6477C198.816 48.9035 198.514 49.1051 198.173 49.2678" stroke="#263238" stroke-width="0.77511" stroke-linecap="round" stroke-linejoin="round"/>
<path d="M183.755 47.5315C184.166 48.9267 184.678 50.0661 185.368 50.6087C187.135 51.9884 188.809 50.7094 188.809 50.7094" stroke="#263238" stroke-width="0.77511" stroke-linecap="round" stroke-linejoin="round"/>
<path d="M183.601 37.0442C183.601 37.0442 181.632 37.0442 182.322 40.4857C182.608 41.9351 182.887 43.7179 183.236 45.3921" stroke="#263238" stroke-width="0.77511" stroke-linecap="round" stroke-linejoin="round"/>
<path d="M190.972 50.1204L191.367 54.3447" stroke="#263238" stroke-width="0.77511" stroke-linecap="round" stroke-linejoin="round"/>
<path d="M201.033 54.7556L200.327 60.5379L199.847 64.4755L199.289 69.0564H185.344L184.786 64.4755L184.306 60.5379L183.6 54.7556H201.033Z" fill="white" stroke="#263238" stroke-width="0.77511" stroke-linecap="round" stroke-linejoin="round"/>
<path d="M200.327 60.5378L199.847 64.4754H184.786L184.306 60.5378H200.327Z" fill="#ABFA00" stroke="#263238" stroke-width="0.77511" stroke-linecap="round" stroke-linejoin="round"/>
<path d="M208.691 69.0564H119.189V74.986H208.691V69.0564Z" fill="white" stroke="#263238" stroke-width="0.77511" stroke-linecap="round" stroke-linejoin="round"/>
<path d="M208.691 69.0564H188.057V74.986H208.691V69.0564Z" fill="white" stroke="#263238" stroke-width="0.77511" stroke-linecap="round" stroke-linejoin="round"/>
<path d="M186.05 75.009C195.638 78.5513 193.909 85.225 193.909 85.225H202.994V75.009H186.058H186.05Z" fill="#919191" stroke="#263238" stroke-width="0.77511" stroke-linecap="round" stroke-linejoin="round"/>
<path d="M189.104 75.009C198.692 78.5513 196.963 85.225 196.963 85.225H206.048V75.009H189.112H189.104Z" fill="white" stroke="#263238" stroke-width="0.77511" stroke-linecap="round" stroke-linejoin="round"/>
<path d="M124.622 75.009C134.21 78.5513 132.482 85.225 132.482 85.225H141.566V75.009H124.63H124.622Z" fill="#919191" stroke="#263238" stroke-width="0.77511" stroke-linecap="round" stroke-linejoin="round"/>
<path d="M127.676 75.009C137.264 78.5513 135.536 85.225 135.536 85.225H144.62V75.009H127.684H127.676Z" fill="white" stroke="#263238" stroke-width="0.77511" stroke-linecap="round" stroke-linejoin="round"/>
<path d="M333.414 38.8271H253.143V150.257H333.414V38.8271Z" fill="#919191" stroke="#263238" stroke-width="0.77511" stroke-linecap="round" stroke-linejoin="round"/>
<path d="M329.926 43.6638H256.624V145.42H329.926V43.6638Z" fill="#ABFA00"/>
<path opacity="0.5" d="M329.926 43.6638H256.624V145.42H329.926V43.6638Z" fill="white"/>
<path d="M272.746 137.692C270.459 141.118 267.901 143.614 265.413 145.428H329.934V43.6638H318.051C317.539 43.8188 317.012 43.9816 316.485 44.1521C304.828 47.8184 292.844 58.4297 286.031 77.7144" stroke="#263238" stroke-width="0.77511" stroke-linecap="round" stroke-linejoin="round"/>
<path d="M284.907 81.094C282.45 89.1164 280.854 98.5107 280.458 109.386C280.04 120.896 277.59 129.166 274.319 135.104" stroke="#263238" stroke-width="0.77511" stroke-linecap="round" stroke-linejoin="round"/>
<path d="M322.756 69.4907C312.098 75.7226 299.689 86.1091 295.054 102.084C292.566 110.641 294.899 118.299 299.511 124.88" stroke="#263238" stroke-width="0.77511" stroke-linecap="round" stroke-linejoin="round"/>
<path d="M302.006 128.081C308.409 135.576 317.509 141.459 324.88 145.42H329.918V65.7234C328.476 66.3977 326.942 67.1651 325.345 68.0255" stroke="#263238" stroke-width="0.77511" stroke-linecap="round" stroke-linejoin="round"/>
<path d="M268.816 70.1881C274.428 58.7552 275.04 49.6787 274.374 43.6638H256.631V90.2169C259.259 86.4887 262.468 81.5047 266.343 74.8233C266.576 74.4202 266.809 74.0171 267.033 73.6141" stroke="#263238" stroke-width="0.77511" stroke-linecap="round" stroke-linejoin="round"/>
<path d="M275.761 114.261C274.893 119.896 272.312 123.981 269.258 123.981C265.491 123.981 262.445 117.772 262.445 110.106C262.445 102.441 265.499 96.2319 269.258 96.2319C273.017 96.2319 276.071 102.441 276.071 110.106" stroke="#263238" stroke-width="0.77511" stroke-linecap="round" stroke-linejoin="round"/>
<path d="M278.993 81.6365C278.993 84.5974 277.683 86.9925 276.071 86.9925C274.459 86.9925 273.149 84.5974 273.149 81.6365C273.149 78.6756 274.459 76.2805 276.071 76.2805C277.683 76.2805 278.993 78.6756 278.993 81.6365Z" stroke="#263238" stroke-width="0.77511" stroke-linecap="round" stroke-linejoin="round"/>
<path d="M316.183 104.262C318.997 105.603 320.857 107.944 320.857 110.603C320.857 114.773 316.284 118.144 310.633 118.144C304.983 118.144 300.41 114.765 300.41 110.603C300.41 106.44 304.983 103.061 310.633 103.061C311.564 103.061 312.463 103.154 313.315 103.324" stroke="#263238" stroke-width="0.77511" stroke-linecap="round" stroke-linejoin="round"/>
<path d="M314.92 110.595C314.92 112.339 312.997 113.757 310.633 113.757C308.269 113.757 306.347 112.339 306.347 110.595C306.347 108.851 308.269 107.432 310.633 107.432C312.997 107.432 314.92 108.851 314.92 110.595Z" stroke="#263238" stroke-width="0.77511" stroke-linecap="round" stroke-linejoin="round"/>
<path d="M321.834 91.3718C321.834 93.7902 319.438 95.7512 316.478 95.7512C313.517 95.7512 311.122 93.7902 311.122 91.3718C311.122 88.9535 313.517 86.9924 316.478 86.9924C319.438 86.9924 321.834 88.9535 321.834 91.3718Z" stroke="#263238" stroke-width="0.77511" stroke-linecap="round" stroke-linejoin="round"/>
<path d="M283.132 67.0333C285.148 67.0333 286.783 63.0009 286.783 58.0266C286.783 53.0522 285.148 49.0198 283.132 49.0198C281.116 49.0198 279.481 53.0522 279.481 58.0266C279.481 63.0009 281.116 67.0333 283.132 67.0333Z" stroke="#263238" stroke-width="0.77511" stroke-linecap="round" stroke-linejoin="round"/>
<path d="M293.108 135.421C293.108 138.243 290.821 140.529 288 140.529C285.179 140.529 282.892 138.243 282.892 135.421C282.892 132.6 285.179 130.313 288 130.313C290.821 130.313 293.108 132.6 293.108 135.421Z" stroke="#263238" stroke-width="0.77511" stroke-linecap="round" stroke-linejoin="round"/>
<path d="M316.966 59.484C316.966 61.228 315.547 62.6464 313.803 62.6464C312.059 62.6464 310.641 61.228 310.641 59.484C310.641 57.74 312.059 56.3215 313.803 56.3215C315.547 56.3215 316.966 57.74 316.966 59.484Z" stroke="#263238" stroke-width="0.77511" stroke-linecap="round" stroke-linejoin="round"/>
<path d="M297.007 81.8769C297.007 82.8148 296.247 83.5821 295.302 83.5821C294.356 83.5821 293.596 82.8225 293.596 81.8769C293.596 80.9312 294.356 80.1716 295.302 80.1716C296.247 80.1716 297.007 80.9312 297.007 81.8769Z" stroke="#263238" stroke-width="0.77511" stroke-linecap="round" stroke-linejoin="round"/>
<path d="M329.926 43.6638H256.624V145.42H329.926V43.6638Z" stroke="#263238" stroke-width="0.77511" stroke-linecap="round" stroke-linejoin="round"/>
<path d="M210.132 188.764H190.22V196.26H210.132V188.764Z" fill="#263238" stroke="#263238" stroke-width="0.77511" stroke-linecap="round" stroke-linejoin="round"/>
<path d="M236.85 189.888H157.595L161.347 128.461H240.602L236.85 189.888Z" fill="#919191" stroke="#263238" stroke-width="0.77511" stroke-linecap="round" stroke-linejoin="round"/>
<path d="M234.579 189.888H155.317L159.068 128.461H238.331L234.579 189.888Z" fill="#263238" stroke="#263238" stroke-width="0.77511" stroke-linecap="round" stroke-linejoin="round"/>
<path d="M230.386 186.478H159.928L163.269 131.871H233.719L230.386 186.478Z" fill="white" stroke="#263238" stroke-width="0.77511" stroke-linecap="round" stroke-linejoin="round"/>
<path d="M209.892 178.339H162.037L164.602 136.251H212.458L209.892 178.339Z" fill="#919191" stroke="#263238" stroke-width="0.77511" stroke-linecap="round" stroke-linejoin="round"/>
<path d="M180.911 160.256C180.911 160.256 170.943 164.209 170.881 165.271C170.819 166.333 168.865 178.339 168.865 178.339H198.49L195.994 164.511L185.027 159.954L180.903 160.256H180.911Z" fill="white" stroke="#263238" stroke-width="0.77511" stroke-linecap="round" stroke-linejoin="round"/>
<path d="M181.213 157.83C181.213 157.83 179.98 158.132 179.174 158.892C178.368 159.651 177.454 162.232 177.454 162.232L177.423 165.271L181.352 163.147L185.321 162.845L189.057 166.34L189.53 161.023C189.53 161.023 188.956 157.985 187.747 157.83C186.538 157.675 181.213 157.83 181.213 157.83Z" fill="white" stroke="#263238" stroke-width="0.77511" stroke-linecap="round" stroke-linejoin="round"/>
<path d="M181.089 154.938L180.911 160.256L183.267 164.054L187.15 160.108L187.755 155.249L181.089 154.938Z" fill="white" stroke="#263238" stroke-width="0.77511" stroke-linecap="round" stroke-linejoin="round"/>
<path d="M190.661 148.73C190.39 153.187 187.429 158.589 184.174 158.589C180.918 158.589 178.624 153.187 178.895 148.73C179.167 144.273 182.019 140.661 185.267 140.661C188.514 140.661 190.925 144.273 190.654 148.73H190.661Z" fill="white" stroke="#263238" stroke-width="0.77511" stroke-linecap="round" stroke-linejoin="round"/>
<path d="M178.849 149.319C178.849 149.319 177.802 146.583 177.368 148.715C176.934 150.838 179.074 153.117 179.074 153.117L178.849 149.319Z" fill="white" stroke="#263238" stroke-width="0.77511" stroke-linecap="round" stroke-linejoin="round"/>
<path d="M190.662 148.73C190.662 148.73 193.227 147.652 192.483 149.931C191.739 152.21 189.879 152.815 189.879 152.815L190.669 148.73H190.662Z" fill="white" stroke="#263238" stroke-width="0.77511" stroke-linecap="round" stroke-linejoin="round"/>
<path d="M183.864 149.319C183.934 148.141 183.042 147.195 181.864 147.195C180.686 147.195 179.678 148.149 179.609 149.319C179.539 150.497 180.43 151.443 181.608 151.443C182.787 151.443 183.794 150.49 183.864 149.319Z" fill="white" stroke="#263238" stroke-width="0.77511" stroke-linecap="round" stroke-linejoin="round"/>
<path d="M189.026 149.319L191.344 148.714" stroke="#263238" stroke-width="0.77511" stroke-linecap="round" stroke-linejoin="round"/>
<path d="M189.026 149.319C189.096 148.141 188.204 147.195 187.026 147.195C185.848 147.195 184.84 148.149 184.771 149.319C184.701 150.497 185.592 151.443 186.77 151.443C187.949 151.443 188.956 150.49 189.026 149.319Z" fill="white" stroke="#263238" stroke-width="0.77511" stroke-linecap="round" stroke-linejoin="round"/>
<path d="M184.747 139.746C184.747 139.746 182.391 138.529 180.67 139.289C178.95 140.049 177.64 144.149 177.725 145.211C177.81 146.273 178.841 149.311 178.841 149.311L180.686 143.994L185.523 141.87L184.74 139.746H184.747Z" fill="#263238" stroke="#263238" stroke-width="0.77511" stroke-linecap="round" stroke-linejoin="round"/>
<path d="M182.407 140.816C182.407 140.816 186.236 137.778 189.336 139.297C192.437 140.816 192.119 143.552 192.072 144.312C192.026 145.072 191.964 148.567 191.964 148.567L190.119 148.87L189.235 145.986C189.235 145.986 187.794 145.436 186.189 144.537C186.189 144.537 182.066 144.01 182.414 140.816H182.407Z" fill="#263238" stroke="#263238" stroke-width="0.77511" stroke-linecap="round" stroke-linejoin="round"/>
<path d="M183.864 149.319L183.593 153.729H184.654" fill="white"/>
<path d="M183.864 149.319L183.593 153.729H184.654" stroke="#263238" stroke-width="0.77511" stroke-linecap="round" stroke-linejoin="round"/>
<path d="M183.034 155.396H185.313" stroke="#263238" stroke-width="0.77511" stroke-linecap="round" stroke-linejoin="round"/>
<path d="M183.267 164.054L182.422 177.882" stroke="#263238" stroke-width="0.77511" stroke-linecap="round" stroke-linejoin="round"/>
<path d="M196.002 164.511C196.002 164.511 192.832 171.65 192.739 173.169C192.646 174.688 192.289 178.029 192.289 178.029" stroke="#263238" stroke-width="0.77511" stroke-linecap="round" stroke-linejoin="round"/>
<path d="M170.881 165.271C170.881 165.271 174.043 170.743 174.454 171.503C174.865 172.262 174.361 178.037 174.361 178.037" stroke="#263238" stroke-width="0.77511" stroke-linecap="round" stroke-linejoin="round"/>
<path d="M198.11 169.681L199.165 164.969L200.947 163.147L202.629 160.411H203.389L202.451 163.294L204.815 161.93L206.334 159.496L207.218 159.954L205.048 165.573L201.606 167.247L201.009 169.526L198.11 169.681Z" fill="white" stroke="#263238" stroke-width="0.77511" stroke-linecap="round" stroke-linejoin="round"/>
<path d="M201.064 178.339L201.35 168.922L197.893 168.309L195.165 178.339H201.064Z" fill="white" stroke="#263238" stroke-width="0.77511" stroke-linecap="round" stroke-linejoin="round"/>
<path d="M209.675 181.835H161.82L162.037 178.339H209.892L209.675 181.835Z" fill="white" stroke="#263238" stroke-width="0.77511" stroke-linecap="round" stroke-linejoin="round"/>
<path d="M163.773 179.704H207.683" stroke="#263238" stroke-width="0.77511" stroke-linecap="round" stroke-linejoin="round"/>
<path d="M230.463 147.49H214.357L215.039 136.398H231.138L230.463 147.49Z" fill="#ABFA00" stroke="#263238" stroke-width="0.77511" stroke-linecap="round" stroke-linejoin="round"/>
<path d="M230.463 147.49H214.357L214.473 145.668H230.572L230.463 147.49Z" fill="white" stroke="#263238" stroke-width="0.77511" stroke-linecap="round" stroke-linejoin="round"/>
<path d="M225.263 141.297L221.077 138.793L220.775 143.8L225.263 141.297Z" fill="white" stroke="#263238" stroke-width="0.77511" stroke-linecap="round" stroke-linejoin="round"/>
<path d="M229.417 164.659H213.31L213.985 153.567H230.091L229.417 164.659Z" fill="#ABFA00" stroke="#263238" stroke-width="0.77511" stroke-linecap="round" stroke-linejoin="round"/>
<path d="M229.417 164.659H213.31L213.419 162.837H229.526L229.417 164.659Z" fill="white" stroke="#263238" stroke-width="0.77511" stroke-linecap="round" stroke-linejoin="round"/>
<path d="M224.208 158.466L220.03 155.97L219.72 160.969L224.208 158.466Z" fill="white" stroke="#263238" stroke-width="0.77511" stroke-linecap="round" stroke-linejoin="round"/>
<path d="M228.363 181.835H212.264L212.938 170.743H229.045L228.363 181.835Z" fill="#ABFA00" stroke="#263238" stroke-width="0.77511" stroke-linecap="round" stroke-linejoin="round"/>
<path d="M228.363 181.835H212.264L212.372 180.013H228.479L228.363 181.835Z" fill="white" stroke="#263238" stroke-width="0.77511" stroke-linecap="round" stroke-linejoin="round"/>
<path d="M223.162 175.642L218.976 173.138L218.674 178.146L223.162 175.642Z" fill="white" stroke="#263238" stroke-width="0.77511" stroke-linecap="round" stroke-linejoin="round"/>
<path d="M214.396 149.319H230.045" stroke="#263238" stroke-width="0.77511" stroke-linecap="round" stroke-linejoin="round"/>
<path d="M214.287 151.141H229.937" stroke="#263238" stroke-width="0.77511" stroke-linecap="round" stroke-linejoin="round"/>
<path d="M213.341 166.643H228.991" stroke="#263238" stroke-width="0.77511" stroke-linecap="round" stroke-linejoin="round"/>
<path d="M213.233 168.464H228.875" stroke="#263238" stroke-width="0.77511" stroke-linecap="round" stroke-linejoin="round"/>
<path d="M206.396 196.26H194.653C194.653 193.818 196.63 191.842 199.071 191.842H201.97C204.412 191.842 206.388 193.818 206.388 196.26H206.396Z" fill="white" stroke="#263238" stroke-width="0.77511" stroke-linecap="round" stroke-linejoin="round"/>
<path d="M189.026 193.842H131.497V196.252H189.026V193.842Z" fill="#919191" stroke="#263238" stroke-width="0.77511" stroke-linecap="round" stroke-linejoin="round"/>
<path d="M189.018 193.842H174.562V196.252H189.018V193.842Z" fill="white" stroke="#263238" stroke-width="0.77511" stroke-linecap="round" stroke-linejoin="round"/>
<path d="M212.512 212.328L219.465 306.372C219.519 307.077 220.108 307.628 220.813 307.628C221.565 307.628 222.178 307.015 222.17 306.256L221.147 212.328H212.512Z" fill="#919191" stroke="#263238" stroke-width="0.77511" stroke-linecap="round" stroke-linejoin="round"/>
<path d="M217.775 212.328L221.464 307.457C221.891 307.225 222.185 306.775 222.178 306.256L221.154 212.328H217.783H217.775Z" fill="white" stroke="#263238" stroke-width="0.77511" stroke-linecap="round" stroke-linejoin="round"/>
<path d="M256.36 212.328L263.313 306.372C263.367 307.077 263.956 307.628 264.661 307.628C265.413 307.628 266.026 307.015 266.018 306.256L264.995 212.328H256.36Z" fill="#919191" stroke="#263238" stroke-width="0.77511" stroke-linecap="round" stroke-linejoin="round"/>
<path d="M261.212 212.328L265.514 307.325C265.824 307.077 266.026 306.69 266.026 306.256L265.002 212.328H261.22H261.212Z" fill="white" stroke="#263238" stroke-width="0.77511" stroke-linecap="round" stroke-linejoin="round"/>
<path d="M140.783 213.359L133.784 306.38C133.73 307.085 133.141 307.635 132.435 307.635C131.684 307.635 131.071 307.023 131.079 306.263L132.118 213.095L140.783 213.359Z" fill="#263238" stroke="#263238" stroke-width="0.77511" stroke-linecap="round" stroke-linejoin="round"/>
<path d="M96.9353 213.359L89.936 306.38C89.8818 307.085 89.2927 307.635 88.5874 307.635C87.8355 307.635 87.2232 307.023 87.2309 306.263L88.2696 213.095L96.9353 213.359Z" fill="#263238" stroke="#263238" stroke-width="0.77511" stroke-linecap="round" stroke-linejoin="round"/>
<path d="M267.56 198.446H85.6962V213.095H267.56V198.446Z" fill="#919191" stroke="#263238" stroke-width="0.77511" stroke-linecap="round" stroke-linejoin="round"/>
<path d="M267.56 198.446H215.442V213.095H267.56V198.446Z" fill="white" stroke="#263238" stroke-width="0.77511" stroke-linecap="round" stroke-linejoin="round"/>
<path d="M267.56 200.771H85.6962V204.809H267.56V200.771Z" fill="#263238" stroke="#263238" stroke-width="0.77511" stroke-linecap="round" stroke-linejoin="round"/>
<path d="M270.18 196.345H83.0763V201.244H270.18V196.345Z" fill="#919191" stroke="#263238" stroke-width="0.77511" stroke-linecap="round" stroke-linejoin="round"/>
<path d="M270.18 196.345H218.798V201.244H270.18V196.345Z" fill="white" stroke="#263238" stroke-width="0.77511" stroke-linecap="round" stroke-linejoin="round"/>
<path d="M215.016 105.525H189.762C187.026 105.525 184.802 107.75 184.802 110.486V119.803C184.802 122.539 187.026 124.764 189.762 124.764H202.986L198.025 138.592L207.512 124.764H215.008C217.744 124.764 219.969 122.539 219.969 119.803V110.486C219.969 107.75 217.744 105.525 215.008 105.525H215.016Z" fill="white" stroke="#263238" stroke-width="0.77511" stroke-linecap="round" stroke-linejoin="round"/>
<path d="M195.622 117.253C196.62 117.253 197.428 116.444 197.428 115.447C197.428 114.449 196.62 113.641 195.622 113.641C194.625 113.641 193.816 114.449 193.816 115.447C193.816 116.444 194.625 117.253 195.622 117.253Z" fill="#263238"/>
<path d="M202.389 117.253C203.386 117.253 204.195 116.444 204.195 115.447C204.195 114.449 203.386 113.641 202.389 113.641C201.392 113.641 200.583 114.449 200.583 115.447C200.583 116.444 201.392 117.253 202.389 117.253Z" fill="#263238"/>
<path d="M210.954 115.447C210.954 114.447 210.148 113.641 209.148 113.641C208.148 113.641 207.342 114.447 207.342 115.447C207.342 116.447 208.148 117.253 209.148 117.253C210.148 117.253 210.954 116.447 210.954 115.447Z" fill="#263238"/>
<path d="M334.933 307.829H355.861" stroke="#263238" stroke-width="0.77511" stroke-linecap="round" stroke-linejoin="round"/>
<path d="M4.73596 307.829H324.081" stroke="#263238" stroke-width="0.77511" stroke-linecap="round" stroke-linejoin="round"/>
<path d="M127.692 170.852C125.421 166.992 118.739 152.063 118.739 152.063C118.739 152.063 119.158 148.869 119.708 147.343C120.258 145.816 121.654 141.095 121.375 140.126C121.096 139.157 117.073 137.351 116.654 137.212C116.236 137.072 117.212 134.716 115.685 134.158C114.158 133.6 113.6 134.437 113.6 134.437L113.027 138.305L111.244 141.095C111.244 141.095 110.135 140.266 108.888 139.568C107.64 138.871 104.725 138.599 104.586 139.708C104.446 140.816 106.942 141.793 107.779 142.483C108.609 143.18 109.725 146.505 110.694 147.482C111.662 148.459 113.189 150.536 113.189 150.536L113.748 152.342C113.748 152.342 115.647 170.627 115.879 175.169C116.104 179.711 116.786 191.756 118.15 193.578C119.514 195.399 119.739 196.531 123.607 195.167C127.467 193.803 128.149 191.989 129.064 187.896C129.971 183.804 129.971 174.719 127.699 170.852H127.692Z" fill="white" stroke="#263238" stroke-width="0.77511" stroke-linecap="round" stroke-linejoin="round"/>
<path d="M129.056 187.888C129.963 183.796 129.963 174.712 127.692 170.844C127.444 170.425 127.141 169.867 126.808 169.216C121.669 167.72 116.786 170.162 116.786 170.162L115.538 170.712C115.701 172.611 115.825 174.2 115.879 175.161C116.104 179.703 116.786 191.749 118.15 193.57C119.514 195.392 119.739 196.523 123.607 195.159C127.467 193.795 128.149 191.981 129.064 187.888H129.056Z" fill="#ABFA00" stroke="#263238" stroke-width="0.77511" stroke-linecap="round" stroke-linejoin="round"/>
<path d="M111.128 109.354C111.128 109.354 112.058 112.625 112.058 115.656C112.058 118.687 111.128 120.555 112.523 121.492C113.918 122.43 115.088 122.423 114.856 124.291C114.623 126.159 113.685 127.089 113.685 127.089C113.685 127.089 113.22 136.654 112.755 137.592C112.29 138.522 106.221 137.359 104.818 137.126C103.415 136.894 99.4467 138.762 96.8811 133.623C94.3154 128.492 96.416 120.787 101.082 116.819C105.748 112.85 111.12 109.354 111.12 109.354H111.128Z" fill="white" stroke="#263238" stroke-width="0.77511" stroke-linecap="round" stroke-linejoin="round"/>
<path d="M112.058 115.656C112.058 115.656 110.787 114.71 110.128 116.369" stroke="#263238" stroke-width="0.77511" stroke-linecap="round" stroke-linejoin="round"/>
<path d="M110.957 119.524C110.957 119.524 110.624 121.02 111.12 122.345" stroke="#263238" stroke-width="0.77511" stroke-linecap="round" stroke-linejoin="round"/>
<path d="M113.282 130.476C113.282 130.476 111.786 130.972 111.29 129.313" stroke="#263238" stroke-width="0.77511" stroke-linecap="round" stroke-linejoin="round"/>
<path d="M115.895 174.347C115.895 174.347 115.081 177.897 114.43 179.773C113.771 181.649 101.369 185.098 95.982 185.811C90.595 186.524 85.2777 186.517 85.2777 186.517L85.6188 196.33C85.6188 196.33 96.0517 196.531 96.7881 196.361C97.5322 196.19 115.088 188.299 115.088 188.299L122.677 187.307C122.677 187.307 125.862 186.54 125.986 184.06C126.111 181.579 123.297 174.564 122.018 173.464C120.747 172.371 118.034 169.472 116.422 171.255C114.809 173.037 115.895 174.347 115.895 174.347Z" fill="white" stroke="#263238" stroke-width="0.77511" stroke-linecap="round" stroke-linejoin="round"/>
<path d="M92.6257 191.973C92.6257 187.726 93.7109 187.617 94.9356 185.943C89.9284 186.524 85.2855 186.517 85.2855 186.517L85.0297 195.516C85.0297 195.516 90.7422 196.043 94.2225 196.275C93.9589 196.74 92.6335 194.694 92.6335 191.973H92.6257Z" fill="#ABFA00" stroke="#263238" stroke-width="0.77511" stroke-linecap="round" stroke-linejoin="round"/>
<path d="M126.32 211.041C119.972 203.6 111.081 200.879 111.081 200.879L97.4701 206.685C97.4701 206.685 95.8347 202.515 93.3 199.43L90.7577 196.345L92.3932 187.455C92.3932 187.455 102.191 180.742 103.462 177.835C103.477 177.804 103.493 177.773 103.508 177.742C105.469 180.789 114.019 193.973 115.623 195.252C117.437 196.702 122.878 196.888 125.242 194.71C127.599 192.532 128.692 191.082 128.149 187.819C128.149 187.819 124.521 180.013 122.522 176.572C120.53 173.123 116.174 160.791 113.995 156.977C112.438 154.249 111.802 152.358 110.701 151.032C109.81 149.521 108.841 148.265 108.004 147.358C105.826 145.002 99.842 144.451 98.5708 143.909C97.2996 143.366 97.1213 143.18 89.8586 141.002C82.6035 138.824 74.4339 137.553 68.6283 142.087C68.6283 142.087 60.8229 151.342 57.7457 166.581C54.6685 181.819 54.4825 197.244 54.1182 199.965C53.7539 202.685 50.669 215.932 49.7621 223.551C48.8552 231.171 56.8389 238.79 61.7376 241.154C66.6363 243.51 87.6805 243.875 100.02 241.154C112.36 238.434 131.955 226.094 131.955 226.094C131.955 226.094 132.683 218.474 126.327 211.033L126.32 211.041Z" fill="#ABFA00" stroke="#263238" stroke-width="0.77511" stroke-linecap="round" stroke-linejoin="round"/>
<path d="M94.2302 177.518L91.7499 177.432" stroke="#263238" stroke-width="0.77511" stroke-linecap="round" stroke-linejoin="round"/>
<path d="M93.3 173.557C98.2065 175.107 103.462 177.835 103.462 177.835L97.0748 177.618" stroke="#263238" stroke-width="0.77511" stroke-linecap="round" stroke-linejoin="round"/>
<path d="M127.01 178.138C127.01 178.138 128.296 180.145 128.296 181.858C128.296 183.571 128.583 185.866 127.87 185.152C127.157 184.439 126.87 182.006 126.87 182.006L127.01 178.138Z" fill="white" stroke="#263238" stroke-width="0.77511" stroke-linecap="round" stroke-linejoin="round"/>
<path d="M122.708 176.138C122.708 176.138 125.397 174.681 126.56 176.433C127.723 178.184 127.436 181.68 126.56 183.424C125.684 185.176 124.684 183.502 124.808 181.967C124.932 180.432 122.7 176.138 122.7 176.138H122.708Z" fill="white" stroke="#263238" stroke-width="0.77511" stroke-linecap="round" stroke-linejoin="round"/>
<path d="M121.708 174.27C121.708 174.27 124.397 172.813 125.56 174.564C126.723 176.316 126.436 179.812 125.56 181.556C124.684 183.308 123.684 181.633 123.808 180.099C123.932 178.564 121.7 174.27 121.7 174.27H121.708Z" fill="white" stroke="#263238" stroke-width="0.77511" stroke-linecap="round" stroke-linejoin="round"/>
<path d="M120.475 172.27C120.475 172.27 123.165 170.813 124.328 172.565C125.49 174.316 125.204 177.812 124.328 179.556C123.452 181.308 122.452 179.634 122.576 178.099C122.7 176.564 120.468 172.27 120.468 172.27H120.475Z" fill="white" stroke="#263238" stroke-width="0.77511" stroke-linecap="round" stroke-linejoin="round"/>
<path d="M113.67 102.123C113.709 105.052 112.81 108.192 111.593 110.06C107.624 116.129 103.888 115.431 102.26 120.33C100.633 125.229 98.2918 130.368 100.857 133.166C103.423 135.964 105.524 134.336 105.524 134.336C105.524 134.336 107.159 138.537 102.958 142.738C98.7569 146.939 91.5251 145.304 89.6571 144.606C87.7891 143.909 86.3861 142.738 86.3861 142.738C86.3861 142.738 85.2157 146.009 79.3869 146.009C73.558 146.009 67.0161 142.041 67.0161 134.809C67.0161 127.577 70.9847 122.671 71.9148 119.873C72.8449 117.074 70.2793 108.44 74.2479 103.068C78.2165 97.6967 84.2856 93.7358 88.9517 93.7358C93.6179 93.7358 102.687 96.286 102.718 96.3015C103.33 96.6348 107.252 95.038 108.314 95.1078C112.197 95.3636 113.623 98.588 113.67 102.13V102.123Z" fill="#263238" stroke="#263238" stroke-width="0.77511" stroke-linecap="round" stroke-linejoin="round"/>
<path d="M98.5088 135.313C99.2994 135.429 100.16 135.445 101.059 135.336" stroke="#919191" stroke-width="0.77511" stroke-linecap="round" stroke-linejoin="round"/>
<path d="M110.306 106.192C109.973 108.013 109.306 110.06 108.051 112.044C104.431 117.741 100.284 119.811 95.3697 125.244C92.1917 128.755 92.7963 132.267 95.3697 134.104" stroke="#919191" stroke-width="0.77511" stroke-linecap="round" stroke-linejoin="round"/>
<path d="M110.376 100.138C110.376 100.138 110.585 101.146 110.601 102.727" stroke="#919191" stroke-width="0.77511" stroke-linecap="round" stroke-linejoin="round"/>
<path d="M105.462 105.572C105.462 105.572 104.686 113.594 101.322 118.253C97.9585 122.911 91.2306 125.244 91.4863 130.158" stroke="#919191" stroke-width="0.77511" stroke-linecap="round" stroke-linejoin="round"/>
<path d="M136.737 239.86C136.737 239.86 141.566 264.71 145.713 276.786C149.852 288.862 153.999 299.907 155.03 300.946C156.069 301.985 158.828 305.775 158.828 305.775C158.828 305.775 156.758 307.503 154.34 307.503C151.922 307.503 148.821 304.395 146.054 302.675C143.295 300.946 142.946 299.915 137.427 297.846C131.908 295.776 136.389 290.257 137.776 287.49C139.156 284.731 139.156 282.661 139.156 282.661C139.156 282.661 136.396 271.275 127.769 261.609C119.142 251.944 117.414 229.512 117.414 229.512L133.978 223.303L136.737 239.867V239.86Z" fill="white" stroke="#263238" stroke-width="0.77511" stroke-linecap="round" stroke-linejoin="round"/>
<path d="M154.301 299.706L153.301 299.908C153.301 299.908 147.434 291.97 142.946 289.211C140.675 287.816 138.931 287.475 137.768 287.49C136.389 290.25 131.901 295.768 137.427 297.838C142.946 299.907 143.295 300.946 146.054 302.667C148.814 304.395 151.922 307.496 154.34 307.496C156.758 307.496 158.828 305.767 158.828 305.767C158.828 305.767 156.069 301.969 155.03 300.938C154.867 300.776 154.619 300.349 154.301 299.706Z" fill="#ABFA00" stroke="#263238" stroke-width="0.77511" stroke-linecap="round" stroke-linejoin="round"/>
<path d="M151.542 306.519C148.814 304.636 146.349 300.45 141.907 297.838C137.869 295.466 135.792 295.373 134.893 295.551C135.187 296.482 135.947 297.28 137.419 297.838C142.938 299.908 143.287 300.946 146.046 302.667C147.829 303.783 149.751 305.457 151.534 306.519H151.542Z" fill="#ABFA00" stroke="#263238" stroke-width="0.77511" stroke-linecap="round" stroke-linejoin="round"/>
<path d="M154.34 307.496C154.162 307.496 153.991 307.472 153.813 307.449C153.991 307.48 154.17 307.496 154.34 307.496Z" fill="#ABFA00" stroke="#263238" stroke-width="0.77511" stroke-linecap="round" stroke-linejoin="round"/>
<path d="M105.981 202.406C105.981 202.406 122.56 196.531 124.111 200.407C125.661 204.282 132.761 218.738 130.18 224.675C127.599 230.62 109.384 207.638 106.802 207.119C104.221 206.6 105.671 204.143 105.981 202.399V202.406Z" fill="white" stroke="#263238" stroke-width="0.77511" stroke-linecap="round" stroke-linejoin="round"/>
<path d="M122.235 209.987C122.235 209.987 141.093 208.437 144.713 211.793C148.333 215.149 135.931 255.455 129.211 268.12C118.708 287.916 121.863 293.086 121.863 293.086C121.863 293.086 122.638 296.187 127.808 301.093C132.978 306 134.528 306.775 132.715 307.55C130.909 308.325 123.157 307.55 122.382 307.031C121.607 306.511 115.926 301.861 110.756 300.31C105.586 298.76 106.361 297.729 108.686 293.079C111.011 288.428 110.756 292.304 113.337 284.297C116.135 275.623 119.173 263.167 120.654 254.184C122.018 245.882 124.119 236.767 123.529 228.326L122.235 209.979V209.987Z" fill="white" stroke="#263238" stroke-width="0.77511" stroke-linecap="round" stroke-linejoin="round"/>
<path d="M136.047 222.606C136.047 222.606 133.629 215.707 126.32 211.041C118.073 205.778 111.081 200.879 111.081 200.879L97.4702 206.685C97.4702 206.685 100.788 212.312 83.7352 215.157C70.6049 217.343 58.5519 214.173 52.0487 210.351C51.1419 214.847 50.1885 219.862 49.7544 223.559C48.8475 231.178 56.8312 238.798 61.7299 241.162C66.6286 243.518 106.097 248.425 116.724 241.588C136.047 229.163 136.047 222.606 136.047 222.606Z" fill="#263238" stroke="#263238" stroke-width="0.77511" stroke-linecap="round" stroke-linejoin="round"/>
<path d="M95.9278 210.948C94.1063 212.436 90.5563 214.018 83.7353 215.157C70.6049 217.343 58.552 214.173 52.0488 210.351C51.8163 211.506 51.5837 212.692 51.3512 213.878C55.8081 216.552 65.1714 221.102 75.7284 219.808C88.324 218.257 93.9203 214.824 95.9278 210.948Z" fill="#ABFA00" stroke="#263238" stroke-width="0.77511" stroke-linecap="round" stroke-linejoin="round"/>
<path d="M85.8669 227.543C85.2623 228.334 84.6344 229.117 83.9911 229.884" stroke="white" stroke-width="0.77511" stroke-linecap="round" stroke-linejoin="round"/>
<path d="M95.3619 212.832C95.3619 212.832 92.0987 219.017 87.3938 225.497" stroke="white" stroke-width="0.77511" stroke-linecap="round" stroke-linejoin="round"/>
<path d="M89.6804 217.738C89.6804 217.738 85.0297 223.939 80.1233 227.559" stroke="white" stroke-width="0.77511" stroke-linecap="round" stroke-linejoin="round"/>
<path d="M127.808 301.101C122.638 296.195 121.863 293.094 121.863 293.094C121.863 293.094 121.661 292.947 121.452 292.513C121.103 292.885 120.049 293.567 117.468 292.575C115.228 291.715 113.104 290.281 110.864 289.265C110.329 290.219 109.81 290.831 108.678 293.086C106.353 297.737 105.578 298.768 110.748 300.318C115.918 301.868 121.599 306.519 122.374 307.038C123.15 307.558 130.901 308.333 132.707 307.558C134.513 306.783 132.962 306.008 127.8 301.101H127.808Z" fill="#ABFA00" stroke="#263238" stroke-width="0.77511" stroke-linecap="round" stroke-linejoin="round"/>
<path d="M132.567 225.233L141.357 219.808" stroke="#263238" stroke-width="0.77511" stroke-linecap="round" stroke-linejoin="round"/>
<path d="M27.5629 176.107C27.5629 176.107 55.5599 172.603 73.4495 177.665L76.1701 245.719H34.1669C34.1669 245.719 36.8875 209.165 27.5552 176.107H27.5629Z" fill="#919191" stroke="#263238" stroke-width="0.77511" stroke-linecap="round" stroke-linejoin="round"/>
<path d="M73.4495 177.657C55.56 172.603 27.563 176.099 27.563 176.099C30.7642 187.447 32.5469 199.205 33.5081 209.754C45.8943 215.948 61.3113 225.567 75.9454 239.953L73.4495 177.657Z" fill="#757575" stroke="#263238" stroke-width="0.77511" stroke-linecap="round" stroke-linejoin="round"/>
<path d="M126.242 309.41C125.615 309.41 125.018 309.023 124.793 308.403C118.577 291.691 117.011 248.316 116.949 246.479C116.918 245.626 117.592 244.906 118.445 244.875C119.29 244.844 120.018 245.518 120.049 246.371C120.065 246.812 121.661 291.087 127.707 307.325C128.01 308.131 127.599 309.023 126.793 309.317C126.614 309.387 126.428 309.418 126.25 309.418L126.242 309.41Z" fill="white" stroke="#263238" stroke-width="0.77511" stroke-linecap="round" stroke-linejoin="round"/>
<path d="M92.4862 309.41C91.8584 309.41 91.2616 309.023 91.0368 308.403C84.8204 291.691 83.2547 248.316 83.1927 246.479C83.1617 245.626 83.836 244.906 84.6886 244.875C85.5335 244.844 86.2621 245.518 86.2931 246.371C86.3086 246.812 87.9053 291.087 93.9512 307.325C94.2535 308.131 93.8427 309.023 93.0366 309.317C92.8583 309.387 92.6723 309.418 92.494 309.418L92.4862 309.41Z" fill="white" stroke="#263238" stroke-width="0.77511" stroke-linecap="round" stroke-linejoin="round"/>
<path d="M125.816 245.689H33.4539V242.611H122.739C124.436 242.611 125.816 243.991 125.816 245.689Z" fill="#919191" stroke="#263238" stroke-width="0.77511" stroke-linecap="round" stroke-linejoin="round"/>
<path d="M125.816 244.937H33.4539V248.014H125.816V244.937Z" fill="white" stroke="#263238" stroke-width="0.77511" stroke-linecap="round" stroke-linejoin="round"/>
<path d="M72.7597 309.41C72.6512 309.41 72.5426 309.403 72.4341 309.379C71.597 309.201 71.0622 308.379 71.2405 307.542C80.007 266.012 71.9923 178.688 71.907 177.804C71.8295 176.952 72.4574 176.2 73.31 176.115C74.1549 176.037 74.9145 176.665 74.9997 177.518C75.085 178.401 83.1384 266.19 74.2789 308.178C74.1239 308.907 73.4805 309.41 72.7674 309.41H72.7597Z" fill="white" stroke="#263238" stroke-width="0.77511" stroke-linecap="round" stroke-linejoin="round"/>
<path d="M24.7028 308.248C24.5633 308.248 24.4238 308.232 24.2843 308.186C23.4626 307.953 22.9821 307.101 23.2146 306.271C43.383 234.728 26.2608 177.13 26.0825 176.556C25.8345 175.735 26.2918 174.874 27.1134 174.619C27.9273 174.371 28.7954 174.828 29.0512 175.65C29.2295 176.231 46.6307 234.659 26.1988 307.116C26.005 307.798 25.3849 308.248 24.7106 308.248H24.7028Z" fill="white" stroke="#263238" stroke-width="0.77511" stroke-linecap="round" stroke-linejoin="round"/>
<path d="M308.099 180.44C308.099 180.44 298.572 175.146 297.867 187.145C297.162 199.143 295.395 277.127 295.395 277.127" stroke="#263238" stroke-width="1.55022" stroke-linecap="round" stroke-linejoin="round"/>
<path d="M292.914 188.199C292.914 188.199 300.688 205.491 297.154 276.065" stroke="#263238" stroke-width="1.55022" stroke-linecap="round" stroke-linejoin="round"/>
<path d="M300.549 182.851C300.549 182.851 296.906 185.184 294.829 182.51C292.751 179.835 296.232 174.944 293.17 172.852C290.108 170.759 284.814 173.952 284.814 173.952C284.814 173.952 288.891 175.146 288.76 177.371C288.628 179.595 286.667 180.432 286.403 179.463C286.14 178.494 284.202 173.596 280.892 175.634C277.583 177.673 277.079 180.828 277.079 180.828C277.079 180.828 284.776 180.006 285.248 182.905C285.721 185.804 282.094 182.401 278.916 182.215C275.738 182.029 272.839 182.494 273.048 184.416C273.25 186.339 272.746 189.501 272.746 189.501C272.746 189.501 275.435 187.106 278.931 187.315C282.427 187.524 282.295 189.741 279.117 189.555C275.939 189.369 273.211 192.392 273.211 192.392C273.211 192.392 276.11 197.345 279.784 199.794C283.466 202.244 284.791 201.368 285.225 199.477C285.651 197.593 284.667 192.749 286.892 192.88C289.116 193.012 283.21 201.267 286.047 201.756C288.884 202.244 291.17 201.422 291.914 199.554L292.658 197.686C292.658 197.686 291.666 192.849 292.1 190.958C292.527 189.075 293.054 191.012 293.558 193.276C294.061 195.539 294.379 200.973 295.348 200.717C296.317 200.453 299.425 196.493 300.154 194.942C300.882 193.392 296.061 188.641 296.115 187.687C296.17 186.734 299.89 188.548 300.472 189.54C301.053 190.532 301.611 191.842 301.611 191.842C301.611 191.842 303.929 190.385 303.874 185.92C303.82 181.455 300.549 182.858 300.549 182.858V182.851Z" fill="#ABFA00"/>
<path opacity="0.3" d="M300.549 182.851C300.549 182.851 296.906 185.184 294.829 182.51C292.751 179.835 296.232 174.944 293.17 172.852C290.108 170.759 284.814 173.952 284.814 173.952C284.814 173.952 288.891 175.146 288.76 177.371C288.628 179.595 286.667 180.432 286.403 179.463C286.14 178.494 284.202 173.596 280.892 175.634C277.583 177.673 277.079 180.828 277.079 180.828C277.079 180.828 284.776 180.006 285.248 182.905C285.721 185.804 282.094 182.401 278.916 182.215C275.738 182.029 272.839 182.494 273.048 184.416C273.25 186.339 272.746 189.501 272.746 189.501C272.746 189.501 275.435 187.106 278.931 187.315C282.427 187.524 282.295 189.741 279.117 189.555C275.939 189.369 273.211 192.392 273.211 192.392C273.211 192.392 276.11 197.345 279.784 199.794C283.466 202.244 284.791 201.368 285.225 199.477C285.651 197.593 284.667 192.749 286.892 192.88C289.116 193.012 283.21 201.267 286.047 201.756C288.884 202.244 291.17 201.422 291.914 199.554L292.658 197.686C292.658 197.686 291.666 192.849 292.1 190.958C292.527 189.075 293.054 191.012 293.558 193.276C294.061 195.539 294.379 200.973 295.348 200.717C296.317 200.453 299.425 196.493 300.154 194.942C300.882 193.392 296.061 188.641 296.115 187.687C296.17 186.734 299.89 188.548 300.472 189.54C301.053 190.532 301.611 191.842 301.611 191.842C301.611 191.842 303.929 190.385 303.874 185.92C303.82 181.455 300.549 182.858 300.549 182.858V182.851Z" fill="#263238"/>
<path d="M282.078 193.33C284.458 190.392 287.953 186.416 290.891 184.517" stroke="#263238" stroke-width="0.77511" stroke-linecap="round" stroke-linejoin="round"/>
<path d="M279.319 196.903C279.319 196.903 279.931 196.058 280.916 194.787" stroke="#263238" stroke-width="0.77511" stroke-linecap="round" stroke-linejoin="round"/>
<path d="M292.441 185.246C292.441 185.246 295.976 190.237 296.627 195.376" stroke="#263238" stroke-width="0.77511" stroke-linecap="round" stroke-linejoin="round"/>
<path d="M288.442 188.199C288.442 188.199 289.434 187.617 289.054 193.973" stroke="#263238" stroke-width="0.77511" stroke-linecap="round" stroke-linejoin="round"/>
<path d="M291.023 182.292C291.023 182.292 293.038 180.502 291.976 176.928" stroke="#263238" stroke-width="0.77511" stroke-linecap="round" stroke-linejoin="round"/>
<path d="M288.295 185.315L286.853 182.68" stroke="#263238" stroke-width="0.77511" stroke-linecap="round" stroke-linejoin="round"/>
<path d="M285.264 188.005C285.264 188.005 280.683 184.548 277.831 184.377" stroke="#263238" stroke-width="0.77511" stroke-linecap="round" stroke-linejoin="round"/>
<path d="M313.54 173.441C313.54 173.441 313.392 178.68 309.308 178.936C305.215 179.192 302.688 172.371 298.503 174.014C294.317 175.658 293.914 183.13 293.914 183.13C293.914 183.13 297.89 179.866 300.03 181.517C302.169 183.168 301.673 185.703 300.518 185.3C299.363 184.897 293.139 183.509 292.922 188.207C292.705 192.904 295.526 195.562 295.526 195.562C295.526 195.562 299.952 187.292 303.169 188.803C306.385 190.307 300.51 191.625 298.154 194.671C295.797 197.725 294.294 200.942 296.363 202.05C298.433 203.158 301.246 205.817 301.246 205.817C301.246 205.817 300.688 201.492 303.277 198.136C305.866 194.779 308.005 196.423 305.649 199.477C303.293 202.531 304.463 207.329 304.463 207.329C304.463 207.329 311.393 207.801 316.353 205.786C321.314 203.771 321.337 201.841 319.741 200.128C318.144 198.407 312.625 196.105 314.268 193.966C315.912 191.826 320.159 203.375 322.578 200.856C325.004 198.345 325.732 195.5 324.368 193.477L323.004 191.454C323.004 191.454 317.485 189.144 315.888 187.431C314.292 185.711 316.594 186.517 319.198 187.555C321.802 188.594 327.468 191.981 327.864 190.834C328.267 189.679 326.414 183.874 325.36 182.091C324.306 180.3 316.268 181.897 315.346 181.192C314.431 180.486 318.779 177.998 320.167 178.091C321.554 178.184 323.244 178.518 323.244 178.518C323.244 178.518 323.368 175.208 318.857 172.216C314.346 169.224 313.524 173.456 313.524 173.456L313.54 173.441Z" fill="#ABFA00"/>
<path opacity="0.2" d="M313.54 173.441C313.54 173.441 313.392 178.68 309.308 178.936C305.215 179.192 302.688 172.371 298.503 174.014C294.317 175.658 293.914 183.13 293.914 183.13C293.914 183.13 297.89 179.866 300.03 181.517C302.169 183.168 301.673 185.703 300.518 185.3C299.363 184.897 293.139 183.509 292.922 188.207C292.705 192.904 295.526 195.562 295.526 195.562C295.526 195.562 299.952 187.292 303.169 188.803C306.385 190.307 300.51 191.625 298.154 194.671C295.797 197.725 294.294 200.942 296.363 202.05C298.433 203.158 301.246 205.817 301.246 205.817C301.246 205.817 300.688 201.492 303.277 198.136C305.866 194.779 308.005 196.423 305.649 199.477C303.293 202.531 304.463 207.329 304.463 207.329C304.463 207.329 311.393 207.801 316.353 205.786C321.314 203.771 321.337 201.841 319.741 200.128C318.144 198.407 312.625 196.105 314.268 193.966C315.912 191.826 320.159 203.375 322.578 200.856C325.004 198.345 325.732 195.5 324.368 193.477L323.004 191.454C323.004 191.454 317.485 189.144 315.888 187.431C314.292 185.711 316.594 186.517 319.198 187.555C321.802 188.594 327.468 191.981 327.864 190.834C328.267 189.679 326.414 183.874 325.36 182.091C324.306 180.3 316.268 181.897 315.346 181.192C314.431 180.486 318.779 177.998 320.167 178.091C321.554 178.184 323.244 178.518 323.244 178.518C323.244 178.518 323.368 175.208 318.857 172.216C314.346 169.224 313.524 173.456 313.524 173.456L313.54 173.441Z" fill="#263238"/>
<path d="M311.431 199.073C310.106 194.694 308.517 188.478 308.618 184.246" stroke="#263238" stroke-width="0.77511" stroke-linecap="round" stroke-linejoin="round"/>
<path d="M313.137 204.274C313.137 204.274 312.703 203.089 312.106 201.228" stroke="#263238" stroke-width="0.77511" stroke-linecap="round" stroke-linejoin="round"/>
<path d="M310.408 183.192C310.408 183.192 317.811 183.06 323.399 185.905" stroke="#263238" stroke-width="0.77511" stroke-linecap="round" stroke-linejoin="round"/>
<path d="M310.633 189.206C310.633 189.206 310.726 187.819 316.834 192.524" stroke="#263238" stroke-width="0.77511" stroke-linecap="round" stroke-linejoin="round"/>
<path d="M306.486 182.595C306.486 182.595 306.068 179.355 301.766 177.983" stroke="#263238" stroke-width="0.77511" stroke-linecap="round" stroke-linejoin="round"/>
<path d="M307.657 187.393L304.037 187.036" stroke="#263238" stroke-width="0.77511" stroke-linecap="round" stroke-linejoin="round"/>
<path d="M308.284 192.26C308.284 192.26 301.704 194.485 299.588 197.236" stroke="#263238" stroke-width="0.77511" stroke-linecap="round" stroke-linejoin="round"/>
<path d="M269.637 208.313C269.637 208.313 290.457 222.079 290.108 275.36" stroke="#263238" stroke-width="1.55022" stroke-linecap="round" stroke-linejoin="round"/>
<path d="M295.309 204.678C295.309 204.678 294.643 210.708 289.907 210.623C285.163 210.53 282.884 202.422 277.9 203.926C272.916 205.422 271.738 214.01 271.738 214.01C271.738 214.01 276.629 210.623 278.947 212.723C281.257 214.824 280.443 217.707 279.156 217.134C277.869 216.56 270.816 214.366 270.118 219.769C269.421 225.172 272.428 228.505 272.428 228.505C272.428 228.505 278.319 219.381 281.884 221.428C285.458 223.474 278.551 224.427 275.544 227.729C272.544 231.031 270.498 234.605 272.777 236.07C275.056 237.535 278.055 240.875 278.055 240.875C278.055 240.875 277.815 235.829 281.125 232.202C284.427 228.574 286.737 230.675 283.737 233.977C280.737 237.279 281.629 242.922 281.629 242.922C281.629 242.922 289.581 244.123 295.495 242.27C301.409 240.41 301.619 238.193 299.944 236.062C298.262 233.93 292.108 230.745 294.216 228.435C296.317 226.125 300.123 239.844 303.161 237.178C306.192 234.504 307.308 231.295 305.928 228.838L304.549 226.373C304.549 226.373 298.394 223.187 296.712 221.056C295.03 218.924 297.611 220.064 300.526 221.505C303.44 222.947 309.649 227.396 310.222 226.102C310.796 224.807 309.207 217.94 308.153 215.777C307.106 213.615 297.673 214.692 296.689 213.793C295.697 212.894 300.952 210.429 302.541 210.677C304.13 210.917 306.052 211.46 306.052 211.46C306.052 211.46 306.502 207.646 301.58 203.771C296.658 199.895 295.309 204.701 295.309 204.701V204.678Z" fill="#ABFA00"/>
<path opacity="0.3" d="M295.309 204.678C295.309 204.678 294.643 210.708 289.907 210.623C285.163 210.53 282.884 202.422 277.9 203.926C272.916 205.422 271.738 214.01 271.738 214.01C271.738 214.01 276.629 210.623 278.947 212.723C281.257 214.824 280.443 217.707 279.156 217.134C277.869 216.56 270.816 214.366 270.118 219.769C269.421 225.172 272.428 228.505 272.428 228.505C272.428 228.505 278.319 219.381 281.884 221.428C285.458 223.474 278.551 224.427 275.544 227.729C272.544 231.031 270.498 234.605 272.777 236.07C275.056 237.535 278.055 240.875 278.055 240.875C278.055 240.875 277.815 235.829 281.125 232.202C284.427 228.574 286.737 230.675 283.737 233.977C280.737 237.279 281.629 242.922 281.629 242.922C281.629 242.922 289.581 244.123 295.495 242.27C301.409 240.41 301.619 238.193 299.944 236.062C298.262 233.93 292.108 230.745 294.216 228.435C296.317 226.125 300.123 239.844 303.161 237.178C306.192 234.504 307.308 231.295 305.928 228.838L304.549 226.373C304.549 226.373 298.394 223.187 296.712 221.056C295.03 218.924 297.611 220.064 300.526 221.505C303.44 222.947 309.649 227.396 310.222 226.102C310.796 224.807 309.207 217.94 308.153 215.777C307.106 213.615 297.673 214.692 296.689 213.793C295.697 212.894 300.952 210.429 302.541 210.677C304.13 210.917 306.052 211.46 306.052 211.46C306.052 211.46 306.502 207.646 301.58 203.771C296.658 199.895 295.309 204.701 295.309 204.701V204.678Z" fill="#263238"/>
<path d="M290.449 234.062C289.341 228.884 288.085 221.56 288.604 216.684" stroke="#263238" stroke-width="0.77511" stroke-linecap="round" stroke-linejoin="round"/>
<path d="M291.93 240.224C291.93 240.224 291.542 238.813 291.023 236.612" stroke="#263238" stroke-width="0.77511" stroke-linecap="round" stroke-linejoin="round"/>
<path d="M290.767 215.638C290.767 215.638 299.324 216.18 305.502 219.994" stroke="#263238" stroke-width="0.77511" stroke-linecap="round" stroke-linejoin="round"/>
<path d="M290.465 222.598C290.465 222.598 290.705 221.009 297.309 227.016" stroke="#263238" stroke-width="0.77511" stroke-linecap="round" stroke-linejoin="round"/>
<path d="M286.295 214.583C286.295 214.583 286.117 210.801 281.288 208.817" stroke="#263238" stroke-width="0.77511" stroke-linecap="round" stroke-linejoin="round"/>
<path d="M287.194 220.226L283.055 219.474" stroke="#263238" stroke-width="0.77511" stroke-linecap="round" stroke-linejoin="round"/>
<path d="M287.457 225.9C287.457 225.9 279.652 227.846 276.947 230.822" stroke="#263238" stroke-width="0.77511" stroke-linecap="round" stroke-linejoin="round"/>
<path d="M277.753 250.308C277.753 250.308 291.162 260.54 292.573 275.716L289.752 224.9" stroke="#263238" stroke-width="1.55022" stroke-linecap="round" stroke-linejoin="round"/>
<path d="M310.215 242.898C292.573 239.72 292.573 275.717 292.573 275.717" stroke="#263238" stroke-width="1.55022" stroke-linecap="round" stroke-linejoin="round"/>
<path d="M294.689 275.36C294.689 275.36 284.458 200.903 314.098 200.903" stroke="#263238" stroke-width="1.55022" stroke-linecap="round" stroke-linejoin="round"/>
<path d="M303.494 240.759C301.084 238.046 295.96 238.046 292.953 244.975C289.938 251.905 292.65 250.696 292.65 250.696C292.65 250.696 298.371 248.89 301.991 247.681C305.603 246.479 310.424 243.464 310.726 245.27C311.028 247.076 308.315 248.882 305.006 249.487C301.688 250.091 292.953 252.502 293.86 254.308C294.766 256.114 296.875 261.54 296.875 261.54C296.875 261.54 301.091 257.928 305.006 255.517C308.92 253.106 311.331 254.013 309.222 256.718C307.114 259.431 301.091 262.439 302.293 266.058C303.494 269.67 310.726 274.189 310.726 274.189C310.726 274.189 311.633 266.655 313.741 264.245C315.849 261.834 315.849 264.547 315.245 268.764C314.64 272.98 314.64 274.189 314.64 274.189L323.074 277.205C323.074 277.205 326.089 272.686 327.592 271.182L329.096 269.678C329.096 269.678 322.469 263.958 322.167 260.338C321.864 256.726 326.686 260.338 328.189 260.943C329.693 261.547 332.104 265.764 332.104 265.764C332.104 265.764 333.607 258.834 333.91 256.424L334.212 254.013C334.212 254.013 327.887 251.603 325.476 251.603C323.066 251.603 321.864 253.409 321.864 250.998C321.864 248.587 324.275 247.084 326.988 247.386C329.701 247.688 334.22 249.192 334.22 249.192C334.22 249.192 336.026 247.688 335.421 243.169C334.816 238.651 333.313 238.651 329.701 239.852C326.089 241.053 323.678 243.766 320.965 243.766C318.252 243.766 319.764 240.449 321.57 239.55C323.376 238.643 327.895 236.837 328.802 236.534C329.708 236.232 323.98 232.016 320.965 231.411C317.95 230.806 314.051 232.93 314.338 235.93C314.943 242.255 305.905 243.464 303.494 240.751V240.759Z" fill="#ABFA00"/>
<path d="M322.887 271.779C322.98 272.686 323.042 273.593 323.073 274.499" stroke="#263238" stroke-width="0.77511" stroke-linecap="round" stroke-linejoin="round"/>
<path d="M316.834 250.153C318.95 255.044 321.399 261.788 322.508 268.818" stroke="#263238" stroke-width="0.77511" stroke-linecap="round" stroke-linejoin="round"/>
<path d="M315.749 247.735C314.253 244.526 313.137 242.573 313.137 242.573C313.137 242.573 315.85 241.371 317.051 238.961C318.252 236.55 320.066 235.349 320.066 235.349" stroke="#263238" stroke-width="0.77511" stroke-linecap="round" stroke-linejoin="round"/>
<path d="M302.587 252.812C302.587 252.812 313.431 248.293 313.431 249.2" stroke="#263238" stroke-width="0.77511" stroke-linecap="round" stroke-linejoin="round"/>
<path d="M319.461 247.084C319.461 247.084 324.283 244.673 328.499 244.673" stroke="#263238" stroke-width="0.77511" stroke-linecap="round" stroke-linejoin="round"/>
<path d="M317.655 254.316C317.655 254.316 314.943 256.424 311.935 260.036C308.92 263.648 307.719 266.965 307.719 266.965" stroke="#263238" stroke-width="0.77511" stroke-linecap="round" stroke-linejoin="round"/>
<path d="M320.965 255.517C320.965 255.517 327.29 253.711 330.608 256.718" stroke="#263238" stroke-width="0.77511" stroke-linecap="round" stroke-linejoin="round"/>
<path d="M332.429 214.816C329.151 212.878 325.523 212.832 323.748 210.786C321.973 208.739 325.461 207.701 327.329 208.476C329.197 209.251 333.522 211.475 334.344 211.964C335.165 212.452 334.6 205.36 333.073 202.693C331.553 200.027 327.391 198.469 325.314 200.647C320.934 205.251 314.098 199.213 314.563 195.617C315.028 192.02 311.672 188.152 304.463 190.416C297.255 192.687 299.944 193.942 299.944 193.942C299.944 193.942 305.06 197.082 308.339 199.019C311.618 200.957 317.051 202.624 315.888 204.034C314.718 205.445 311.579 204.585 308.951 202.476C306.324 200.368 298.774 195.353 298.007 197.221C297.232 199.089 294.519 204.236 294.519 204.236C294.519 204.236 300.014 205.05 304.401 206.429C308.788 207.809 309.688 210.22 306.254 210.406C302.82 210.592 296.596 208.018 294.658 211.297C292.72 214.576 294.046 223.001 294.046 223.001C294.046 223.001 300.324 218.746 303.525 218.761C306.727 218.777 304.68 220.552 301.099 222.862C297.518 225.172 296.612 225.962 296.612 225.962L299.867 234.31C299.867 234.31 305.254 233.62 307.378 233.775L309.502 233.923C309.502 233.923 309.478 225.164 312.013 222.567C314.548 219.971 314.974 225.978 315.509 227.512C316.043 229.047 314.439 233.628 314.439 233.628C314.439 233.628 320.655 230.225 322.678 228.869L324.694 227.52C324.694 227.52 322.368 221.164 320.787 219.343C319.206 217.521 317.051 217.8 318.873 216.219C320.694 214.638 323.407 215.475 324.957 217.715C326.507 219.963 328.329 224.358 328.329 224.358C328.329 224.358 330.654 224.738 333.67 221.319C336.685 217.901 335.7 216.762 332.422 214.824L332.429 214.816ZM303.913 224.458C301.502 223.257 307.23 220.846 307.23 220.846C309.339 220.544 306.324 225.668 303.913 224.458ZM307.975 213.212C306.944 212.7 310.029 211.669 310.029 211.669C314.478 212.522 308.998 213.723 307.975 213.212Z" fill="#ABFA00"/>
<path d="M303.851 230.589C303.223 231.248 302.58 231.899 301.921 232.519" stroke="#263238" stroke-width="0.77511" stroke-linecap="round" stroke-linejoin="round"/>
<path d="M316.214 211.847C313.912 216.653 310.424 222.916 305.835 228.365" stroke="#263238" stroke-width="0.77511" stroke-linecap="round" stroke-linejoin="round"/>
<path d="M317.33 209.437C318.772 206.205 319.516 204.073 319.516 204.073C319.516 204.073 322.206 205.329 324.81 204.662C327.422 203.995 329.515 204.569 329.515 204.569" stroke="#263238" stroke-width="0.77511" stroke-linecap="round" stroke-linejoin="round"/>
<path d="M314.71 208.654C315.392 208.065 304.874 202.833 304.874 202.833" stroke="#263238" stroke-width="0.77511" stroke-linecap="round" stroke-linejoin="round"/>
<path d="M320.252 211.816C320.252 211.816 325.229 213.878 327.996 217.064" stroke="#263238" stroke-width="0.77511" stroke-linecap="round" stroke-linejoin="round"/>
<path d="M313.61 215.196C313.61 215.196 310.238 214.529 305.533 214.622C300.828 214.715 297.534 215.979 297.534 215.979" stroke="#263238" stroke-width="0.77511" stroke-linecap="round" stroke-linejoin="round"/>
<path d="M314.873 218.482C314.873 218.482 320.384 222.071 320.283 226.551" stroke="#263238" stroke-width="0.77511" stroke-linecap="round" stroke-linejoin="round"/>
<path d="M285.613 256.556C282.97 254.998 280.055 254.959 278.621 253.316C277.187 251.665 280.001 250.835 281.505 251.455C283.008 252.076 286.489 253.866 287.147 254.261C287.806 254.649 287.349 248.952 286.124 246.797C284.9 244.65 281.551 243.394 279.885 245.154C276.358 248.859 270.855 243.999 271.234 241.108C271.614 238.217 268.909 235.101 263.111 236.922C257.313 238.744 259.476 239.759 259.476 239.759C259.476 239.759 263.592 242.286 266.235 243.844C268.878 245.402 273.25 246.743 272.312 247.882C271.374 249.022 268.847 248.324 266.731 246.627C264.615 244.929 258.546 240.891 257.918 242.394C257.298 243.898 255.112 248.037 255.112 248.037C255.112 248.037 259.53 248.696 263.065 249.804C266.599 250.913 267.32 252.851 264.561 253.006C261.801 253.153 256.794 251.083 255.228 253.719C253.67 256.362 254.732 263.136 254.732 263.136C254.732 263.136 259.786 259.71 262.359 259.726C264.933 259.734 263.289 261.168 260.406 263.028C257.523 264.888 256.794 265.524 256.794 265.524L259.414 272.236C259.414 272.236 263.747 271.686 265.46 271.802L267.173 271.926C267.173 271.926 267.157 264.88 269.196 262.788C271.234 260.695 271.583 265.531 272.009 266.764C272.436 267.996 271.149 271.686 271.149 271.686C271.149 271.686 276.156 268.942 277.776 267.857L279.396 266.772C279.396 266.772 277.52 261.656 276.249 260.191C274.978 258.726 273.242 258.951 274.707 257.68C276.172 256.408 278.358 257.075 279.606 258.881C280.853 260.687 282.318 264.229 282.318 264.229C282.318 264.229 284.186 264.532 286.613 261.78C289.039 259.028 288.248 258.114 285.605 256.556H285.613ZM262.669 264.315C260.732 263.346 265.336 261.408 265.336 261.408C267.033 261.168 264.607 265.283 262.669 264.315ZM265.933 255.269C265.103 254.858 267.584 254.029 267.584 254.029C271.165 254.719 266.754 255.68 265.933 255.269Z" fill="#ABFA00"/>
<path d="M262.615 269.252C262.111 269.787 261.592 270.306 261.057 270.802" stroke="#263238" stroke-width="0.77511" stroke-linecap="round" stroke-linejoin="round"/>
<path d="M272.568 254.168C270.715 258.036 267.909 263.074 264.212 267.461" stroke="#263238" stroke-width="0.77511" stroke-linecap="round" stroke-linejoin="round"/>
<path d="M273.467 252.231C274.629 249.634 275.226 247.913 275.226 247.913C275.226 247.913 277.389 248.929 279.489 248.386C281.59 247.844 283.272 248.309 283.272 248.309" stroke="#263238" stroke-width="0.77511" stroke-linecap="round" stroke-linejoin="round"/>
<path d="M263.437 246.913C263.437 246.913 271.901 251.122 271.358 251.595" stroke="#263238" stroke-width="0.77511" stroke-linecap="round" stroke-linejoin="round"/>
<path d="M275.815 254.145C275.815 254.145 279.823 255.804 282.047 258.37" stroke="#263238" stroke-width="0.77511" stroke-linecap="round" stroke-linejoin="round"/>
<path d="M270.467 256.866C270.467 256.866 267.754 256.331 263.971 256.408C260.189 256.486 257.538 257.501 257.538 257.501" stroke="#263238" stroke-width="0.77511" stroke-linecap="round" stroke-linejoin="round"/>
<path d="M271.482 259.509C271.482 259.509 275.916 262.4 275.839 266.004" stroke="#263238" stroke-width="0.77511" stroke-linecap="round" stroke-linejoin="round"/>
<path d="M274.854 206.809C274.854 206.809 271.537 209.22 269.428 206.809C267.32 204.399 270.335 199.577 267.32 197.771C264.305 195.965 259.484 199.275 259.484 199.275C259.484 199.275 263.398 200.182 263.398 202.29C263.398 204.399 261.592 205.305 261.29 204.399C260.987 203.492 258.879 198.973 255.864 201.081C252.849 203.189 252.546 206.205 252.546 206.205C252.546 206.205 259.778 205.003 260.383 207.708C260.987 210.421 257.368 207.406 254.36 207.406C251.353 207.406 248.64 208.011 248.934 209.817C249.237 211.623 248.934 214.638 248.934 214.638C248.934 214.638 251.345 212.227 254.655 212.227C257.964 212.227 257.972 214.335 254.957 214.335C251.942 214.335 249.531 217.351 249.531 217.351C249.531 217.351 252.546 221.87 256.158 223.978C259.77 226.086 260.98 225.179 261.282 223.373C261.584 221.567 260.375 217.048 262.483 217.048C264.592 217.048 259.468 225.179 262.181 225.482C264.894 225.784 267.002 224.877 267.607 223.071L268.211 221.265C268.211 221.265 267.01 216.746 267.304 214.94C267.607 213.134 268.211 214.94 268.808 217.048C269.413 219.157 270.01 224.28 270.916 223.978C271.823 223.676 274.528 219.761 275.133 218.258C275.738 216.754 270.916 212.537 270.916 211.63C270.916 210.723 274.528 212.235 275.133 213.134C275.738 214.041 276.334 215.242 276.334 215.242C276.334 215.242 278.443 213.739 278.14 209.522C277.838 205.305 274.823 206.809 274.823 206.809H274.854Z" fill="#ABFA00"/>
<path d="M257.972 217.738C260.057 214.832 263.142 210.879 265.809 208.917" stroke="#263238" stroke-width="0.77511" stroke-linecap="round" stroke-linejoin="round"/>
<path d="M255.569 221.273C255.569 221.273 256.096 220.436 256.965 219.18" stroke="#263238" stroke-width="0.77511" stroke-linecap="round" stroke-linejoin="round"/>
<path d="M267.32 209.522C267.32 209.522 270.932 214.041 271.839 218.862" stroke="#263238" stroke-width="0.77511" stroke-linecap="round" stroke-linejoin="round"/>
<path d="M263.7 212.529C263.7 212.529 264.607 211.925 264.607 217.955" stroke="#263238" stroke-width="0.77511" stroke-linecap="round" stroke-linejoin="round"/>
<path d="M265.816 206.809C265.816 206.809 267.622 205.003 266.421 201.686" stroke="#263238" stroke-width="0.77511" stroke-linecap="round" stroke-linejoin="round"/>
<path d="M263.406 209.824L261.894 207.414" stroke="#263238" stroke-width="0.77511" stroke-linecap="round" stroke-linejoin="round"/>
<path d="M260.693 212.529C260.693 212.529 256.174 209.514 253.461 209.514" stroke="#263238" stroke-width="0.77511" stroke-linecap="round" stroke-linejoin="round"/>
<path d="M305.277 274.306H281.985V307.829H305.277V274.306Z" fill="#263238" stroke="#263238" stroke-width="1.55022" stroke-linecap="round" stroke-linejoin="round"/>
</g>
<defs>
<clipPath id="clip0_41_10594">
<rect width="360" height="320.431" fill="white" transform="translate(0 0.784668)"/>
</clipPath>
</defs>
</svg>
