<svg width="358" height="387" viewBox="0 0 358 387" fill="none" xmlns="http://www.w3.org/2000/svg">
<g filter="url(#filter0_d_149_919)">
<rect x="87" y="28.4307" width="86" height="86" rx="43" fill="#F7F9FC" shape-rendering="crispEdges"/>
<rect x="88" y="29.4307" width="84" height="84" rx="42" stroke="white" stroke-width="2" shape-rendering="crispEdges"/>
<g clip-path="url(#clip0_149_919)">
<path d="M121.621 65.7903H116.059V68.0317H121.621V65.7903Z" fill="#FF8000"/>
<path d="M121.621 74.7534H116.059V76.9949H121.621V74.7534Z" fill="#FF8000"/>
<path d="M121.621 70.3113H111.5V72.5527H121.621V70.3113Z" fill="#FF8000"/>
<path d="M143.02 65.7903H137.458V68.0317H143.02V65.7903Z" fill="#FF8000"/>
<path d="M143.02 74.7534H137.458V76.9949H143.02V74.7534Z" fill="#FF8000"/>
<path d="M147.579 70.3113H137.458V72.5527H147.579V70.3113Z" fill="#FF8000"/>
<path d="M130.736 53.4307H128.419V89.4307H130.736V53.4307Z" fill="#FF8000"/>
<path d="M135.295 57.9109H132.978V84.9502H135.295V57.9109Z" fill="#FF8000"/>
<path d="M126.332 57.9109H124.014V84.9502H126.332V57.9109Z" fill="#FF8000"/>
</g>
</g>
<g filter="url(#filter1_d_149_919)">
<rect x="32" y="146.431" width="86" height="86" rx="43" fill="#F7F9FC" shape-rendering="crispEdges"/>
<rect x="33" y="147.431" width="84" height="84" rx="42" stroke="white" stroke-width="2" shape-rendering="crispEdges"/>
<path d="M68.296 180.684H81.619V184.998H73.4816V187.221H80.9329V191.231H73.4816V193.454H81.9593V197.768H68.296V180.684Z" fill="#007E32"/>
<path d="M56.1643 198.177C53.3136 198.177 51 195.863 51 193.013V190.704H56.1856V193.013C56.1856 193.651 56.7068 194.172 57.345 194.172H59.4778C60.116 194.172 60.6372 193.651 60.6372 193.013V180.684H65.8228V193.007C65.8228 195.858 63.5092 198.172 60.6585 198.172H56.1643V198.177Z" fill="#007E32"/>
<path d="M93.8357 180.684H84.1772V197.762H89.3681V192.204L93.8357 192.188C96.6864 192.188 99 189.875 99 187.024V185.849C99 182.998 96.6864 180.684 93.8357 180.684ZM94.1229 187.008C94.1229 187.646 93.6017 188.168 92.9634 188.168H89.3575V184.716L92.9634 184.695C93.6017 184.695 94.1229 185.21 94.1229 185.854V187.008Z" fill="#007E32"/>
</g>
<g filter="url(#filter2_d_149_919)">
<rect x="87" y="264.431" width="86" height="86" rx="43" fill="#F7F9FC" shape-rendering="crispEdges"/>
<rect x="88" y="265.431" width="84" height="84" rx="42" stroke="white" stroke-width="2" shape-rendering="crispEdges"/>
<path d="M119.047 291.313L122.416 287.806L140.297 305.688C140.297 305.688 141.878 307.269 140.297 309.057L134.796 314.628L131.356 311.122L135.07 307.272L119.047 291.316V291.313Z" fill="#FFB719"/>
<path d="M140.953 323.467L137.584 326.973L119.703 309.092C119.703 309.092 118.122 307.511 119.703 305.723L125.204 300.151L128.644 303.658L124.93 307.508L140.953 323.464V323.467Z" fill="#E90729"/>
<path d="M137.272 287.806L141 291.246L134.863 297.298L131.356 293.643L137.272 287.806Z" fill="#E90729"/>
<path d="M124.913 317.566L128.644 321.005L122.506 327.055L119 323.4L124.913 317.566Z" fill="#FFB719"/>
</g>
<g filter="url(#filter3_d_149_919)">
<rect x="240" y="75.4307" width="86" height="86" rx="43" fill="#F7F9FC" shape-rendering="crispEdges"/>
<rect x="241" y="76.4307" width="84" height="84" rx="42" stroke="white" stroke-width="2" shape-rendering="crispEdges"/>
<g clip-path="url(#clip1_149_919)">
<path d="M286.805 102.872H267.017V123.75C267.017 129.535 271.713 134.314 277.582 134.314H298.459V102.872H286.805Z" fill="#FFDD00"/>
<path d="M282.78 108.155V112.85H288.482V118.636H293.261V108.155H282.78Z" fill="#111B68"/>
</g>
</g>
<g filter="url(#filter4_d_149_919)">
<rect x="240" y="217.431" width="86" height="86" rx="43" fill="#F7F9FC" shape-rendering="crispEdges"/>
<rect x="241" y="218.431" width="84" height="84" rx="42" stroke="white" stroke-width="2" shape-rendering="crispEdges"/>
<g clip-path="url(#clip2_149_919)">
<path d="M287.98 244.431H267.109V265.301C267.109 268.253 268.282 271.084 270.369 273.171C272.456 275.258 275.287 276.431 278.238 276.431H299.109V255.56C299.109 254.099 298.821 252.651 298.262 251.301C297.703 249.951 296.883 248.724 295.849 247.69C294.816 246.657 293.589 245.837 292.239 245.278C290.888 244.719 289.441 244.431 287.98 244.431ZM294.24 265.301C294.241 266.596 293.84 267.859 293.092 268.917C292.344 269.974 291.287 270.773 290.066 271.204C288.845 271.635 287.52 271.676 286.274 271.323C285.029 270.969 283.923 270.237 283.111 269.229C282.447 270.053 281.585 270.695 280.606 271.096C279.626 271.497 278.561 271.642 277.51 271.52C276.459 271.397 275.456 271.01 274.595 270.395C273.734 269.779 273.043 268.956 272.586 268.001C272.13 267.046 271.923 265.991 271.985 264.934C272.047 263.878 272.376 262.854 272.941 261.959C273.506 261.064 274.289 260.327 275.216 259.817C276.143 259.306 277.184 259.039 278.242 259.04H281.723V255.56C281.722 254.502 281.989 253.46 282.499 252.533C283.01 251.606 283.747 250.824 284.642 250.259C285.537 249.694 286.56 249.365 287.617 249.303C288.673 249.241 289.728 249.448 290.683 249.904C291.638 250.36 292.461 251.051 293.077 251.912C293.692 252.773 294.079 253.776 294.202 254.827C294.325 255.879 294.179 256.944 293.778 257.923C293.378 258.903 292.735 259.765 291.911 260.429C292.639 261.015 293.226 261.757 293.629 262.6C294.032 263.444 294.241 264.367 294.24 265.301ZM287.98 261.821H284.499V265.301C284.499 265.99 284.703 266.663 285.086 267.235C285.469 267.808 286.012 268.254 286.649 268.517C287.285 268.78 287.985 268.849 288.66 268.714C289.335 268.58 289.955 268.248 290.442 267.761C290.929 267.274 291.26 266.653 291.394 265.978C291.527 265.302 291.458 264.603 291.194 263.967C290.93 263.331 290.483 262.787 289.91 262.406C289.338 262.024 288.664 261.82 287.976 261.821H287.98ZM274.758 265.297C274.788 266.2 275.168 267.055 275.817 267.683C276.466 268.311 277.334 268.661 278.237 268.661C279.139 268.661 280.007 268.311 280.656 267.683C281.305 267.055 281.685 266.2 281.715 265.297V261.821H278.238C277.318 261.827 276.436 262.196 275.786 262.847C275.135 263.499 274.767 264.38 274.762 265.301L274.758 265.297ZM287.98 252.076C287.058 252.081 286.176 252.449 285.524 253.101C284.873 253.752 284.504 254.635 284.499 255.556V259.033H287.98C288.436 259.033 288.889 258.943 289.311 258.768C289.733 258.593 290.116 258.337 290.439 258.014C290.762 257.691 291.018 257.307 291.193 256.885C291.368 256.463 291.458 256.011 291.458 255.554C291.458 255.097 291.368 254.645 291.193 254.223C291.018 253.801 290.762 253.418 290.439 253.095C290.116 252.772 289.733 252.515 289.311 252.341C288.889 252.166 288.436 252.076 287.98 252.076Z" fill="#3480CD"/>
</g>
</g>
<defs>
<filter id="filter0_d_149_919" x="55" y="0.430664" width="150" height="150" filterUnits="userSpaceOnUse" color-interpolation-filters="sRGB">
<feFlood flood-opacity="0" result="BackgroundImageFix"/>
<feColorMatrix in="SourceAlpha" type="matrix" values="0 0 0 0 0 0 0 0 0 0 0 0 0 0 0 0 0 0 127 0" result="hardAlpha"/>
<feOffset dy="4"/>
<feGaussianBlur stdDeviation="16"/>
<feComposite in2="hardAlpha" operator="out"/>
<feColorMatrix type="matrix" values="0 0 0 0 0.559216 0 0 0 0 0.172549 0 0 0 0 0.972549 0 0 0 0.08 0"/>
<feBlend mode="normal" in2="BackgroundImageFix" result="effect1_dropShadow_149_919"/>
<feBlend mode="normal" in="SourceGraphic" in2="effect1_dropShadow_149_919" result="shape"/>
</filter>
<filter id="filter1_d_149_919" x="0" y="118.431" width="150" height="150" filterUnits="userSpaceOnUse" color-interpolation-filters="sRGB">
<feFlood flood-opacity="0" result="BackgroundImageFix"/>
<feColorMatrix in="SourceAlpha" type="matrix" values="0 0 0 0 0 0 0 0 0 0 0 0 0 0 0 0 0 0 127 0" result="hardAlpha"/>
<feOffset dy="4"/>
<feGaussianBlur stdDeviation="16"/>
<feComposite in2="hardAlpha" operator="out"/>
<feColorMatrix type="matrix" values="0 0 0 0 0.559216 0 0 0 0 0.172549 0 0 0 0 0.972549 0 0 0 0.08 0"/>
<feBlend mode="normal" in2="BackgroundImageFix" result="effect1_dropShadow_149_919"/>
<feBlend mode="normal" in="SourceGraphic" in2="effect1_dropShadow_149_919" result="shape"/>
</filter>
<filter id="filter2_d_149_919" x="55" y="236.431" width="150" height="150" filterUnits="userSpaceOnUse" color-interpolation-filters="sRGB">
<feFlood flood-opacity="0" result="BackgroundImageFix"/>
<feColorMatrix in="SourceAlpha" type="matrix" values="0 0 0 0 0 0 0 0 0 0 0 0 0 0 0 0 0 0 127 0" result="hardAlpha"/>
<feOffset dy="4"/>
<feGaussianBlur stdDeviation="16"/>
<feComposite in2="hardAlpha" operator="out"/>
<feColorMatrix type="matrix" values="0 0 0 0 0.559216 0 0 0 0 0.172549 0 0 0 0 0.972549 0 0 0 0.08 0"/>
<feBlend mode="normal" in2="BackgroundImageFix" result="effect1_dropShadow_149_919"/>
<feBlend mode="normal" in="SourceGraphic" in2="effect1_dropShadow_149_919" result="shape"/>
</filter>
<filter id="filter3_d_149_919" x="208" y="47.4307" width="150" height="150" filterUnits="userSpaceOnUse" color-interpolation-filters="sRGB">
<feFlood flood-opacity="0" result="BackgroundImageFix"/>
<feColorMatrix in="SourceAlpha" type="matrix" values="0 0 0 0 0 0 0 0 0 0 0 0 0 0 0 0 0 0 127 0" result="hardAlpha"/>
<feOffset dy="4"/>
<feGaussianBlur stdDeviation="16"/>
<feComposite in2="hardAlpha" operator="out"/>
<feColorMatrix type="matrix" values="0 0 0 0 0.559216 0 0 0 0 0.172549 0 0 0 0 0.972549 0 0 0 0.08 0"/>
<feBlend mode="normal" in2="BackgroundImageFix" result="effect1_dropShadow_149_919"/>
<feBlend mode="normal" in="SourceGraphic" in2="effect1_dropShadow_149_919" result="shape"/>
</filter>
<filter id="filter4_d_149_919" x="208" y="189.431" width="150" height="150" filterUnits="userSpaceOnUse" color-interpolation-filters="sRGB">
<feFlood flood-opacity="0" result="BackgroundImageFix"/>
<feColorMatrix in="SourceAlpha" type="matrix" values="0 0 0 0 0 0 0 0 0 0 0 0 0 0 0 0 0 0 127 0" result="hardAlpha"/>
<feOffset dy="4"/>
<feGaussianBlur stdDeviation="16"/>
<feComposite in2="hardAlpha" operator="out"/>
<feColorMatrix type="matrix" values="0 0 0 0 0.559216 0 0 0 0 0.172549 0 0 0 0 0.972549 0 0 0 0.08 0"/>
<feBlend mode="normal" in2="BackgroundImageFix" result="effect1_dropShadow_149_919"/>
<feBlend mode="normal" in="SourceGraphic" in2="effect1_dropShadow_149_919" result="shape"/>
</filter>
<clipPath id="clip0_149_919">
<rect width="37" height="36" fill="white" transform="translate(111.5 53.4307)"/>
</clipPath>
<clipPath id="clip1_149_919">
<rect width="32" height="32" fill="white" transform="translate(267 102.431)"/>
</clipPath>
<clipPath id="clip2_149_919">
<rect width="33" height="32" fill="white" transform="translate(266.5 244.431)"/>
</clipPath>
</defs>
</svg>
