<svg width="1152" height="209" viewBox="0 0 1152 209" fill="none" xmlns="http://www.w3.org/2000/svg">
<g clip-path="url(#clip0_214_1773)">
<mask id="path-1-inside-1_214_1773" fill="white">
<path d="M344.467 112.934C344.467 117.881 343.621 121.917 341.734 125.497C339.846 129.077 337.307 131.616 334.053 133.503C330.798 135.391 327.088 136.237 322.857 136.237C316.543 136.237 311.661 134.35 308.081 130.314C304.501 126.213 302.613 120.941 302.613 113.976V48.2978H272.671V119.053C272.671 127.71 274.233 135.196 277.423 141.51C280.677 147.824 285.103 152.575 290.832 155.96C296.625 159.345 303.394 161.037 311.075 161.037L311.27 161.363C320.448 161.363 327.934 158.824 334.053 153.682C339.13 149.451 342.97 143.658 345.834 136.498L346.095 159.801H374.345V48.4931H344.402V112.934H344.467Z"/>
<path d="M456.556 106.1C454.148 113.39 452.325 120.55 450.633 128.036C449.982 130.835 449.331 133.829 448.68 136.693C448.029 133.764 447.378 130.835 446.727 128.036C445.035 120.745 443.017 113.39 440.804 106.1L422.122 48.2978H390.357L431.365 159.67H465.539L506.677 48.2978H475.237L456.686 106.1H456.556Z"/>
<path d="M598.717 55.7837C594.291 52.7243 589.344 50.7065 583.616 49.1443C577.823 47.5821 572.029 46.9312 566.106 46.9312C557.774 46.9312 550.289 48.1028 543.649 50.5112C537.01 52.9196 531.412 56.4346 526.986 60.8609C522.559 65.2871 519.305 70.885 517.482 77.3292L544.886 81.7554C545.732 79.347 546.904 77.1339 548.792 75.3113C550.679 73.4236 552.892 71.9265 555.756 70.6898C558.62 69.5181 562.07 68.9974 565.781 68.9974C569.491 68.9974 572.55 69.5181 575.284 70.6898C578.018 71.8614 579.906 73.7491 581.207 75.767C582.574 77.7848 583.225 80.5187 583.225 83.7733V84.294C583.225 86.7024 582.379 88.525 580.491 89.7617C578.604 90.9334 575.87 91.9749 571.834 92.4956C567.733 93.0164 562.656 93.6673 556.212 94.3833C550.614 94.904 545.342 95.7502 540.395 97.1172C535.448 98.4841 530.891 100.372 526.986 102.91C523.08 105.449 519.826 108.834 517.612 112.935C515.399 117.035 514.228 122.308 514.228 128.426C514.228 135.912 515.79 142.031 518.979 146.978C522.234 151.925 526.66 155.635 532.258 158.174C537.856 160.712 544.3 161.884 551.33 161.884L551.525 162.079C557.123 162.079 561.875 161.428 566.171 159.866C570.402 158.304 574.177 156.286 577.042 153.552C579.906 150.818 582.314 147.759 584.202 144.374H585.243V159.866H613.493V84.8798C613.493 78.1103 612.321 72.3171 609.588 67.5653C606.854 62.8136 603.274 58.9081 598.847 55.8488L598.717 55.7837ZM583.551 119.704C583.551 123.61 582.509 127.19 580.491 130.444C578.474 133.699 575.74 136.237 572.16 138.125C568.58 140.013 564.479 140.859 559.727 140.859L560.052 140.664C556.798 140.664 553.934 140.143 551.395 139.102C548.857 138.06 546.969 136.563 545.472 134.675C543.91 132.788 543.259 130.444 543.259 127.515C543.259 124.456 543.91 122.047 545.472 120.03C547.034 118.012 549.052 116.45 551.916 115.278C554.78 114.106 558.035 113.26 561.615 112.739C563.177 112.544 565.195 112.219 567.213 111.893C569.23 111.568 571.444 111.242 573.657 110.852C575.87 110.526 577.888 110.201 579.58 109.485C581.273 108.834 582.639 108.313 583.486 107.597V119.639L583.551 119.704Z"/>
<path d="M700.521 95.3597L680.473 91.4541C675.2 90.4127 671.62 89.0457 669.407 87.0279C667.194 85.01 666.153 82.6016 666.153 79.8678C666.153 76.2877 667.65 73.5538 671.1 71.536C674.484 69.5181 678.585 68.4766 683.532 68.4766C689 68.4766 693.231 69.6483 696.486 72.0567C699.74 74.4651 701.758 77.6546 702.93 81.43L729.487 76.6782C728.12 70.5596 725.386 65.4824 721.481 60.8609C717.575 56.2393 712.303 52.8545 705.859 50.5112C699.415 48.1028 691.929 46.9312 683.077 46.9312C673.573 46.9312 665.372 48.4934 658.407 51.1621C651.442 53.8309 645.974 57.8015 642.069 63.074C638.163 68.3464 636.145 74.4651 636.145 81.6252C636.145 89.957 638.879 96.7266 644.151 101.999C649.424 107.272 657.56 110.982 668.301 113.195L687.503 117.1C692.45 118.142 696.03 119.509 698.373 121.331C700.782 123.219 701.953 125.562 701.953 128.492C701.953 131.746 700.261 134.415 697.006 136.628C693.752 138.841 689.325 139.883 683.597 139.883C677.479 139.883 672.532 138.711 668.952 135.977C665.371 133.243 662.833 129.338 661.271 124.261L633.541 129.012C634.908 135.977 637.642 141.77 642.069 146.717C646.495 151.664 652.093 155.375 659.058 157.913C666.022 160.452 673.833 161.819 682.881 161.819L682.556 162.014C692.255 162.014 700.912 160.452 708.397 157.392C715.883 154.333 721.481 150.102 725.907 144.634C730.333 139.167 732.351 132.723 732.351 125.432C732.351 117.426 729.813 110.982 724.54 106.035C719.268 101.088 711.261 97.5077 700.586 95.2946L700.521 95.3597Z"/>
<path d="M869.24 89.7615C867.548 97.2471 865.855 105.384 863.968 114.106C862.731 119.964 861.559 126.148 860.453 132.722C859.151 126.083 857.914 119.769 856.547 113.911C854.529 105.253 852.641 97.0518 850.949 89.5662L840.925 48.428H813.391L803.171 89.5662C801.284 97.0518 799.461 105.188 797.378 113.911C796.011 119.639 794.775 125.823 793.603 132.267C792.496 125.627 791.26 119.378 789.893 113.585C787.875 104.928 786.117 96.7263 784.425 89.436L774.726 48.2978H743.287L776.093 159.67L775.898 159.996H806.361L818.794 116.97C819.965 112.739 821.137 107.987 822.374 102.715C823.545 97.4424 824.782 91.9746 825.954 86.7022C826.279 85.4003 826.54 84.0985 826.8 82.7966C827.06 84.0985 827.386 85.3352 827.646 86.7022C828.818 92.1699 830.055 97.4424 831.226 102.715C832.398 107.987 833.569 112.739 834.806 116.97L847.239 159.996H877.702L910.834 48.6233H879.004L869.305 89.7615H869.24Z"/>
<path d="M1004.37 55.7837C999.945 52.7243 994.998 50.7065 989.205 49.1443C983.411 47.5821 977.618 46.9312 971.695 46.9312C963.363 46.9312 955.878 48.1028 949.238 50.5112C942.599 52.9196 937.001 56.4346 932.575 60.8609C928.148 65.2871 924.894 70.885 923.071 77.3292L950.41 81.7554C951.256 79.347 952.428 77.1339 954.315 75.3113C956.203 73.4236 958.416 71.9265 961.28 70.6898C964.144 69.5181 967.594 68.9974 971.304 68.9974C975.015 68.9974 978.074 69.5181 980.808 70.6898C983.542 71.8614 985.429 73.7491 986.731 75.767C988.098 77.7848 988.749 80.5187 988.749 83.7733V84.294C988.749 86.7024 987.903 88.525 986.015 89.7617C984.128 90.9334 981.394 91.9749 977.358 92.4956C973.257 93.0164 968.18 93.6673 961.736 94.3833C956.138 94.904 950.866 95.7502 945.919 97.1172C940.972 98.4841 936.415 100.372 932.509 102.91C928.604 105.449 925.349 108.834 923.136 112.935C920.923 117.035 919.751 122.308 919.751 128.426C919.751 135.912 921.314 142.031 924.503 146.978C927.758 151.925 932.119 155.635 937.782 158.174C943.38 160.712 949.824 161.884 956.854 161.884L957.049 162.079C962.647 162.079 967.399 161.428 971.695 159.866C975.926 158.304 979.701 156.286 982.565 153.552C985.429 150.818 987.838 147.759 989.725 144.374H990.767V159.866H1019.02V84.8798C1019.02 78.1103 1017.85 72.3171 1015.11 67.5653C1012.38 62.8136 1008.8 58.9081 1004.37 55.8488V55.7837ZM989.27 119.704C989.27 123.61 988.228 127.19 986.21 130.444C984.193 133.699 981.459 136.237 977.879 138.125C974.299 140.013 970.263 140.859 965.446 140.859L965.772 140.664C962.517 140.664 959.653 140.143 957.114 139.102C954.576 138.06 952.688 136.563 951.191 134.675C949.629 132.788 948.978 130.444 948.978 127.515C948.978 124.456 949.629 122.047 951.191 120.03C952.688 118.012 954.771 116.45 957.635 115.278C960.499 114.106 963.754 113.26 967.334 112.739C968.831 112.544 970.914 112.219 972.932 111.893C974.95 111.568 977.163 111.242 979.376 110.852C981.589 110.526 983.607 110.201 985.299 109.485C986.992 108.834 988.359 108.313 989.205 107.597V119.639L989.27 119.704Z"/>
<path d="M1145.88 72.4473C1141.78 63.9202 1136.38 57.8015 1129.54 53.3753C1122.77 48.949 1115.09 46.9312 1106.96 46.9312C1100.51 46.9312 1095.24 48.1028 1091.14 50.1858C1087.04 52.2036 1083.65 54.9375 1081.11 57.9968C1078.58 61.0561 1076.49 64.1155 1075.13 66.9795H1073.76V48.2981H1044.34V201.33H1074.28V141.835H1075.13C1076.49 144.895 1078.51 147.759 1081.11 150.818C1083.65 153.877 1087.23 156.416 1091.33 158.499C1095.44 160.517 1100.51 161.558 1106.63 161.558C1115.16 161.558 1122.77 159.345 1129.74 154.919C1136.7 150.493 1142.17 144.049 1146.08 135.522C1149.98 126.994 1152 116.97 1152 104.212C1152 91.4542 1149.98 80.9092 1145.88 72.4473ZM1118.67 121.397C1116.98 126.474 1114.25 130.379 1110.67 133.308C1107.09 136.172 1102.66 137.539 1097.58 137.539C1092.51 137.539 1088.21 136.172 1084.69 133.308C1081.11 130.444 1078.38 126.539 1076.56 121.592C1074.67 116.645 1073.69 110.721 1073.69 104.082C1073.69 97.4426 1074.54 91.5192 1076.43 86.5722C1078.32 81.6252 1081.05 77.7197 1084.56 74.9859C1088.14 72.252 1092.38 70.885 1097.65 70.885C1102.92 70.885 1107.15 72.252 1110.73 75.116C1114.31 77.9801 1116.85 81.8856 1118.74 86.8326C1120.63 91.7796 1121.47 97.5728 1121.47 104.017C1121.47 110.461 1120.43 116.254 1118.74 121.331L1118.67 121.397Z"/>
</mask>
<path d="M344.467 112.934C344.467 117.881 343.621 121.917 341.734 125.497C339.846 129.077 337.307 131.616 334.053 133.503C330.798 135.391 327.088 136.237 322.857 136.237C316.543 136.237 311.661 134.35 308.081 130.314C304.501 126.213 302.613 120.941 302.613 113.976V48.2978H272.671V119.053C272.671 127.71 274.233 135.196 277.423 141.51C280.677 147.824 285.103 152.575 290.832 155.96C296.625 159.345 303.394 161.037 311.075 161.037L311.27 161.363C320.448 161.363 327.934 158.824 334.053 153.682C339.13 149.451 342.97 143.658 345.834 136.498L346.095 159.801H374.345V48.4931H344.402V112.934H344.467Z" stroke="url(#paint0_linear_214_1773)" stroke-width="1.7803" mask="url(#path-1-inside-1_214_1773)"/>
<path d="M456.556 106.1C454.148 113.39 452.325 120.55 450.633 128.036C449.982 130.835 449.331 133.829 448.68 136.693C448.029 133.764 447.378 130.835 446.727 128.036C445.035 120.745 443.017 113.39 440.804 106.1L422.122 48.2978H390.357L431.365 159.67H465.539L506.677 48.2978H475.237L456.686 106.1H456.556Z" stroke="url(#paint1_linear_214_1773)" stroke-width="1.7803" mask="url(#path-1-inside-1_214_1773)"/>
<path d="M598.717 55.7837C594.291 52.7243 589.344 50.7065 583.616 49.1443C577.823 47.5821 572.029 46.9312 566.106 46.9312C557.774 46.9312 550.289 48.1028 543.649 50.5112C537.01 52.9196 531.412 56.4346 526.986 60.8609C522.559 65.2871 519.305 70.885 517.482 77.3292L544.886 81.7554C545.732 79.347 546.904 77.1339 548.792 75.3113C550.679 73.4236 552.892 71.9265 555.756 70.6898C558.62 69.5181 562.07 68.9974 565.781 68.9974C569.491 68.9974 572.55 69.5181 575.284 70.6898C578.018 71.8614 579.906 73.7491 581.207 75.767C582.574 77.7848 583.225 80.5187 583.225 83.7733V84.294C583.225 86.7024 582.379 88.525 580.491 89.7617C578.604 90.9334 575.87 91.9749 571.834 92.4956C567.733 93.0164 562.656 93.6673 556.212 94.3833C550.614 94.904 545.342 95.7502 540.395 97.1172C535.448 98.4841 530.891 100.372 526.986 102.91C523.08 105.449 519.826 108.834 517.612 112.935C515.399 117.035 514.228 122.308 514.228 128.426C514.228 135.912 515.79 142.031 518.979 146.978C522.234 151.925 526.66 155.635 532.258 158.174C537.856 160.712 544.3 161.884 551.33 161.884L551.525 162.079C557.123 162.079 561.875 161.428 566.171 159.866C570.402 158.304 574.177 156.286 577.042 153.552C579.906 150.818 582.314 147.759 584.202 144.374H585.243V159.866H613.493V84.8798C613.493 78.1103 612.321 72.3171 609.588 67.5653C606.854 62.8136 603.274 58.9081 598.847 55.8488L598.717 55.7837ZM583.551 119.704C583.551 123.61 582.509 127.19 580.491 130.444C578.474 133.699 575.74 136.237 572.16 138.125C568.58 140.013 564.479 140.859 559.727 140.859L560.052 140.664C556.798 140.664 553.934 140.143 551.395 139.102C548.857 138.06 546.969 136.563 545.472 134.675C543.91 132.788 543.259 130.444 543.259 127.515C543.259 124.456 543.91 122.047 545.472 120.03C547.034 118.012 549.052 116.45 551.916 115.278C554.78 114.106 558.035 113.26 561.615 112.739C563.177 112.544 565.195 112.219 567.213 111.893C569.23 111.568 571.444 111.242 573.657 110.852C575.87 110.526 577.888 110.201 579.58 109.485C581.273 108.834 582.639 108.313 583.486 107.597V119.639L583.551 119.704Z" stroke="url(#paint2_linear_214_1773)" stroke-width="1.7803" mask="url(#path-1-inside-1_214_1773)"/>
<path d="M700.521 95.3597L680.473 91.4541C675.2 90.4127 671.62 89.0457 669.407 87.0279C667.194 85.01 666.153 82.6016 666.153 79.8678C666.153 76.2877 667.65 73.5538 671.1 71.536C674.484 69.5181 678.585 68.4766 683.532 68.4766C689 68.4766 693.231 69.6483 696.486 72.0567C699.74 74.4651 701.758 77.6546 702.93 81.43L729.487 76.6782C728.12 70.5596 725.386 65.4824 721.481 60.8609C717.575 56.2393 712.303 52.8545 705.859 50.5112C699.415 48.1028 691.929 46.9312 683.077 46.9312C673.573 46.9312 665.372 48.4934 658.407 51.1621C651.442 53.8309 645.974 57.8015 642.069 63.074C638.163 68.3464 636.145 74.4651 636.145 81.6252C636.145 89.957 638.879 96.7266 644.151 101.999C649.424 107.272 657.56 110.982 668.301 113.195L687.503 117.1C692.45 118.142 696.03 119.509 698.373 121.331C700.782 123.219 701.953 125.562 701.953 128.492C701.953 131.746 700.261 134.415 697.006 136.628C693.752 138.841 689.325 139.883 683.597 139.883C677.479 139.883 672.532 138.711 668.952 135.977C665.371 133.243 662.833 129.338 661.271 124.261L633.541 129.012C634.908 135.977 637.642 141.77 642.069 146.717C646.495 151.664 652.093 155.375 659.058 157.913C666.022 160.452 673.833 161.819 682.881 161.819L682.556 162.014C692.255 162.014 700.912 160.452 708.397 157.392C715.883 154.333 721.481 150.102 725.907 144.634C730.333 139.167 732.351 132.723 732.351 125.432C732.351 117.426 729.813 110.982 724.54 106.035C719.268 101.088 711.261 97.5077 700.586 95.2946L700.521 95.3597Z" stroke="url(#paint3_linear_214_1773)" stroke-width="1.7803" mask="url(#path-1-inside-1_214_1773)"/>
<path d="M869.24 89.7615C867.548 97.2471 865.855 105.384 863.968 114.106C862.731 119.964 861.559 126.148 860.453 132.722C859.151 126.083 857.914 119.769 856.547 113.911C854.529 105.253 852.641 97.0518 850.949 89.5662L840.925 48.428H813.391L803.171 89.5662C801.284 97.0518 799.461 105.188 797.378 113.911C796.011 119.639 794.775 125.823 793.603 132.267C792.496 125.627 791.26 119.378 789.893 113.585C787.875 104.928 786.117 96.7263 784.425 89.436L774.726 48.2978H743.287L776.093 159.67L775.898 159.996H806.361L818.794 116.97C819.965 112.739 821.137 107.987 822.374 102.715C823.545 97.4424 824.782 91.9746 825.954 86.7022C826.279 85.4003 826.54 84.0985 826.8 82.7966C827.06 84.0985 827.386 85.3352 827.646 86.7022C828.818 92.1699 830.055 97.4424 831.226 102.715C832.398 107.987 833.569 112.739 834.806 116.97L847.239 159.996H877.702L910.834 48.6233H879.004L869.305 89.7615H869.24Z" stroke="url(#paint4_linear_214_1773)" stroke-width="1.7803" mask="url(#path-1-inside-1_214_1773)"/>
<path d="M1004.37 55.7837C999.945 52.7243 994.998 50.7065 989.205 49.1443C983.411 47.5821 977.618 46.9312 971.695 46.9312C963.363 46.9312 955.878 48.1028 949.238 50.5112C942.599 52.9196 937.001 56.4346 932.575 60.8609C928.148 65.2871 924.894 70.885 923.071 77.3292L950.41 81.7554C951.256 79.347 952.428 77.1339 954.315 75.3113C956.203 73.4236 958.416 71.9265 961.28 70.6898C964.144 69.5181 967.594 68.9974 971.304 68.9974C975.015 68.9974 978.074 69.5181 980.808 70.6898C983.542 71.8614 985.429 73.7491 986.731 75.767C988.098 77.7848 988.749 80.5187 988.749 83.7733V84.294C988.749 86.7024 987.903 88.525 986.015 89.7617C984.128 90.9334 981.394 91.9749 977.358 92.4956C973.257 93.0164 968.18 93.6673 961.736 94.3833C956.138 94.904 950.866 95.7502 945.919 97.1172C940.972 98.4841 936.415 100.372 932.509 102.91C928.604 105.449 925.349 108.834 923.136 112.935C920.923 117.035 919.751 122.308 919.751 128.426C919.751 135.912 921.314 142.031 924.503 146.978C927.758 151.925 932.119 155.635 937.782 158.174C943.38 160.712 949.824 161.884 956.854 161.884L957.049 162.079C962.647 162.079 967.399 161.428 971.695 159.866C975.926 158.304 979.701 156.286 982.565 153.552C985.429 150.818 987.838 147.759 989.725 144.374H990.767V159.866H1019.02V84.8798C1019.02 78.1103 1017.85 72.3171 1015.11 67.5653C1012.38 62.8136 1008.8 58.9081 1004.37 55.8488V55.7837ZM989.27 119.704C989.27 123.61 988.228 127.19 986.21 130.444C984.193 133.699 981.459 136.237 977.879 138.125C974.299 140.013 970.263 140.859 965.446 140.859L965.772 140.664C962.517 140.664 959.653 140.143 957.114 139.102C954.576 138.06 952.688 136.563 951.191 134.675C949.629 132.788 948.978 130.444 948.978 127.515C948.978 124.456 949.629 122.047 951.191 120.03C952.688 118.012 954.771 116.45 957.635 115.278C960.499 114.106 963.754 113.26 967.334 112.739C968.831 112.544 970.914 112.219 972.932 111.893C974.95 111.568 977.163 111.242 979.376 110.852C981.589 110.526 983.607 110.201 985.299 109.485C986.992 108.834 988.359 108.313 989.205 107.597V119.639L989.27 119.704Z" stroke="url(#paint5_linear_214_1773)" stroke-width="1.7803" mask="url(#path-1-inside-1_214_1773)"/>
<path d="M1145.88 72.4473C1141.78 63.9202 1136.38 57.8015 1129.54 53.3753C1122.77 48.949 1115.09 46.9312 1106.96 46.9312C1100.51 46.9312 1095.24 48.1028 1091.14 50.1858C1087.04 52.2036 1083.65 54.9375 1081.11 57.9968C1078.58 61.0561 1076.49 64.1155 1075.13 66.9795H1073.76V48.2981H1044.34V201.33H1074.28V141.835H1075.13C1076.49 144.895 1078.51 147.759 1081.11 150.818C1083.65 153.877 1087.23 156.416 1091.33 158.499C1095.44 160.517 1100.51 161.558 1106.63 161.558C1115.16 161.558 1122.77 159.345 1129.74 154.919C1136.7 150.493 1142.17 144.049 1146.08 135.522C1149.98 126.994 1152 116.97 1152 104.212C1152 91.4542 1149.98 80.9092 1145.88 72.4473ZM1118.67 121.397C1116.98 126.474 1114.25 130.379 1110.67 133.308C1107.09 136.172 1102.66 137.539 1097.58 137.539C1092.51 137.539 1088.21 136.172 1084.69 133.308C1081.11 130.444 1078.38 126.539 1076.56 121.592C1074.67 116.645 1073.69 110.721 1073.69 104.082C1073.69 97.4426 1074.54 91.5192 1076.43 86.5722C1078.32 81.6252 1081.05 77.7197 1084.56 74.9859C1088.14 72.252 1092.38 70.885 1097.65 70.885C1102.92 70.885 1107.15 72.252 1110.73 75.116C1114.31 77.9801 1116.85 81.8856 1118.74 86.8326C1120.63 91.7796 1121.47 97.5728 1121.47 104.017C1121.47 110.461 1120.43 116.254 1118.74 121.331L1118.67 121.397Z" stroke="url(#paint6_linear_214_1773)" stroke-width="1.7803" mask="url(#path-1-inside-1_214_1773)"/>
<path d="M118.337 208.294C146.197 208.294 168.849 185.707 168.849 157.783C168.849 129.858 146.262 107.271 118.337 107.271C90.413 107.271 67.826 129.858 67.826 157.783C67.826 185.707 90.413 208.294 118.337 208.294Z" fill="url(#paint7_linear_214_1773)"/>
<path d="M50.5115 112.545C78.3709 112.545 101.023 89.9578 101.023 62.0333C101.023 34.1088 78.3709 11.5869 50.5115 11.5869C22.6521 11.5869 0 34.1739 0 62.0333C0 89.8927 22.587 112.545 50.5115 112.545Z" fill="#8F2CF8"/>
<path d="M238.042 62.033C238.042 89.8924 215.455 112.544 187.53 112.544C159.606 112.544 137.019 89.9575 137.019 62.033C137.019 34.1084 159.606 11.5215 187.53 11.5215C215.455 11.5215 238.042 34.1084 238.042 62.033Z" fill="#8F2CF8"/>
<path d="M118.337 0V38.0789C118.337 76.353 87.4187 107.272 49.1446 107.272" stroke="#8F2CF8" stroke-width="10.3496" stroke-miterlimit="10"/>
<path d="M118.337 0V38.0789C118.337 76.353 149.256 107.272 187.53 107.272" stroke="#8F2CF8" stroke-width="10.3496" stroke-miterlimit="10"/>
</g>
<defs>
<linearGradient id="paint0_linear_214_1773" x1="443.813" y1="74.7726" x2="443.5" y2="167" gradientUnits="userSpaceOnUse">
<stop stop-color="#8A2DFC"/>
<stop offset="1" stop-color="#241943"/>
</linearGradient>
<linearGradient id="paint1_linear_214_1773" x1="443.813" y1="74.7726" x2="443.5" y2="167" gradientUnits="userSpaceOnUse">
<stop stop-color="#8A2DFC"/>
<stop offset="1" stop-color="#241943"/>
</linearGradient>
<linearGradient id="paint2_linear_214_1773" x1="443.813" y1="74.7726" x2="443.5" y2="167" gradientUnits="userSpaceOnUse">
<stop stop-color="#8A2DFC"/>
<stop offset="1" stop-color="#241943"/>
</linearGradient>
<linearGradient id="paint3_linear_214_1773" x1="443.813" y1="74.7726" x2="443.5" y2="167" gradientUnits="userSpaceOnUse">
<stop stop-color="#8A2DFC"/>
<stop offset="1" stop-color="#241943"/>
</linearGradient>
<linearGradient id="paint4_linear_214_1773" x1="443.813" y1="74.7726" x2="443.5" y2="167" gradientUnits="userSpaceOnUse">
<stop stop-color="#8A2DFC"/>
<stop offset="1" stop-color="#241943"/>
</linearGradient>
<linearGradient id="paint5_linear_214_1773" x1="443.813" y1="74.7726" x2="443.5" y2="167" gradientUnits="userSpaceOnUse">
<stop stop-color="#8A2DFC"/>
<stop offset="1" stop-color="#241943"/>
</linearGradient>
<linearGradient id="paint6_linear_214_1773" x1="443.813" y1="74.7726" x2="443.5" y2="167" gradientUnits="userSpaceOnUse">
<stop stop-color="#8A2DFC"/>
<stop offset="1" stop-color="#241943"/>
</linearGradient>
<linearGradient id="paint7_linear_214_1773" x1="118.337" y1="107.271" x2="118.337" y2="208.294" gradientUnits="userSpaceOnUse">
<stop stop-color="#8F2CF8"/>
<stop offset="1" stop-color="#241943"/>
</linearGradient>
<clipPath id="clip0_214_1773">
<rect width="1152" height="208.295" fill="white"/>
</clipPath>
</defs>
</svg>
