<svg width="177" height="32" viewBox="0 0 177 32" fill="none" xmlns="http://www.w3.org/2000/svg">
<g clip-path="url(#clip0_214_1726)">
<path d="M47.8041 24.7381C46.6286 24.7381 45.5837 24.4769 44.6956 23.9545C43.8074 23.432 43.1282 22.7006 42.6319 21.734C42.1356 20.7675 41.9005 19.6181 41.9005 18.2859V7.41895H46.498V17.5022C46.498 18.5732 46.7853 19.383 47.3339 20.01C47.8825 20.6369 48.64 20.9243 49.6066 20.9243C50.2596 20.9243 50.8343 20.7936 51.3307 20.5063C51.827 20.2189 52.2188 19.8271 52.5062 19.2785C52.7935 18.73 52.9241 18.103 52.9241 17.3455V7.44507H57.5217V24.5553H53.1853L53.1331 20.2973H53.3943C52.9502 21.734 52.2711 22.8312 51.3307 23.6149C50.3902 24.3985 49.2409 24.7904 47.8302 24.7904L47.8041 24.7381Z" fill="white"/>
<path d="M66.2466 24.5292L59.9511 7.41895H64.836L67.7095 16.3006C68.0491 17.4238 68.3625 18.5471 68.6238 19.6704C68.885 20.7936 69.1462 21.9691 69.4336 23.1969H68.4409C68.7021 21.9953 68.9634 20.8198 69.2246 19.6704C69.4858 18.521 69.7732 17.4238 70.1389 16.3006L72.9862 7.41895H77.8189L71.4972 24.5292H66.2727H66.2466Z" fill="white"/>
<path d="M84.6891 24.8687C83.6181 24.8687 82.6254 24.6859 81.7634 24.294C80.9013 23.9022 80.2221 23.3275 79.7258 22.57C79.2295 21.8124 78.9944 20.872 78.9944 19.7226C78.9944 18.7822 79.1772 17.9724 79.5168 17.3455C79.8564 16.7185 80.3528 16.1961 80.9536 15.8042C81.5544 15.4124 82.2597 15.1251 83.0172 14.9161C83.7748 14.7071 84.5846 14.5765 85.4466 14.4981C86.4393 14.3936 87.223 14.2891 87.8499 14.2108C88.4768 14.1324 88.8948 13.9757 89.1821 13.7928C89.4695 13.61 89.6001 13.3226 89.6001 12.9569V12.8785C89.6001 12.3822 89.4956 11.9642 89.2866 11.6508C89.0777 11.3373 88.7903 11.05 88.3723 10.8671C87.9544 10.6842 87.4842 10.6059 86.9095 10.6059C86.3348 10.6059 85.8123 10.6842 85.3683 10.8671C84.9242 11.05 84.5846 11.2851 84.2972 11.5724C84.0099 11.8598 83.827 12.1993 83.6964 12.5651L79.4907 11.8859C79.7781 10.8932 80.2744 10.0312 80.9536 9.352C81.6328 8.67282 82.4948 8.12425 83.5136 7.75853C84.5323 7.39282 85.6817 7.20996 86.9617 7.20996C87.876 7.20996 88.7642 7.31445 89.6523 7.54955C90.5405 7.78466 91.2981 8.09812 91.9772 8.56833C92.6564 9.03853 93.205 9.63935 93.623 10.3708C94.0409 11.1022 94.2238 11.9904 94.2238 13.0353V24.5553H89.8874V22.1781H89.7307C89.4434 22.7006 89.0777 23.1708 88.6336 23.5887C88.1895 24.0067 87.6148 24.3202 86.9617 24.5553C86.3087 24.7904 85.5772 24.8949 84.7152 24.8949L84.6891 24.8687ZM85.9952 21.6296C86.7266 21.6296 87.3536 21.4989 87.9021 21.2116C88.4507 20.9242 88.8687 20.5324 89.1821 20.0361C89.4956 19.5398 89.6523 18.9912 89.6523 18.3904V16.5357C89.5217 16.6402 89.3128 16.7185 89.0515 16.823C88.7903 16.9275 88.4768 16.9798 88.1372 17.032C87.7977 17.0842 87.4581 17.1365 87.1446 17.1887C86.8311 17.241 86.5176 17.2932 86.2825 17.3193C85.734 17.3977 85.2376 17.5283 84.7936 17.7112C84.3495 17.894 84.036 18.1291 83.8009 18.4426C83.5658 18.7561 83.4613 19.1218 83.4613 19.592C83.4613 20.0361 83.5658 20.4018 83.8009 20.6891C84.036 20.9765 84.3234 21.2116 84.7152 21.3683C85.107 21.5251 85.5511 21.6034 86.0474 21.6034L85.9952 21.6296Z" fill="white"/>
<path d="M104.908 24.8687C103.523 24.8687 102.322 24.6598 101.251 24.2679C100.18 23.8761 99.3176 23.3014 98.6384 22.5438C97.9592 21.7863 97.5413 20.8981 97.3323 19.8271L101.59 19.0957C101.825 19.8793 102.217 20.4802 102.766 20.8981C103.314 21.3161 104.072 21.4989 105.012 21.4989C105.9 21.4989 106.58 21.3422 107.076 21.0026C107.572 20.663 107.834 20.2451 107.834 19.7487C107.834 19.3047 107.651 18.9389 107.285 18.6516C106.919 18.3642 106.371 18.1553 105.613 17.9985L102.661 17.3977C101.016 17.0581 99.7617 16.4834 98.9519 15.6736C98.1421 14.8638 97.7241 13.8189 97.7241 12.5389C97.7241 11.4418 98.0376 10.5014 98.6384 9.69159C99.2392 8.8818 100.075 8.28098 101.146 7.86302C102.217 7.44506 103.471 7.20996 104.934 7.20996C106.292 7.20996 107.442 7.39282 108.434 7.75853C109.427 8.12425 110.237 8.6467 110.838 9.352C111.438 10.0573 111.856 10.841 112.065 11.7814L107.99 12.5128C107.807 11.9381 107.494 11.4418 106.998 11.0761C106.501 10.7104 105.848 10.5275 105.012 10.5275C104.255 10.5275 103.628 10.6842 103.105 10.9977C102.583 11.3112 102.348 11.7291 102.348 12.2777C102.348 12.6957 102.505 13.0614 102.844 13.3749C103.184 13.6883 103.732 13.8973 104.542 14.054L107.625 14.6549C109.27 14.9945 110.498 15.543 111.308 16.3006C112.118 17.0581 112.509 18.0508 112.509 19.2785C112.509 20.4018 112.196 21.3945 111.517 22.2304C110.838 23.0663 109.976 23.7193 108.826 24.1896C107.677 24.6598 106.345 24.8949 104.856 24.8949L104.908 24.8687Z" fill="white"/>
<path d="M119.223 24.5292L114.181 7.41895H119.014L120.503 13.7406C120.764 14.8638 121.025 16.1177 121.339 17.45C121.652 18.7822 121.914 20.2451 122.149 21.8647H121.626C121.887 20.2973 122.175 18.8345 122.488 17.5022C122.802 16.17 123.089 14.9161 123.376 13.7667L124.944 7.44507H129.176L130.717 13.7667C130.978 14.9161 131.265 16.17 131.579 17.5022C131.892 18.8345 132.18 20.2973 132.467 21.8908H131.945C132.18 20.2973 132.441 18.8606 132.728 17.5283C133.016 16.1961 133.277 14.9422 133.538 13.7928L135.027 7.47119H139.912L134.818 24.5814H130.142L128.235 17.9724C128.052 17.3194 127.87 16.5879 127.687 15.7781C127.504 14.9683 127.321 14.1585 127.138 13.3226C126.955 12.4867 126.798 11.703 126.589 10.9977H127.399C127.216 11.7291 127.06 12.5128 126.877 13.3226C126.694 14.1324 126.511 14.9683 126.328 15.7781C126.145 16.5879 125.963 17.3194 125.78 17.9724L123.873 24.5814H119.197L119.223 24.5292Z" fill="white"/>
<path d="M147.017 24.8687C145.946 24.8687 144.954 24.6859 144.091 24.294C143.229 23.9022 142.55 23.3275 142.054 22.57C141.558 21.8124 141.323 20.872 141.323 19.7226C141.323 18.7822 141.505 17.9724 141.845 17.3455C142.185 16.7185 142.681 16.1961 143.282 15.8042C143.883 15.4124 144.588 15.1251 145.345 14.9161C146.103 14.7071 146.913 14.5765 147.775 14.4981C148.767 14.3936 149.551 14.2891 150.178 14.2108C150.805 14.1324 151.223 13.9757 151.51 13.7928C151.798 13.61 151.928 13.3226 151.928 12.9569V12.8785C151.928 12.3822 151.824 11.9642 151.615 11.6508C151.406 11.3373 151.118 11.05 150.7 10.8671C150.283 10.6842 149.812 10.6059 149.238 10.6059C148.663 10.6059 148.14 10.6842 147.696 10.8671C147.252 11.05 146.913 11.2851 146.625 11.5724C146.338 11.8598 146.155 12.1993 146.025 12.5651L141.819 11.8859C142.106 10.8932 142.603 10.0312 143.282 9.352C143.961 8.67282 144.823 8.12425 145.842 7.75853C146.86 7.39282 148.01 7.20996 149.29 7.20996C150.204 7.20996 151.092 7.31445 151.98 7.54955C152.869 7.78466 153.626 8.09812 154.305 8.56833C154.985 9.03853 155.533 9.63935 155.951 10.3708C156.369 11.1022 156.552 11.9904 156.552 13.0353V24.5553H152.216V22.1781H152.059C151.771 22.7006 151.406 23.1708 150.962 23.5887C150.518 24.0067 149.943 24.3202 149.29 24.5553C148.637 24.7904 147.905 24.8949 147.043 24.8949L147.017 24.8687ZM148.323 21.6296C149.055 21.6296 149.682 21.4989 150.23 21.2116C150.779 20.9242 151.197 20.5324 151.51 20.0361C151.824 19.5398 151.98 18.9912 151.98 18.3904V16.5357C151.85 16.6402 151.641 16.7185 151.38 16.823C151.118 16.9275 150.805 16.9798 150.465 17.032C150.126 17.0842 149.786 17.1365 149.473 17.1887C149.159 17.241 148.846 17.2932 148.611 17.3193C148.062 17.3977 147.566 17.5283 147.122 17.7112C146.678 17.894 146.364 18.1291 146.129 18.4426C145.894 18.7561 145.789 19.1218 145.789 19.592C145.789 20.0361 145.894 20.4018 146.129 20.6891C146.364 20.9765 146.651 21.2116 147.043 21.3683C147.435 21.5251 147.879 21.6034 148.376 21.6034L148.323 21.6296Z" fill="white"/>
<path d="M160.444 30.9291V7.41894H164.963V10.2924H165.172C165.381 9.84833 165.695 9.37812 166.087 8.90792C166.478 8.43772 167.001 8.01976 167.628 7.70629C168.255 7.39282 169.065 7.20996 170.057 7.20996C171.311 7.20996 172.487 7.52343 173.532 8.20261C174.576 8.8818 175.412 9.82221 176.039 11.1283C176.666 12.4345 176.98 14.054 176.98 16.0132C176.98 17.9724 176.666 19.5136 176.065 20.8198C175.465 22.1259 174.629 23.1185 173.558 23.7977C172.487 24.4769 171.311 24.8165 170.005 24.8165C169.065 24.8165 168.281 24.6598 167.654 24.3463C167.027 24.0328 166.478 23.641 166.087 23.1708C165.695 22.7006 165.381 22.2565 165.172 21.7863H165.042V30.9291H160.444ZM168.62 21.1332C169.404 21.1332 170.083 20.9242 170.632 20.4802C171.18 20.0361 171.598 19.4353 171.86 18.6516C172.121 17.8679 172.278 16.9798 172.278 15.9871C172.278 14.9945 172.147 14.1063 171.86 13.3487C171.572 12.5912 171.18 11.9904 170.632 11.5463C170.083 11.1022 169.43 10.8932 168.62 10.8932C167.811 10.8932 167.158 11.1022 166.609 11.5202C166.06 11.9381 165.643 12.5389 165.355 13.2965C165.068 14.054 164.937 14.9683 164.937 15.9871C164.937 17.0059 165.094 17.9202 165.381 18.6777C165.669 19.4353 166.087 20.0361 166.635 20.4802C167.184 20.9242 167.837 21.1332 168.62 21.1332Z" fill="white"/>
<path d="M18.1812 32.0001C22.466 32.0001 25.9396 28.5266 25.9396 24.2418C25.9396 19.9569 22.466 16.4834 18.1812 16.4834C13.8964 16.4834 10.4229 19.9569 10.4229 24.2418C10.4229 28.5266 13.8964 32.0001 18.1812 32.0001Z" fill="#6E22BF"/>
<path d="M7.75837 17.2931C12.0432 17.2931 15.5167 13.8196 15.5167 9.53473C15.5167 5.24991 12.0432 1.77637 7.75837 1.77637C3.47354 1.77637 0 5.24991 0 9.53473C0 13.8196 3.47354 17.2931 7.75837 17.2931Z" fill="#8F2CF8"/>
<path d="M36.5714 9.53473C36.5714 13.8188 33.0971 17.2931 28.8131 17.2931C24.529 17.2931 21.0547 13.8188 21.0547 9.53473C21.0547 5.25065 24.529 1.77637 28.8131 1.77637C33.0971 1.77637 36.5714 5.25065 36.5714 9.53473Z" fill="#8F2CF8"/>
<path d="M18.1813 0V5.85143C18.1813 11.729 13.427 16.4833 7.54944 16.4833" stroke="#8F2CF8" stroke-width="1.59347" stroke-miterlimit="10"/>
<path d="M18.1812 0C18.1812 5.69469 18.1812 3.63102 18.1812 5.85143C18.1812 11.729 22.9355 16.4833 28.813 16.4833" stroke="#8F2CF8" stroke-width="1.59347" stroke-miterlimit="10"/>
</g>
<defs>
<clipPath id="clip0_214_1726">
<rect width="176.98" height="32" fill="white"/>
</clipPath>
</defs>
</svg>
