<svg width="358" height="387" viewBox="0 0 358 387" fill="none" xmlns="http://www.w3.org/2000/svg">
<g filter="url(#filter0_d_149_935)">
<rect x="32" y="75.4307" width="86" height="86" rx="43" fill="#F7F9FC" shape-rendering="crispEdges"/>
<rect x="33" y="76.4307" width="84" height="84" rx="42" stroke="white" stroke-width="2" shape-rendering="crispEdges"/>
<g clip-path="url(#clip0_149_935)">
<path d="M75.7805 100.931C76.7854 101.104 77.8017 101.244 78.7991 101.46C81.0545 101.947 83.5668 103.167 85.0402 104.433C83.9711 104.217 82.8717 103.893 81.7534 103.787C75.9014 103.231 71.2507 105.377 67.9073 110.187C66.0863 112.809 65.3269 115.774 65.5498 118.978C65.8218 122.884 69.1351 126.47 73.0528 127.082C76.2754 127.584 79.0635 126.726 81.3832 124.422C81.4927 124.312 81.6174 124.218 81.7723 124.146C81.2396 125.385 80.4765 126.47 79.5547 127.44C75.1874 132.05 68.4588 133.175 62.8373 130.236C62.4406 130.028 62.059 129.734 61.7643 129.397C59.2747 126.579 57.8391 123.304 57.5217 119.556C57.5066 119.375 57.4386 119.197 57.397 119.019V117.134C57.4537 116.768 57.5179 116.401 57.5633 116.035C58.402 109.121 63.4984 103.292 70.2609 101.569C71.4094 101.274 72.5957 101.138 73.7669 100.931H75.7805Z" fill="#D1007E"/>
<path d="M64.9794 132.227C66.2865 132.446 67.6126 132.752 68.9538 132.877C74.462 133.383 80.1931 130.198 82.7395 125.283C84.0391 122.775 84.6851 120.138 84.3753 117.3C83.9522 113.386 80.518 109.93 76.5965 109.45C73.374 109.057 70.6463 110.009 68.4022 112.348C68.338 112.416 68.2624 112.472 68.1906 112.533C68.134 112.491 68.0773 112.446 68.0206 112.404C68.7158 111.43 69.3278 110.383 70.1174 109.491C72.9546 106.284 76.5701 104.716 80.8505 104.739C83.1286 104.75 85.2858 105.332 87.2843 106.431C87.6432 106.628 87.9719 106.915 88.2439 107.221C93.6464 113.33 94.0053 122.393 88.9769 128.827C84.9949 133.923 79.6642 136.084 73.2228 135.465C70.2345 135.178 67.5408 134.093 65.1154 132.34C65.0512 132.295 64.9907 132.235 64.9794 132.223V132.227Z" fill="#D1007E"/>
</g>
</g>
<g filter="url(#filter1_d_149_935)">
<rect x="32" y="217.431" width="86" height="86" rx="43" fill="#F7F9FC" shape-rendering="crispEdges"/>
<rect x="33" y="218.431" width="84" height="84" rx="42" stroke="white" stroke-width="2" shape-rendering="crispEdges"/>
<path fill-rule="evenodd" clip-rule="evenodd" d="M81.4023 249.753C73.4639 257.546 66.3776 266.149 60.0015 275.266L60.0076 275.27C71.3617 265.407 83.7099 256.695 96.992 249.633V249.616C91.7974 249.417 86.5968 249.457 81.4023 249.753Z" fill="#62B447"/>
<path fill-rule="evenodd" clip-rule="evenodd" d="M88.2084 278.763L88.2145 278.756C86.5222 272.462 84.8481 266.162 83.1942 259.85C79.0945 262.497 75.0936 265.271 71.1742 268.18C76.9107 271.617 82.5777 275.156 88.2084 278.763ZM55.3478 280.409H55.3599C62.2467 269.082 70.2284 258.436 79.5045 248.95C78.3844 246.054 76.0827 240.266 76.0827 240.266C72.941 243.813 70.167 247.65 67.6034 251.633C62.6576 252.767 57.7804 254.186 53.0582 256.048C53.0582 256.048 59.0556 260.118 61.9979 262.219C59.5038 267.981 55.5845 279.706 55.3478 280.409Z" fill="#006340"/>
<path fill-rule="evenodd" clip-rule="evenodd" d="M81.4023 249.753C73.4639 257.546 66.3776 266.149 60.0015 275.266L60.0076 275.27C71.3617 265.407 83.7099 256.695 96.992 249.633V249.616C91.7974 249.417 86.5968 249.457 81.4023 249.753Z" fill="#62B447"/>
<path fill-rule="evenodd" clip-rule="evenodd" d="M88.2084 278.763L88.2145 278.756C86.5222 272.462 84.8481 266.162 83.1942 259.85C79.0945 262.497 75.0936 265.271 71.1742 268.18C76.9107 271.617 82.5777 275.156 88.2084 278.763ZM55.3478 280.409H55.3599C62.2467 269.082 70.2284 258.436 79.5045 248.95C78.3844 246.054 76.0827 240.266 76.0827 240.266C72.941 243.813 70.167 247.65 67.6034 251.633C62.6576 252.767 57.7804 254.186 53.0582 256.048C53.0582 256.048 59.0556 260.118 61.9979 262.219C59.5038 267.981 55.5845 279.706 55.3478 280.409Z" fill="#006340"/>
</g>
<g filter="url(#filter2_d_149_935)">
<rect x="185" y="28.4307" width="86" height="86" rx="43" fill="#F7F9FC" shape-rendering="crispEdges"/>
<rect x="186" y="29.4307" width="84" height="84" rx="42" stroke="white" stroke-width="2" shape-rendering="crispEdges"/>
<g clip-path="url(#clip1_149_935)">
<path d="M219.621 65.7903H214.059V68.0317H219.621V65.7903Z" fill="#FF8000"/>
<path d="M219.621 74.7534H214.059V76.9949H219.621V74.7534Z" fill="#FF8000"/>
<path d="M219.621 70.3113H209.5V72.5527H219.621V70.3113Z" fill="#FF8000"/>
<path d="M241.02 65.7903H235.458V68.0317H241.02V65.7903Z" fill="#FF8000"/>
<path d="M241.02 74.7534H235.458V76.9949H241.02V74.7534Z" fill="#FF8000"/>
<path d="M245.579 70.3113H235.458V72.5527H245.579V70.3113Z" fill="#FF8000"/>
<path d="M228.736 53.4307H226.419V89.4307H228.736V53.4307Z" fill="#FF8000"/>
<path d="M233.295 57.9109H230.978V84.9502H233.295V57.9109Z" fill="#FF8000"/>
<path d="M224.332 57.9109H222.014V84.9502H224.332V57.9109Z" fill="#FF8000"/>
</g>
</g>
<g filter="url(#filter3_d_149_935)">
<rect x="240" y="146.431" width="86" height="86" rx="43" fill="#F7F9FC" shape-rendering="crispEdges"/>
<rect x="241" y="147.431" width="84" height="84" rx="42" stroke="white" stroke-width="2" shape-rendering="crispEdges"/>
<path d="M273.743 173.445H267V205.417H273.743V173.445Z" fill="#108094"/>
<path d="M284.788 173.445H290.834C290.834 173.445 297.81 173.91 298.158 180.885C298.158 180.885 298.855 185.187 293.741 187.745C293.741 187.745 299.437 190.186 298.973 196.697C298.973 196.697 298.857 203.673 291.3 205.417H283.51C283.51 205.417 291.183 204.603 292.346 197.395C292.346 197.395 293.393 191.234 286.998 187.862C286.998 187.862 292.115 185.769 291.765 180.654C291.765 180.654 290.952 174.26 284.789 173.446L284.788 173.445Z" fill="#108094"/>
<path d="M273.627 173.445H279.673C279.673 173.445 286.649 173.91 286.997 180.885C286.997 180.885 287.694 185.187 282.58 187.745C282.58 187.745 288.277 190.186 287.811 196.697C287.811 196.697 287.694 203.673 280.137 205.417H273.743C273.743 205.417 280.021 204.603 281.184 197.395C281.184 197.395 282.23 191.234 275.836 187.862C275.836 187.862 280.952 185.769 280.603 180.654C280.603 180.654 279.789 174.26 273.627 173.446V173.445Z" fill="#108094"/>
</g>
<g filter="url(#filter4_d_149_935)">
<rect x="185" y="264.431" width="86" height="86" rx="43" fill="#F7F9FC" shape-rendering="crispEdges"/>
<rect x="186" y="265.431" width="84" height="84" rx="42" stroke="white" stroke-width="2" shape-rendering="crispEdges"/>
<path d="M227.036 322.913C217.109 321.965 208.323 317.2 205.068 311.703C205.237 312.734 206.412 314.985 206.949 316.468C207.342 317.555 207.911 318.44 208.177 319.237C212.287 322.146 217.002 323.666 223.485 324.285C230.168 324.923 236.046 324.105 240.681 321.892C236.614 322.927 232.134 323.398 227.036 322.913Z" fill="#F5D303"/>
<path d="M219.3 302.925C215.883 299.21 212.814 295.456 210.157 291.796C209.799 292.265 209.396 292.814 208.973 293.437C208.389 294.29 207.918 295.091 207.563 295.757C210.178 298.621 213.075 301.513 216.214 304.352C225.159 312.442 233.876 317.693 240.841 321.481C234.562 316.859 226.95 311.234 219.3 302.925Z" fill="#F5D303"/>
<path d="M233.422 296.362C230.868 291.278 228.869 287.912 225.925 283.962C225.544 284.003 224.902 284.324 223.772 284.501C222.925 284.634 222.064 284.547 221.379 284.821C225.672 289.327 229.135 294.041 232.943 300.824C237.277 308.537 239.45 314.688 241.275 321.123C240.502 313.713 238.239 305.951 233.422 296.362Z" fill="#F5D303"/>
<path d="M229.246 330.778C216.83 330.778 206.764 321.045 206.764 309.037C206.764 297.031 216.767 287.646 229.185 287.646C241.359 287.646 251.333 296.654 251.715 308.339C251.727 308.038 251.735 307.735 251.735 307.433C251.735 294.331 241.049 283.712 227.867 283.712C214.687 283.712 204 294.331 204 307.433C204 320.531 214.687 331.149 227.867 331.149C230.437 331.149 232.911 330.744 235.23 329.998C233.324 330.504 231.319 330.778 229.246 330.778Z" fill="#265092"/>
<path d="M216.385 297.396C224.893 288.723 238.13 288.066 245.95 295.929C250.726 300.733 252.623 307.979 250.991 314.194C253.203 306.799 251.849 298.418 246.232 292.77C238.007 284.498 224.135 285.017 215.626 293.692C210.023 299.405 208.009 307.312 209.636 314.408C209.402 308.45 211.676 302.197 216.385 297.396Z" fill="#9C1574"/>
<path d="M250.565 309.575C250.495 304.355 248.5 299.527 244.83 297.001C237.734 292.118 226.709 295.937 219.837 305.974C216.28 311.17 214.619 316.915 214.822 321.926C213.248 316.051 214.544 308.769 218.864 302.46C225.737 292.423 237.648 288.652 245.473 294.036C250.107 297.224 252.359 302.953 251.921 309.146C251.921 309.146 251.781 310.931 251.614 311.71C251.455 312.45 251.044 314.053 250.882 314.525C250.72 314.995 250.565 309.575 250.565 309.575Z" fill="#25845C"/>
<path d="M226.981 306.542C219.974 313.973 218.388 323.859 223.44 328.623C223.664 328.836 223.898 329.031 224.141 329.215C219.693 324.768 221.029 316.249 227.183 309.602C232.838 303.489 242.46 300.818 247.117 305.211C251.222 309.083 250.672 316.515 246.169 322.798C252.409 315.502 253.645 306.268 248.815 301.714C243.763 296.952 233.987 299.113 226.981 306.542Z" fill="#D06519"/>
<path d="M233.522 314.116C228.805 318.214 227.227 324.121 229.999 327.313C232.171 329.813 236.368 329.903 240.351 327.852C237.001 329.395 233.545 329.206 231.703 327.086C229.244 324.256 230.591 319.061 234.709 315.482C238.829 311.904 244.16 311.297 246.617 314.128C248.461 316.248 248.168 319.696 246.17 322.798C248.754 319.141 249.253 314.972 247.082 312.473C244.311 309.283 238.238 310.017 233.522 314.116Z" fill="#B6161A"/>
</g>
<defs>
<filter id="filter0_d_149_935" x="0" y="47.4307" width="150" height="150" filterUnits="userSpaceOnUse" color-interpolation-filters="sRGB">
<feFlood flood-opacity="0" result="BackgroundImageFix"/>
<feColorMatrix in="SourceAlpha" type="matrix" values="0 0 0 0 0 0 0 0 0 0 0 0 0 0 0 0 0 0 127 0" result="hardAlpha"/>
<feOffset dy="4"/>
<feGaussianBlur stdDeviation="16"/>
<feComposite in2="hardAlpha" operator="out"/>
<feColorMatrix type="matrix" values="0 0 0 0 0.559216 0 0 0 0 0.172549 0 0 0 0 0.972549 0 0 0 0.08 0"/>
<feBlend mode="normal" in2="BackgroundImageFix" result="effect1_dropShadow_149_935"/>
<feBlend mode="normal" in="SourceGraphic" in2="effect1_dropShadow_149_935" result="shape"/>
</filter>
<filter id="filter1_d_149_935" x="0" y="189.431" width="150" height="150" filterUnits="userSpaceOnUse" color-interpolation-filters="sRGB">
<feFlood flood-opacity="0" result="BackgroundImageFix"/>
<feColorMatrix in="SourceAlpha" type="matrix" values="0 0 0 0 0 0 0 0 0 0 0 0 0 0 0 0 0 0 127 0" result="hardAlpha"/>
<feOffset dy="4"/>
<feGaussianBlur stdDeviation="16"/>
<feComposite in2="hardAlpha" operator="out"/>
<feColorMatrix type="matrix" values="0 0 0 0 0.559216 0 0 0 0 0.172549 0 0 0 0 0.972549 0 0 0 0.08 0"/>
<feBlend mode="normal" in2="BackgroundImageFix" result="effect1_dropShadow_149_935"/>
<feBlend mode="normal" in="SourceGraphic" in2="effect1_dropShadow_149_935" result="shape"/>
</filter>
<filter id="filter2_d_149_935" x="153" y="0.430664" width="150" height="150" filterUnits="userSpaceOnUse" color-interpolation-filters="sRGB">
<feFlood flood-opacity="0" result="BackgroundImageFix"/>
<feColorMatrix in="SourceAlpha" type="matrix" values="0 0 0 0 0 0 0 0 0 0 0 0 0 0 0 0 0 0 127 0" result="hardAlpha"/>
<feOffset dy="4"/>
<feGaussianBlur stdDeviation="16"/>
<feComposite in2="hardAlpha" operator="out"/>
<feColorMatrix type="matrix" values="0 0 0 0 0.559216 0 0 0 0 0.172549 0 0 0 0 0.972549 0 0 0 0.08 0"/>
<feBlend mode="normal" in2="BackgroundImageFix" result="effect1_dropShadow_149_935"/>
<feBlend mode="normal" in="SourceGraphic" in2="effect1_dropShadow_149_935" result="shape"/>
</filter>
<filter id="filter3_d_149_935" x="208" y="118.431" width="150" height="150" filterUnits="userSpaceOnUse" color-interpolation-filters="sRGB">
<feFlood flood-opacity="0" result="BackgroundImageFix"/>
<feColorMatrix in="SourceAlpha" type="matrix" values="0 0 0 0 0 0 0 0 0 0 0 0 0 0 0 0 0 0 127 0" result="hardAlpha"/>
<feOffset dy="4"/>
<feGaussianBlur stdDeviation="16"/>
<feComposite in2="hardAlpha" operator="out"/>
<feColorMatrix type="matrix" values="0 0 0 0 0.559216 0 0 0 0 0.172549 0 0 0 0 0.972549 0 0 0 0.08 0"/>
<feBlend mode="normal" in2="BackgroundImageFix" result="effect1_dropShadow_149_935"/>
<feBlend mode="normal" in="SourceGraphic" in2="effect1_dropShadow_149_935" result="shape"/>
</filter>
<filter id="filter4_d_149_935" x="153" y="236.431" width="150" height="150" filterUnits="userSpaceOnUse" color-interpolation-filters="sRGB">
<feFlood flood-opacity="0" result="BackgroundImageFix"/>
<feColorMatrix in="SourceAlpha" type="matrix" values="0 0 0 0 0 0 0 0 0 0 0 0 0 0 0 0 0 0 127 0" result="hardAlpha"/>
<feOffset dy="4"/>
<feGaussianBlur stdDeviation="16"/>
<feComposite in2="hardAlpha" operator="out"/>
<feColorMatrix type="matrix" values="0 0 0 0 0.559216 0 0 0 0 0.172549 0 0 0 0 0.972549 0 0 0 0.08 0"/>
<feBlend mode="normal" in2="BackgroundImageFix" result="effect1_dropShadow_149_935"/>
<feBlend mode="normal" in="SourceGraphic" in2="effect1_dropShadow_149_935" result="shape"/>
</filter>
<clipPath id="clip0_149_935">
<rect width="37" height="35" fill="white" transform="translate(56.5 100.931)"/>
</clipPath>
<clipPath id="clip1_149_935">
<rect width="37" height="36" fill="white" transform="translate(209.5 53.4307)"/>
</clipPath>
</defs>
</svg>
