<svg width="360" height="341" viewBox="0 0 360 341" fill="none" xmlns="http://www.w3.org/2000/svg">
<g clip-path="url(#clip0_15342_186665)">
<path d="M337.58 146.3C337.58 146.3 288.853 27.4421 199.772 4.48673C110.691 -18.4687 73.3307 51.7147 59.6793 100.397C46.0279 149.079 -4.27603 213.522 0.292209 257.788C4.63203 299.861 41.5053 319.756 75.9422 328.299C119.714 339.148 169.454 339.971 213.385 330.925C223.839 328.771 234.095 325.885 244.274 322.566C264.915 315.835 285.175 310.62 306.09 305.039C345.864 294.425 361.625 251.705 357.14 210.826C354.612 187.825 346.184 167.238 337.588 146.3H337.58Z" fill="white" fill-opacity="0.08"/>
<path d="M310.75 16.1484H169.516V211.699H310.75V16.1484Z" stroke="#32235C" stroke-width="0.761373" stroke-linecap="round" stroke-linejoin="round"/>
<path d="M240.133 16.2656V212.388" stroke="#32235C" stroke-width="0.761373" stroke-linecap="round" stroke-linejoin="round"/>
<path d="M310.861 114.328H169.391" stroke="#32235C" stroke-width="0.761373" stroke-linecap="round" stroke-linejoin="round"/>
<path d="M310.861 65.2188H169.391" stroke="#32235C" stroke-width="0.761373" stroke-linecap="round" stroke-linejoin="round"/>
<path d="M310.861 163.438H169.391" stroke="#32235C" stroke-width="0.761373" stroke-linecap="round" stroke-linejoin="round"/>
<path d="M285.117 87.8828L271.352 101.115" stroke="#32235C" stroke-width="0.761373" stroke-linecap="round" stroke-linejoin="round"/>
<path d="M305.594 68.1953L289.148 84.009" stroke="#32235C" stroke-width="0.761373" stroke-linecap="round" stroke-linejoin="round"/>
<path d="M270.355 94.8125L265.984 99.0153" stroke="#32235C" stroke-width="0.761373" stroke-linecap="round" stroke-linejoin="round"/>
<path d="M289.128 76.75L273.367 91.9089" stroke="#32235C" stroke-width="0.761373" stroke-linecap="round" stroke-linejoin="round"/>
<path d="M208.742 43.1094L194.977 56.342" stroke="#32235C" stroke-width="0.761373" stroke-linecap="round" stroke-linejoin="round"/>
<path d="M229.219 23.4219L212.773 39.2432" stroke="#32235C" stroke-width="0.761373" stroke-linecap="round" stroke-linejoin="round"/>
<path d="M193.98 50.0391L189.609 54.2418" stroke="#32235C" stroke-width="0.761373" stroke-linecap="round" stroke-linejoin="round"/>
<path d="M212.753 31.9844L196.992 47.1357" stroke="#32235C" stroke-width="0.761373" stroke-linecap="round" stroke-linejoin="round"/>
<path d="M281.828 139.898L268.062 153.131" stroke="#32235C" stroke-width="0.761373" stroke-linecap="round" stroke-linejoin="round"/>
<path d="M302.305 120.211L285.859 136.032" stroke="#32235C" stroke-width="0.761373" stroke-linecap="round" stroke-linejoin="round"/>
<path d="M267.066 146.828L262.695 151.031" stroke="#32235C" stroke-width="0.761373" stroke-linecap="round" stroke-linejoin="round"/>
<path d="M285.838 128.773L270.07 143.925" stroke="#32235C" stroke-width="0.761373" stroke-linecap="round" stroke-linejoin="round"/>
<path d="M288.032 193.27L287.438 188.184C287.438 188.184 284.735 188.344 283.692 185.992C283.06 184.568 282.421 181.682 283.35 180.259C284.614 178.325 287.408 178.584 288.215 180.906C288.938 182.977 289.288 183.86 289.288 183.86C289.113 180.868 286.86 168.815 293.643 170.65C296.4 171.396 297.153 174.061 297.275 176.162C297.397 178.264 297.108 183.708 297.108 183.708C297.108 183.708 298.927 183.906 299.057 180.883C299.186 177.86 302.118 176.49 303.404 177.921C304.691 179.352 305.293 184.438 303.876 186.03C302.46 187.621 297.976 188.177 297.976 188.177L298.273 193.286H288.025L288.032 193.27Z" fill="#DFFD62" stroke="#32235C" stroke-width="0.761373" stroke-linecap="round" stroke-linejoin="round"/>
<path d="M291.93 171.477C291.93 171.477 290.81 172.497 291.115 175.961C291.42 179.425 291.42 185.646 291.42 185.646" stroke="#32235C" stroke-width="0.380687" stroke-linecap="round" stroke-linejoin="round"/>
<path d="M294.891 173.823C294.891 173.823 296.215 173.617 295.812 176.777C295.401 179.937 295.812 184.734 295.812 184.734" stroke="#32235C" stroke-width="0.380687" stroke-linecap="round" stroke-linejoin="round"/>
<path d="M285.306 180.555C285.306 180.555 283.981 180.859 284.59 182.999C285.199 185.138 285.404 186.775 286.836 187.08C288.267 187.384 288.77 187.384 288.77 187.384L288.975 189.63" stroke="#32235C" stroke-width="0.380687" stroke-linecap="round" stroke-linejoin="round"/>
<path d="M298.156 186.983C298.156 186.983 302.336 187.082 303.151 185.354C303.966 183.618 303.455 180.664 303.455 180.664" stroke="#32235C" stroke-width="0.380687" stroke-linecap="round" stroke-linejoin="round"/>
<path d="M287.044 181.116C287.044 181.314 286.884 181.474 286.686 181.474C286.488 181.474 286.328 181.314 286.328 181.116C286.328 180.918 286.488 180.758 286.686 180.758C286.884 180.758 287.044 180.918 287.044 181.116Z" stroke="#32235C" stroke-width="0.380687" stroke-linecap="round" stroke-linejoin="round"/>
<path d="M287.905 185.606C288.102 185.606 288.263 185.446 288.263 185.248C288.263 185.051 288.102 184.891 287.905 184.891C287.707 184.891 287.547 185.051 287.547 185.248C287.547 185.446 287.707 185.606 287.905 185.606Z" stroke="#32235C" stroke-width="0.380687" stroke-linecap="round" stroke-linejoin="round"/>
<path d="M286.123 183.919C286.321 183.919 286.481 183.759 286.481 183.561C286.481 183.363 286.321 183.203 286.123 183.203C285.926 183.203 285.766 183.363 285.766 183.561C285.766 183.759 285.926 183.919 286.123 183.919Z" stroke="#32235C" stroke-width="0.380687" stroke-linecap="round" stroke-linejoin="round"/>
<path d="M293.358 179.692C293.555 179.692 293.716 179.532 293.716 179.334C293.716 179.137 293.555 178.977 293.358 178.977C293.16 178.977 293 179.137 293 179.334C293 179.532 293.16 179.692 293.358 179.692Z" stroke="#32235C" stroke-width="0.380687" stroke-linecap="round" stroke-linejoin="round"/>
<path d="M289.998 176.224C290.196 176.224 290.356 176.063 290.356 175.866C290.356 175.668 290.196 175.508 289.998 175.508C289.801 175.508 289.641 175.668 289.641 175.866C289.641 176.063 289.801 176.224 289.998 176.224Z" stroke="#32235C" stroke-width="0.380687" stroke-linecap="round" stroke-linejoin="round"/>
<path d="M294.888 188.303C294.888 188.501 294.728 188.661 294.53 188.661C294.332 188.661 294.172 188.501 294.172 188.303C294.172 188.105 294.332 187.945 294.53 187.945C294.728 187.945 294.888 188.105 294.888 188.303Z" stroke="#32235C" stroke-width="0.380687" stroke-linecap="round" stroke-linejoin="round"/>
<path d="M291.013 187.795C291.013 187.993 290.853 188.153 290.655 188.153C290.457 188.153 290.297 187.993 290.297 187.795C290.297 187.597 290.457 187.438 290.655 187.438C290.853 187.438 291.013 187.597 291.013 187.795Z" stroke="#32235C" stroke-width="0.380687" stroke-linecap="round" stroke-linejoin="round"/>
<path d="M293.975 172.966C294.173 172.966 294.333 172.805 294.333 172.608C294.333 172.41 294.173 172.25 293.975 172.25C293.777 172.25 293.617 172.41 293.617 172.608C293.617 172.805 293.777 172.966 293.975 172.966Z" stroke="#32235C" stroke-width="0.380687" stroke-linecap="round" stroke-linejoin="round"/>
<path d="M301.567 179.381C301.567 179.579 301.407 179.739 301.209 179.739C301.011 179.739 300.852 179.579 300.852 179.381C300.852 179.183 301.011 179.023 301.209 179.023C301.407 179.023 301.567 179.183 301.567 179.381Z" stroke="#32235C" stroke-width="0.380687" stroke-linecap="round" stroke-linejoin="round"/>
<path d="M300.295 184.591C300.493 184.591 300.653 184.43 300.653 184.233C300.653 184.035 300.493 183.875 300.295 183.875C300.098 183.875 299.938 184.035 299.938 184.233C299.938 184.43 300.098 184.591 300.295 184.591Z" stroke="#32235C" stroke-width="0.380687" stroke-linecap="round" stroke-linejoin="round"/>
<path d="M293.975 184.481C294.173 184.481 294.333 184.321 294.333 184.123C294.333 183.926 294.173 183.766 293.975 183.766C293.777 183.766 293.617 183.926 293.617 184.123C293.617 184.321 293.777 184.481 293.975 184.481Z" stroke="#32235C" stroke-width="0.380687" stroke-linecap="round" stroke-linejoin="round"/>
<path d="M302.099 189.977H283.742L285.577 205.021H300.264L302.099 189.977Z" fill="white" stroke="#32235C" stroke-width="0.761373" stroke-linecap="round" stroke-linejoin="round"/>
<path d="M28.9531 162.242L43.0005 296.8" stroke="#32235C" stroke-width="1.52275" stroke-miterlimit="10"/>
<path d="M40.7401 271.043L34.375 264.32" stroke="#32235C" stroke-width="1.52275" stroke-miterlimit="10"/>
<path d="M36.3096 266.332C36.3096 266.332 36.4923 263.356 33.7742 260.934C32.1373 259.473 23.5414 255.856 22.7267 258.886C21.8359 262.183 30.645 268.647 36.3096 266.332Z" fill="#DFFD62" stroke="#32235C" stroke-width="0.761373" stroke-miterlimit="10"/>
<path d="M36.3096 266.336L28.1172 261.234" stroke="#32235C" stroke-width="0.380687" stroke-miterlimit="10"/>
<path d="M42.326 286.348L35.9609 279.625" stroke="#32235C" stroke-width="1.52275" stroke-miterlimit="10"/>
<path d="M37.8956 281.637C37.8956 281.637 38.0783 278.66 35.3602 276.239C33.7232 274.777 25.1273 271.161 24.3127 274.191C23.4219 277.488 32.2309 283.952 37.8956 281.637Z" fill="#DFFD62" stroke="#32235C" stroke-width="0.761373" stroke-miterlimit="10"/>
<path d="M37.8957 281.64L29.7109 276.539" stroke="#32235C" stroke-width="0.380687" stroke-miterlimit="10"/>
<path d="M36.8338 233.699L30.4688 226.977" stroke="#32235C" stroke-width="1.52275" stroke-miterlimit="10"/>
<path d="M32.4034 228.997C32.4034 228.997 32.5861 226.02 29.868 223.598C28.231 222.137 19.6351 218.52 18.8205 221.55C17.9297 224.847 26.7388 231.311 32.4034 228.997Z" fill="#DFFD62" stroke="#32235C" stroke-width="0.761373" stroke-miterlimit="10"/>
<path d="M32.4033 229L24.2109 223.898" stroke="#32235C" stroke-width="0.380687" stroke-miterlimit="10"/>
<path d="M38.4352 249.004L32.0625 242.281" stroke="#32235C" stroke-width="1.52275" stroke-miterlimit="10"/>
<path d="M33.9971 244.301C33.9971 244.301 34.1798 241.324 31.4617 238.903C29.8248 237.441 21.2289 233.825 20.4142 236.855C19.5234 240.152 28.3325 246.616 33.9971 244.301Z" fill="#DFFD62" stroke="#32235C" stroke-width="0.761373" stroke-miterlimit="10"/>
<path d="M33.9973 244.304L25.8125 239.203" stroke="#32235C" stroke-width="0.380687" stroke-miterlimit="10"/>
<path d="M34.2401 208.84L27.875 202.117" stroke="#32235C" stroke-width="1.52275" stroke-miterlimit="10"/>
<path d="M29.8096 204.137C29.8096 204.137 29.9923 201.16 27.2742 198.739C25.6373 197.277 17.0414 193.661 16.2267 196.691C15.3359 199.988 24.145 206.452 29.8096 204.137Z" fill="#DFFD62" stroke="#32235C" stroke-width="0.761373" stroke-miterlimit="10"/>
<path d="M29.8098 204.14L21.625 199.039" stroke="#32235C" stroke-width="0.380687" stroke-miterlimit="10"/>
<path d="M31.6385 183.879L25.2734 177.156" stroke="#32235C" stroke-width="1.52275" stroke-miterlimit="10"/>
<path d="M27.2081 179.168C27.2081 179.168 27.3908 176.191 24.6727 173.77C23.0357 172.308 14.4398 168.692 13.6252 171.722C12.7344 175.019 21.5434 181.483 27.2081 179.168Z" fill="#DFFD62" stroke="#32235C" stroke-width="0.761373" stroke-miterlimit="10"/>
<path d="M27.208 179.172L19.0156 174.07" stroke="#32235C" stroke-width="0.380687" stroke-miterlimit="10"/>
<path d="M39.6641 261.997L44.5064 254.102" stroke="#32235C" stroke-width="1.52275" stroke-miterlimit="10"/>
<path d="M43.0327 256.471C43.0327 256.471 42.2409 253.6 44.3956 250.661C45.6899 248.895 53.3646 243.581 54.7883 246.375C56.3339 249.413 49.0628 257.56 43.0327 256.471Z" fill="#DFFD62" stroke="#32235C" stroke-width="0.761373" stroke-miterlimit="10"/>
<path d="M43.0312 256.472L50.4013 249.43" stroke="#32235C" stroke-width="0.380687" stroke-miterlimit="10"/>
<path d="M35.4609 221.716L40.3033 213.828" stroke="#32235C" stroke-width="1.52275" stroke-miterlimit="10"/>
<path d="M38.8296 216.197C38.8296 216.197 38.0378 213.327 40.1925 210.388C41.4868 208.622 49.1614 203.307 50.5852 206.101C52.1308 209.139 44.8597 217.286 38.8296 216.197Z" fill="#DFFD62" stroke="#32235C" stroke-width="0.761373" stroke-miterlimit="10"/>
<path d="M38.8281 216.199L46.1982 209.156" stroke="#32235C" stroke-width="0.380687" stroke-miterlimit="10"/>
<path d="M33.6172 204.02L38.4519 196.125" stroke="#32235C" stroke-width="1.52275" stroke-miterlimit="10"/>
<path d="M36.978 198.502C36.978 198.502 36.1862 195.632 38.3409 192.693C39.6352 190.926 47.3099 185.612 48.7336 188.406C50.2792 191.444 43.0081 199.591 36.978 198.502Z" fill="#DFFD62" stroke="#32235C" stroke-width="0.761373" stroke-miterlimit="10"/>
<path d="M36.9766 198.503L44.3543 191.453" stroke="#32235C" stroke-width="0.380687" stroke-miterlimit="10"/>
<path d="M30.9062 178.075L35.7486 170.188" stroke="#32235C" stroke-width="1.52275" stroke-miterlimit="10"/>
<path d="M34.2749 172.557C34.2749 172.557 33.4831 169.686 35.6378 166.747C36.9321 164.981 44.6067 159.667 46.0305 162.461C47.5761 165.499 40.305 173.645 34.2749 172.557Z" fill="#DFFD62" stroke="#32235C" stroke-width="0.761373" stroke-miterlimit="10"/>
<path d="M34.2734 172.558L41.6435 165.508" stroke="#32235C" stroke-width="0.380687" stroke-miterlimit="10"/>
<path d="M28.8374 161.494C28.8374 161.494 28.0456 158.624 30.2003 155.685C31.4946 153.918 39.1692 148.604 40.593 151.398C42.1386 154.436 34.8675 162.583 28.8374 161.494Z" fill="#DFFD62" stroke="#32235C" stroke-width="0.761373" stroke-miterlimit="10"/>
<path d="M28.8359 161.496L36.206 154.445" stroke="#32235C" stroke-width="0.380687" stroke-miterlimit="10"/>
<path d="M29.2617 161.798C29.2617 161.798 26.3228 162.285 23.6275 159.834C22.0058 158.357 17.5289 150.172 20.4526 149.053C23.6351 147.835 30.9748 155.92 29.2541 161.798H29.2617Z" fill="#DFFD62" stroke="#32235C" stroke-width="0.761373" stroke-miterlimit="10"/>
<path d="M29.2591 161.797L23.0234 153.727" stroke="#32235C" stroke-width="0.380687" stroke-miterlimit="10"/>
<path d="M65.9948 180.773L52.0312 315.339" stroke="#32235C" stroke-width="1.52275" stroke-miterlimit="10"/>
<path d="M55.1156 289.669L50.2656 281.781" stroke="#32235C" stroke-width="1.52275" stroke-miterlimit="10"/>
<path d="M51.747 284.151C51.747 284.151 52.5388 281.281 50.3765 278.342C49.0746 276.576 41.4076 271.269 39.9838 274.063C38.4382 277.101 45.7169 285.248 51.7394 284.151H51.747Z" fill="#DFFD62" stroke="#32235C" stroke-width="0.761373" stroke-miterlimit="10"/>
<path d="M51.748 284.154L44.7891 277.477" stroke="#32235C" stroke-width="0.380687" stroke-miterlimit="10"/>
<path d="M58.9906 252.325L54.1406 244.438" stroke="#32235C" stroke-width="1.52275" stroke-miterlimit="10"/>
<path d="M55.622 246.808C55.622 246.808 56.4138 243.937 54.2516 240.998C52.9496 239.232 45.2826 233.925 43.8588 236.719C42.3132 239.757 49.5919 247.904 55.6144 246.808H55.622Z" fill="#DFFD62" stroke="#32235C" stroke-width="0.761373" stroke-miterlimit="10"/>
<path d="M55.623 246.81L48.6641 240.133" stroke="#32235C" stroke-width="0.380687" stroke-miterlimit="10"/>
<path d="M57.4048 267.63L52.5625 259.742" stroke="#32235C" stroke-width="1.52275" stroke-miterlimit="10"/>
<path d="M54.0439 262.112C54.0439 262.112 54.8357 259.242 52.6734 256.303C51.3715 254.537 43.7044 249.23 42.2807 252.024C40.7351 255.062 48.0138 263.209 54.0363 262.112H54.0439Z" fill="#DFFD62" stroke="#32235C" stroke-width="0.761373" stroke-miterlimit="10"/>
<path d="M54.0449 262.115L47.0859 255.438" stroke="#32235C" stroke-width="0.380687" stroke-miterlimit="10"/>
<path d="M61.5687 227.466L56.7188 219.578" stroke="#32235C" stroke-width="1.52275" stroke-miterlimit="10"/>
<path d="M58.2001 221.948C58.2001 221.948 58.992 219.078 56.8297 216.139C55.5277 214.373 47.8607 209.066 46.4369 211.86C44.8913 214.898 52.1701 223.045 58.1925 221.948H58.2001Z" fill="#DFFD62" stroke="#32235C" stroke-width="0.761373" stroke-miterlimit="10"/>
<path d="M58.2011 221.951L51.2422 215.273" stroke="#32235C" stroke-width="0.380687" stroke-miterlimit="10"/>
<path d="M64.1703 202.489L59.3203 194.602" stroke="#32235C" stroke-width="1.52275" stroke-miterlimit="10"/>
<path d="M60.8017 196.972C60.8017 196.972 61.5935 194.101 59.4312 191.162C58.1293 189.396 50.4623 184.089 49.0385 186.884C47.4929 189.921 54.7716 198.068 60.7941 196.972H60.8017Z" fill="#DFFD62" stroke="#32235C" stroke-width="0.761373" stroke-miterlimit="10"/>
<path d="M60.8025 196.974L53.8359 190.297" stroke="#32235C" stroke-width="0.380687" stroke-miterlimit="10"/>
<path d="M55.9375 280.59L62.3026 273.867" stroke="#32235C" stroke-width="1.52275" stroke-miterlimit="10"/>
<path d="M60.367 275.886C60.367 275.886 60.1843 272.909 62.8947 270.487C64.5317 269.026 73.1276 265.401 73.9423 268.432C74.8331 271.728 66.0316 278.2 60.3594 275.886H60.367Z" fill="#DFFD62" stroke="#32235C" stroke-width="0.761373" stroke-miterlimit="10"/>
<path d="M60.3672 275.883L69.0316 270.5" stroke="#32235C" stroke-width="0.380687" stroke-miterlimit="10"/>
<path d="M60.1172 240.316L66.4823 233.586" stroke="#32235C" stroke-width="1.52275" stroke-miterlimit="10"/>
<path d="M64.5467 235.604C64.5467 235.604 64.3639 232.627 67.0744 230.206C68.7114 228.744 77.3073 225.12 78.122 228.15C79.0128 231.447 70.2113 237.919 64.5391 235.604H64.5467Z" fill="#DFFD62" stroke="#32235C" stroke-width="0.761373" stroke-miterlimit="10"/>
<path d="M64.5469 235.602L73.2113 230.227" stroke="#32235C" stroke-width="0.380687" stroke-miterlimit="10"/>
<path d="M61.9453 222.614L68.3104 215.891" stroke="#32235C" stroke-width="1.52275" stroke-miterlimit="10"/>
<path d="M66.3748 217.901C66.3748 217.901 66.1921 214.924 68.9026 212.503C70.5395 211.041 79.1354 207.417 79.9501 210.447C80.8409 213.744 72.0394 220.216 66.3672 217.901H66.3748Z" fill="#DFFD62" stroke="#32235C" stroke-width="0.761373" stroke-miterlimit="10"/>
<path d="M66.375 217.899L75.0394 212.523" stroke="#32235C" stroke-width="0.380687" stroke-miterlimit="10"/>
<path d="M64.6406 196.668L70.9981 189.945" stroke="#32235C" stroke-width="1.52275" stroke-miterlimit="10"/>
<path d="M69.0779 191.964C69.0779 191.964 68.8952 188.987 71.6057 186.565C73.2426 185.104 81.8385 181.48 82.6532 184.51C83.544 187.807 74.7425 194.278 69.0703 191.964H69.0779Z" fill="#DFFD62" stroke="#32235C" stroke-width="0.761373" stroke-miterlimit="10"/>
<path d="M69.0703 191.961L77.7347 186.578" stroke="#32235C" stroke-width="0.380687" stroke-miterlimit="10"/>
<path d="M66.0311 180.011C66.0311 180.011 65.8483 177.034 68.5588 174.612C70.1958 173.151 78.7917 169.526 79.6063 172.557C80.4971 175.853 71.6957 182.325 66.0234 180.011H66.0311Z" fill="#DFFD62" stroke="#32235C" stroke-width="0.761373" stroke-miterlimit="10"/>
<path d="M66.0312 180.008L74.6957 174.633" stroke="#32235C" stroke-width="0.380687" stroke-miterlimit="10"/>
<path d="M66.3857 180.399C66.3857 180.399 63.4087 180.27 61.2769 177.316C59.9978 175.542 57.2949 166.611 60.3937 166.108C63.759 165.568 69.2789 175.001 66.3857 180.392V180.399Z" fill="#DFFD62" stroke="#32235C" stroke-width="0.761373" stroke-miterlimit="10"/>
<path d="M66.3841 180.401L61.9453 171.219" stroke="#32235C" stroke-width="0.380687" stroke-miterlimit="10"/>
<path d="M50 125.977V296.143" stroke="#32235C" stroke-width="1.52275" stroke-miterlimit="10"/>
<path d="M50.1263 270.558L44.4922 263.203" stroke="#32235C" stroke-width="1.52275" stroke-miterlimit="10"/>
<path d="M46.2139 265.412C46.2139 265.412 46.7011 262.473 44.2571 259.778C42.7801 258.156 34.6029 253.664 33.4761 256.595C32.2503 259.778 40.3361 267.125 46.2139 265.412Z" fill="#DFFD62" stroke="#32235C" stroke-width="0.761373" stroke-miterlimit="10"/>
<path d="M46.2153 265.416L38.6016 259.492" stroke="#32235C" stroke-width="0.380687" stroke-miterlimit="10"/>
<path d="M50.1263 238.574L44.4922 231.227" stroke="#32235C" stroke-width="1.52275" stroke-miterlimit="10"/>
<path d="M46.2139 233.435C46.2139 233.435 46.7011 230.497 44.2571 227.801C42.7801 226.18 34.6029 221.687 33.4761 224.619C32.2503 227.801 40.3361 235.149 46.2139 233.435Z" fill="#DFFD62" stroke="#32235C" stroke-width="0.761373" stroke-miterlimit="10"/>
<path d="M46.2153 233.439L38.6016 227.516" stroke="#32235C" stroke-width="0.380687" stroke-miterlimit="10"/>
<path d="M50.1263 201.027L44.4922 193.68" stroke="#32235C" stroke-width="1.52275" stroke-miterlimit="10"/>
<path d="M46.2139 195.881C46.2139 195.881 46.7011 192.942 44.2571 190.247C42.7801 188.625 34.6029 184.133 33.4761 187.064C32.2503 190.247 40.3361 197.594 46.2139 195.881Z" fill="#DFFD62" stroke="#32235C" stroke-width="0.761373" stroke-miterlimit="10"/>
<path d="M46.2153 195.884L38.6016 189.961" stroke="#32235C" stroke-width="0.380687" stroke-miterlimit="10"/>
<path d="M50.1263 176.035L44.4922 168.688" stroke="#32235C" stroke-width="1.52275" stroke-miterlimit="10"/>
<path d="M46.2139 170.889C46.2139 170.889 46.7011 167.95 44.2571 165.254C42.7801 163.633 34.6029 159.141 33.4761 162.072C32.2503 165.254 40.3361 172.602 46.2139 170.889Z" fill="#DFFD62" stroke="#32235C" stroke-width="0.761373" stroke-miterlimit="10"/>
<path d="M46.2153 170.892L38.6016 164.969" stroke="#32235C" stroke-width="0.380687" stroke-miterlimit="10"/>
<path d="M50.1263 150.933L44.4922 143.586" stroke="#32235C" stroke-width="1.52275" stroke-miterlimit="10"/>
<path d="M46.2139 145.787C46.2139 145.787 46.7011 142.848 44.2571 140.153C42.7801 138.531 34.6029 134.039 33.4761 136.97C32.2503 140.153 40.3361 147.5 46.2139 145.787Z" fill="#DFFD62" stroke="#32235C" stroke-width="0.761373" stroke-miterlimit="10"/>
<path d="M46.2153 145.791L38.6016 139.867" stroke="#32235C" stroke-width="0.380687" stroke-miterlimit="10"/>
<path d="M50.0078 280.316L55.642 272.969" stroke="#32235C" stroke-width="1.52275" stroke-miterlimit="10"/>
<path d="M53.9302 275.178C53.9302 275.178 53.4429 272.239 55.887 269.543C57.364 267.922 65.5412 263.43 66.668 266.361C67.8938 269.543 59.808 276.891 53.9302 275.178Z" fill="#DFFD62" stroke="#32235C" stroke-width="0.761373" stroke-miterlimit="10"/>
<path d="M53.9297 275.181L61.9926 268.938" stroke="#32235C" stroke-width="0.380687" stroke-miterlimit="10"/>
<path d="M50.0078 229.457L55.642 222.109" stroke="#32235C" stroke-width="1.52275" stroke-miterlimit="10"/>
<path d="M53.9302 224.31C53.9302 224.31 53.4429 221.372 55.887 218.676C57.364 217.055 65.5412 212.562 66.668 215.494C67.8938 218.676 59.808 226.024 53.9302 224.31Z" fill="#DFFD62" stroke="#32235C" stroke-width="0.761373" stroke-miterlimit="10"/>
<path d="M53.9297 224.314L61.9926 218.07" stroke="#32235C" stroke-width="0.380687" stroke-miterlimit="10"/>
<path d="M50.0078 204.355L55.642 197.008" stroke="#32235C" stroke-width="1.52275" stroke-miterlimit="10"/>
<path d="M53.9302 199.209C53.9302 199.209 53.4429 196.27 55.887 193.575C57.364 191.953 65.5412 187.461 66.668 190.392C67.8938 193.575 59.808 200.922 53.9302 199.209Z" fill="#DFFD62" stroke="#32235C" stroke-width="0.761373" stroke-miterlimit="10"/>
<path d="M53.9297 199.212L61.9926 192.969" stroke="#32235C" stroke-width="0.380687" stroke-miterlimit="10"/>
<path d="M50.0078 171.175L55.642 163.828" stroke="#32235C" stroke-width="1.52275" stroke-miterlimit="10"/>
<path d="M53.9302 166.029C53.9302 166.029 53.4429 163.09 55.887 160.395C57.364 158.773 65.5412 154.281 66.668 157.212C67.8938 160.395 59.808 167.742 53.9302 166.029Z" fill="#DFFD62" stroke="#32235C" stroke-width="0.761373" stroke-miterlimit="10"/>
<path d="M53.9297 166.032L61.9926 159.789" stroke="#32235C" stroke-width="0.380687" stroke-miterlimit="10"/>
<path d="M50.0078 145.089L55.642 137.734" stroke="#32235C" stroke-width="1.52275" stroke-miterlimit="10"/>
<path d="M53.9302 139.943C53.9302 139.943 53.4429 137.004 55.887 134.309C57.364 132.687 65.5412 128.195 66.668 131.127C67.8938 134.309 59.808 141.656 53.9302 139.943Z" fill="#DFFD62" stroke="#32235C" stroke-width="0.761373" stroke-miterlimit="10"/>
<path d="M53.9297 139.946L61.9926 133.703" stroke="#32235C" stroke-width="0.380687" stroke-miterlimit="10"/>
<path d="M49.6724 128.373C49.6724 128.373 49.1851 125.434 51.6291 122.739C53.1062 121.117 61.2834 116.625 62.4102 119.556C63.636 122.739 55.5502 130.086 49.6724 128.373Z" fill="#DFFD62" stroke="#32235C" stroke-width="0.761373" stroke-miterlimit="10"/>
<path d="M49.6719 128.368L57.7348 122.125" stroke="#32235C" stroke-width="0.380687" stroke-miterlimit="10"/>
<path d="M50.0611 128.722C50.0611 128.722 47.0841 128.905 44.6629 126.179C43.2087 124.542 39.5998 115.939 42.6301 115.124C45.9268 114.241 52.3832 123.05 50.0611 128.715V128.722Z" fill="#DFFD62" stroke="#32235C" stroke-width="0.761373" stroke-miterlimit="10"/>
<path d="M50.0632 128.719L44.7031 120.047" stroke="#32235C" stroke-width="0.380687" stroke-miterlimit="10"/>
<path d="M56.9941 340.281H38.9724L36.7188 294.766H59.2478L56.9941 340.281Z" fill="#32235C" stroke="#32235C" stroke-width="0.761373" stroke-miterlimit="10"/>
<path d="M219.834 155.32H275.407L262.463 202.997H206.891L219.834 155.32Z" fill="#7D7D7D" stroke="#32235C" stroke-width="0.761373" stroke-linecap="round" stroke-linejoin="round"/>
<path d="M221.422 157.094H272.852L260.876 201.223H209.445L221.422 157.094Z" fill="white" stroke="#32235C" stroke-width="0.761373" stroke-linecap="round" stroke-linejoin="round"/>
<path d="M262.466 200.469H184.562V203.004H262.466V200.469Z" fill="#7D7D7D" stroke="#32235C" stroke-width="0.761373" stroke-linecap="round" stroke-linejoin="round"/>
<path d="M262.464 200.469H226.664V203.004H262.464V200.469Z" fill="#595959" stroke="#32235C" stroke-width="0.761373" stroke-linecap="round" stroke-linejoin="round"/>
<path d="M163.82 207.039H159.633V339.982H163.82V207.039Z" fill="white" stroke="#32235C" stroke-width="0.761373" stroke-linecap="round" stroke-linejoin="round"/>
<path d="M156.054 339.984H159.633L159.633 207.041H156.054L156.054 339.984Z" fill="#A8A8A8" stroke="#32235C" stroke-width="0.761373" stroke-linecap="round" stroke-linejoin="round"/>
<path d="M271.094 276.594H266.906V339.978H271.094V276.594Z" fill="white" stroke="#32235C" stroke-width="0.761373" stroke-linecap="round" stroke-linejoin="round"/>
<path d="M263.328 339.984H266.906V276.6H263.328V339.984Z" fill="#A8A8A8" stroke="#32235C" stroke-width="0.761373" stroke-linecap="round" stroke-linejoin="round"/>
<path d="M315.93 276.594H311.742V339.978H315.93V276.594Z" fill="white" stroke="#32235C" stroke-width="0.761373" stroke-linecap="round" stroke-linejoin="round"/>
<path d="M308.164 339.984H311.742V276.6H308.164V339.984Z" fill="#A8A8A8" stroke="#32235C" stroke-width="0.761373" stroke-linecap="round" stroke-linejoin="round"/>
<path d="M225.403 280.219H266.258V208.33H225.403V280.219Z" fill="#A8A8A8" stroke="#32235C" stroke-width="0.761373" stroke-linecap="round" stroke-linejoin="round"/>
<path d="M320.095 208.336H266.258V280.225H320.095V208.336Z" fill="white" stroke="#32235C" stroke-width="0.761373" stroke-linecap="round" stroke-linejoin="round"/>
<path d="M266.254 208.336H225.398V211.838H266.254H320.09V208.336H266.254Z" fill="#32235C" stroke="#32235C" stroke-width="0.761373" stroke-linecap="round" stroke-linejoin="round"/>
<path d="M263.723 212.453H228.891V229.234H263.723V212.453Z" fill="white" stroke="#32235C" stroke-width="0.761373" stroke-linecap="round" stroke-linejoin="round"/>
<path d="M250.893 219.258H241.711V222.425H250.893V219.258Z" fill="#32235C"/>
<path d="M263.723 235.57H228.891V252.351H263.723V235.57Z" fill="white" stroke="#32235C" stroke-width="0.761373" stroke-linecap="round" stroke-linejoin="round"/>
<path d="M250.893 242.062H241.711V245.23H250.893V242.062Z" fill="#32235C"/>
<path d="M263.723 258.68H228.891V275.46H263.723V258.68Z" fill="white" stroke="#32235C" stroke-width="0.761373" stroke-linecap="round" stroke-linejoin="round"/>
<path d="M250.893 264.852H241.711V268.019H250.893V264.852Z" fill="#32235C"/>
<path d="M325.64 205.172H150.273V209.352H325.64V205.172Z" fill="#A8A8A8" stroke="#32235C" stroke-width="0.761373" stroke-linecap="round" stroke-linejoin="round"/>
<path d="M325.641 205.172H272.688V209.352H325.641V205.172Z" fill="white" stroke="#32235C" stroke-width="0.761373" stroke-linecap="round" stroke-linejoin="round"/>
<path d="M165.156 247.719C165.156 247.719 170.379 251.335 178.13 273.681C180.711 281.12 195.177 321.183 195.939 323.978C196.7 326.772 198.223 330.069 200.507 330.069C202.791 330.069 211.166 319.409 210.153 318.138C209.141 316.866 204.314 311.796 204.314 311.796C204.314 311.796 201.436 279.361 200.926 270.225C200.415 261.088 202.494 250.079 197.674 242.724C192.855 235.361 171.537 242.975 171.537 242.975L165.164 247.719H165.156Z" fill="white" stroke="#32235C" stroke-width="0.761373" stroke-linecap="round" stroke-linejoin="round"/>
<path d="M206.587 311.796C206.587 311.796 204.554 312.809 204.813 315.093C205.064 317.377 207.348 320.423 207.348 320.423C207.348 320.423 202.529 324.23 199.986 324.481C197.451 324.732 194.656 325.242 194.656 326.004C194.656 326.765 196.689 328.037 197.953 330.823C199.224 333.617 202.011 337.927 202.772 338.947C203.534 339.96 204.044 340.721 206.831 339.96C209.617 339.198 215.716 333.617 219.013 331.333C222.309 329.049 232.207 327.526 233.989 326.255C235.763 324.983 241.351 316.867 238.808 315.344C236.265 313.822 235.512 315.596 232.466 316.357C229.421 317.118 220.535 316.106 215.716 315.086C210.896 314.073 209.374 313.814 209.374 313.814L206.579 311.781L206.587 311.796Z" fill="#DFFD62" stroke="#32235C" stroke-width="0.761373" stroke-linecap="round" stroke-linejoin="round"/>
<path d="M202.367 338.378C202.535 338.622 202.672 338.82 202.778 338.957C203.54 339.969 204.05 340.731 206.836 339.969C209.623 339.208 215.722 333.627 219.018 331.343C222.315 329.059 232.213 327.536 233.995 326.265C235.769 324.993 241.357 316.877 238.814 315.354C238.388 315.095 238.007 314.943 237.664 314.852C237.71 315.019 237.756 315.171 237.801 315.354C238.563 318.4 236.028 321.445 233.743 323.729C231.459 326.013 223.846 325.503 215.47 329.82C209.623 332.835 204.766 336.459 202.367 338.378Z" fill="white" stroke="#32235C" stroke-width="0.761373" stroke-linecap="round" stroke-linejoin="round"/>
<path d="M202.136 286.404C201.588 279.734 201.108 273.491 200.926 270.225C200.416 261.088 202.494 250.079 197.675 242.724C192.855 235.361 171.537 242.975 171.537 242.975L165.164 247.719C165.164 247.719 170.387 251.335 178.138 273.681C179.12 276.529 181.846 284.143 184.884 292.624L202.152 286.404H202.136Z" fill="#32235C" stroke="#32235C" stroke-width="0.761373" stroke-linecap="round" stroke-linejoin="round"/>
<path d="M189.71 117.548C189.71 117.548 190.859 120.54 190.631 123.075C190.403 125.611 188.096 126.76 187.867 126.067C187.639 125.375 187.639 123.532 187.639 122.611V121.69C187.639 121.69 187.182 122.611 185.568 124.225C183.954 125.839 183.033 125.375 182.347 125.375C181.662 125.375 181.426 123.075 182.576 121.461C183.725 119.847 187.41 116.162 189.717 117.548H189.71Z" fill="white" stroke="#32235C" stroke-width="0.761373" stroke-linecap="round" stroke-linejoin="round"/>
<path d="M195.003 123.529C192.703 122.151 189.247 126.985 183.948 125.828C183.27 125.683 183.026 124.678 184.176 122.371C185.326 120.072 189.011 118.23 190.853 116.844C192.696 115.466 194.074 114.308 194.074 112.702C194.074 111.095 189.932 113.623 188.775 114.544C188.249 114.963 186.376 115.915 184.427 116.867C184.145 116.874 183.81 116.889 183.437 116.912C181.382 117.042 178.23 117.407 177.027 118.458C175.458 119.828 174.567 124.511 174.187 126.315C173.166 127.792 172.253 129.148 171.728 129.97C170.113 132.505 137.648 156.222 137.648 156.222L139.948 176.482L176.791 134.576C176.791 134.576 177.712 133.655 180.247 132.734C182.783 131.812 186.232 131.12 189.231 129.513C192.224 127.899 192.452 127.671 195.68 125.6C197.241 124.595 196.236 124.275 194.987 123.529H195.003Z" fill="white" stroke="#32235C" stroke-width="0.761373" stroke-linecap="round" stroke-linejoin="round"/>
<path d="M156.28 142.414C147.265 149.221 137.664 156.225 137.664 156.225L139.963 176.485L162.591 150.743L156.272 142.406L156.28 142.414Z" fill="#DFFD62" stroke="#32235C" stroke-width="0.761373" stroke-linecap="round" stroke-linejoin="round"/>
<path d="M144.943 219.023C144.943 219.023 161.183 218.262 184.786 222.069C208.388 225.875 217.22 229.926 216.512 234.502C213.634 253.034 170.366 314.042 170.366 314.042L171.127 322.669C171.127 322.669 169.604 324.702 164.275 324.953C158.945 325.204 152.344 317.59 152.344 317.59C152.344 317.59 158.298 311.431 160.582 304.068C162.866 296.706 181.23 249.219 181.23 249.219C181.23 249.219 157.118 254.549 130.47 249.729C103.822 244.91 144.936 219.023 144.936 219.023H144.943Z" fill="white" stroke="#32235C" stroke-width="0.761373" stroke-linecap="round" stroke-linejoin="round"/>
<path d="M184.794 222.069C161.191 218.262 144.951 219.023 144.951 219.023C144.951 219.023 103.837 244.91 130.485 249.729C157.133 254.549 181.246 249.219 181.246 249.219C181.246 249.219 173.602 268.984 167.564 284.988L185.464 291.871C198.247 272.479 214.784 245.717 216.52 234.502C217.228 229.926 208.397 225.875 184.794 222.069Z" fill="#32235C" stroke="#32235C" stroke-width="0.761373" stroke-linecap="round" stroke-linejoin="round"/>
<path d="M170.368 314.039C170.368 314.039 168.845 314.549 168.084 316.323C167.322 318.097 166.812 319.879 166.812 319.879C166.812 319.879 161.993 318.866 158.688 317.343C155.391 315.821 153.107 314.298 153.107 314.298C153.107 314.298 150.823 314.549 150.823 316.072C150.823 317.595 150.572 320.389 149.552 322.924C148.897 324.561 147.511 328.193 146.598 330.568C146.148 331.749 146.849 333.051 148.082 333.325C152.102 334.215 160.569 336.172 167.817 338.403C177.715 341.448 188.625 339.926 189.897 339.675C191.168 339.423 196.239 336.378 193.955 334.345C191.671 332.312 178.217 326.982 175.431 323.434C172.637 319.879 170.352 314.047 170.352 314.047L170.368 314.039Z" fill="#DFFD62" stroke="#32235C" stroke-width="0.761373" stroke-linecap="round" stroke-linejoin="round"/>
<path d="M192.958 333.626C192.943 336.146 191.664 338.651 187.628 338.651C183.593 338.651 176.459 338.141 166.31 334.083C158.293 330.877 150.435 328.936 147.489 328.266C147.177 329.088 146.872 329.88 146.613 330.565C146.164 331.745 146.864 333.047 148.098 333.321C152.118 334.212 160.584 336.169 167.833 338.399C177.731 341.445 188.641 339.922 189.912 339.671C191.184 339.42 196.255 336.374 193.971 334.341C193.742 334.136 193.392 333.9 192.95 333.626H192.958Z" fill="white" stroke="#32235C" stroke-width="0.761373" stroke-linecap="round" stroke-linejoin="round"/>
<path d="M93.6816 159.904C93.6816 159.904 90.9178 181.779 91.1462 185.928C91.3746 190.07 94.3668 225.763 95.0597 233.598C95.7525 241.425 98.9731 248.338 104.729 249.716C110.485 251.094 125.454 253.173 131.903 251.559C138.351 249.944 145.257 235.44 147.564 229.913C149.863 224.385 151.477 220.928 150.785 219.779C150.092 218.629 147.1 216.094 147.1 216.094C147.1 216.094 141.344 174.188 139.958 163.361C138.58 152.542 139.265 151.621 134.202 147.471C129.139 143.329 102.887 139.873 93.674 159.904H93.6816Z" fill="#DFFD62" stroke="#32235C" stroke-width="0.761373" stroke-linecap="round" stroke-linejoin="round"/>
<path d="M130.526 236.266C129.696 236.898 128.829 237.499 127.945 238.062" stroke="#32235C" stroke-width="0.761373" stroke-linecap="round" stroke-linejoin="round"/>
<path d="M145.708 217.75C145.708 217.75 140.82 227.343 132.727 234.455" stroke="#32235C" stroke-width="0.761373" stroke-linecap="round" stroke-linejoin="round"/>
<path d="M142.159 218.266C142.159 218.266 134.294 225.628 126.422 230.196" stroke="#32235C" stroke-width="0.761373" stroke-linecap="round" stroke-linejoin="round"/>
<path d="M148.483 91.0521C148.483 91.0521 150.783 95.8868 151.475 99.3434C152.168 102.8 152.397 106.021 154.011 106.714C155.625 107.406 158.617 107.635 158.153 109.477C157.696 111.32 154.696 114.312 154.696 114.312C154.696 114.312 155.389 125.367 155.153 127.438C154.924 129.509 142.72 129.509 142.027 129.509C141.334 129.509 134.428 145.856 134.428 145.856L115.082 136.186L118.767 124.21C118.767 124.21 112.782 112.698 112.318 107.627C111.854 102.556 123.602 93.3514 130.279 91.2805C136.956 89.2095 148.468 91.0521 148.468 91.0521H148.483Z" fill="white" stroke="#32235C" stroke-width="0.761373" stroke-linecap="round" stroke-linejoin="round"/>
<path d="M142.035 129.509L135.891 127.758L138.19 136.75L142.035 129.509Z" fill="#32235C" stroke="#32235C" stroke-width="0.761373" stroke-linecap="round" stroke-linejoin="round"/>
<path d="M150.756 104.08C151.068 105.382 150.916 106.524 150.421 106.645C149.926 106.767 149.271 105.808 148.959 104.506C148.647 103.204 148.799 102.062 149.294 101.94C149.789 101.818 150.444 102.778 150.756 104.08Z" fill="#32235C"/>
<path d="M146.867 116.383C146.867 116.383 149.631 118.454 152.166 117.532" stroke="#32235C" stroke-width="0.761373" stroke-linecap="round" stroke-linejoin="round"/>
<path d="M147.334 86.6824C147.334 86.6824 150.555 92.4383 148.255 96.1234C145.956 99.8084 140.428 101.423 137.436 104.872C134.444 108.328 132.83 114.313 131.68 114.777C130.53 115.234 127.074 108.328 125.003 108.793C122.932 109.257 119.475 114.092 122.467 119.155C125.46 124.218 130.759 123.533 130.759 123.533C130.759 123.533 122.467 127.911 120.853 127.911C119.239 127.911 114.405 125.147 112.105 122.612C109.806 120.076 101.514 112.478 101.05 106.265C100.586 100.052 108.877 92.2175 108.877 92.2175C108.877 92.2175 98.9715 91.5247 101.507 87.8396C104.042 84.1546 113.019 81.8553 113.019 81.8553C113.019 81.8553 111.405 76.0993 113.712 74.9496C116.011 73.7999 130.058 78.4062 130.058 78.4062C130.058 78.4062 126.145 73.3431 131.672 73.1071C137.2 72.8787 146.641 79.7843 147.334 86.69V86.6824Z" fill="#32235C" stroke="#32235C" stroke-width="0.761373" stroke-linecap="round" stroke-linejoin="round"/>
<path d="M129.008 111.682L158.382 99.8047" stroke="#32235C" stroke-width="0.761373" stroke-linecap="round" stroke-linejoin="round"/>
<path d="M150.719 98.1379C151.335 97.879 152.021 97.7344 152.736 97.7344C155.599 97.7344 157.914 100.057 157.914 102.919C157.914 104.861 156.848 106.551 155.264 107.442" stroke="#32235C" stroke-width="0.761373" stroke-linecap="round" stroke-linejoin="round"/>
<path d="M139.967 152.306C139.967 152.306 139.739 145.629 137.897 143.787C136.054 141.944 122.471 134.345 116.251 132.731C110.03 131.117 103.589 133.424 99.4396 134.802C95.2977 136.18 92.5339 140.101 90.9198 148.621C89.3057 157.141 89.0773 162.44 92.5339 162.897C95.9906 163.354 100.825 152.992 111.644 150.921C122.463 148.85 132.369 150.692 134.668 151.842C136.968 152.991 139.967 152.299 139.967 152.299V152.306Z" fill="#DFFD62" stroke="#32235C" stroke-width="0.761373" stroke-linecap="round" stroke-linejoin="round"/>
<path d="M104.987 145.242C102.909 145.973 101.508 146.552 101.508 146.552" stroke="#32235C" stroke-width="0.761373" stroke-linecap="round" stroke-linejoin="round"/>
<path d="M139.971 152.309C139.971 152.309 125.466 144.246 120.167 142.639C117.403 141.794 112.439 142.906 108.32 144.154" stroke="#32235C" stroke-width="0.761373" stroke-linecap="round" stroke-linejoin="round"/>
<path d="M208.353 189.731C208.353 189.731 207.599 194.52 206.708 195.061C205.818 195.601 205.886 190.614 205.886 190.614C205.886 190.614 204.79 193.485 204.112 194.17C203.434 194.855 203.838 191.231 203.838 191.231L204.592 187.812L208.353 189.724V189.731Z" fill="white" stroke="#32235C" stroke-width="0.761373" stroke-linecap="round" stroke-linejoin="round"/>
<path d="M198.599 184.992L205.665 185.106C205.665 185.106 207.53 185.373 207.796 186.439C208.063 187.505 209.129 189.903 209.129 189.903L198.203 186.705L198.599 184.992Z" fill="white" stroke="#32235C" stroke-width="0.761373" stroke-linecap="round" stroke-linejoin="round"/>
<path d="M201.134 187.242C201.134 187.242 210.993 185.909 211.26 186.709C211.458 187.31 212.227 192.731 212.387 194.482C212.41 194.756 212.059 194.901 211.892 194.68L209.128 189.914L201.667 190.447C201.667 190.447 199.535 188.582 201.134 187.249V187.242Z" fill="white" stroke="#32235C" stroke-width="0.761373" stroke-linecap="round" stroke-linejoin="round"/>
<path d="M119.299 157.388C119.299 157.388 113.17 161.918 115.302 173.118C117.434 184.31 132.364 214.963 133.697 217.635C135.029 220.3 140.892 220.566 143.556 219.767C146.221 218.967 193.67 200.04 193.67 200.04C193.67 200.04 198.733 198.707 199.533 197.641C200.332 196.575 205.395 190.979 205.395 190.979C205.395 190.979 213.39 192.045 215.255 191.512C217.12 190.979 213.39 190.446 211.524 189.913C210.085 189.502 202.159 186.404 198.596 185.003C197.545 184.591 196.358 184.843 195.566 185.65C193.069 188.208 187.747 193.637 186.734 194.444C185.402 195.51 147.82 201.905 147.82 201.905C147.82 201.905 139.026 160.593 135.562 157.121C132.098 153.649 125.969 154.456 125.969 154.456" fill="#DFFD62"/>
<path d="M119.299 157.388C119.299 157.388 113.17 161.918 115.302 173.118C117.434 184.31 132.364 214.963 133.697 217.635C135.029 220.3 140.892 220.566 143.556 219.767C146.221 218.967 193.67 200.04 193.67 200.04C193.67 200.04 198.733 198.707 199.533 197.641C200.332 196.575 205.395 190.979 205.395 190.979C205.395 190.979 213.39 192.045 215.255 191.512C217.12 190.979 213.39 190.446 211.524 189.913C210.085 189.502 202.159 186.404 198.596 185.003C197.545 184.591 196.358 184.843 195.566 185.65C193.069 188.208 187.747 193.637 186.734 194.444C185.402 195.51 147.82 201.905 147.82 201.905C147.82 201.905 139.026 160.593 135.562 157.121C132.098 153.649 125.969 154.456 125.969 154.456" stroke="#32235C" stroke-width="0.761373" stroke-linecap="round" stroke-linejoin="round"/>
<path d="M168.876 209.889C181.324 204.955 193.666 200.037 193.666 200.037C193.666 200.037 198.729 198.704 199.529 197.638C200.328 196.572 205.391 190.976 205.391 190.976C205.391 190.976 213.386 192.042 215.251 191.509C217.116 190.976 213.386 190.443 211.52 189.91C210.081 189.499 202.155 186.4 198.592 184.999C197.542 184.588 196.354 184.839 195.562 185.647C193.065 188.205 187.743 193.633 186.73 194.44C186.037 194.996 175.538 196.991 165.617 198.78L168.868 209.889H168.876Z" fill="white" stroke="#32235C" stroke-width="0.761373" stroke-linecap="round" stroke-linejoin="round"/>
<path d="M85.5624 262.359L73.9515 339.517C73.7992 340.301 74.9337 340.583 75.1773 339.821L92.6661 263.623L85.5624 262.352V262.359Z" fill="#9C9C9C" stroke="#32235C" stroke-width="0.761373" stroke-linecap="round" stroke-linejoin="round"/>
<path d="M102.891 262.866L107.946 339.377C108.007 340.169 109.18 340.146 109.21 339.354L110.086 262.234L102.898 262.866H102.891Z" fill="#9C9C9C" stroke="#32235C" stroke-width="0.761373" stroke-linecap="round" stroke-linejoin="round"/>
<path d="M119.922 264.028L133.779 339.198C133.946 339.975 135.104 339.792 135.02 339L126.949 262.391L119.922 264.028Z" fill="#9C9C9C" stroke="#32235C" stroke-width="0.761373" stroke-linecap="round" stroke-linejoin="round"/>
<path d="M146.711 263.387L158.048 339.075C158.185 339.859 159.35 339.722 159.296 338.923L153.799 262.039L146.711 263.387Z" fill="#9C9C9C" stroke="#32235C" stroke-width="0.761373" stroke-linecap="round" stroke-linejoin="round"/>
<path d="M135.872 247.982C135.872 247.982 122.548 243.543 116.327 227.547C110.107 211.558 99.8893 184.012 92.7857 180.456C85.6745 176.9 71.9088 183.562 71.018 209.335C70.1272 235.1 72.2134 254.271 77.9541 260.591C83.0325 266.171 91.6588 273.283 121.604 273.785C148.343 274.242 159.269 264.047 162.969 260.591C166.776 257.035 172.745 249.764 167.857 249.764C162.969 249.764 142.092 249.764 135.872 247.99V247.982Z" fill="white" stroke="#32235C" stroke-width="0.761373" stroke-linecap="round" stroke-linejoin="round"/>
<path d="M197.443 89.8056C197.443 89.8056 192.243 83.7375 185.017 82.5802C177.792 81.4229 177.305 91.9831 186.555 96.6047C190.499 98.5766 194.847 97.899 194.847 97.899C194.847 97.899 187.477 106.617 192.243 108.01C202.94 111.139 200.626 94.7165 200.626 94.7165L197.451 89.8056H197.443Z" fill="white" stroke="#32235C" stroke-width="0.761373" stroke-linecap="round" stroke-linejoin="round"/>
<path d="M199.184 89.4236C199.184 89.4236 196.146 82.0307 198.407 75.0717C200.668 68.1128 209.744 72.8409 209.653 83.1727C209.615 87.5811 207.574 90.7865 207.574 90.7865C207.574 90.7865 219.193 88.312 217.761 93.0782C214.51 103.905 202.107 94.4867 202.107 94.4867L199.184 89.4236Z" fill="white" stroke="#32235C" stroke-width="0.761373" stroke-linecap="round" stroke-linejoin="round"/>
<path d="M203.221 98.6593C202.963 98.6593 202.711 98.5299 202.567 98.2863L195.341 86.15C195.128 85.7921 195.242 85.3201 195.608 85.1069C195.966 84.8937 196.438 85.0079 196.651 85.3734L203.876 97.5097C204.089 97.8675 203.975 98.3396 203.61 98.5528C203.488 98.6289 203.351 98.6593 203.221 98.6593Z" fill="#32235C"/>
<path d="M196.577 87.2088C196.577 87.2088 193.973 81.7193 189.352 81.1406" stroke="#32235C" stroke-width="0.761373" stroke-linecap="round" stroke-linejoin="round"/>
<path d="M196.651 85.3767C196.651 85.3767 195.128 80.8542 196.286 77.9609" stroke="#32235C" stroke-width="0.761373" stroke-linecap="round" stroke-linejoin="round"/>
<path d="M192.041 90.5052C191.767 91.8453 189.772 92.5762 187.58 92.1346C185.387 91.693 183.834 90.2388 184.1 88.8987C184.374 87.5587 186.369 86.8278 188.562 87.2694C190.754 87.711 192.308 89.1652 192.041 90.5052Z" fill="#DFFD62" stroke="#32235C" stroke-width="0.761373" stroke-linecap="round" stroke-linejoin="round"/>
<path d="M197.452 99.9448C198.229 100.455 198.183 101.894 197.353 103.158C196.523 104.422 195.221 105.038 194.445 104.528C193.668 104.018 193.714 102.579 194.544 101.315C195.374 100.051 196.676 99.4347 197.452 99.9448Z" fill="#DFFD62" stroke="#32235C" stroke-width="0.761373" stroke-linecap="round" stroke-linejoin="round"/>
<path d="M213.318 93.5745C213.333 94.5034 212.115 95.2724 210.6 95.2876C209.085 95.3028 207.851 94.5719 207.836 93.643C207.821 92.7141 209.039 91.9451 210.554 91.9299C212.069 91.9147 213.303 92.6456 213.318 93.5745Z" fill="#DFFD62" stroke="#32235C" stroke-width="0.761373" stroke-linecap="round" stroke-linejoin="round"/>
<path d="M203.94 85.6274C202.577 85.7797 201.275 84.097 201.024 81.8738C200.78 79.6506 201.686 77.7243 203.049 77.5721C204.412 77.4198 205.714 79.1024 205.965 81.3256C206.209 83.5489 205.303 85.4751 203.948 85.6274H203.94Z" fill="#DFFD62" stroke="#32235C" stroke-width="0.761373" stroke-linecap="round" stroke-linejoin="round"/>
<path d="M4.97656 340.281H359.616" stroke="#32235C" stroke-width="0.761373" stroke-linecap="round" stroke-linejoin="round"/>
</g>
<defs>
<clipPath id="clip0_15342_186665">
<rect width="360" height="340.661" fill="white"/>
</clipPath>
</defs>
</svg>
