<svg width="360" height="371" viewBox="0 0 360 371" fill="none" xmlns="http://www.w3.org/2000/svg">
<g clip-path="url(#clip0_15342_186187)">
<path opacity="0.8" d="M266.449 100.008C266.449 100.008 213.691 70.4909 153.139 92.9017C92.5877 115.312 54.0116 173.668 21.5088 220.149C-10.9939 266.631 -6.01373 320.37 32.0765 350.97C70.1668 381.57 104.674 351.881 164.001 360.242C223.327 368.603 237.762 379.738 292.443 354.725C347.113 329.713 369.403 252.49 340.686 187.657C311.979 122.823 266.449 100.008 266.449 100.008Z" fill="white" fill-opacity="0.16"/>
<path d="M349.342 210.484H247.572C245.129 210.484 243.148 212.465 243.148 214.908V223.127C243.148 225.57 245.129 227.551 247.572 227.551H349.342C351.785 227.551 353.765 225.57 353.765 223.127V214.908C353.765 212.465 351.785 210.484 349.342 210.484Z" fill="white" stroke="#32235C" stroke-width="0.951497" stroke-miterlimit="10"/>
<path d="M254.524 212.266H247.57V226.285H254.524V212.266Z" fill="#DFFD62"/>
<path d="M263.204 212.266H256.25V226.285H263.204V212.266Z" fill="#DFFD62"/>
<path d="M271.868 212.266H264.914V226.285H271.868V212.266Z" fill="#DFFD62"/>
<path d="M280.532 212.266H273.578V226.285H280.532V212.266Z" fill="#DFFD62"/>
<path d="M289.196 212.266H282.242V226.285H289.196V212.266Z" fill="#DFFD62"/>
<path d="M297.86 212.266H290.906V226.285H297.86V212.266Z" fill="#DFFD62"/>
<path d="M306.524 212.266H299.57V226.285H306.524V212.266Z" fill="#DFFD62"/>
<path d="M315.188 212.266H308.234V226.285H315.188V212.266Z" fill="#DFFD62"/>
<path d="M168.549 18.2091L166.373 10.4453L154.965 12.2673L155.319 20.3146C152.444 21.3369 149.721 22.7034 147.191 24.3837L140.966 19.2821L132.665 27.3192L137.575 33.7266C135.854 36.156 134.406 38.8384 133.303 41.7233L125.225 41.1058L123.039 52.4529L130.843 54.9126C130.843 57.9493 131.208 60.9354 131.926 63.8203L124.851 68.0109L129.568 78.5583L137.514 76.0581C139.204 78.4672 141.188 80.684 143.425 82.6478L139.974 90.2699L149.883 96.2117L155.046 89.4904C155.856 89.784 156.676 90.0573 157.516 90.3002C159.53 90.8772 161.544 91.2618 163.559 91.4845L165.128 99.8354L176.647 99.0155L177.021 90.4824C179.835 89.7334 182.548 88.6503 185.099 87.2635L191.213 93.2357L200.181 85.9578L195.596 78.7608C197.458 76.5642 199.088 74.1349 200.414 71.493L208.795 72.8696L211.964 61.7654L204.169 58.5364C204.686 53.3639 204.078 48.2521 202.519 43.4947L209.281 38.6461L203.663 28.5541L196.041 31.7123C194.158 29.4044 191.992 27.3192 189.573 25.5174L192.286 17.8042L181.9 12.7532L177.538 19.5959C174.552 18.7557 171.545 18.3103 168.579 18.2294L168.549 18.2091ZM189.775 61.2796C186.283 73.5377 173.509 80.6334 161.251 77.1412C148.993 73.649 141.897 60.8747 145.389 48.6165C148.881 36.3584 161.656 29.2627 173.914 32.7549C186.172 36.2471 193.268 49.0214 189.775 61.2796Z" fill="#DFFD62" stroke="#32235C" stroke-width="1.02235" stroke-linecap="round" stroke-linejoin="round"/>
<path d="M201.866 15.0311C191.076 5.44531 176.449 0.232324 160.962 1.82153C131.637 4.82785 110.3 31.0345 113.306 60.369C113.883 66.0273 115.33 71.3922 117.496 76.342" stroke="#32235C" stroke-width="3.07718" stroke-linecap="round" stroke-linejoin="round"/>
<path d="M205.412 8.75781L208.803 22.4837L195.219 18.5562L205.412 8.75781Z" fill="#32235C"/>
<rect x="235" y="85" width="72" height="72" rx="36" fill="white"/>
<path d="M266.449 111.263C266.724 110.54 267.103 109.874 267.665 109.335C269.915 107.143 273.634 107.694 275.16 110.448C276.308 112.537 277.525 114.58 278.707 116.646C280.681 120.078 282.678 123.51 284.629 126.953C286.271 129.834 284.492 133.473 281.232 133.966C279.235 134.265 277.364 133.347 276.331 131.556C274.598 128.537 272.853 125.519 271.12 122.511C271.086 122.443 271.04 122.385 270.994 122.328C270.81 122.179 270.73 121.961 270.615 121.765C269.846 120.411 269.054 119.068 268.285 117.725C267.791 116.853 267.275 115.992 266.781 115.12C266.334 114.339 266.127 113.49 266.15 112.595C266.185 112.136 266.242 111.676 266.449 111.263Z" fill="#3C8BD9"/>
<path d="M266.449 111.266C266.346 111.679 266.254 112.092 266.231 112.528C266.197 113.492 266.438 114.388 266.92 115.225C268.183 117.395 269.445 119.576 270.696 121.756C270.811 121.951 270.903 122.147 271.018 122.33C270.329 123.524 269.64 124.706 268.94 125.9C267.976 127.564 267.012 129.24 266.036 130.904C265.99 130.904 265.979 130.881 265.967 130.847C265.956 130.755 265.99 130.675 266.013 130.583C266.484 128.861 266.094 127.335 264.911 126.026C264.188 125.234 263.27 124.786 262.214 124.637C260.837 124.442 259.62 124.798 258.53 125.659C258.335 125.808 258.208 126.026 257.979 126.141C257.933 126.141 257.91 126.118 257.898 126.083C258.449 125.131 258.989 124.178 259.54 123.225C261.812 119.277 264.085 115.329 266.369 111.392C266.392 111.346 266.426 111.312 266.449 111.266Z" fill="#FABC04"/>
<path d="M257.943 126.112C258.162 125.917 258.368 125.71 258.598 125.527C261.387 123.323 265.576 124.918 266.184 128.408C266.334 129.246 266.253 130.049 266.001 130.852C265.989 130.921 265.978 130.979 265.955 131.048C265.852 131.231 265.76 131.426 265.645 131.61C264.624 133.297 263.12 134.135 261.146 134.009C258.885 133.848 257.106 132.149 256.796 129.9C256.646 128.809 256.865 127.788 257.427 126.847C257.542 126.64 257.679 126.456 257.806 126.25C257.863 126.204 257.84 126.112 257.943 126.112Z" fill="#34A852"/>
<path d="M257.941 126.116C257.895 126.162 257.895 126.242 257.814 126.254C257.803 126.174 257.849 126.128 257.895 126.07L257.941 126.116Z" fill="#FABC04"/>
<path d="M265.957 131.054C265.911 130.974 265.957 130.917 266.002 130.859C266.014 130.871 266.037 130.894 266.048 130.905L265.957 131.054Z" fill="#E1C025"/>
<path d="M269.917 76.9004L265.645 67.9219L254.734 70.0172L254.096 79.9371C250.685 81.2732 247.456 83.0142 244.48 85.1399L235.845 80.2407L228.112 88.2171L233.284 96.7199C231.311 99.7059 229.671 102.975 228.446 106.488L218.496 107.429L216.734 118.392L225.976 122.42C226.087 126.064 226.644 129.638 227.616 133.079L219.872 139.638L224.721 149.629L234.772 147.564C236.898 150.398 239.358 152.98 242.121 155.257L239.479 165.228L249.187 170.633L256.343 163.041C257.325 163.365 258.317 163.669 259.339 163.922C261.779 164.539 264.218 164.924 266.648 165.116L270.231 174.945L281.284 173.811L282.793 163.406C286.153 162.393 289.362 160.997 292.378 159.235L300.992 165.268L309.394 158L304.667 148.627C306.823 145.924 308.685 142.938 310.184 139.719H320.64L323.353 128.939L314.202 124.01C314.617 117.774 313.706 111.65 311.641 106.002L318.869 98.7241L313.17 89.1889L303.422 92.0838C301.073 89.3812 298.391 86.9619 295.415 84.8767L297.116 74.9366L286.973 70.4018L280.728 78.2264C277.104 77.3356 273.48 76.9105 269.907 76.9206L269.917 76.9004ZM297.035 127.846C293.3 142.695 278.227 151.714 263.368 147.979C248.518 144.244 239.499 129.172 243.235 114.312C246.97 99.463 262.042 90.444 276.901 94.1792C291.751 97.9143 300.77 112.986 297.035 127.846Z" fill="#DFFD62" stroke="#32235C" stroke-width="1.02235" stroke-linecap="round" stroke-linejoin="round"/>
<path d="M244.348 179.566C241.301 178.27 238.386 176.752 235.633 175.031" stroke="#32235C" stroke-width="3.07718" stroke-linecap="round" stroke-linejoin="round"/>
<path d="M321.944 83.6328C332.329 98.3709 336.479 117.391 331.732 136.249C323.087 170.594 288.246 191.425 253.901 182.791C253.335 182.649 252.768 182.497 252.211 182.346" stroke="#32235C" stroke-width="3.07718" stroke-linecap="round" stroke-linejoin="round"/>
<path d="M317.652 89.7634L315.445 75.8047L328.635 80.876L317.652 89.7634Z" fill="#32235C"/>
<g opacity="0.2">
<path d="M147.459 275.21C147.459 275.21 148.279 251.787 147.459 248.912C146.64 246.038 124.036 225.894 124.036 225.894C124.036 225.894 117.872 183.978 107.183 174.523L20.06 185.213C20.06 185.213 13.8956 190.962 14.3106 209.456C14.7256 227.949 15.5455 236.583 11.0208 244.803C6.49615 253.022 1.9816 277.265 10.6058 289.594C19.2401 301.923 22.1149 304.798 29.9192 304.393C37.7235 303.978 147.449 275.21 147.449 275.21H147.459Z" fill="#DFFD62"/>
<path opacity="0.7" d="M147.459 275.21C147.459 275.21 148.279 251.787 147.459 248.912C146.64 246.038 124.036 225.894 124.036 225.894C124.036 225.894 117.872 183.978 107.183 174.523L20.06 185.213C20.06 185.213 13.8956 190.962 14.3106 209.456C14.7256 227.949 15.5455 236.583 11.0208 244.803C6.49615 253.022 1.9816 277.265 10.6058 289.594C19.2401 301.923 22.1149 304.798 29.9192 304.393C37.7235 303.978 147.449 275.21 147.449 275.21H147.459Z" fill="white"/>
<path d="M147.456 248.916L4.4375 276.854C4.4375 276.854 7.31223 308.091 27.0406 305.207C46.769 302.332 148.276 279.314 147.861 277.259C147.446 275.204 147.446 248.906 147.446 248.906L147.456 248.916Z" fill="#DFFD62"/>
<path opacity="0.5" d="M147.456 248.916L4.4375 276.854C4.4375 276.854 7.31223 308.091 27.0406 305.207C46.769 302.332 148.276 279.314 147.861 277.259C147.446 275.204 147.446 248.906 147.446 248.906L147.456 248.916Z" fill="white"/>
</g>
<path d="M24.3516 184.593C24.3516 184.593 79.6194 175.473 107.962 174.461C118.084 184.583 120.969 211.65 123.5 224.809C123.5 224.809 147.439 247.483 147.439 249.366C147.439 251.249 148.117 279.733 148.117 279.733" stroke="#32235C" stroke-width="1.01223" stroke-linecap="round" stroke-linejoin="round"/>
<path d="M12.2969 243.822L76.2294 233.437L122.367 224.812" stroke="#32235C" stroke-width="1.01223" stroke-linecap="round" stroke-linejoin="round"/>
<path d="M3.97656 276.3L141.539 249.992" stroke="#32235C" stroke-width="1.01223" stroke-linecap="round" stroke-linejoin="round"/>
<path d="M50.2578 237.727C50.2578 237.727 72.5269 259.996 72.0208 263.032L71.0086 294.918" stroke="#32235C" stroke-width="1.01223" stroke-linecap="round" stroke-linejoin="round"/>
<path d="M24.1328 305.761L140.043 280.445" stroke="#32235C" stroke-width="1.01223" stroke-linecap="round" stroke-linejoin="round"/>
<path d="M148.109 256.797L221.668 293.905" stroke="#32235C" stroke-width="1.01223" stroke-linecap="round" stroke-linejoin="round"/>
<path d="M205.947 331.323L161.773 344.25C160.832 344.523 160.589 345.738 161.348 346.355L177.837 359.868C179.791 361.468 182.423 361.964 184.822 361.174L225.311 347.934C226.202 347.641 226.444 346.487 225.736 345.869L210.168 332.255C209.014 331.242 207.415 330.888 205.947 331.323Z" fill="#32235C"/>
<path d="M184.44 332.085C179.42 334.291 177.476 340.547 180.766 344.94C180.796 344.98 180.827 345.021 180.857 345.051C183.833 348.918 198.693 350.993 205.535 349.212C212.368 347.43 213.39 342.521 209.098 338.806C206.477 336.538 196.911 331.376 189.775 331.072C187.72 330.991 185.939 331.417 184.451 332.074L184.44 332.085Z" fill="white" stroke="#32235C" stroke-width="1.01223" stroke-linecap="round" stroke-linejoin="round"/>
<path d="M251.688 353.119L219.499 325.01C217.889 323.603 218.486 320.981 220.541 320.404L285.81 302.326C288.847 301.485 292.096 302.184 294.515 304.188L326.077 330.334L251.678 353.109L251.688 353.119Z" fill="#DFFD62" stroke="#32235C" stroke-width="1.01223" stroke-linecap="round" stroke-linejoin="round"/>
<path d="M286.266 327.173L288.816 329.4L294.333 327.953L291.762 325.695L286.266 327.173Z" fill="#32235C"/>
<path d="M274.29 316.695L279.847 315.278L277.357 313.102L271.82 314.539L274.29 316.695Z" fill="#32235C"/>
<path d="M278.547 312.789L281.037 314.965L286.604 313.548L284.084 311.352L278.547 312.789Z" fill="#32235C"/>
<path d="M288.711 314.06L291.383 316.388L296.404 315.113L293.62 312.805L288.711 314.06Z" fill="#32235C"/>
<path d="M292.297 317.192L294.969 319.53L300.132 318.204L297.358 315.906L292.297 317.192Z" fill="#32235C"/>
<path d="M304.893 322.164L299.609 323.591L302.221 325.879L307.646 324.452L304.893 322.164Z" fill="#32235C"/>
<path d="M298.434 323.906L292.938 325.384L295.519 327.641L301.035 326.194L298.434 323.906Z" fill="#32235C"/>
<path d="M295.891 320.344L298.684 322.794L303.938 321.376L301.093 319.008L295.891 320.344Z" fill="#32235C"/>
<path d="M284.631 318.115L290.188 316.698L287.526 314.359L281.969 315.776L284.631 318.115Z" fill="#32235C"/>
<path d="M264.172 332.077L260.963 329.273L255.406 330.691L258.676 333.555L264.172 332.077Z" fill="#32235C"/>
<path d="M260.042 328.461L257.38 326.133L251.812 327.55L254.485 329.888L260.042 328.461Z" fill="#32235C"/>
<path d="M256.446 325.323L253.784 322.984L248.227 324.412L250.889 326.74L256.446 325.323Z" fill="#32235C"/>
<path d="M267.541 318.417L273.098 317L270.638 314.844L265.102 316.291L267.541 318.417Z" fill="#32235C"/>
<path d="M267.52 335.011L265.08 332.875L259.594 334.353L262.003 336.468L267.52 335.011Z" fill="#32235C"/>
<path d="M260.802 320.147L266.359 318.719L263.92 316.594L258.383 318.041L260.802 320.147Z" fill="#32235C"/>
<path d="M254.051 321.874L259.608 320.457L257.199 318.352L251.672 319.789L254.051 321.874Z" fill="#32235C"/>
<path d="M247.301 323.604L252.859 322.177L250.49 320.102L244.953 321.539L247.301 323.604Z" fill="#32235C"/>
<path d="M275.648 325.511L278.685 328.163L284.171 326.685L281.206 324.094L275.648 325.511Z" fill="#32235C"/>
<path d="M275.211 317.505L277.883 319.833L283.44 318.416L280.768 316.078L275.211 317.505Z" fill="#32235C"/>
<path d="M295.253 328.75L289.727 330.208L292.551 332.677L298.037 331.189L295.253 328.75Z" fill="#32235C"/>
<path d="M281.467 322.982L287.024 321.555L284.362 319.227L278.805 320.644L281.467 322.982Z" fill="#32235C"/>
<path d="M271.133 321.568L276.69 320.141L274.028 317.812L268.461 319.23L271.133 321.568Z" fill="#32235C"/>
<path d="M285.547 318.927L288.219 321.255L293.776 319.838L291.114 317.5L285.547 318.927Z" fill="#32235C"/>
<path d="M271.407 338.414L268.441 335.812L262.914 337.27L265.92 339.892L271.407 338.414Z" fill="#32235C"/>
<path d="M287.963 322.367L282.406 323.794L285.352 326.376L290.848 324.898L287.963 322.367Z" fill="#32235C"/>
<path d="M294.698 320.648L289.141 322.066L292.015 324.586L297.512 323.108L294.698 320.648Z" fill="#32235C"/>
<path d="M264.389 323.287L269.946 321.87L267.284 319.531L261.727 320.958L264.389 323.287Z" fill="#32235C"/>
<path d="M281.845 332.289L276.328 333.737L279.243 336.287L284.73 334.799L281.845 332.289Z" fill="#32235C"/>
<path d="M288.55 330.523L283.023 331.971L285.888 334.481L291.384 332.993L288.55 330.523Z" fill="#32235C"/>
<path d="M257.641 325.021L263.198 323.594L260.526 321.266L254.969 322.683L257.641 325.021Z" fill="#32235C"/>
<path d="M278.067 336.598L275.142 334.047L269.625 335.504L272.581 338.086L278.067 336.598Z" fill="#32235C"/>
<path d="M285.098 327.492L279.602 328.97L282.112 331.177L287.639 329.719L285.098 327.492Z" fill="#32235C"/>
<path d="M266.792 326.737L264.12 324.398L258.562 325.826L261.225 328.154L266.792 326.737Z" fill="#32235C"/>
<path d="M270.841 330.28L267.713 327.547L262.156 328.964L265.345 331.758L270.841 330.28Z" fill="#32235C"/>
<path d="M274.224 333.244L271.754 331.078L266.258 332.556L268.707 334.692L274.224 333.244Z" fill="#32235C"/>
<path d="M247.731 331.609L246.547 331.913L247.468 332.723L248.662 332.419L247.731 331.609Z" fill="#32235C"/>
<path d="M257.501 333.867L254.221 330.992L248.664 332.419L252.004 335.345L257.501 333.867Z" fill="#32235C"/>
<path d="M260.817 336.77L258.408 334.664L252.922 336.142L255.291 338.227L260.817 336.77Z" fill="#32235C"/>
<path d="M277.513 328.493L274.466 325.82L268.898 327.248L272.016 329.97L277.513 328.493Z" fill="#32235C"/>
<path d="M252.002 335.344L250.828 335.658L251.749 336.467L252.923 336.143L252.002 335.344Z" fill="#32235C"/>
<path d="M253.29 330.19L250.627 327.852L245.07 329.269L247.732 331.607L253.29 330.19Z" fill="#32235C"/>
<path d="M280.936 331.475L278.426 329.289L272.93 330.767L275.41 332.933L280.936 331.475Z" fill="#32235C"/>
<path d="M244.137 328.469L242.953 328.772L243.874 329.582L245.069 329.268L244.137 328.469Z" fill="#32235C"/>
<path d="M267.975 326.435L273.532 325.008L270.87 322.68L265.312 324.097L267.975 326.435Z" fill="#32235C"/>
<path d="M268.381 343.394L265.658 341.016L260.172 342.493L263.047 345.004L268.381 343.394Z" fill="#32235C"/>
<path d="M258.997 342.812L253.359 344.331L256.467 346.993L261.903 345.343L258.997 342.812Z" fill="#32235C"/>
<path d="M306.797 329.875L308.386 331.272L313.862 329.612L312.364 328.367L306.797 329.875Z" fill="#32235C"/>
<path d="M259.26 341.688L258.086 342.011L258.997 342.811L260.171 342.487L259.26 341.688Z" fill="#32235C"/>
<path d="M277.612 320.953L272.055 322.38L274.727 324.708L280.284 323.291L277.612 320.953Z" fill="#32235C"/>
<path d="M255.291 338.227L254.117 338.54L255.038 339.34L256.212 339.026L255.291 338.227Z" fill="#32235C"/>
<path d="M249.706 327.039L247.034 324.711L241.477 326.128L244.139 328.466L249.706 327.039Z" fill="#32235C"/>
<path d="M264.744 340.21L261.738 337.578L256.211 339.026L259.258 341.688L264.744 340.21Z" fill="#32235C"/>
<path d="M231 325.173L233.338 327.167L239.361 325.628L237.043 323.594L231 325.173Z" fill="#32235C"/>
<path d="M296.438 328.45L299.211 330.879L304.697 329.391L301.954 326.992L296.438 328.45Z" fill="#32235C"/>
<path d="M298.963 331.992L293.477 333.48L295.43 335.191L300.765 333.581L298.963 331.992Z" fill="#32235C"/>
<path d="M305.619 330.188L300.133 331.675L301.904 333.234L307.239 331.615L305.619 330.188Z" fill="#32235C"/>
<path d="M308.607 325.242L303.141 326.68L305.874 329.079L311.411 327.58L308.607 325.242Z" fill="#32235C"/>
<path d="M240.554 325.32L239.359 325.624L240.281 326.434L241.475 326.13L240.554 325.32Z" fill="#32235C"/>
<path d="M278.978 337.406L273.492 338.884L275.992 341.081L281.337 339.461L278.978 337.406Z" fill="#32235C"/>
<path d="M287.786 313.246L292.655 312.001L290.013 309.805L285.266 311.04L287.786 313.246Z" fill="#32235C"/>
<path d="M292.299 333.805L286.812 335.283L288.948 337.155L294.293 335.546L292.299 333.805Z" fill="#32235C"/>
<path d="M285.643 335.609L280.156 337.087L282.474 339.122L287.819 337.502L285.643 335.609Z" fill="#32235C"/>
<path d="M249.297 340.852L252.435 343.545L258.083 342.016L255.036 339.344L249.297 340.852Z" fill="#32235C"/>
<path d="M243.763 321.852L238.227 323.289L240.555 325.324L246.112 323.906L243.763 321.852Z" fill="#32235C"/>
<path d="M234.281 327.976L236.984 330.294L242.956 328.776L240.284 326.438L234.281 327.976Z" fill="#32235C"/>
<path d="M274.855 341.428L272.314 339.211L266.828 340.689L269.511 343.047L274.855 341.428Z" fill="#32235C"/>
<path d="M245.992 338.017L248.371 340.052L254.12 338.544L251.752 336.469L245.992 338.017Z" fill="#32235C"/>
<path d="M241.578 334.227L245.06 337.213L250.83 335.654L247.469 332.719L241.578 334.227Z" fill="#32235C"/>
<path d="M237.922 331.104L240.635 333.422L246.546 331.914L243.874 329.586L237.922 331.104Z" fill="#32235C"/>
<path d="M271.049 299.296L251.695 353.117L326.094 330.342L349.791 278.313C350.631 276.46 348.94 274.466 346.977 275.003L276.424 294.326C273.934 295.005 271.94 296.857 271.059 299.286L271.049 299.296Z" fill="#DFFD62" stroke="#32235C" stroke-width="1.01223" stroke-linecap="round" stroke-linejoin="round"/>
<path d="M309.935 309.269C310.907 311.587 309.186 314.522 306.099 315.818C303.002 317.114 299.712 316.284 298.74 313.966C297.768 311.648 299.489 308.712 302.577 307.416C305.674 306.121 308.964 306.951 309.935 309.269Z" fill="#32235C"/>
<path d="M152.993 207.362L81.125 223.051C81.125 223.051 84.6678 279.736 90.7412 303.018C90.7412 303.018 97.0676 325.428 100.671 332.382L168.44 314.597C168.44 314.597 158.561 288.33 152.993 207.352V207.362Z" fill="#32235C" stroke="#32235C" stroke-width="1.01223" stroke-linecap="round" stroke-linejoin="round"/>
<path d="M203.513 215.493C197.936 210.503 191.184 211.677 184.433 209.035C179.149 206.971 172.438 205.26 169.755 204.612C169.006 204.43 168.581 204.339 168.581 204.339C168.581 204.339 165.646 198.174 160.362 199.055C155.078 199.935 133.062 214.906 131.301 219.016C129.539 223.126 129.539 262.167 129.833 275.681C130.035 284.872 131.868 292.16 135.238 297.17L129.894 324.946L204.698 305.035C204.698 305.035 199.596 302.394 199.414 287.423C199.383 284.528 200.588 276.855 202.056 268.049C203.523 259.242 202.936 250.436 202.936 250.436C202.936 250.436 206.459 251.61 210.569 253.665C214.678 255.72 239.043 265.7 239.043 265.7L246.088 252.784C246.088 252.784 209.101 220.494 203.523 215.504L203.513 215.493Z" fill="#DFFD62" stroke="#32235C" stroke-width="1.01223" stroke-linecap="round" stroke-linejoin="round"/>
<path d="M18.5391 353.969L359.489 265.055" stroke="#32235C" stroke-width="1.01223" stroke-linecap="round" stroke-linejoin="round"/>
<path d="M136.516 272.891C136.516 272.891 143.308 256.918 146.496 243.344" stroke="#32235C" stroke-width="1.01223" stroke-linecap="round" stroke-linejoin="round"/>
<path d="M134.117 277.673C134.117 277.673 146.497 265.294 150.09 252.914" stroke="#32235C" stroke-width="1.01223" stroke-linecap="round" stroke-linejoin="round"/>
<path d="M169.633 289.266C169.633 289.266 181.719 282.96 186.972 277.18" stroke="#32235C" stroke-width="1.01223" stroke-linecap="round" stroke-linejoin="round"/>
<path d="M148.25 217.484C148.25 217.484 148.918 217.545 151.266 222.242C153.615 226.939 156.55 234.571 156.55 234.571L161.834 229.287L166.824 236.039" stroke="#32235C" stroke-width="1.01223" stroke-linecap="round" stroke-linejoin="round"/>
<path d="M179.604 211.211C179.604 211.211 181.79 213.731 183.552 219.309C185.313 224.886 185.313 226.06 185.313 226.06L178.268 224.593L177.094 234.573" stroke="#32235C" stroke-width="1.01223" stroke-linecap="round" stroke-linejoin="round"/>
<path d="M201.758 233.4L202.932 250.436L205.574 228.703" stroke="#32235C" stroke-width="1.01223" stroke-linecap="round" stroke-linejoin="round"/>
<path d="M172.855 198.849L170.668 206.714C170.668 206.714 173.746 212.585 175.122 220.187C176.914 230.046 175.031 249.511 175.031 249.511C175.031 249.511 166.731 231.17 161.933 222.434C157.125 213.699 155.384 209.336 154.948 204.963C154.513 200.6 157.57 189.243 158.441 187.927C159.311 186.611 172.855 198.849 172.855 198.849Z" fill="white" stroke="#32235C" stroke-width="1.01223" stroke-linecap="round" stroke-linejoin="round"/>
<path d="M189.447 129.843C189.447 129.843 174.598 115.864 153.634 123.729C132.671 131.594 132.236 156.049 132.236 170.018C132.236 183.987 126.426 206.873 115.504 217.35C104.582 227.837 100.35 239.022 102.972 250.814C105.594 262.607 116.516 269.591 124.371 268.721C132.236 267.85 127.428 232.908 135.293 225.924C143.158 218.939 153.199 212.825 159.748 193.168C159.748 193.168 165.427 186.619 167.168 177.013C168.919 167.407 175.468 152.122 182.452 150.806C189.437 149.49 191.623 170.463 189.002 178.318C186.38 186.183 173.282 195.354 172.846 198.846C172.411 202.339 170.66 206.711 170.66 206.711C170.66 206.711 178.262 211.398 191.623 212.825C195.095 213.2 197.302 212.825 197.302 212.825C197.302 212.825 200.42 210.143 209.175 195.729C217.779 181.558 209.671 146.332 200.065 138.032C190.459 129.731 189.447 129.853 189.447 129.853V129.843Z" fill="#32235C" stroke="#32235C" stroke-width="1.01223" stroke-linecap="round" stroke-linejoin="round"/>
<path d="M118.18 221.68C115.578 223.127 113.797 223.826 113.797 223.826" stroke="white" stroke-width="1.01223" stroke-linecap="round" stroke-linejoin="round"/>
<path d="M114.465 218.648C114.465 218.648 102.267 225.41 102.682 243.58C102.956 255.635 111.003 263.531 111.003 263.531" stroke="white" stroke-width="1.01223" stroke-linecap="round" stroke-linejoin="round"/>
<path d="M147.513 153.75C142.887 171.727 140.964 194.654 134.617 206.082C131.682 211.366 127.421 215.385 123.523 218.259" stroke="white" stroke-width="1.01223" stroke-linecap="round" stroke-linejoin="round"/>
<path d="M191.287 143.95C191.287 143.95 192.309 138.484 185.821 133.028C179.656 127.835 156.517 130.973 149.562 147.138" stroke="white" stroke-width="1.01223" stroke-linecap="round" stroke-linejoin="round"/>
<path d="M173.409 123.846C169.239 122.389 163.834 121.761 157.841 124.16C144.186 129.626 137.02 140.882 135.653 153.171C134.287 165.459 135.997 184.57 130.531 196.525" stroke="white" stroke-width="1.01223" stroke-linecap="round" stroke-linejoin="round"/>
<path d="M182.07 128.937C182.07 128.937 180.805 127.713 178.578 126.336" stroke="white" stroke-width="1.01223" stroke-linecap="round" stroke-linejoin="round"/>
<path d="M209.039 192.423C209.393 190.662 209.636 188.951 209.778 187.281" stroke="white" stroke-width="1.01223" stroke-linecap="round" stroke-linejoin="round"/>
<path d="M209.919 182.533C209.402 161.347 193.328 148.391 193.328 148.391" stroke="white" stroke-width="1.01223" stroke-linecap="round" stroke-linejoin="round"/>
<path d="M190.77 146.876C190.77 146.876 198.19 163.031 194.698 175.704C191.206 188.367 183.776 198.854 178.543 201.476C173.299 204.097 159.766 193.175 159.766 193.175C159.766 193.175 164.128 183.569 164.128 173.518C164.128 163.467 167.621 151.249 175.486 147.311C183.351 143.384 190.77 146.876 190.77 146.876Z" fill="white" stroke="#32235C" stroke-width="1.01223" stroke-linecap="round" stroke-linejoin="round"/>
<path d="M181.84 172.414C181.84 172.414 181.405 175.663 182.245 177.981C183.085 180.299 185.191 181.767 183.51 182.192C181.83 182.617 178.672 182.405 178.672 182.405" stroke="#32235C" stroke-width="1.01223" stroke-linecap="round" stroke-linejoin="round"/>
<path d="M176.07 189.086C176.07 189.086 178.054 190.402 181.02 189.916" stroke="#32235C" stroke-width="1.01223" stroke-linecap="round" stroke-linejoin="round"/>
<path d="M174.675 172.504C174.675 173.668 174.159 174.609 173.521 174.609C172.883 174.609 172.367 173.668 172.367 172.504C172.367 171.34 172.883 170.398 173.521 170.398C174.159 170.398 174.675 171.34 174.675 172.504Z" fill="#32235C"/>
<path d="M189.128 171.848C189.128 173.012 188.612 173.953 187.974 173.953C187.337 173.953 186.82 173.012 186.82 171.848C186.82 170.684 187.337 169.742 187.974 169.742C188.612 169.742 189.128 170.684 189.128 171.848Z" fill="#32235C"/>
<path d="M192.356 165.663C191.992 165.764 191.587 165.653 191.324 165.349C190.524 164.418 189.714 163.972 188.925 164.013C187.467 164.094 186.303 165.734 186.293 165.754C185.979 166.22 185.352 166.331 184.886 166.017C184.42 165.703 184.309 165.076 184.623 164.61C184.694 164.509 186.354 162.13 188.813 161.999C190.261 161.918 191.627 162.606 192.852 164.033C193.217 164.458 193.166 165.096 192.751 165.46C192.63 165.562 192.498 165.632 192.356 165.673V165.663Z" fill="#32235C"/>
<path d="M176.638 166.363C176.375 166.363 176.102 166.282 175.879 166.1C172.296 163.265 169.451 165.715 169.33 165.826C168.854 166.251 168.105 166.231 167.66 165.776C167.214 165.32 167.245 164.612 167.72 164.186C169.259 162.82 173.257 161.109 177.387 164.379C177.893 164.773 177.954 165.482 177.539 165.958C177.306 166.221 176.972 166.363 176.628 166.363H176.638Z" fill="#32235C"/>
<path d="M179.034 173.056C179.034 176.599 176.159 179.463 172.626 179.463C169.093 179.463 166.219 176.589 166.219 173.056C166.219 169.523 169.093 166.648 172.626 166.648C176.159 166.648 179.034 169.523 179.034 173.056Z" stroke="#32235C" stroke-width="1.01223" stroke-linecap="round" stroke-linejoin="round"/>
<path d="M166.325 173.744L164.352 172.914" stroke="#32235C" stroke-width="1.01223" stroke-linecap="round" stroke-linejoin="round"/>
<path d="M195.424 171.907C195.424 175.45 192.549 178.315 189.017 178.315C185.484 178.315 182.609 175.44 182.609 171.907C182.609 168.375 185.484 165.5 189.017 165.5C192.549 165.5 195.424 168.375 195.424 171.907Z" stroke="#32235C" stroke-width="1.01223" stroke-linecap="round" stroke-linejoin="round"/>
<path d="M179.039 173.051C179.039 173.051 181.023 170.601 182.673 173.415" stroke="#32235C" stroke-width="1.01223" stroke-linecap="round" stroke-linejoin="round"/>
<path d="M134.877 295.825C134.877 295.825 137.296 276.562 138.319 264.547C139.341 252.532 140.424 225.546 133.257 222.54C126.091 219.533 118.155 221.74 114.41 240.426C110.654 259.112 110.32 301.494 110.32 301.494L134.877 295.825Z" fill="#DFFD62" stroke="#32235C" stroke-width="1.01223" stroke-linecap="round" stroke-linejoin="round"/>
<path d="M138.843 306.164C138.843 306.164 172.429 330.387 175.658 330.387C178.887 330.387 189.748 326.571 194.151 327.745C198.554 328.919 203.251 338.019 204.132 338.606C205.012 339.193 206.48 340.954 205.012 341.835C203.545 342.716 194.738 338.9 193.27 338.9C191.803 338.9 190.922 338.313 190.922 338.313L187.106 337.432C187.106 337.432 197.674 342.716 198.554 343.009C199.435 343.303 198.848 344.477 195.912 344.477C192.977 344.477 189.454 342.716 187.399 342.129C185.345 341.542 184.758 340.954 180.648 340.954C176.538 340.954 168.906 336.845 168.906 336.845C168.906 336.845 135.472 326.216 127.84 323.868C120.208 321.52 113.547 315.426 113.254 314.545C112.96 313.665 130.917 306.468 138.843 306.174V306.164Z" fill="white" stroke="#32235C" stroke-width="1.01223" stroke-linecap="round" stroke-linejoin="round"/>
<path d="M189.547 332.703C189.547 332.703 200.783 336.357 204.133 338.594" stroke="#32235C" stroke-width="1.01223" stroke-linecap="round" stroke-linejoin="round"/>
<path d="M190.984 329.594C190.984 329.594 197.442 330.312 200.307 332.944" stroke="#32235C" stroke-width="1.01223" stroke-linecap="round" stroke-linejoin="round"/>
<path d="M133.508 289.278C133.508 289.278 113.122 293.216 110.186 295.271C107.251 297.326 107.888 300.879 108.769 302.933C109.65 304.988 109.65 315.262 112.879 317.611C113.942 318.38 134.014 311.446 137.83 310.566C141.646 309.685 142.314 304.249 140.847 298.965C139.379 293.682 139.379 286.049 133.508 289.278Z" fill="#DFFD62" stroke="#32235C" stroke-width="1.01223" stroke-linecap="round" stroke-linejoin="round"/>
<path d="M228.475 243.099C228.475 243.099 222.604 252.492 222.31 257.482C222.017 262.473 223.191 262.766 225.246 264.234C227.301 265.702 236.694 269.811 242.859 270.399C249.023 270.986 254.894 258.07 255.188 253.96C255.481 249.85 246.381 243.392 239.923 240.75C233.465 238.108 228.768 240.75 228.475 243.099Z" fill="#DFFD62" stroke="#32235C" stroke-width="1.01223" stroke-linecap="round" stroke-linejoin="round"/>
<path d="M217.313 217.555C217.313 217.555 254.887 249.258 258.997 256.009C263.106 262.761 256.061 268.632 250.777 268.925C245.493 269.219 241.384 263.642 236.1 257.771C230.816 251.9 211.148 221.077 211.148 221.077L217.313 217.555Z" fill="white" stroke="#32235C" stroke-width="1.01223" stroke-linecap="round" stroke-linejoin="round"/>
<path d="M211.443 203.761C211.443 203.761 206.453 218.438 206.453 220.787C206.453 223.135 209.682 224.603 212.618 224.603C215.553 224.603 218.195 220.493 219.956 215.503C221.718 210.512 223.772 204.348 221.718 202.88C219.663 201.413 212.031 202.587 211.443 203.761Z" fill="white" stroke="#32235C" stroke-width="1.01223" stroke-linecap="round" stroke-linejoin="round"/>
<path d="M210.266 208.164L221.714 209.338" stroke="#32235C" stroke-width="1.01223" stroke-linecap="round" stroke-linejoin="round"/>
<path d="M209.094 213.742L219.955 215.503" stroke="#32235C" stroke-width="1.01223" stroke-linecap="round" stroke-linejoin="round"/>
<path d="M207.336 217.852L217.317 220.2" stroke="#32235C" stroke-width="1.01223" stroke-linecap="round" stroke-linejoin="round"/>
<path d="M216.971 199.153C216.313 199.133 215.665 199.062 215.017 198.941C212.719 198.495 207.537 197.746 207.324 199.842C207.051 202.544 207.324 204.569 209.247 204.569H217.75C220.22 204.569 221.04 202.878 220.493 200.854C220.109 199.447 218.145 199.184 216.971 199.143V199.153Z" fill="white" stroke="#32235C" stroke-width="1.01223" stroke-linecap="round" stroke-linejoin="round"/>
<path d="M170.674 206.711C170.674 206.711 170.38 211.246 170.714 214.282" stroke="#32235C" stroke-width="1.01223" stroke-miterlimit="10"/>
<path d="M202.894 220.556H193.835C191.092 220.556 188.764 218.542 188.369 215.829L186.273 195.453H210.446L208.35 215.829C207.955 218.542 205.627 220.556 202.884 220.556H202.894Z" fill="white" stroke="#32235C" stroke-width="1.01223" stroke-linecap="round" stroke-linejoin="round"/>
<path opacity="0.37" d="M198.893 194.997C198.64 193.762 197.324 192.365 196.008 190.604C193.609 187.405 232.742 189.409 237.53 187.81C242.317 186.211 236.335 186.211 235.535 182.617C234.736 179.024 245.121 183.012 255.497 182.222C265.882 181.423 262.289 178.629 249.109 175.835C235.93 173.041 222.356 177.03 227.144 181.423C231.932 185.816 224.745 184.217 208.772 184.217C192.799 184.217 191.999 187.01 190.4 192.598C190.127 193.57 189.631 194.349 189.023 194.997H198.872H198.893Z" fill="white"/>
</g>
<defs>
<clipPath id="clip0_15342_186187">
<rect width="360" height="370.072" fill="white"/>
</clipPath>
</defs>
</svg>
