<svg width="231" height="232" viewBox="0 0 231 232" fill="none" xmlns="http://www.w3.org/2000/svg">
<g filter="url(#filter0_d_451_826)">
<circle cx="115.5" cy="116.431" r="92.5" fill="white" fill-opacity="0.56" shape-rendering="crispEdges"/>
</g>
<circle cx="115.5" cy="116.431" r="115.5" fill="white" fill-opacity="0.56"/>
<rect x="43.5" y="43.9307" width="144" height="144" rx="72" fill="url(#paint0_linear_451_826)"/>
<path d="M115.291 147.93C123.861 147.93 130.808 140.983 130.808 132.414C130.808 123.844 123.861 116.897 115.291 116.897C106.721 116.897 99.7742 123.844 99.7742 132.414C99.7742 140.983 106.721 147.93 115.291 147.93Z" fill="#6E22BF"/>
<path d="M94.4453 118.517C103.015 118.517 109.962 111.57 109.962 103C109.962 94.4305 103.015 87.4834 94.4453 87.4834C85.8757 87.4834 78.9286 94.4305 78.9286 103C78.9286 111.57 85.8757 118.517 94.4453 118.517Z" fill="#8F2CF8"/>
<path d="M152.071 103C152.071 111.568 145.123 118.517 136.555 118.517C127.987 118.517 121.038 111.568 121.038 103C121.038 94.432 127.987 87.4834 136.555 87.4834C145.123 87.4834 152.071 94.432 152.071 103Z" fill="#8F2CF8"/>
<path d="M115.291 83.9307V95.6335C115.291 107.389 105.783 116.897 94.0274 116.897" stroke="#8F2CF8" stroke-width="3.18694" stroke-miterlimit="10"/>
<path d="M115.291 83.9307C115.291 95.3201 115.291 91.1927 115.291 95.6335C115.291 107.389 124.8 116.897 136.555 116.897" stroke="#8F2CF8" stroke-width="3.18694" stroke-miterlimit="10"/>
<defs>
<filter id="filter0_d_451_826" x="19" y="23.9307" width="193" height="193" filterUnits="userSpaceOnUse" color-interpolation-filters="sRGB">
<feFlood flood-opacity="0" result="BackgroundImageFix"/>
<feColorMatrix in="SourceAlpha" type="matrix" values="0 0 0 0 0 0 0 0 0 0 0 0 0 0 0 0 0 0 127 0" result="hardAlpha"/>
<feOffset dy="4"/>
<feGaussianBlur stdDeviation="2"/>
<feComposite in2="hardAlpha" operator="out"/>
<feColorMatrix type="matrix" values="0 0 0 0 0.431373 0 0 0 0 0.133333 0 0 0 0 0.74902 0 0 0 0.08 0"/>
<feBlend mode="normal" in2="BackgroundImageFix" result="effect1_dropShadow_451_826"/>
<feBlend mode="normal" in="SourceGraphic" in2="effect1_dropShadow_451_826" result="shape"/>
</filter>
<linearGradient id="paint0_linear_451_826" x1="115.5" y1="43.9307" x2="115.5" y2="187.931" gradientUnits="userSpaceOnUse">
<stop stop-color="#F9FBFF"/>
<stop offset="0.67882" stop-color="#F4F8FF"/>
<stop offset="1" stop-color="#F2F7FF"/>
</linearGradient>
</defs>
</svg>
