<svg width="177" height="32" viewBox="0 0 177 32" fill="none" xmlns="http://www.w3.org/2000/svg">
<g clip-path="url(#clip0_1_6)">
<path d="M47.8041 24.738C46.6286 24.738 45.5837 24.4768 44.6956 23.9543C43.8074 23.4319 43.1282 22.7004 42.6319 21.7339C42.1356 20.7674 41.9005 19.618 41.9005 18.2857V7.41879H46.498V17.5021C46.498 18.5731 46.7853 19.3829 47.3339 20.0098C47.8825 20.6368 48.64 20.9241 49.6066 20.9241C50.2596 20.9241 50.8343 20.7935 51.3307 20.5061C51.827 20.2188 52.2188 19.827 52.5062 19.2784C52.7935 18.7298 52.9241 18.1029 52.9241 17.3453V7.44492H57.5217V24.5551H53.1853L53.1331 20.2972H53.3943C52.9502 21.7339 52.2711 22.831 51.3307 23.6147C50.3902 24.3984 49.2409 24.7902 47.8302 24.7902L47.8041 24.738Z" fill="#320B54"/>
<path d="M66.2466 24.529L59.9511 7.41879H64.836L67.7095 16.3004C68.0491 17.4237 68.3625 18.547 68.6238 19.6702C68.885 20.7935 69.1462 21.969 69.4336 23.1968H68.4409C68.7021 21.9951 68.9634 20.8196 69.2246 19.6702C69.4858 18.5208 69.7732 17.4237 70.1389 16.3004L72.9862 7.41879H77.8189L71.4972 24.529H66.2727H66.2466Z" fill="#320B54"/>
<path d="M84.6891 24.8686C83.6181 24.8686 82.6254 24.6857 81.7634 24.2939C80.9013 23.9021 80.2221 23.3274 79.7258 22.5698C79.2295 21.8123 78.9944 20.8718 78.9944 19.7225C78.9944 18.7821 79.1772 17.9723 79.5168 17.3453C79.8564 16.7184 80.3528 16.1959 80.9536 15.8041C81.5544 15.4123 82.2597 15.1249 83.0172 14.9159C83.7748 14.707 84.5846 14.5763 85.4466 14.498C86.4393 14.3935 87.223 14.289 87.8499 14.2106C88.4768 14.1323 88.8948 13.9755 89.1821 13.7927C89.4695 13.6098 89.6001 13.3225 89.6001 12.9567V12.8784C89.6001 12.3821 89.4956 11.9641 89.2866 11.6506C89.0777 11.3372 88.7903 11.0498 88.3723 10.867C87.9544 10.6841 87.4842 10.6057 86.9095 10.6057C86.3348 10.6057 85.8123 10.6841 85.3683 10.867C84.9242 11.0498 84.5846 11.2849 84.2972 11.5723C84.0099 11.8596 83.827 12.1992 83.6964 12.5649L79.4907 11.8857C79.7781 10.8931 80.2744 10.031 80.9536 9.35185C81.6328 8.67267 82.4948 8.12409 83.5136 7.75838C84.5323 7.39267 85.6817 7.20981 86.9617 7.20981C87.876 7.20981 88.7642 7.3143 89.6523 7.5494C90.5405 7.7845 91.2981 8.09797 91.9772 8.56818C92.6564 9.03838 93.205 9.6392 93.623 10.3706C94.0409 11.1021 94.2238 11.9902 94.2238 13.0351V24.5551H89.8874V22.178H89.7307C89.4434 22.7004 89.0777 23.1706 88.6336 23.5886C88.1895 24.0065 87.6148 24.32 86.9617 24.5551C86.3087 24.7902 85.5772 24.8947 84.7152 24.8947L84.6891 24.8686ZM85.9952 21.6294C86.7266 21.6294 87.3536 21.4988 87.9021 21.2114C88.4507 20.9241 88.8687 20.5323 89.1821 20.0359C89.4956 19.5396 89.6523 18.991 89.6523 18.3902V16.5355C89.5217 16.64 89.3128 16.7184 89.0515 16.8229C88.7903 16.9274 88.4768 16.9796 88.1372 17.0318C87.7977 17.0841 87.4581 17.1363 87.1446 17.1886C86.8311 17.2408 86.5176 17.2931 86.2825 17.3192C85.734 17.3976 85.2376 17.5282 84.7936 17.711C84.3495 17.8939 84.036 18.129 83.8009 18.4425C83.5658 18.7559 83.4613 19.1216 83.4613 19.5918C83.4613 20.0359 83.5658 20.4016 83.8009 20.689C84.036 20.9763 84.3234 21.2114 84.7152 21.3682C85.107 21.5249 85.5511 21.6033 86.0474 21.6033L85.9952 21.6294Z" fill="#320B54"/>
<path d="M104.908 24.8686C103.523 24.8686 102.322 24.6596 101.251 24.2678C100.18 23.8759 99.3176 23.3012 98.6384 22.5437C97.9592 21.7861 97.5413 20.898 97.3323 19.827L101.59 19.0955C101.825 19.8792 102.217 20.48 102.766 20.898C103.314 21.3159 104.072 21.4988 105.012 21.4988C105.9 21.4988 106.58 21.3421 107.076 21.0025C107.572 20.6629 107.834 20.2449 107.834 19.7486C107.834 19.3045 107.651 18.9388 107.285 18.6514C106.919 18.3641 106.371 18.1551 105.613 17.9984L102.661 17.3976C101.016 17.058 99.7617 16.4833 98.9519 15.6735C98.1421 14.8637 97.7241 13.8188 97.7241 12.5388C97.7241 11.4416 98.0376 10.5012 98.6384 9.69144C99.2392 8.88165 100.075 8.28083 101.146 7.86287C102.217 7.44491 103.471 7.20981 104.934 7.20981C106.292 7.20981 107.442 7.39267 108.434 7.75838C109.427 8.12409 110.237 8.64654 110.838 9.35185C111.438 10.0572 111.856 10.8408 112.065 11.7812L107.99 12.5127C107.807 11.938 107.494 11.4416 106.998 11.0759C106.501 10.7102 105.848 10.5274 105.012 10.5274C104.255 10.5274 103.628 10.6841 103.105 10.9976C102.583 11.311 102.348 11.729 102.348 12.2776C102.348 12.6955 102.505 13.0612 102.844 13.3747C103.184 13.6882 103.732 13.8972 104.542 14.0539L107.625 14.6547C109.27 14.9943 110.498 15.5429 111.308 16.3004C112.118 17.058 112.509 18.0506 112.509 19.2784C112.509 20.4016 112.196 21.3943 111.517 22.2302C110.838 23.0661 109.976 23.7192 108.826 24.1894C107.677 24.6596 106.345 24.8947 104.856 24.8947L104.908 24.8686Z" fill="#320B54"/>
<path d="M119.223 24.529L114.181 7.41879H119.014L120.503 13.7404C120.764 14.8637 121.025 16.1176 121.339 17.4498C121.652 18.7821 121.914 20.2449 122.149 21.8645H121.626C121.887 20.2972 122.175 18.8343 122.488 17.5021C122.802 16.1698 123.089 14.9159 123.376 13.7665L124.944 7.44492H129.176L130.717 13.7665C130.978 14.9159 131.265 16.1698 131.579 17.5021C131.892 18.8343 132.18 20.2972 132.467 21.8906H131.945C132.18 20.2972 132.441 18.8604 132.728 17.5282C133.016 16.1959 133.277 14.9421 133.538 13.7927L135.027 7.47104H139.912L134.818 24.5812H130.142L128.235 17.9723C128.052 17.3192 127.87 16.5878 127.687 15.778C127.504 14.9682 127.321 14.1584 127.138 13.3225C126.955 12.4865 126.798 11.7029 126.589 10.9976H127.399C127.216 11.729 127.06 12.5127 126.877 13.3225C126.694 14.1323 126.511 14.9682 126.328 15.778C126.145 16.5878 125.963 17.3192 125.78 17.9723L123.873 24.5812H119.197L119.223 24.529Z" fill="#320B54"/>
<path d="M147.017 24.8686C145.946 24.8686 144.954 24.6857 144.091 24.2939C143.229 23.9021 142.55 23.3274 142.054 22.5698C141.558 21.8123 141.323 20.8718 141.323 19.7225C141.323 18.7821 141.505 17.9723 141.845 17.3453C142.185 16.7184 142.681 16.1959 143.282 15.8041C143.883 15.4123 144.588 15.1249 145.345 14.9159C146.103 14.707 146.913 14.5763 147.775 14.498C148.767 14.3935 149.551 14.289 150.178 14.2106C150.805 14.1323 151.223 13.9755 151.51 13.7927C151.798 13.6098 151.928 13.3225 151.928 12.9567V12.8784C151.928 12.3821 151.824 11.9641 151.615 11.6506C151.406 11.3372 151.118 11.0498 150.7 10.867C150.283 10.6841 149.812 10.6057 149.238 10.6057C148.663 10.6057 148.14 10.6841 147.696 10.867C147.252 11.0498 146.913 11.2849 146.625 11.5723C146.338 11.8596 146.155 12.1992 146.025 12.5649L141.819 11.8857C142.106 10.8931 142.603 10.031 143.282 9.35185C143.961 8.67267 144.823 8.12409 145.842 7.75838C146.86 7.39267 148.01 7.20981 149.29 7.20981C150.204 7.20981 151.092 7.3143 151.98 7.5494C152.869 7.7845 153.626 8.09797 154.305 8.56818C154.985 9.03838 155.533 9.6392 155.951 10.3706C156.369 11.1021 156.552 11.9902 156.552 13.0351V24.5551H152.216V22.178H152.059C151.771 22.7004 151.406 23.1706 150.962 23.5886C150.518 24.0065 149.943 24.32 149.29 24.5551C148.637 24.7902 147.905 24.8947 147.043 24.8947L147.017 24.8686ZM148.323 21.6294C149.055 21.6294 149.682 21.4988 150.23 21.2114C150.779 20.9241 151.197 20.5323 151.51 20.0359C151.824 19.5396 151.98 18.991 151.98 18.3902V16.5355C151.85 16.64 151.641 16.7184 151.38 16.8229C151.118 16.9274 150.805 16.9796 150.465 17.0318C150.126 17.0841 149.786 17.1363 149.473 17.1886C149.159 17.2408 148.846 17.2931 148.611 17.3192C148.062 17.3976 147.566 17.5282 147.122 17.711C146.678 17.8939 146.364 18.129 146.129 18.4425C145.894 18.7559 145.789 19.1216 145.789 19.5918C145.789 20.0359 145.894 20.4016 146.129 20.689C146.364 20.9763 146.651 21.2114 147.043 21.3682C147.435 21.5249 147.879 21.6033 148.376 21.6033L148.323 21.6294Z" fill="#320B54"/>
<path d="M160.444 30.929V7.41879H164.963V10.2923H165.172C165.381 9.84818 165.695 9.37797 166.087 8.90777C166.478 8.43756 167.001 8.0196 167.628 7.70614C168.255 7.39267 169.065 7.20981 170.057 7.20981C171.311 7.20981 172.487 7.52328 173.532 8.20246C174.576 8.88165 175.412 9.82205 176.039 11.1282C176.666 12.4343 176.98 14.0539 176.98 16.0131C176.98 17.9723 176.666 19.5135 176.065 20.8196C175.465 22.1257 174.629 23.1184 173.558 23.7976C172.487 24.4767 171.311 24.8163 170.005 24.8163C169.065 24.8163 168.281 24.6596 167.654 24.3461C167.027 24.0327 166.478 23.6408 166.087 23.1706C165.695 22.7004 165.381 22.2563 165.172 21.7861H165.042V30.929H160.444ZM168.62 21.1331C169.404 21.1331 170.083 20.9241 170.632 20.48C171.18 20.0359 171.598 19.4351 171.86 18.6514C172.121 17.8678 172.278 16.9796 172.278 15.987C172.278 14.9943 172.147 14.1061 171.86 13.3486C171.572 12.591 171.18 11.9902 170.632 11.5461C170.083 11.1021 169.43 10.8931 168.62 10.8931C167.811 10.8931 167.158 11.1021 166.609 11.52C166.06 11.938 165.643 12.5388 165.355 13.2963C165.068 14.0539 164.937 14.9682 164.937 15.987C164.937 17.0057 165.094 17.92 165.381 18.6776C165.669 19.4351 166.087 20.0359 166.635 20.48C167.184 20.9241 167.837 21.1331 168.62 21.1331Z" fill="#320B54"/>
<path d="M18.1812 32C22.466 32 25.9396 28.5265 25.9396 24.2416C25.9396 19.9568 22.466 16.4833 18.1812 16.4833C13.8964 16.4833 10.4229 19.9568 10.4229 24.2416C10.4229 28.5265 13.8964 32 18.1812 32Z" fill="#6E22BF"/>
<path d="M7.75837 17.2931C12.0432 17.2931 15.5167 13.8195 15.5167 9.53469C15.5167 5.24986 12.0432 1.77632 7.75837 1.77632C3.47354 1.77632 0 5.24986 0 9.53469C0 13.8195 3.47354 17.2931 7.75837 17.2931Z" fill="#8F2CF8"/>
<path d="M36.5714 9.53469C36.5714 13.8188 33.0971 17.2931 28.8131 17.2931C24.529 17.2931 21.0547 13.8188 21.0547 9.53469C21.0547 5.25061 24.529 1.77632 28.8131 1.77632C33.0971 1.77632 36.5714 5.25061 36.5714 9.53469Z" fill="#8F2CF8"/>
<path d="M18.1813 0V5.85143C18.1813 11.729 13.427 16.4833 7.54944 16.4833" stroke="#8F2CF8" stroke-width="1.59347" stroke-miterlimit="10"/>
<path d="M18.1812 0C18.1812 5.69469 18.1812 3.63102 18.1812 5.85143C18.1812 11.729 22.9355 16.4833 28.813 16.4833" stroke="#8F2CF8" stroke-width="1.59347" stroke-miterlimit="10"/>
</g>
<defs>
<clipPath id="clip0_1_6">
<rect width="176.98" height="32" fill="white"/>
</clipPath>
</defs>
</svg>
