<svg width="76" height="76" viewBox="0 0 76 76" fill="none" xmlns="http://www.w3.org/2000/svg">
<path d="M37.791 70C46.3606 70 53.3077 63.0529 53.3077 54.4833C53.3077 45.9136 46.3606 38.9666 37.791 38.9666C29.2213 38.9666 22.2743 45.9136 22.2743 54.4833C22.2743 63.0529 29.2213 70 37.791 70Z" fill="#6E22BF"/>
<path d="M16.9453 40.5864C25.515 40.5864 32.462 33.6394 32.462 25.0697C32.462 16.5001 25.515 9.55298 16.9453 9.55298C8.37566 9.55298 1.42858 16.5001 1.42858 25.0697C1.42858 33.6394 8.37566 40.5864 16.9453 40.5864Z" fill="#8F2CF8"/>
<path d="M74.5714 25.0697C74.5714 33.6379 67.6229 40.5864 59.0547 40.5864C50.4865 40.5864 43.538 33.6379 43.538 25.0697C43.538 16.5016 50.4865 9.55298 59.0547 9.55298C67.6229 9.55298 74.5714 16.5016 74.5714 25.0697Z" fill="#8F2CF8"/>
<path d="M37.7911 6.00024V17.7031C37.7911 29.4582 28.2825 38.9668 16.5274 38.9668" stroke="#8F2CF8" stroke-width="3.18694" stroke-miterlimit="10"/>
<path d="M37.791 6.00024C37.791 17.3896 37.791 13.2623 37.791 17.7031C37.791 29.4582 47.2996 38.9668 59.0547 38.9668" stroke="#8F2CF8" stroke-width="3.18694" stroke-miterlimit="10"/>
</svg>
